<?xml version="1.0" encoding="UTF-8"?>
<!-- Generated by SVGo -->
<svg width="160.851mm" height="163.198mm" viewBox="0.000 0.000 160.851 163.198" xmlns="http://www.w3.org/2000/svg" xmlns:xlink="http://www.w3.org/1999/xlink">
<polygon points="155.850,158.198 8.212,158.198 8.212,5.001 155.850,5.001" style="fill:none;stroke-width:0.050000mm;stroke:black"/>
<polygon points="8.356,142.152 14.273,154.841 26.961,148.924 21.045,136.236" style="fill:none;stroke-width:0.050000mm;stroke:black"/>
<polygon points="26.983,131.615 36.882,141.515 46.782,131.615 36.882,121.716" style="fill:none;stroke-width:0.050000mm;stroke:black"/>
<polygon points="41.956,116.585 54.644,122.502 60.561,109.814 47.873,103.897" style="fill:none;stroke-width:0.050000mm;stroke:black"/>
<polygon points="67.887,102.775 67.887,116.775 81.887,116.775 81.887,102.775" style="fill:none;stroke-width:0.050000mm;stroke:black"/>
<polygon points="86.937,102.775 86.937,116.775 100.937,116.775 100.937,102.775" style="fill:none;stroke-width:0.050000mm;stroke:black"/>
<polygon points="105.987,102.775 105.987,116.775 119.987,116.775 119.987,102.775" style="fill:none;stroke-width:0.050000mm;stroke:black"/>
<polygon points="125.037,102.775 125.037,116.775 139.037,116.775 139.037,102.775" style="fill:none;stroke-width:0.050000mm;stroke:black"/>
<polygon points="53.599,83.726 53.599,97.726 67.599,97.726 67.599,83.726" style="fill:none;stroke-width:0.050000mm;stroke:black"/>
<polygon points="72.649,83.726 72.649,97.726 86.649,97.726 86.649,83.726" style="fill:none;stroke-width:0.050000mm;stroke:black"/>
<polygon points="91.699,83.726 91.699,97.726 105.699,97.726 105.699,83.726" style="fill:none;stroke-width:0.050000mm;stroke:black"/>
<polygon points="110.749,83.726 110.749,97.726 124.749,97.726 124.749,83.726" style="fill:none;stroke-width:0.050000mm;stroke:black"/>
<polygon points="129.799,83.726 129.799,97.726 143.799,97.726 143.799,83.726" style="fill:none;stroke-width:0.050000mm;stroke:black"/>
<polygon points="63.124,64.676 63.124,78.676 77.124,78.676 77.124,64.676" style="fill:none;stroke-width:0.050000mm;stroke:black"/>
<polygon points="82.174,64.676 82.174,78.676 96.174,78.676 96.174,64.676" style="fill:none;stroke-width:0.050000mm;stroke:black"/>
<polygon points="101.224,64.676 101.224,78.676 115.224,78.676 115.224,64.676" style="fill:none;stroke-width:0.050000mm;stroke:black"/>
<polygon points="120.274,64.676 120.274,78.676 134.274,78.676 134.274,64.676" style="fill:none;stroke-width:0.050000mm;stroke:black"/>
<polygon points="139.324,64.676 139.324,78.676 153.324,78.676 153.324,64.676" style="fill:none;stroke-width:0.050000mm;stroke:black"/>
<polygon points="58.362,45.626 58.362,59.626 72.362,59.626 72.362,45.626" style="fill:none;stroke-width:0.050000mm;stroke:black"/>
<polygon points="77.412,45.626 77.412,59.626 91.412,59.626 91.412,45.626" style="fill:none;stroke-width:0.050000mm;stroke:black"/>
<polygon points="96.462,45.626 96.462,59.626 110.462,59.626 110.462,45.626" style="fill:none;stroke-width:0.050000mm;stroke:black"/>
<polygon points="115.512,45.626 115.512,59.626 129.512,59.626 129.512,45.626" style="fill:none;stroke-width:0.050000mm;stroke:black"/>
<polygon points="134.562,45.626 134.562,59.626 148.562,59.626 148.562,45.626" style="fill:none;stroke-width:0.050000mm;stroke:black"/>
<polygon points="67.887,26.576 67.887,40.576 81.887,40.576 81.887,26.576" style="fill:none;stroke-width:0.050000mm;stroke:black"/>
<polygon points="86.937,26.576 86.937,40.576 100.937,40.576 100.937,26.576" style="fill:none;stroke-width:0.050000mm;stroke:black"/>
<polygon points="105.987,26.576 105.987,40.576 119.987,40.576 119.987,26.576" style="fill:none;stroke-width:0.050000mm;stroke:black"/>
<polygon points="125.037,26.576 125.037,40.576 139.037,40.576 139.037,26.576" style="fill:none;stroke-width:0.050000mm;stroke:black"/>
<polygon points="63.124,7.526 63.124,21.526 77.124,21.526 77.124,7.526" style="fill:none;stroke-width:0.050000mm;stroke:black"/>
<polygon points="82.174,7.526 82.174,21.526 96.174,21.526 96.174,7.526" style="fill:none;stroke-width:0.050000mm;stroke:black"/>
<polygon points="101.224,7.526 101.224,21.526 115.224,21.526 115.224,7.526" style="fill:none;stroke-width:0.050000mm;stroke:black"/>
<polygon points="120.274,7.526 120.274,21.526 134.274,21.526 134.274,7.526" style="fill:none;stroke-width:0.050000mm;stroke:black"/>
</svg>