  0
SECTION
  2
HEADER
  9
$ANGBASE
  50
0.0
  9
$ANGDIR
  70
1
  9
$MEASUREMENT
  70
1
  0
ENDSEC
  0
SECTION
  2
TABLES
  0
TABLE
  2
LTYPE
  70
4
  0
LTYPE
  5
40F
  2
CONTINUOUS
  70
0
  3
Solid line
  72
65
  73
0
  40
0.0
  0
LTYPE
  5
410
  2
DASHDOT
 70
0
  3
Dash Dot ____ _ ____ _
 72
65
 73
4
 40
2.0
 49
1.25
 49
-0.25
 49
0.25
 49
-0.25
  0
LTYPE
  5
411
  2
DASHED
 70
0
  3
Dashed __ __ __ __ __
 72
65
 73
2
 40
0.75
 49
0.5
 49
-0.25
  0
LTYPE
  5
43B
  2
DOTTED
 70
0
  3
Dotted .  .  .  .
 72
65
 73
2
 40
0.2
 49
0.0
 49
-0.2
  0
ENDTAB
  0
TABLE
  2
STYLE
  70
4
  0
STYLE
  2
KICAD
  70
0
  40
0
  41
1
  42
1
  50
0
  71
0
  3
isocp.shx
  0
STYLE
  2
KICADB
  70
0
  40
0
  41
1
  42
1
  50
0
  71
0
  3
isocp.shx
  0
STYLE
  2
KICADI
  70
0
  40
0
  41
1
  42
1
  50
15
  71
0
  3
isocp.shx
  0
STYLE
  2
KICADBI
  70
0
  40
0
  41
1
  42
1
  50
15
  71
0
  3
isocp.shx
  0
ENDTAB
  0
TABLE
  2
LAYER
  70
1
  0
LAYER
  2
BLACK
  70
0
  62
7
  6
CONTINUOUS
  0
ENDTAB
  0
ENDSEC
  0
SECTION
  2
ENTITIES
0
ARC
8
BLACK
10
240.388
20
-132.15
40
70.6473
50
-175.087
51
-157.926
0
ARC
8
BLACK
10
86.063
20
-49.2792
40
2.28008
50
91.5833
51
114.983
0
ARC
8
BLACK
10
181.798
20
-192.748
40
8.05801
50
-57.5743
51
25.3365
0
ARC
8
BLACK
10
143.129
20
-59.5788
40
2.85377
50
-113.293
51
66.7075
0
LINE
8
BLACK
6
CONTINUOUS
10
21
20
-68.8572
11
21
21
-147
0
ARC
8
BLACK
10
99.061
20
-222.295
40
58.7799
50
25.7588
51
70.1709
0
ARC
8
BLACK
10
77.888
20
-283.217
40
123.274
50
70.5186
51
82.4899
0
LINE
8
BLACK
6
CONTINUOUS
10
164
20
-116
11
164
21
-138.2
0
ARC
8
BLACK
10
28.5008
20
-146.539
40
7.51497
50
-176.485
51
-96.8847
0
LINE
8
BLACK
6
CONTINUOUS
10
159
20
-193.5
11
163
21
-202
0
CIRCLE
8
BLACK
10
95
20
-44.05
40
1.7
0
LINE
8
BLACK
6
CONTINUOUS
10
28
20
-61
11
85.1
21
-41.2125
0
CIRCLE
8
BLACK
10
141.5
20
-59
40
1.7
0
LINE
8
BLACK
6
CONTINUOUS
10
28
20
-67
11
85.1
21
-47.2125
0
LINE
8
BLACK
6
CONTINUOUS
10
86
20
-41
11
104
21
-41
0
CIRCLE
8
BLACK
10
120
20
-164
40
1.7
0
CIRCLE
8
BLACK
10
167
20
-118
40
1.7
0
LINE
8
BLACK
6
CONTINUOUS
10
27.6
20
-154
11
94
21
-161
0
ARC
8
BLACK
10
182.042
20
-192.322
40
1.45448
50
-61.4638
51
21.0406
0
LINE
8
BLACK
6
CONTINUOUS
10
170
20
-116
11
170
21
-138.2
0
LINE
8
BLACK
6
CONTINUOUS
10
167.881
20
-208.45
11
186.119
21
-199.55
0
ARC
8
BLACK
10
86.063
20
-43.2792
40
2.28008
50
91.5833
51
114.983
0
CIRCLE
8
BLACK
10
175.6
20
-201
40
1.7
0
ARC
8
BLACK
10
104.001
20
-42.9957
40
1.9957
50
69.4221
51
90.023
0
LINE
8
BLACK
6
CONTINUOUS
10
152
20
-196.75
11
156
21
-205.25
0
LINE
8
BLACK
6
CONTINUOUS
10
169.238
20
-161.2
11
183.4
21
-191.8
0
ARC
8
BLACK
10
75.0491
20
-298.751
40
144.994
50
71.1899
51
82.4899
0
CIRCLE
8
BLACK
10
24
20
-145
40
1.7
0
ARC
8
BLACK
10
164
20
-201.5
40
1.11803
50
-153.435
51
-63.435
0
ARC
8
BLACK
10
102.979
20
-221.002
40
62.4075
50
26.1474
51
72.4474
0
ARC
8
BLACK
10
104.001
20
-48.9958
40
1.9958
50
69.4231
51
90.023
0
LINE
8
BLACK
6
CONTINUOUS
10
174.919
20
-158.7
11
189.081
21
-189.3
0
ARC
8
BLACK
10
30.4203
20
-70.203
40
9.51595
50
104.735
51
171.87
0
LINE
8
BLACK
6
CONTINUOUS
10
27.9
20
-148
11
94
21
-155
0
ARC
8
BLACK
10
28.0211
20
-146.986
40
1.02121
50
-179.214
51
-96.8105
0
ARC
8
BLACK
10
28.6119
20
-68.4913
40
1.61192
50
-247.691
51
-179.691
0
ARC
8
BLACK
10
163.628
20
-200.585
40
8.94164
50
-148.55
51
-61.5973
0
LINE
8
BLACK
6
CONTINUOUS
10
27
20
-68.5
11
27
21
-147
0
ARC
8
BLACK
10
167
20
-116
40
3
50
-0
51
180
0
LINE
8
BLACK
6
CONTINUOUS
10
104.702
20
-41.1273
11
144.257
21
-56.9576
0
LINE
8
BLACK
6
CONTINUOUS
10
104.702
20
-47.1273
11
142
21
-62.2
0
LINE
8
BLACK
6
CONTINUOUS
10
164.5
20
-202.5
11
182.737
21
-193.6
0
ARC
8
BLACK
10
219.647
20
-137.623
40
55.65
50
-179.406
51
-154.933
0
CIRCLE
8
BLACK
10
24
20
-70.5
40
1.7
0
LINE
8
BLACK
6
CONTINUOUS
10
86
20
-47
11
104
21
-47
  0
ENDSEC
  0
EOF
