  0
SECTION
  2
HEADER
  9
$ANGBASE
  50
0.0
  9
$ANGDIR
  70
1
  9
$MEASUREMENT
  70
1
  0
ENDSEC
  0
SECTION
  2
TABLES
  0
TABLE
  2
LTYPE
  70
4
  0
LTYPE
  5
40F
  2
CONTINUOUS
  70
0
  3
Solid line
  72
65
  73
0
  40
0.0
  0
LTYPE
  5
410
  2
DASHDOT
 70
0
  3
Dash Dot ____ _ ____ _
 72
65
 73
4
 40
2.0
 49
1.25
 49
-0.25
 49
0.25
 49
-0.25
  0
LTYPE
  5
411
  2
DASHED
 70
0
  3
Dashed __ __ __ __ __
 72
65
 73
2
 40
0.75
 49
0.5
 49
-0.25
  0
LTYPE
  5
43B
  2
DOTTED
 70
0
  3
Dotted .  .  .  .
 72
65
 73
2
 40
0.2
 49
0.0
 49
-0.2
  0
ENDTAB
  0
TABLE
  2
STYLE
  70
4
  0
STYLE
  2
KICAD
  70
0
  40
0
  41
1
  42
1
  50
0
  71
0
  3
isocp.shx
  0
STYLE
  2
KICADB
  70
0
  40
0
  41
1
  42
1
  50
0
  71
0
  3
isocp.shx
  0
STYLE
  2
KICADI
  70
0
  40
0
  41
1
  42
1
  50
15
  71
0
  3
isocp.shx
  0
STYLE
  2
KICADBI
  70
0
  40
0
  41
1
  42
1
  50
15
  71
0
  3
isocp.shx
  0
ENDTAB
  0
TABLE
  2
LAYER
  70
1
  0
LAYER
  2
BLACK
  70
0
  62
7
  6
CONTINUOUS
  0
ENDTAB
  0
ENDSEC
  0
SECTION
  2
ENTITIES
0
CIRCLE
8
BLACK
10
166.95
20
-61
40
1.05
0
CIRCLE
8
BLACK
10
120
20
-164
40
1.05
0
LINE
8
BLACK
6
CONTINUOUS
10
28
20
-61
11
85.1
21
-41.2125
0
LINE
8
BLACK
6
CONTINUOUS
10
170
20
-61
11
170
21
-138.2
0
ARC
8
BLACK
10
99.0499
20
-222.307
40
58.7952
50
25.7649
51
70.1649
0
LINE
8
BLACK
6
CONTINUOUS
10
86
20
-41
11
104
21
-41
0
CIRCLE
8
BLACK
10
123.6
20
-130.8
40
1.05
0
ARC
8
BLACK
10
167
20
-61
40
3
50
-0
51
90
0
ARC
8
BLACK
10
148.812
20
-47.5451
40
10.4566
50
-115.822
51
-88.9676
0
CIRCLE
8
BLACK
10
24
20
-145
40
1.05
0
CIRCLE
8
BLACK
10
156
20
-68.85
40
1.05
0
CIRCLE
8
BLACK
10
167
20
-118
40
1.05
0
CIRCLE
8
BLACK
10
123.6
20
-93.8
40
1.05
0
LINE
8
BLACK
6
CONTINUOUS
10
174.919
20
-158.7
11
189.081
21
-189.3
0
LINE
8
BLACK
6
CONTINUOUS
10
27.6
20
-154
11
94
21
-161
0
ARC
8
BLACK
10
163.627
20
-200.59
40
8.93782
50
-148.574
51
-61.5738
0
LINE
8
BLACK
6
CONTINUOUS
10
149
20
-58
11
167
21
-58
0
LINE
8
BLACK
6
CONTINUOUS
10
167.881
20
-208.45
11
186.119
21
-199.55
0
CIRCLE
8
BLACK
10
95
20
-44.05
40
1.05
0
CIRCLE
8
BLACK
10
141.5
20
-59
40
1.05
0
ARC
8
BLACK
10
28.5008
20
-146.539
40
7.51497
50
-176.485
51
-96.8847
0
CIRCLE
8
BLACK
10
66.6
20
-90.8
40
1.05
0
LINE
8
BLACK
6
CONTINUOUS
10
152
20
-196.75
11
156
21
-205.25
0
CIRCLE
8
BLACK
10
147.2
20
-160.6
40
1.05
0
ARC
8
BLACK
10
77.9569
20
-282.93
40
122.981
50
70.5043
51
82.5043
0
ARC
8
BLACK
10
104.001
20
-42.9958
40
1.9958
50
69.4231
51
90.023
0
ARC
8
BLACK
10
240.235
20
-132.187
40
70.4916
50
-175.106
51
-157.906
0
CIRCLE
8
BLACK
10
175.6
20
-201
40
1.05
0
ARC
8
BLACK
10
86.063
20
-43.2792
40
2.28008
50
91.5833
51
114.983
0
CIRCLE
8
BLACK
10
66.6
20
-128.2
40
1.05
0
LINE
8
BLACK
6
CONTINUOUS
10
104.702
20
-41.1273
11
144.257
21
-56.9576
0
CIRCLE
8
BLACK
10
24
20
-70.5
40
1.05
0
LINE
8
BLACK
6
CONTINUOUS
10
21
20
-68.8572
11
21
21
-147
0
CIRCLE
8
BLACK
10
148.2
20
-105
40
1.05
0
ARC
8
BLACK
10
181.797
20
-192.748
40
8.05887
50
-57.5689
51
25.3309
0
ARC
8
BLACK
10
30.425
20
-70.2072
40
9.52118
50
104.756
51
171.849
  0
ENDSEC
  0
EOF
