  0
SECTION
  2
HEADER
  9
$ANGBASE
  50
0.0
  9
$ANGDIR
  70
1
  9
$MEASUREMENT
  70
1
  0
ENDSEC
  0
SECTION
  2
TABLES
  0
TABLE
  2
LTYPE
  70
4
  0
LTYPE
  5
40F
  2
CONTINUOUS
  70
0
  3
Solid line
  72
65
  73
0
  40
0.0
  0
LTYPE
  5
410
  2
DASHDOT
 70
0
  3
Dash Dot ____ _ ____ _
 72
65
 73
4
 40
2.0
 49
1.25
 49
-0.25
 49
0.25
 49
-0.25
  0
LTYPE
  5
411
  2
DASHED
 70
0
  3
Dashed __ __ __ __ __
 72
65
 73
2
 40
0.75
 49
0.5
 49
-0.25
  0
LTYPE
  5
43B
  2
DOTTED
 70
0
  3
Dotted .  .  .  .
 72
65
 73
2
 40
0.2
 49
0.0
 49
-0.2
  0
ENDTAB
  0
TABLE
  2
STYLE
  70
4
  0
STYLE
  2
KICAD
  70
0
  40
0
  41
1
  42
1
  50
0
  71
0
  3
isocp.shx
  0
STYLE
  2
KICADB
  70
0
  40
0
  41
1
  42
1
  50
0
  71
0
  3
isocp.shx
  0
STYLE
  2
KICADI
  70
0
  40
0
  41
1
  42
1
  50
15
  71
0
  3
isocp.shx
  0
STYLE
  2
KICADBI
  70
0
  40
0
  41
1
  42
1
  50
15
  71
0
  3
isocp.shx
  0
ENDTAB
  0
TABLE
  2
LAYER
  70
1
  0
LAYER
  2
BLACK
  70
0
  62
7
  6
CONTINUOUS
  0
ENDTAB
  0
ENDSEC
  0
SECTION
  2
ENTITIES
0
CIRCLE
8
BLACK
10
66.6
20
-128.2
40
1.05
0
LINE
8
BLACK
6
CONTINUOUS
10
170
20
-116
11
170
21
-138.2
0
LINE
8
BLACK
6
CONTINUOUS
10
174.919
20
-158.7
11
189.081
21
-189.3
0
ARC
8
BLACK
10
86.063
20
-43.2792
40
2.28008
50
91.5833
51
114.983
0
CIRCLE
8
BLACK
10
167
20
-118
40
1.05
0
ARC
8
BLACK
10
240.235
20
-132.187
40
70.4916
50
-175.106
51
-157.906
0
LINE
8
BLACK
6
CONTINUOUS
10
28
20
-61
11
85.1
21
-41.2125
0
ARC
8
BLACK
10
77.9569
20
-282.93
40
122.981
50
70.5043
51
82.5043
0
ARC
8
BLACK
10
142.99
20
-59.7049
40
3.02531
50
5.78428
51
65.2442
0
ARC
8
BLACK
10
30.425
20
-70.2072
40
9.52118
50
104.756
51
171.849
0
ARC
8
BLACK
10
104.001
20
-42.9958
40
1.9958
50
69.4231
51
90.023
0
CIRCLE
8
BLACK
10
147.2
20
-160.6
40
1.05
0
LINE
8
BLACK
6
CONTINUOUS
10
167.881
20
-208.45
11
186.119
21
-199.55
0
CIRCLE
8
BLACK
10
123.6
20
-130.8
40
1.05
0
LINE
8
BLACK
6
CONTINUOUS
10
86
20
-41
11
104
21
-41
0
LINE
8
BLACK
6
CONTINUOUS
10
167
20
-113
11
148
21
-113
0
LINE
8
BLACK
6
CONTINUOUS
10
21
20
-68.8572
11
21
21
-147
0
CIRCLE
8
BLACK
10
24
20
-70.5
40
1.05
0
CIRCLE
8
BLACK
10
141.5
20
-59
40
1.05
0
CIRCLE
8
BLACK
10
95
20
-44.05
40
1.05
0
LINE
8
BLACK
6
CONTINUOUS
10
146
20
-59.4
11
146
21
-111
0
ARC
8
BLACK
10
163.627
20
-200.59
40
8.93782
50
-148.574
51
-61.5738
0
LINE
8
BLACK
6
CONTINUOUS
10
27.6
20
-154
11
94
21
-161
0
ARC
8
BLACK
10
28.5008
20
-146.539
40
7.51497
50
-176.485
51
-96.8847
0
CIRCLE
8
BLACK
10
175.6
20
-201
40
1.05
0
ARC
8
BLACK
10
148
20
-111
40
2
50
-180
51
-90
0
LINE
8
BLACK
6
CONTINUOUS
10
104.702
20
-41.1273
11
144.257
21
-56.9576
0
ARC
8
BLACK
10
167
20
-116
40
3
50
-0
51
90
0
CIRCLE
8
BLACK
10
24
20
-145
40
1.05
0
ARC
8
BLACK
10
181.797
20
-192.748
40
8.05887
50
-57.5689
51
25.3309
0
CIRCLE
8
BLACK
10
66.6
20
-90.8
40
1.05
0
ARC
8
BLACK
10
99.0499
20
-222.307
40
58.7952
50
25.7649
51
70.1649
0
CIRCLE
8
BLACK
10
120
20
-164
40
1.05
0
LINE
8
BLACK
6
CONTINUOUS
10
152
20
-196.75
11
156
21
-205.25
0
CIRCLE
8
BLACK
10
123.6
20
-93.8
40
1.05
0
LINE
8
BLACK
6
CONTINUOUS
10
121.057
20
-76.8611
11
107.087
21
-76.8611
0
LINE
8
BLACK
6
CONTINUOUS
10
107.087
20
-76.8611
11
107.087
21
-62.8911
0
LINE
8
BLACK
6
CONTINUOUS
10
121.057
20
-62.8911
11
121.057
21
-76.8611
0
LINE
8
BLACK
6
CONTINUOUS
10
107.087
20
-62.8911
11
121.057
21
-62.8911
0
LINE
8
BLACK
6
CONTINUOUS
10
102.057
20
-86.3611
11
88.0868
21
-86.3611
0
LINE
8
BLACK
6
CONTINUOUS
10
102.057
20
-72.3911
11
102.057
21
-86.3611
0
LINE
8
BLACK
6
CONTINUOUS
10
88.0868
20
-86.3611
11
88.0868
21
-72.3911
0
LINE
8
BLACK
6
CONTINUOUS
10
88.0868
20
-72.3911
11
102.057
21
-72.3911
0
LINE
8
BLACK
6
CONTINUOUS
10
31.0868
20
-110.391
11
45.0568
21
-110.391
0
LINE
8
BLACK
6
CONTINUOUS
10
45.0568
20
-110.391
11
45.0568
21
-124.361
0
LINE
8
BLACK
6
CONTINUOUS
10
45.0568
20
-124.361
11
31.0868
21
-124.361
0
LINE
8
BLACK
6
CONTINUOUS
10
31.0868
20
-124.361
11
31.0868
21
-110.391
0
LINE
8
BLACK
6
CONTINUOUS
10
45.0568
20
-91.3911
11
45.0568
21
-105.361
0
LINE
8
BLACK
6
CONTINUOUS
10
31.0868
20
-91.3911
11
45.0568
21
-91.3911
0
LINE
8
BLACK
6
CONTINUOUS
10
45.0568
20
-105.361
11
31.0868
21
-105.361
0
LINE
8
BLACK
6
CONTINUOUS
10
31.0868
20
-105.361
11
31.0868
21
-91.3911
0
LINE
8
BLACK
6
CONTINUOUS
10
88.0868
20
-143.361
11
88.0868
21
-129.391
0
LINE
8
BLACK
6
CONTINUOUS
10
102.057
20
-143.361
11
88.0868
21
-143.361
0
LINE
8
BLACK
6
CONTINUOUS
10
88.0868
20
-129.391
11
102.057
21
-129.391
0
LINE
8
BLACK
6
CONTINUOUS
10
102.057
20
-129.391
11
102.057
21
-143.361
0
LINE
8
BLACK
6
CONTINUOUS
10
126.087
20
-105.641
11
140.057
21
-105.641
0
LINE
8
BLACK
6
CONTINUOUS
10
126.087
20
-119.611
11
126.087
21
-105.641
0
LINE
8
BLACK
6
CONTINUOUS
10
140.057
20
-119.611
11
126.087
21
-119.611
0
LINE
8
BLACK
6
CONTINUOUS
10
140.057
20
-105.641
11
140.057
21
-119.611
0
LINE
8
BLACK
6
CONTINUOUS
10
83.0568
20
-129.111
11
69.0868
21
-129.111
0
LINE
8
BLACK
6
CONTINUOUS
10
69.0868
20
-129.111
11
69.0868
21
-115.141
0
LINE
8
BLACK
6
CONTINUOUS
10
69.0868
20
-115.141
11
83.0568
21
-115.141
0
LINE
8
BLACK
6
CONTINUOUS
10
83.0568
20
-115.141
11
83.0568
21
-129.111
0
LINE
8
BLACK
6
CONTINUOUS
10
102.057
20
-110.391
11
102.057
21
-124.361
0
LINE
8
BLACK
6
CONTINUOUS
10
102.057
20
-124.361
11
88.0868
21
-124.361
0
LINE
8
BLACK
6
CONTINUOUS
10
88.0868
20
-124.361
11
88.0868
21
-110.391
0
LINE
8
BLACK
6
CONTINUOUS
10
88.0868
20
-110.391
11
102.057
21
-110.391
0
LINE
8
BLACK
6
CONTINUOUS
10
107.087
20
-114.861
11
107.087
21
-100.891
0
LINE
8
BLACK
6
CONTINUOUS
10
107.087
20
-100.891
11
121.057
21
-100.891
0
LINE
8
BLACK
6
CONTINUOUS
10
121.057
20
-114.861
11
107.087
21
-114.861
0
LINE
8
BLACK
6
CONTINUOUS
10
121.057
20
-100.891
11
121.057
21
-114.861
0
LINE
8
BLACK
6
CONTINUOUS
10
50.0868
20
-86.6411
11
64.0568
21
-86.6411
0
LINE
8
BLACK
6
CONTINUOUS
10
50.0868
20
-100.611
11
50.0868
21
-86.6411
0
LINE
8
BLACK
6
CONTINUOUS
10
64.0568
20
-100.611
11
50.0868
21
-100.611
0
LINE
8
BLACK
6
CONTINUOUS
10
64.0568
20
-86.6411
11
64.0568
21
-100.611
0
LINE
8
BLACK
6
CONTINUOUS
10
126.087
20
-81.6111
11
126.087
21
-67.6411
0
LINE
8
BLACK
6
CONTINUOUS
10
140.057
20
-81.6111
11
126.087
21
-81.6111
0
LINE
8
BLACK
6
CONTINUOUS
10
126.087
20
-67.6411
11
140.057
21
-67.6411
0
LINE
8
BLACK
6
CONTINUOUS
10
140.057
20
-67.6411
11
140.057
21
-81.6111
0
LINE
8
BLACK
6
CONTINUOUS
10
64.0568
20
-105.641
11
64.0568
21
-119.611
0
LINE
8
BLACK
6
CONTINUOUS
10
50.0868
20
-105.641
11
64.0568
21
-105.641
0
LINE
8
BLACK
6
CONTINUOUS
10
50.0868
20
-119.611
11
50.0868
21
-105.641
0
LINE
8
BLACK
6
CONTINUOUS
10
64.0568
20
-119.611
11
50.0868
21
-119.611
0
LINE
8
BLACK
6
CONTINUOUS
10
69.0868
20
-91.1111
11
69.0868
21
-77.1411
0
LINE
8
BLACK
6
CONTINUOUS
10
69.0868
20
-77.1411
11
83.0568
21
-77.1411
0
LINE
8
BLACK
6
CONTINUOUS
10
83.0568
20
-91.1111
11
69.0868
21
-91.1111
0
LINE
8
BLACK
6
CONTINUOUS
10
83.0568
20
-77.1411
11
83.0568
21
-91.1111
0
LINE
8
BLACK
6
CONTINUOUS
10
88.0868
20
-67.3611
11
88.0868
21
-53.3911
0
LINE
8
BLACK
6
CONTINUOUS
10
102.057
20
-67.3611
11
88.0868
21
-67.3611
0
LINE
8
BLACK
6
CONTINUOUS
10
102.057
20
-53.3911
11
102.057
21
-67.3611
0
LINE
8
BLACK
6
CONTINUOUS
10
88.0868
20
-53.3911
11
102.057
21
-53.3911
0
LINE
8
BLACK
6
CONTINUOUS
10
64.0568
20
-67.6411
11
64.0568
21
-81.6111
0
LINE
8
BLACK
6
CONTINUOUS
10
50.0868
20
-67.6411
11
64.0568
21
-67.6411
0
LINE
8
BLACK
6
CONTINUOUS
10
64.0568
20
-81.6111
11
50.0868
21
-81.6111
0
LINE
8
BLACK
6
CONTINUOUS
10
50.0868
20
-81.6111
11
50.0868
21
-67.6411
0
LINE
8
BLACK
6
CONTINUOUS
10
155.612
20
-158.918
11
165.49
21
-168.796
0
LINE
8
BLACK
6
CONTINUOUS
10
145.734
20
-168.796
11
155.612
21
-158.918
0
LINE
8
BLACK
6
CONTINUOUS
10
165.49
20
-168.796
11
155.612
21
-178.674
0
LINE
8
BLACK
6
CONTINUOUS
10
155.612
20
-178.674
11
145.734
21
-168.796
0
LINE
8
BLACK
6
CONTINUOUS
10
69.0868
20
-96.1411
11
83.0568
21
-96.1411
0
LINE
8
BLACK
6
CONTINUOUS
10
69.0868
20
-110.111
11
69.0868
21
-96.1411
0
LINE
8
BLACK
6
CONTINUOUS
10
83.0568
20
-110.111
11
69.0868
21
-110.111
0
LINE
8
BLACK
6
CONTINUOUS
10
83.0568
20
-96.1411
11
83.0568
21
-110.111
0
LINE
8
BLACK
6
CONTINUOUS
10
88.0868
20
-105.361
11
88.0868
21
-91.3911
0
LINE
8
BLACK
6
CONTINUOUS
10
88.0868
20
-91.3911
11
102.057
21
-91.3911
0
LINE
8
BLACK
6
CONTINUOUS
10
102.057
20
-91.3911
11
102.057
21
-105.361
0
LINE
8
BLACK
6
CONTINUOUS
10
102.057
20
-105.361
11
88.0868
21
-105.361
0
LINE
8
BLACK
6
CONTINUOUS
10
126.087
20
-124.641
11
140.057
21
-124.641
0
LINE
8
BLACK
6
CONTINUOUS
10
140.057
20
-124.641
11
140.057
21
-138.611
0
LINE
8
BLACK
6
CONTINUOUS
10
126.087
20
-138.611
11
126.087
21
-124.641
0
LINE
8
BLACK
6
CONTINUOUS
10
140.057
20
-138.611
11
126.087
21
-138.611
0
LINE
8
BLACK
6
CONTINUOUS
10
121.057
20
-133.861
11
107.087
21
-133.861
0
LINE
8
BLACK
6
CONTINUOUS
10
121.057
20
-119.891
11
121.057
21
-133.861
0
LINE
8
BLACK
6
CONTINUOUS
10
107.087
20
-133.861
11
107.087
21
-119.891
0
LINE
8
BLACK
6
CONTINUOUS
10
107.087
20
-119.891
11
121.057
21
-119.891
0
LINE
8
BLACK
6
CONTINUOUS
10
50.0868
20
-138.611
11
50.0868
21
-124.641
0
LINE
8
BLACK
6
CONTINUOUS
10
50.0868
20
-124.641
11
64.0568
21
-124.641
0
LINE
8
BLACK
6
CONTINUOUS
10
64.0568
20
-124.641
11
64.0568
21
-138.611
0
LINE
8
BLACK
6
CONTINUOUS
10
64.0568
20
-138.611
11
50.0868
21
-138.611
0
LINE
8
BLACK
6
CONTINUOUS
10
161.65
20
-118.4
11
149.85
21
-118.4
0
LINE
8
BLACK
6
CONTINUOUS
10
161.65
20
-132.4
11
149.85
21
-132.4
0
LINE
8
BLACK
6
CONTINUOUS
10
161.65
20
-118.4
11
161.65
21
-132.4
0
LINE
8
BLACK
6
CONTINUOUS
10
149.85
20
-118.4
11
149.85
21
-132.4
0
LINE
8
BLACK
6
CONTINUOUS
10
31.0868
20
-72.3911
11
45.0568
21
-72.3911
0
LINE
8
BLACK
6
CONTINUOUS
10
45.0568
20
-72.3911
11
45.0568
21
-86.3611
0
LINE
8
BLACK
6
CONTINUOUS
10
31.0868
20
-86.3611
11
31.0868
21
-72.3911
0
LINE
8
BLACK
6
CONTINUOUS
10
45.0568
20
-86.3611
11
31.0868
21
-86.3611
0
LINE
8
BLACK
6
CONTINUOUS
10
69.0868
20
-58.1411
11
83.0568
21
-58.1411
0
LINE
8
BLACK
6
CONTINUOUS
10
83.0568
20
-72.1111
11
69.0868
21
-72.1111
0
LINE
8
BLACK
6
CONTINUOUS
10
69.0868
20
-72.1111
11
69.0868
21
-58.1411
0
LINE
8
BLACK
6
CONTINUOUS
10
83.0568
20
-58.1411
11
83.0568
21
-72.1111
0
LINE
8
BLACK
6
CONTINUOUS
10
107.087
20
-95.8611
11
107.087
21
-81.8911
0
LINE
8
BLACK
6
CONTINUOUS
10
121.057
20
-95.8611
11
107.087
21
-95.8611
0
LINE
8
BLACK
6
CONTINUOUS
10
121.057
20
-81.8911
11
121.057
21
-95.8611
0
LINE
8
BLACK
6
CONTINUOUS
10
107.087
20
-81.8911
11
121.057
21
-81.8911
0
LINE
8
BLACK
6
CONTINUOUS
10
31.0868
20
-143.361
11
31.0868
21
-129.391
0
LINE
8
BLACK
6
CONTINUOUS
10
45.0568
20
-129.391
11
45.0568
21
-143.361
0
LINE
8
BLACK
6
CONTINUOUS
10
31.0868
20
-129.391
11
45.0568
21
-129.391
0
LINE
8
BLACK
6
CONTINUOUS
10
45.0568
20
-143.361
11
31.0868
21
-143.361
0
LINE
8
BLACK
6
CONTINUOUS
10
69.0868
20
-148.111
11
69.0868
21
-134.141
0
LINE
8
BLACK
6
CONTINUOUS
10
69.0868
20
-134.141
11
83.0568
21
-134.141
0
LINE
8
BLACK
6
CONTINUOUS
10
83.0568
20
-148.111
11
69.0868
21
-148.111
0
LINE
8
BLACK
6
CONTINUOUS
10
83.0568
20
-134.141
11
83.0568
21
-148.111
0
LINE
8
BLACK
6
CONTINUOUS
10
107.087
20
-152.861
11
107.087
21
-138.891
0
LINE
8
BLACK
6
CONTINUOUS
10
107.087
20
-138.891
11
121.057
21
-138.891
0
LINE
8
BLACK
6
CONTINUOUS
10
121.057
20
-152.861
11
107.087
21
-152.861
0
LINE
8
BLACK
6
CONTINUOUS
10
121.057
20
-138.891
11
121.057
21
-152.861
0
LINE
8
BLACK
6
CONTINUOUS
10
172.49
20
-178.514
11
178.394
21
-191.175
0
LINE
8
BLACK
6
CONTINUOUS
10
159.829
20
-184.417
11
172.49
21
-178.514
0
LINE
8
BLACK
6
CONTINUOUS
10
178.394
20
-191.175
11
165.733
21
-197.079
0
LINE
8
BLACK
6
CONTINUOUS
10
165.733
20
-197.079
11
159.829
21
-184.417
0
LINE
8
BLACK
6
CONTINUOUS
10
140.057
20
-86.6411
11
140.057
21
-100.611
0
LINE
8
BLACK
6
CONTINUOUS
10
140.057
20
-100.611
11
126.087
21
-100.611
0
LINE
8
BLACK
6
CONTINUOUS
10
126.087
20
-100.611
11
126.087
21
-86.6411
0
LINE
8
BLACK
6
CONTINUOUS
10
126.087
20
-86.6411
11
140.057
21
-86.6411
0
LINE
8
BLACK
6
CONTINUOUS
10
145.894
20
-151.917
11
139.99
21
-164.579
0
LINE
8
BLACK
6
CONTINUOUS
10
127.329
20
-158.675
11
133.233
21
-146.014
0
LINE
8
BLACK
6
CONTINUOUS
10
133.233
20
-146.014
11
145.894
21
-151.917
0
LINE
8
BLACK
6
CONTINUOUS
10
139.99
20
-164.579
11
127.329
21
-158.675
  0
ENDSEC
  0
EOF
