M48
; DRILL file {KiCad 6.0.5} date Sat 09 Jul 2022 08:04:57 PM CDT
; FORMAT={-:-/ absolute / inch / decimal}
; #@! TF.CreationDate,2022-07-09T20:04:57-05:00
; #@! TF.GenerationSoftware,Kicad,Pcbnew,6.0.5
; #@! TF.FileFunction,NonPlated,1,2,NPTH
FMAT,2
INCH
; #@! TA.AperFunction,NonPlated,NPTH,ComponentDrill
T1C0.0315
; #@! TA.AperFunction,NonPlated,NPTH,ComponentDrill
T2C0.0591
; #@! TA.AperFunction,NonPlated,NPTH,ComponentDrill
T3C0.0669
; #@! TA.AperFunction,NonPlated,NPTH,ComponentDrill
T4C0.0827
; #@! TA.AperFunction,NonPlated,NPTH,ComponentDrill
T5C0.1339
; #@! TA.AperFunction,NonPlated,NPTH,ComponentDrill
T6C0.1575
%
G90
G05
T1
X6.1422Y-4.2234
X6.1422Y-4.3002
X6.4178Y-4.2234
X6.4178Y-4.3002
T3
X1.2989Y-3.125
X1.2989Y-3.8731
X1.2989Y-4.6211
X1.2989Y-5.3691
X1.6989Y-3.125
X1.6989Y-3.8731
X1.6989Y-4.6211
X1.6989Y-5.3691
X2.0469Y-2.938
X2.0469Y-3.6861
X2.0469Y-4.4341
X2.0469Y-5.1821
X2.4469Y-2.938
X2.4469Y-3.6861
X2.4469Y-4.4341
X2.4469Y-5.1821
X2.795Y-2.564
X2.795Y-3.312
X2.795Y-4.0601
X2.795Y-4.8081
X2.795Y-5.5561
X3.195Y-2.564
X3.195Y-3.312
X3.195Y-4.0601
X3.195Y-4.8081
X3.195Y-5.5561
X3.543Y-2.377
X3.543Y-3.125
X3.543Y-3.8731
X3.543Y-4.6211
X3.543Y-5.3691
X3.943Y-2.377
X3.943Y-3.125
X3.943Y-3.8731
X3.943Y-4.6211
X3.943Y-5.3691
X4.291Y-2.751
X4.291Y-3.4991
X4.291Y-4.2471
X4.291Y-4.9951
X4.291Y-5.7432
X4.691Y-2.751
X4.691Y-3.4991
X4.691Y-4.2471
X4.691Y-4.9951
X4.691Y-5.7432
X5.039Y-2.938
X5.039Y-3.6861
X5.039Y-4.4341
X5.039Y-5.1821
X5.1972Y-6.0295
X5.439Y-2.938
X5.439Y-3.6861
X5.439Y-4.4341
X5.439Y-5.1821
X5.5597Y-6.1985
X5.985Y-6.5041
X6.2679Y-6.7869
X6.5734Y-7.2123
X6.7425Y-7.5748
T4
X5.8346Y-4.1339
X6.1417Y-2.7106
T5
X2.622Y-3.5748
X2.622Y-5.0472
X4.8661Y-3.6929
X4.8661Y-5.1496
X5.7953Y-6.3228
T6
X1.4989Y-3.125
X1.4989Y-3.125
X1.4989Y-3.8731
X1.4989Y-3.8731
X1.4989Y-4.6211
X1.4989Y-4.6211
X1.4989Y-5.3691
X1.4989Y-5.3691
X2.2469Y-2.938
X2.2469Y-2.938
X2.2469Y-3.6861
X2.2469Y-3.6861
X2.2469Y-4.4341
X2.2469Y-4.4341
X2.2469Y-5.1821
X2.2469Y-5.1821
X2.995Y-2.564
X2.995Y-2.564
X2.995Y-3.312
X2.995Y-3.312
X2.995Y-4.0601
X2.995Y-4.0601
X2.995Y-4.8081
X2.995Y-4.8081
X2.995Y-5.5561
X2.995Y-5.5561
X3.743Y-2.377
X3.743Y-2.377
X3.743Y-3.125
X3.743Y-3.125
X3.743Y-3.8731
X3.743Y-3.8731
X3.743Y-4.6211
X3.743Y-4.6211
X3.743Y-5.3691
X3.743Y-5.3691
X4.491Y-2.751
X4.491Y-2.751
X4.491Y-3.4991
X4.491Y-3.4991
X4.491Y-4.2471
X4.491Y-4.2471
X4.491Y-4.9951
X4.491Y-4.9951
X4.491Y-5.7432
X4.491Y-5.7432
X5.239Y-2.938
X5.239Y-2.938
X5.239Y-3.6861
X5.239Y-3.6861
X5.239Y-4.4341
X5.239Y-4.4341
X5.239Y-5.1821
X5.239Y-5.1821
X5.3784Y-6.114
X5.3784Y-6.114
X6.1265Y-6.6455
X6.1265Y-6.6455
X6.6579Y-7.3935
X6.6579Y-7.3935
T2
G00X5.9114Y-4.9154
M15
G01X5.9114Y-4.9665
M16
G05
G00X6.3524Y-4.9154
M15
G01X6.3524Y-4.9665
M16
G05
T0
M30
