%TF.GenerationSoftware,KiCad,Pcbnew,6.0.5*%
%TF.CreationDate,2022-07-07T20:43:32-05:00*%
%TF.ProjectId,ElevenFingers,456c6576-656e-4466-996e-676572732e6b,rev?*%
%TF.SameCoordinates,Original*%
%TF.FileFunction,Paste,Top*%
%TF.FilePolarity,Positive*%
%FSLAX46Y46*%
G04 Gerber Fmt 4.6, Leading zero omitted, Abs format (unit mm)*
G04 Created by KiCad (PCBNEW 6.0.5) date 2022-07-07 20:43:32*
%MOMM*%
%LPD*%
G01*
G04 APERTURE LIST*
G04 Aperture macros list*
%AMRotRect*
0 Rectangle, with rotation*
0 The origin of the aperture is its center*
0 $1 length*
0 $2 width*
0 $3 Rotation angle, in degrees counterclockwise*
0 Add horizontal line*
21,1,$1,$2,0,0,$3*%
G04 Aperture macros list end*
%ADD10R,0.500000X0.850000*%
%ADD11RotRect,0.500000X0.850000X115.000000*%
%ADD12RotRect,0.500000X0.850000X135.000000*%
%ADD13RotRect,0.500000X0.850000X155.000000*%
G04 APERTURE END LIST*
D10*
%TO.C,L20*%
X59361846Y-125171051D03*
X59361846Y-126921051D03*
X54761846Y-126921051D03*
X54761846Y-125171051D03*
%TD*%
%TO.C,L2*%
X54761846Y-69921051D03*
X54761846Y-68171051D03*
X59361846Y-68171051D03*
X59361846Y-69921051D03*
%TD*%
%TO.C,L19*%
X40361846Y-129921051D03*
X40361846Y-131671051D03*
X35761846Y-131671051D03*
X35761846Y-129921051D03*
%TD*%
%TO.C,L10*%
X97361846Y-72921051D03*
X97361846Y-74671051D03*
X92761846Y-74671051D03*
X92761846Y-72921051D03*
%TD*%
%TO.C,L27*%
X111761846Y-141171051D03*
X111761846Y-139421051D03*
X116361846Y-139421051D03*
X116361846Y-141171051D03*
%TD*%
%TO.C,L5*%
X111761846Y-65171051D03*
X111761846Y-63421051D03*
X116361846Y-63421051D03*
X116361846Y-65171051D03*
%TD*%
%TO.C,L16*%
X92761846Y-93671051D03*
X92761846Y-91921051D03*
X97361846Y-91921051D03*
X97361846Y-93671051D03*
%TD*%
D11*
%TO.C,L30*%
X172346805Y-183581334D03*
X173932843Y-182841752D03*
X175876887Y-187010768D03*
X174290849Y-187750350D03*
%TD*%
D10*
%TO.C,L12*%
X135361846Y-87171051D03*
X135361846Y-88921051D03*
X130761846Y-88921051D03*
X130761846Y-87171051D03*
%TD*%
%TO.C,L15*%
X73761846Y-98421051D03*
X73761846Y-96671051D03*
X78361846Y-96671051D03*
X78361846Y-98421051D03*
%TD*%
%TO.C,L13*%
X35761846Y-112671051D03*
X35761846Y-110921051D03*
X40361846Y-110921051D03*
X40361846Y-112671051D03*
%TD*%
%TO.C,L18*%
X130761846Y-107921051D03*
X130761846Y-106171051D03*
X135361846Y-106171051D03*
X135361846Y-107921051D03*
%TD*%
%TO.C,L21*%
X78361846Y-115671051D03*
X78361846Y-117421051D03*
X73761846Y-117421051D03*
X73761846Y-115671051D03*
%TD*%
%TO.C,L26*%
X92761846Y-131671051D03*
X92761846Y-129921051D03*
X97361846Y-129921051D03*
X97361846Y-131671051D03*
%TD*%
%TO.C,L24*%
X135361846Y-125171051D03*
X135361846Y-126921051D03*
X130761846Y-126921051D03*
X130761846Y-125171051D03*
%TD*%
%TO.C,L14*%
X54761846Y-107921051D03*
X54761846Y-106171051D03*
X59361846Y-106171051D03*
X59361846Y-107921051D03*
%TD*%
%TO.C,L23*%
X116300000Y-120375000D03*
X116300000Y-122125000D03*
X111700000Y-122125000D03*
X111700000Y-120375000D03*
%TD*%
D12*
%TO.C,L29*%
X157366782Y-163788424D03*
X158604219Y-162550987D03*
X161856910Y-165803678D03*
X160619473Y-167041115D03*
%TD*%
D10*
%TO.C,L6*%
X130761846Y-69921051D03*
X130761846Y-68171051D03*
X135361846Y-68171051D03*
X135361846Y-69921051D03*
%TD*%
%TO.C,L7*%
X40361846Y-91921051D03*
X40361846Y-93671051D03*
X35761846Y-93671051D03*
X35761846Y-91921051D03*
%TD*%
%TO.C,L9*%
X78361846Y-77671051D03*
X78361846Y-79421051D03*
X73761846Y-79421051D03*
X73761846Y-77671051D03*
%TD*%
%TO.C,L17*%
X111761846Y-103171051D03*
X111761846Y-101421051D03*
X116361846Y-101421051D03*
X116361846Y-103171051D03*
%TD*%
%TO.C,L25*%
X73761846Y-136421051D03*
X73761846Y-134671051D03*
X78361846Y-134671051D03*
X78361846Y-136421051D03*
%TD*%
%TO.C,L8*%
X59361846Y-87171051D03*
X59361846Y-88921051D03*
X54761846Y-88921051D03*
X54761846Y-87171051D03*
%TD*%
%TO.C,L22*%
X97361846Y-110921051D03*
X97361846Y-112671051D03*
X92761846Y-112671051D03*
X92761846Y-110921051D03*
%TD*%
%TO.C,L1*%
X35761846Y-74671051D03*
X35761846Y-72921051D03*
X40361846Y-72921051D03*
X40361846Y-74671051D03*
%TD*%
D13*
%TO.C,L28*%
X136657547Y-150117048D03*
X137397129Y-148531010D03*
X141566145Y-150475054D03*
X140826563Y-152061092D03*
%TD*%
D10*
%TO.C,L11*%
X116361846Y-82421051D03*
X116361846Y-84171051D03*
X111761846Y-84171051D03*
X111761846Y-82421051D03*
%TD*%
%TO.C,L3*%
X73761846Y-60421051D03*
X73761846Y-58671051D03*
X78361846Y-58671051D03*
X78361846Y-60421051D03*
%TD*%
%TO.C,L4*%
X92761846Y-55671051D03*
X92761846Y-53921051D03*
X97361846Y-53921051D03*
X97361846Y-55671051D03*
%TD*%
M02*
