%TF.GenerationSoftware,KiCad,Pcbnew,6.0.5*%
%TF.CreationDate,2022-07-09T20:03:33-05:00*%
%TF.ProjectId,ElevenFingers,456c6576-656e-4466-996e-676572732e6b,rev?*%
%TF.SameCoordinates,Original*%
%TF.FileFunction,Soldermask,Top*%
%TF.FilePolarity,Negative*%
%FSLAX46Y46*%
G04 Gerber Fmt 4.6, Leading zero omitted, Abs format (unit mm)*
G04 Created by KiCad (PCBNEW 6.0.5) date 2022-07-09 20:03:33*
%MOMM*%
%LPD*%
G01*
G04 APERTURE LIST*
G04 Aperture macros list*
%AMRotRect*
0 Rectangle, with rotation*
0 The origin of the aperture is its center*
0 $1 length*
0 $2 width*
0 $3 Rotation angle, in degrees counterclockwise*
0 Add horizontal line*
21,1,$1,$2,0,0,$3*%
G04 Aperture macros list end*
%ADD10C,2.200000*%
%ADD11C,3.500000*%
%ADD12C,4.000000*%
%ADD13C,1.700000*%
%ADD14R,0.500000X0.850000*%
%ADD15R,1.200000X0.900000*%
%ADD16RotRect,0.500000X0.850000X115.000000*%
%ADD17C,1.524000*%
%ADD18C,0.800000*%
%ADD19O,2.000000X1.600000*%
%ADD20RotRect,0.500000X0.850000X135.000000*%
%ADD21RotRect,0.900000X1.200000X25.000000*%
%ADD22O,2.000000X3.200000*%
%ADD23R,2.000000X2.000000*%
%ADD24C,2.000000*%
%ADD25RotRect,0.900000X1.200000X45.000000*%
%ADD26RotRect,0.500000X0.850000X155.000000*%
%ADD27RotRect,0.900000X1.200000X70.000000*%
%ADD28C,1.397000*%
G04 APERTURE END LIST*
D10*
%TO.C,*%
X148200000Y-105000000D03*
%TD*%
%TO.C,REF\u002A\u002A*%
X156000000Y-68850000D03*
%TD*%
D11*
%TO.C,*%
X147200000Y-160600000D03*
%TD*%
%TO.C,*%
X123600000Y-130800000D03*
%TD*%
%TO.C,*%
X123600000Y-93800000D03*
%TD*%
%TO.C,*%
X66600000Y-128200000D03*
%TD*%
%TO.C,REF\u002A\u002A*%
X66600000Y-90800000D03*
%TD*%
D12*
%TO.C,SW5*%
X114071846Y-69876051D03*
D13*
X119151846Y-69876051D03*
X108991846Y-69876051D03*
D12*
X114071846Y-69876051D03*
D10*
X116611846Y-74956051D03*
X111531846Y-74956051D03*
X117881846Y-72416051D03*
X110261846Y-72416051D03*
%TD*%
D14*
%TO.C,L20*%
X59361846Y-125171051D03*
X59361846Y-126921051D03*
X54761846Y-126921051D03*
X54761846Y-125171051D03*
%TD*%
D12*
%TO.C,SW10*%
X95071846Y-79376051D03*
D13*
X100151846Y-79376051D03*
D12*
X95071846Y-79376051D03*
D13*
X89991846Y-79376051D03*
D10*
X92531846Y-84456051D03*
X97611846Y-84456051D03*
X91261846Y-81916051D03*
X98881846Y-81916051D03*
%TD*%
D14*
%TO.C,L2*%
X54761846Y-69921051D03*
X54761846Y-68171051D03*
X59361846Y-68171051D03*
X59361846Y-69921051D03*
%TD*%
D15*
%TO.C,D2*%
X57081846Y-81396051D03*
X57081846Y-78096051D03*
%TD*%
D14*
%TO.C,L19*%
X40361846Y-129921051D03*
X40361846Y-131671051D03*
X35761846Y-131671051D03*
X35761846Y-129921051D03*
%TD*%
D15*
%TO.C,D13*%
X38081846Y-124146051D03*
X38081846Y-120846051D03*
%TD*%
%TO.C,D26*%
X95081846Y-143146051D03*
X95081846Y-139846051D03*
%TD*%
%TO.C,D21*%
X76081846Y-128896051D03*
X76081846Y-125596051D03*
%TD*%
%TO.C,D25*%
X76081846Y-147896051D03*
X76081846Y-144596051D03*
%TD*%
D13*
%TO.C,SW13*%
X32991846Y-117376051D03*
X43151846Y-117376051D03*
D12*
X38071846Y-117376051D03*
X38071846Y-117376051D03*
D10*
X35531846Y-122456051D03*
X40611846Y-122456051D03*
X34261846Y-119916051D03*
X41881846Y-119916051D03*
%TD*%
D13*
%TO.C,SW7*%
X43151846Y-98376051D03*
D12*
X38071846Y-98376051D03*
D13*
X32991846Y-98376051D03*
D12*
X38071846Y-98376051D03*
D10*
X35531846Y-103456051D03*
X40611846Y-103456051D03*
X34261846Y-100916051D03*
X41881846Y-100916051D03*
%TD*%
D14*
%TO.C,L10*%
X97361846Y-72921051D03*
X97361846Y-74671051D03*
X92761846Y-74671051D03*
X92761846Y-72921051D03*
%TD*%
%TO.C,L27*%
X111761846Y-141171051D03*
X111761846Y-139421051D03*
X116361846Y-139421051D03*
X116361846Y-141171051D03*
%TD*%
D12*
%TO.C,SW26*%
X95071846Y-136376051D03*
D13*
X100151846Y-136376051D03*
X89991846Y-136376051D03*
D12*
X95071846Y-136376051D03*
D10*
X97611846Y-141456051D03*
X92531846Y-141456051D03*
X98881846Y-138916051D03*
X91261846Y-138916051D03*
%TD*%
D13*
%TO.C,SW18*%
X138151846Y-112626051D03*
X127991846Y-112626051D03*
D12*
X133071846Y-112626051D03*
X133071846Y-112626051D03*
D10*
X130531846Y-117706051D03*
X135611846Y-117706051D03*
X136881846Y-115166051D03*
X129261846Y-115166051D03*
%TD*%
D14*
%TO.C,L5*%
X111761846Y-65171051D03*
X111761846Y-63421051D03*
X116361846Y-63421051D03*
X116361846Y-65171051D03*
%TD*%
%TO.C,L16*%
X92761846Y-93671051D03*
X92761846Y-91921051D03*
X97361846Y-91921051D03*
X97361846Y-93671051D03*
%TD*%
D13*
%TO.C,SW21*%
X81151846Y-122126051D03*
D12*
X76071846Y-122126051D03*
X76071846Y-122126051D03*
D13*
X70991846Y-122126051D03*
D10*
X78611846Y-127206051D03*
X73531846Y-127206051D03*
X79881846Y-124666051D03*
X72261846Y-124666051D03*
%TD*%
D16*
%TO.C,L30*%
X172346805Y-183581334D03*
X173932843Y-182841752D03*
X175876887Y-187010768D03*
X174290849Y-187750350D03*
%TD*%
D17*
%TO.C,U1*%
X164148225Y-70347873D03*
X147609410Y-69152128D03*
X164148225Y-72887873D03*
X147609410Y-71692128D03*
X164148225Y-75427873D03*
X147609410Y-74232128D03*
X164148225Y-77967873D03*
X147609410Y-76772128D03*
X164148225Y-80507873D03*
X147609410Y-79312128D03*
X147609410Y-81852128D03*
X164148225Y-83047873D03*
X164148225Y-85587873D03*
X147609410Y-84392128D03*
X164148225Y-88127873D03*
X147609410Y-86932128D03*
X164148225Y-90667873D03*
X147609410Y-89472128D03*
X164148225Y-93207873D03*
X147609410Y-92012128D03*
X164148225Y-95747873D03*
X147609410Y-94552128D03*
X164148225Y-98287873D03*
X147609410Y-97092128D03*
X162849410Y-97092128D03*
X148908225Y-98287873D03*
X162849410Y-94552128D03*
X148908225Y-95747873D03*
X148908225Y-93207873D03*
X162849410Y-92012128D03*
X162849410Y-89472128D03*
X148908225Y-90667873D03*
X148908225Y-88127873D03*
X162849410Y-86932128D03*
X162849410Y-84392128D03*
X148908225Y-85587873D03*
X148908225Y-83047873D03*
X162849410Y-81852128D03*
X162849410Y-79312128D03*
X148908225Y-80507873D03*
X162849410Y-76772128D03*
X148908225Y-77967873D03*
X148908225Y-75427873D03*
X162849410Y-74232128D03*
X162849410Y-71692128D03*
X148908225Y-72887873D03*
X162849410Y-69152128D03*
X148908225Y-70347873D03*
%TD*%
D14*
%TO.C,L12*%
X135361846Y-87171051D03*
X135361846Y-88921051D03*
X130761846Y-88921051D03*
X130761846Y-87171051D03*
%TD*%
D12*
%TO.C,SW22*%
X95071846Y-117376051D03*
X95071846Y-117376051D03*
D13*
X89991846Y-117376051D03*
X100151846Y-117376051D03*
D10*
X92531846Y-122456051D03*
X97611846Y-122456051D03*
X91261846Y-119916051D03*
X98881846Y-119916051D03*
%TD*%
D13*
%TO.C,SW17*%
X108991846Y-107876051D03*
X119151846Y-107876051D03*
D12*
X114071846Y-107876051D03*
X114071846Y-107876051D03*
D10*
X111531846Y-112956051D03*
X116611846Y-112956051D03*
X110261846Y-110416051D03*
X117881846Y-110416051D03*
%TD*%
D14*
%TO.C,L15*%
X73761846Y-98421051D03*
X73761846Y-96671051D03*
X78361846Y-96671051D03*
X78361846Y-98421051D03*
%TD*%
%TO.C,L13*%
X35761846Y-112671051D03*
X35761846Y-110921051D03*
X40361846Y-110921051D03*
X40361846Y-112671051D03*
%TD*%
D15*
%TO.C,D12*%
X133081846Y-100396051D03*
X133081846Y-97096051D03*
%TD*%
D14*
%TO.C,L18*%
X130761846Y-107921051D03*
X130761846Y-106171051D03*
X135361846Y-106171051D03*
X135361846Y-107921051D03*
%TD*%
D12*
%TO.C,SW8*%
X57071846Y-93626051D03*
D13*
X62151846Y-93626051D03*
X51991846Y-93626051D03*
D12*
X57071846Y-93626051D03*
D10*
X59611846Y-98706051D03*
X54531846Y-98706051D03*
X53261846Y-96166051D03*
X60881846Y-96166051D03*
%TD*%
D14*
%TO.C,L21*%
X78361846Y-115671051D03*
X78361846Y-117421051D03*
X73761846Y-117421051D03*
X73761846Y-115671051D03*
%TD*%
D12*
%TO.C,SW6*%
X133071846Y-74626051D03*
D13*
X127991846Y-74626051D03*
X138151846Y-74626051D03*
D12*
X133071846Y-74626051D03*
D10*
X135611846Y-79706051D03*
X130531846Y-79706051D03*
X136881846Y-77166051D03*
X129261846Y-77166051D03*
%TD*%
D12*
%TO.C,SW14*%
X57071846Y-112626051D03*
D13*
X51991846Y-112626051D03*
X62151846Y-112626051D03*
D12*
X57071846Y-112626051D03*
D10*
X59611846Y-117706051D03*
X54531846Y-117706051D03*
X60881846Y-115166051D03*
X53261846Y-115166051D03*
%TD*%
D15*
%TO.C,D27*%
X114081846Y-152646051D03*
X114081846Y-149346051D03*
%TD*%
D18*
%TO.C,U2*%
X163012500Y-109225000D03*
X156012500Y-107275000D03*
X163012500Y-107275000D03*
X156012500Y-109225000D03*
D19*
X153312500Y-104975000D03*
X153312500Y-111525000D03*
X154412500Y-106925000D03*
X154412500Y-109575000D03*
X158412500Y-106925000D03*
X158412500Y-109575000D03*
X161412500Y-109575000D03*
X161412500Y-106925000D03*
%TD*%
D15*
%TO.C,D17*%
X114081846Y-114646051D03*
X114081846Y-111346051D03*
%TD*%
D14*
%TO.C,L26*%
X92761846Y-131671051D03*
X92761846Y-129921051D03*
X97361846Y-129921051D03*
X97361846Y-131671051D03*
%TD*%
D12*
%TO.C,SW9*%
X76071846Y-84126051D03*
D13*
X81151846Y-84126051D03*
D12*
X76071846Y-84126051D03*
D13*
X70991846Y-84126051D03*
D10*
X78611846Y-89206051D03*
X73531846Y-89206051D03*
X72261846Y-86666051D03*
X79881846Y-86666051D03*
%TD*%
D12*
%TO.C,SW4*%
X95071846Y-60376051D03*
D13*
X100151846Y-60376051D03*
D12*
X95071846Y-60376051D03*
D13*
X89991846Y-60376051D03*
D10*
X97611846Y-65456051D03*
X92531846Y-65456051D03*
X91261846Y-62916051D03*
X98881846Y-62916051D03*
%TD*%
%TO.C,B1*%
X150000000Y-108000000D03*
X150000000Y-114000000D03*
X146000000Y-108000000D03*
X146000000Y-114000000D03*
%TD*%
D15*
%TO.C,D5*%
X114081846Y-76646051D03*
X114081846Y-73346051D03*
%TD*%
D14*
%TO.C,L24*%
X135361846Y-125171051D03*
X135361846Y-126921051D03*
X130761846Y-126921051D03*
X130761846Y-125171051D03*
%TD*%
D15*
%TO.C,D22*%
X95081846Y-124146051D03*
X95081846Y-120846051D03*
%TD*%
D14*
%TO.C,L14*%
X54761846Y-107921051D03*
X54761846Y-106171051D03*
X59361846Y-106171051D03*
X59361846Y-107921051D03*
%TD*%
D13*
%TO.C,SW2*%
X51991846Y-74626051D03*
D12*
X57071846Y-74626051D03*
X57071846Y-74626051D03*
D13*
X62151846Y-74626051D03*
D10*
X54531846Y-79706051D03*
X59611846Y-79706051D03*
X60881846Y-77166051D03*
X53261846Y-77166051D03*
%TD*%
D15*
%TO.C,D24*%
X133081846Y-138396051D03*
X133081846Y-135096051D03*
%TD*%
D14*
%TO.C,L23*%
X116300000Y-120375000D03*
X116300000Y-122125000D03*
X111700000Y-122125000D03*
X111700000Y-120375000D03*
%TD*%
D13*
%TO.C,SW29*%
X159203949Y-172388154D03*
X152019744Y-165203949D03*
D12*
X155611846Y-168796051D03*
X155611846Y-168796051D03*
D10*
X150223693Y-170592102D03*
X153815795Y-174184205D03*
X151121718Y-167898026D03*
X156509872Y-173286179D03*
%TD*%
D12*
%TO.C,SW15*%
X76071846Y-103126051D03*
D13*
X81151846Y-103126051D03*
D12*
X76071846Y-103126051D03*
D13*
X70991846Y-103126051D03*
D10*
X78611846Y-108206051D03*
X73531846Y-108206051D03*
X72261846Y-105666051D03*
X79881846Y-105666051D03*
%TD*%
D20*
%TO.C,L29*%
X157366782Y-163788424D03*
X158604219Y-162550987D03*
X161856910Y-165803678D03*
X160619473Y-167041115D03*
%TD*%
D14*
%TO.C,L6*%
X130761846Y-69921051D03*
X130761846Y-68171051D03*
X135361846Y-68171051D03*
X135361846Y-69921051D03*
%TD*%
D15*
%TO.C,D18*%
X133081846Y-119396051D03*
X133081846Y-116096051D03*
%TD*%
%TO.C,D20*%
X57081846Y-138396051D03*
X57081846Y-135096051D03*
%TD*%
D13*
%TO.C,SW16*%
X89991846Y-98376051D03*
D12*
X95071846Y-98376051D03*
D13*
X100151846Y-98376051D03*
D12*
X95071846Y-98376051D03*
D10*
X97611846Y-103456051D03*
X92531846Y-103456051D03*
X98881846Y-100916051D03*
X91261846Y-100916051D03*
%TD*%
D14*
%TO.C,L7*%
X40361846Y-91921051D03*
X40361846Y-93671051D03*
X35761846Y-93671051D03*
X35761846Y-91921051D03*
%TD*%
D13*
%TO.C,SW24*%
X138151846Y-131626051D03*
X127991846Y-131626051D03*
D12*
X133071846Y-131626051D03*
X133071846Y-131626051D03*
D10*
X130531846Y-136706051D03*
X135611846Y-136706051D03*
X129261846Y-134166051D03*
X136881846Y-134166051D03*
%TD*%
D15*
%TO.C,D6*%
X133081846Y-81396051D03*
X133081846Y-78096051D03*
%TD*%
D12*
%TO.C,SW23*%
X114071846Y-126876051D03*
D13*
X119151846Y-126876051D03*
D12*
X114071846Y-126876051D03*
D13*
X108991846Y-126876051D03*
D10*
X116611846Y-131956051D03*
X111531846Y-131956051D03*
X110261846Y-129416051D03*
X117881846Y-129416051D03*
%TD*%
D15*
%TO.C,D16*%
X95081846Y-105146051D03*
X95081846Y-101846051D03*
%TD*%
%TO.C,D4*%
X95081846Y-67146051D03*
X95081846Y-63846051D03*
%TD*%
%TO.C,D1*%
X38081846Y-86146051D03*
X38081846Y-82846051D03*
%TD*%
D12*
%TO.C,SW20*%
X57071846Y-131626051D03*
X57071846Y-131626051D03*
D13*
X62151846Y-131626051D03*
X51991846Y-131626051D03*
D10*
X54531846Y-136706051D03*
X59611846Y-136706051D03*
X53261846Y-134166051D03*
X60881846Y-134166051D03*
%TD*%
D14*
%TO.C,L9*%
X78361846Y-77671051D03*
X78361846Y-79421051D03*
X73761846Y-79421051D03*
X73761846Y-77671051D03*
%TD*%
D21*
%TO.C,D30*%
X162504592Y-190947320D03*
X165495408Y-189552680D03*
%TD*%
D14*
%TO.C,L17*%
X111761846Y-103171051D03*
X111761846Y-101421051D03*
X116361846Y-101421051D03*
X116361846Y-103171051D03*
%TD*%
D15*
%TO.C,D10*%
X95081846Y-86146051D03*
X95081846Y-82846051D03*
%TD*%
%TO.C,D3*%
X76081846Y-71896051D03*
X76081846Y-68596051D03*
%TD*%
D22*
%TO.C,E1*%
X161350000Y-125500000D03*
X150150000Y-125500000D03*
D23*
X158250000Y-118000000D03*
D24*
X153250000Y-118000000D03*
X155750000Y-118000000D03*
X153250000Y-132500000D03*
X158250000Y-132500000D03*
%TD*%
D14*
%TO.C,L25*%
X73761846Y-136421051D03*
X73761846Y-134671051D03*
X78361846Y-134671051D03*
X78361846Y-136421051D03*
%TD*%
D15*
%TO.C,D23*%
X114081846Y-133646051D03*
X114081846Y-130346051D03*
%TD*%
%TO.C,D14*%
X57081846Y-119396051D03*
X57081846Y-116096051D03*
%TD*%
%TO.C,D7*%
X38081846Y-105146051D03*
X38081846Y-101846051D03*
%TD*%
D14*
%TO.C,L8*%
X59361846Y-87171051D03*
X59361846Y-88921051D03*
X54761846Y-88921051D03*
X54761846Y-87171051D03*
%TD*%
D15*
%TO.C,D9*%
X76081846Y-90896051D03*
X76081846Y-87596051D03*
%TD*%
D12*
%TO.C,SW1*%
X38071846Y-79376051D03*
X38071846Y-79376051D03*
D13*
X32991846Y-79376051D03*
X43151846Y-79376051D03*
D10*
X40611846Y-84456051D03*
X35531846Y-84456051D03*
X41881846Y-81916051D03*
X34261846Y-81916051D03*
%TD*%
D13*
%TO.C,SW3*%
X70991846Y-65126051D03*
D12*
X76071846Y-65126051D03*
D13*
X81151846Y-65126051D03*
D12*
X76071846Y-65126051D03*
D10*
X73531846Y-70206051D03*
X78611846Y-70206051D03*
X72261846Y-67666051D03*
X79881846Y-67666051D03*
%TD*%
D15*
%TO.C,D19*%
X38081846Y-143146051D03*
X38081846Y-139846051D03*
%TD*%
D13*
%TO.C,SW11*%
X108991846Y-88876051D03*
X119151846Y-88876051D03*
D12*
X114071846Y-88876051D03*
X114071846Y-88876051D03*
D10*
X116611846Y-93956051D03*
X111531846Y-93956051D03*
X117881846Y-91416051D03*
X110261846Y-91416051D03*
%TD*%
D14*
%TO.C,L22*%
X97361846Y-110921051D03*
X97361846Y-112671051D03*
X92761846Y-112671051D03*
X92761846Y-110921051D03*
%TD*%
%TO.C,L1*%
X35761846Y-74671051D03*
X35761846Y-72921051D03*
X40361846Y-72921051D03*
X40361846Y-74671051D03*
%TD*%
D13*
%TO.C,SW19*%
X32991846Y-136376051D03*
D12*
X38071846Y-136376051D03*
X38071846Y-136376051D03*
D13*
X43151846Y-136376051D03*
D10*
X35531846Y-141456051D03*
X40611846Y-141456051D03*
X34261846Y-138916051D03*
X41881846Y-138916051D03*
%TD*%
D13*
%TO.C,SW25*%
X70991846Y-141126051D03*
X81151846Y-141126051D03*
D12*
X76071846Y-141126051D03*
X76071846Y-141126051D03*
D10*
X73531846Y-146206051D03*
X78611846Y-146206051D03*
X72261846Y-143666051D03*
X79881846Y-143666051D03*
%TD*%
D25*
%TO.C,D29*%
X150833274Y-173666726D03*
X153166726Y-171333274D03*
%TD*%
D13*
%TO.C,SW27*%
X119151846Y-145876051D03*
D12*
X114071846Y-145876051D03*
X114071846Y-145876051D03*
D13*
X108991846Y-145876051D03*
D10*
X111531846Y-150956051D03*
X116611846Y-150956051D03*
X117881846Y-148416051D03*
X110261846Y-148416051D03*
%TD*%
D26*
%TO.C,L28*%
X136657547Y-150117048D03*
X137397129Y-148531010D03*
X141566145Y-150475054D03*
X140826563Y-152061092D03*
%TD*%
D12*
%TO.C,SW30*%
X169111846Y-187796051D03*
D13*
X171258747Y-192400095D03*
D12*
X169111846Y-187796051D03*
D13*
X166964945Y-183192007D03*
D10*
X165581253Y-192244974D03*
X163434352Y-187640930D03*
X165199649Y-185416469D03*
X168420000Y-192322534D03*
%TD*%
D14*
%TO.C,L11*%
X116361846Y-82421051D03*
X116361846Y-84171051D03*
X111761846Y-84171051D03*
X111761846Y-82421051D03*
%TD*%
D15*
%TO.C,D11*%
X114081846Y-95646051D03*
X114081846Y-92346051D03*
%TD*%
%TO.C,D15*%
X76081846Y-109896051D03*
X76081846Y-106596051D03*
%TD*%
D14*
%TO.C,L3*%
X73761846Y-60421051D03*
X73761846Y-58671051D03*
X78361846Y-58671051D03*
X78361846Y-60421051D03*
%TD*%
D27*
%TO.C,D28*%
X133685667Y-162050493D03*
X134814333Y-158949507D03*
%TD*%
D12*
%TO.C,SW12*%
X133071846Y-93626051D03*
D13*
X138151846Y-93626051D03*
D12*
X133071846Y-93626051D03*
D13*
X127991846Y-93626051D03*
D10*
X135611846Y-98706051D03*
X130531846Y-98706051D03*
X129261846Y-96166051D03*
X136881846Y-96166051D03*
%TD*%
D15*
%TO.C,D8*%
X57081846Y-100396051D03*
X57081846Y-97096051D03*
%TD*%
D12*
%TO.C,SW28*%
X136611846Y-155296051D03*
X136611846Y-155296051D03*
D13*
X141215890Y-157442952D03*
X132007803Y-153149150D03*
D10*
X136766967Y-160973545D03*
X132162924Y-158826644D03*
X138991429Y-159208249D03*
X132085363Y-155987897D03*
%TD*%
D28*
%TO.C,J1*%
X151468511Y-100838511D03*
X160358511Y-102108511D03*
X157818511Y-102108511D03*
X154008511Y-100838511D03*
X156548511Y-100838511D03*
X155278511Y-102108511D03*
X152738511Y-102108511D03*
X159088511Y-100838511D03*
%TD*%
D14*
%TO.C,L4*%
X92761846Y-55671051D03*
X92761846Y-53921051D03*
X97361846Y-53921051D03*
X97361846Y-55671051D03*
%TD*%
M02*
