%TF.GenerationSoftware,KiCad,Pcbnew,6.0.5*%
%TF.CreationDate,2022-07-09T20:03:33-05:00*%
%TF.ProjectId,ElevenFingers,456c6576-656e-4466-996e-676572732e6b,rev?*%
%TF.SameCoordinates,Original*%
%TF.FileFunction,Legend,Top*%
%TF.FilePolarity,Positive*%
%FSLAX46Y46*%
G04 Gerber Fmt 4.6, Leading zero omitted, Abs format (unit mm)*
G04 Created by KiCad (PCBNEW 6.0.5) date 2022-07-09 20:03:33*
%MOMM*%
%LPD*%
G01*
G04 APERTURE LIST*
%ADD10C,0.150000*%
%ADD11C,0.120000*%
%ADD12C,1.524000*%
%ADD13C,1.397000*%
G04 APERTURE END LIST*
D10*
%TO.C,*%
%TO.C,SW5*%
X112738512Y-78154812D02*
X112881369Y-78202431D01*
X113119465Y-78202431D01*
X113214703Y-78154812D01*
X113262322Y-78107193D01*
X113309941Y-78011955D01*
X113309941Y-77916717D01*
X113262322Y-77821479D01*
X113214703Y-77773860D01*
X113119465Y-77726241D01*
X112928988Y-77678622D01*
X112833750Y-77631003D01*
X112786131Y-77583384D01*
X112738512Y-77488146D01*
X112738512Y-77392908D01*
X112786131Y-77297670D01*
X112833750Y-77250051D01*
X112928988Y-77202431D01*
X113167084Y-77202431D01*
X113309941Y-77250051D01*
X113643274Y-77202431D02*
X113881369Y-78202431D01*
X114071846Y-77488146D01*
X114262322Y-78202431D01*
X114500417Y-77202431D01*
X115357560Y-77202431D02*
X114881369Y-77202431D01*
X114833750Y-77678622D01*
X114881369Y-77631003D01*
X114976607Y-77583384D01*
X115214703Y-77583384D01*
X115309941Y-77631003D01*
X115357560Y-77678622D01*
X115405179Y-77773860D01*
X115405179Y-78011955D01*
X115357560Y-78107193D01*
X115309941Y-78154812D01*
X115214703Y-78202431D01*
X114976607Y-78202431D01*
X114881369Y-78154812D01*
X114833750Y-78107193D01*
%TO.C,L20*%
X56418988Y-129248431D02*
X55942798Y-129248431D01*
X55942798Y-128248431D01*
X56704703Y-128343670D02*
X56752322Y-128296051D01*
X56847560Y-128248431D01*
X57085655Y-128248431D01*
X57180893Y-128296051D01*
X57228512Y-128343670D01*
X57276131Y-128438908D01*
X57276131Y-128534146D01*
X57228512Y-128677003D01*
X56657084Y-129248431D01*
X57276131Y-129248431D01*
X57895179Y-128248431D02*
X57990417Y-128248431D01*
X58085655Y-128296051D01*
X58133274Y-128343670D01*
X58180893Y-128438908D01*
X58228512Y-128629384D01*
X58228512Y-128867479D01*
X58180893Y-129057955D01*
X58133274Y-129153193D01*
X58085655Y-129200812D01*
X57990417Y-129248431D01*
X57895179Y-129248431D01*
X57799941Y-129200812D01*
X57752322Y-129153193D01*
X57704703Y-129057955D01*
X57657084Y-128867479D01*
X57657084Y-128629384D01*
X57704703Y-128438908D01*
X57752322Y-128343670D01*
X57799941Y-128296051D01*
X57895179Y-128248431D01*
X60847560Y-127373431D02*
X60276131Y-127373431D01*
X60561846Y-127373431D02*
X60561846Y-126373431D01*
X60466607Y-126516289D01*
X60371369Y-126611527D01*
X60276131Y-126659146D01*
%TO.C,SW10*%
X93262322Y-87654812D02*
X93405179Y-87702431D01*
X93643274Y-87702431D01*
X93738512Y-87654812D01*
X93786131Y-87607193D01*
X93833750Y-87511955D01*
X93833750Y-87416717D01*
X93786131Y-87321479D01*
X93738512Y-87273860D01*
X93643274Y-87226241D01*
X93452798Y-87178622D01*
X93357560Y-87131003D01*
X93309941Y-87083384D01*
X93262322Y-86988146D01*
X93262322Y-86892908D01*
X93309941Y-86797670D01*
X93357560Y-86750051D01*
X93452798Y-86702431D01*
X93690893Y-86702431D01*
X93833750Y-86750051D01*
X94167084Y-86702431D02*
X94405179Y-87702431D01*
X94595655Y-86988146D01*
X94786131Y-87702431D01*
X95024226Y-86702431D01*
X95928988Y-87702431D02*
X95357560Y-87702431D01*
X95643274Y-87702431D02*
X95643274Y-86702431D01*
X95548036Y-86845289D01*
X95452798Y-86940527D01*
X95357560Y-86988146D01*
X96548036Y-86702431D02*
X96643274Y-86702431D01*
X96738512Y-86750051D01*
X96786131Y-86797670D01*
X96833750Y-86892908D01*
X96881369Y-87083384D01*
X96881369Y-87321479D01*
X96833750Y-87511955D01*
X96786131Y-87607193D01*
X96738512Y-87654812D01*
X96643274Y-87702431D01*
X96548036Y-87702431D01*
X96452798Y-87654812D01*
X96405179Y-87607193D01*
X96357560Y-87511955D01*
X96309941Y-87321479D01*
X96309941Y-87083384D01*
X96357560Y-86892908D01*
X96405179Y-86797670D01*
X96452798Y-86750051D01*
X96548036Y-86702431D01*
%TO.C,L2*%
X56895179Y-66748431D02*
X56418988Y-66748431D01*
X56418988Y-65748431D01*
X57180893Y-65843670D02*
X57228512Y-65796051D01*
X57323750Y-65748431D01*
X57561846Y-65748431D01*
X57657084Y-65796051D01*
X57704703Y-65843670D01*
X57752322Y-65938908D01*
X57752322Y-66034146D01*
X57704703Y-66177003D01*
X57133274Y-66748431D01*
X57752322Y-66748431D01*
X53847560Y-68623431D02*
X53276131Y-68623431D01*
X53561846Y-68623431D02*
X53561846Y-67623431D01*
X53466607Y-67766289D01*
X53371369Y-67861527D01*
X53276131Y-67909146D01*
%TO.C,D2*%
X55534226Y-80484146D02*
X54534226Y-80484146D01*
X54534226Y-80246051D01*
X54581846Y-80103193D01*
X54677084Y-80007955D01*
X54772322Y-79960336D01*
X54962798Y-79912717D01*
X55105655Y-79912717D01*
X55296131Y-79960336D01*
X55391369Y-80007955D01*
X55486607Y-80103193D01*
X55534226Y-80246051D01*
X55534226Y-80484146D01*
X54629465Y-79531765D02*
X54581846Y-79484146D01*
X54534226Y-79388908D01*
X54534226Y-79150812D01*
X54581846Y-79055574D01*
X54629465Y-79007955D01*
X54724703Y-78960336D01*
X54819941Y-78960336D01*
X54962798Y-79007955D01*
X55534226Y-79579384D01*
X55534226Y-78960336D01*
%TO.C,L19*%
X37418988Y-133998431D02*
X36942798Y-133998431D01*
X36942798Y-132998431D01*
X38276131Y-133998431D02*
X37704703Y-133998431D01*
X37990417Y-133998431D02*
X37990417Y-132998431D01*
X37895179Y-133141289D01*
X37799941Y-133236527D01*
X37704703Y-133284146D01*
X38752322Y-133998431D02*
X38942798Y-133998431D01*
X39038036Y-133950812D01*
X39085655Y-133903193D01*
X39180893Y-133760336D01*
X39228512Y-133569860D01*
X39228512Y-133188908D01*
X39180893Y-133093670D01*
X39133274Y-133046051D01*
X39038036Y-132998431D01*
X38847560Y-132998431D01*
X38752322Y-133046051D01*
X38704703Y-133093670D01*
X38657084Y-133188908D01*
X38657084Y-133427003D01*
X38704703Y-133522241D01*
X38752322Y-133569860D01*
X38847560Y-133617479D01*
X39038036Y-133617479D01*
X39133274Y-133569860D01*
X39180893Y-133522241D01*
X39228512Y-133427003D01*
X41847560Y-132123431D02*
X41276131Y-132123431D01*
X41561846Y-132123431D02*
X41561846Y-131123431D01*
X41466607Y-131266289D01*
X41371369Y-131361527D01*
X41276131Y-131409146D01*
%TO.C,D13*%
X36534226Y-123710336D02*
X35534226Y-123710336D01*
X35534226Y-123472241D01*
X35581846Y-123329384D01*
X35677084Y-123234146D01*
X35772322Y-123186527D01*
X35962798Y-123138908D01*
X36105655Y-123138908D01*
X36296131Y-123186527D01*
X36391369Y-123234146D01*
X36486607Y-123329384D01*
X36534226Y-123472241D01*
X36534226Y-123710336D01*
X36534226Y-122186527D02*
X36534226Y-122757955D01*
X36534226Y-122472241D02*
X35534226Y-122472241D01*
X35677084Y-122567479D01*
X35772322Y-122662717D01*
X35819941Y-122757955D01*
X35534226Y-121853193D02*
X35534226Y-121234146D01*
X35915179Y-121567479D01*
X35915179Y-121424622D01*
X35962798Y-121329384D01*
X36010417Y-121281765D01*
X36105655Y-121234146D01*
X36343750Y-121234146D01*
X36438988Y-121281765D01*
X36486607Y-121329384D01*
X36534226Y-121424622D01*
X36534226Y-121710336D01*
X36486607Y-121805574D01*
X36438988Y-121853193D01*
%TO.C,D26*%
X93534226Y-142710336D02*
X92534226Y-142710336D01*
X92534226Y-142472241D01*
X92581846Y-142329384D01*
X92677084Y-142234146D01*
X92772322Y-142186527D01*
X92962798Y-142138908D01*
X93105655Y-142138908D01*
X93296131Y-142186527D01*
X93391369Y-142234146D01*
X93486607Y-142329384D01*
X93534226Y-142472241D01*
X93534226Y-142710336D01*
X92629465Y-141757955D02*
X92581846Y-141710336D01*
X92534226Y-141615098D01*
X92534226Y-141377003D01*
X92581846Y-141281765D01*
X92629465Y-141234146D01*
X92724703Y-141186527D01*
X92819941Y-141186527D01*
X92962798Y-141234146D01*
X93534226Y-141805574D01*
X93534226Y-141186527D01*
X92534226Y-140329384D02*
X92534226Y-140519860D01*
X92581846Y-140615098D01*
X92629465Y-140662717D01*
X92772322Y-140757955D01*
X92962798Y-140805574D01*
X93343750Y-140805574D01*
X93438988Y-140757955D01*
X93486607Y-140710336D01*
X93534226Y-140615098D01*
X93534226Y-140424622D01*
X93486607Y-140329384D01*
X93438988Y-140281765D01*
X93343750Y-140234146D01*
X93105655Y-140234146D01*
X93010417Y-140281765D01*
X92962798Y-140329384D01*
X92915179Y-140424622D01*
X92915179Y-140615098D01*
X92962798Y-140710336D01*
X93010417Y-140757955D01*
X93105655Y-140805574D01*
%TO.C,D21*%
X74534226Y-128460336D02*
X73534226Y-128460336D01*
X73534226Y-128222241D01*
X73581846Y-128079384D01*
X73677084Y-127984146D01*
X73772322Y-127936527D01*
X73962798Y-127888908D01*
X74105655Y-127888908D01*
X74296131Y-127936527D01*
X74391369Y-127984146D01*
X74486607Y-128079384D01*
X74534226Y-128222241D01*
X74534226Y-128460336D01*
X73629465Y-127507955D02*
X73581846Y-127460336D01*
X73534226Y-127365098D01*
X73534226Y-127127003D01*
X73581846Y-127031765D01*
X73629465Y-126984146D01*
X73724703Y-126936527D01*
X73819941Y-126936527D01*
X73962798Y-126984146D01*
X74534226Y-127555574D01*
X74534226Y-126936527D01*
X74534226Y-125984146D02*
X74534226Y-126555574D01*
X74534226Y-126269860D02*
X73534226Y-126269860D01*
X73677084Y-126365098D01*
X73772322Y-126460336D01*
X73819941Y-126555574D01*
%TO.C,D25*%
X74534226Y-147460336D02*
X73534226Y-147460336D01*
X73534226Y-147222241D01*
X73581846Y-147079384D01*
X73677084Y-146984146D01*
X73772322Y-146936527D01*
X73962798Y-146888908D01*
X74105655Y-146888908D01*
X74296131Y-146936527D01*
X74391369Y-146984146D01*
X74486607Y-147079384D01*
X74534226Y-147222241D01*
X74534226Y-147460336D01*
X73629465Y-146507955D02*
X73581846Y-146460336D01*
X73534226Y-146365098D01*
X73534226Y-146127003D01*
X73581846Y-146031765D01*
X73629465Y-145984146D01*
X73724703Y-145936527D01*
X73819941Y-145936527D01*
X73962798Y-145984146D01*
X74534226Y-146555574D01*
X74534226Y-145936527D01*
X73534226Y-145031765D02*
X73534226Y-145507955D01*
X74010417Y-145555574D01*
X73962798Y-145507955D01*
X73915179Y-145412717D01*
X73915179Y-145174622D01*
X73962798Y-145079384D01*
X74010417Y-145031765D01*
X74105655Y-144984146D01*
X74343750Y-144984146D01*
X74438988Y-145031765D01*
X74486607Y-145079384D01*
X74534226Y-145174622D01*
X74534226Y-145412717D01*
X74486607Y-145507955D01*
X74438988Y-145555574D01*
%TO.C,SW13*%
X36262322Y-125654812D02*
X36405179Y-125702431D01*
X36643274Y-125702431D01*
X36738512Y-125654812D01*
X36786131Y-125607193D01*
X36833750Y-125511955D01*
X36833750Y-125416717D01*
X36786131Y-125321479D01*
X36738512Y-125273860D01*
X36643274Y-125226241D01*
X36452798Y-125178622D01*
X36357560Y-125131003D01*
X36309941Y-125083384D01*
X36262322Y-124988146D01*
X36262322Y-124892908D01*
X36309941Y-124797670D01*
X36357560Y-124750051D01*
X36452798Y-124702431D01*
X36690893Y-124702431D01*
X36833750Y-124750051D01*
X37167084Y-124702431D02*
X37405179Y-125702431D01*
X37595655Y-124988146D01*
X37786131Y-125702431D01*
X38024226Y-124702431D01*
X38928988Y-125702431D02*
X38357560Y-125702431D01*
X38643274Y-125702431D02*
X38643274Y-124702431D01*
X38548036Y-124845289D01*
X38452798Y-124940527D01*
X38357560Y-124988146D01*
X39262322Y-124702431D02*
X39881369Y-124702431D01*
X39548036Y-125083384D01*
X39690893Y-125083384D01*
X39786131Y-125131003D01*
X39833750Y-125178622D01*
X39881369Y-125273860D01*
X39881369Y-125511955D01*
X39833750Y-125607193D01*
X39786131Y-125654812D01*
X39690893Y-125702431D01*
X39405179Y-125702431D01*
X39309941Y-125654812D01*
X39262322Y-125607193D01*
%TO.C,SW7*%
X36738512Y-106654812D02*
X36881369Y-106702431D01*
X37119465Y-106702431D01*
X37214703Y-106654812D01*
X37262322Y-106607193D01*
X37309941Y-106511955D01*
X37309941Y-106416717D01*
X37262322Y-106321479D01*
X37214703Y-106273860D01*
X37119465Y-106226241D01*
X36928988Y-106178622D01*
X36833750Y-106131003D01*
X36786131Y-106083384D01*
X36738512Y-105988146D01*
X36738512Y-105892908D01*
X36786131Y-105797670D01*
X36833750Y-105750051D01*
X36928988Y-105702431D01*
X37167084Y-105702431D01*
X37309941Y-105750051D01*
X37643274Y-105702431D02*
X37881369Y-106702431D01*
X38071846Y-105988146D01*
X38262322Y-106702431D01*
X38500417Y-105702431D01*
X38786131Y-105702431D02*
X39452798Y-105702431D01*
X39024226Y-106702431D01*
%TO.C,L10*%
X94418988Y-76998431D02*
X93942798Y-76998431D01*
X93942798Y-75998431D01*
X95276131Y-76998431D02*
X94704703Y-76998431D01*
X94990417Y-76998431D02*
X94990417Y-75998431D01*
X94895179Y-76141289D01*
X94799941Y-76236527D01*
X94704703Y-76284146D01*
X95895179Y-75998431D02*
X95990417Y-75998431D01*
X96085655Y-76046051D01*
X96133274Y-76093670D01*
X96180893Y-76188908D01*
X96228512Y-76379384D01*
X96228512Y-76617479D01*
X96180893Y-76807955D01*
X96133274Y-76903193D01*
X96085655Y-76950812D01*
X95990417Y-76998431D01*
X95895179Y-76998431D01*
X95799941Y-76950812D01*
X95752322Y-76903193D01*
X95704703Y-76807955D01*
X95657084Y-76617479D01*
X95657084Y-76379384D01*
X95704703Y-76188908D01*
X95752322Y-76093670D01*
X95799941Y-76046051D01*
X95895179Y-75998431D01*
X98847560Y-75123431D02*
X98276131Y-75123431D01*
X98561846Y-75123431D02*
X98561846Y-74123431D01*
X98466607Y-74266289D01*
X98371369Y-74361527D01*
X98276131Y-74409146D01*
%TO.C,L27*%
X113418988Y-137998431D02*
X112942798Y-137998431D01*
X112942798Y-136998431D01*
X113704703Y-137093670D02*
X113752322Y-137046051D01*
X113847560Y-136998431D01*
X114085655Y-136998431D01*
X114180893Y-137046051D01*
X114228512Y-137093670D01*
X114276131Y-137188908D01*
X114276131Y-137284146D01*
X114228512Y-137427003D01*
X113657084Y-137998431D01*
X114276131Y-137998431D01*
X114609465Y-136998431D02*
X115276131Y-136998431D01*
X114847560Y-137998431D01*
X110847560Y-139873431D02*
X110276131Y-139873431D01*
X110561846Y-139873431D02*
X110561846Y-138873431D01*
X110466607Y-139016289D01*
X110371369Y-139111527D01*
X110276131Y-139159146D01*
%TO.C,SW26*%
X93262322Y-144654812D02*
X93405179Y-144702431D01*
X93643274Y-144702431D01*
X93738512Y-144654812D01*
X93786131Y-144607193D01*
X93833750Y-144511955D01*
X93833750Y-144416717D01*
X93786131Y-144321479D01*
X93738512Y-144273860D01*
X93643274Y-144226241D01*
X93452798Y-144178622D01*
X93357560Y-144131003D01*
X93309941Y-144083384D01*
X93262322Y-143988146D01*
X93262322Y-143892908D01*
X93309941Y-143797670D01*
X93357560Y-143750051D01*
X93452798Y-143702431D01*
X93690893Y-143702431D01*
X93833750Y-143750051D01*
X94167084Y-143702431D02*
X94405179Y-144702431D01*
X94595655Y-143988146D01*
X94786131Y-144702431D01*
X95024226Y-143702431D01*
X95357560Y-143797670D02*
X95405179Y-143750051D01*
X95500417Y-143702431D01*
X95738512Y-143702431D01*
X95833750Y-143750051D01*
X95881369Y-143797670D01*
X95928988Y-143892908D01*
X95928988Y-143988146D01*
X95881369Y-144131003D01*
X95309941Y-144702431D01*
X95928988Y-144702431D01*
X96786131Y-143702431D02*
X96595655Y-143702431D01*
X96500417Y-143750051D01*
X96452798Y-143797670D01*
X96357560Y-143940527D01*
X96309941Y-144131003D01*
X96309941Y-144511955D01*
X96357560Y-144607193D01*
X96405179Y-144654812D01*
X96500417Y-144702431D01*
X96690893Y-144702431D01*
X96786131Y-144654812D01*
X96833750Y-144607193D01*
X96881369Y-144511955D01*
X96881369Y-144273860D01*
X96833750Y-144178622D01*
X96786131Y-144131003D01*
X96690893Y-144083384D01*
X96500417Y-144083384D01*
X96405179Y-144131003D01*
X96357560Y-144178622D01*
X96309941Y-144273860D01*
%TO.C,SW18*%
X131262322Y-120904812D02*
X131405179Y-120952431D01*
X131643274Y-120952431D01*
X131738512Y-120904812D01*
X131786131Y-120857193D01*
X131833750Y-120761955D01*
X131833750Y-120666717D01*
X131786131Y-120571479D01*
X131738512Y-120523860D01*
X131643274Y-120476241D01*
X131452798Y-120428622D01*
X131357560Y-120381003D01*
X131309941Y-120333384D01*
X131262322Y-120238146D01*
X131262322Y-120142908D01*
X131309941Y-120047670D01*
X131357560Y-120000051D01*
X131452798Y-119952431D01*
X131690893Y-119952431D01*
X131833750Y-120000051D01*
X132167084Y-119952431D02*
X132405179Y-120952431D01*
X132595655Y-120238146D01*
X132786131Y-120952431D01*
X133024226Y-119952431D01*
X133928988Y-120952431D02*
X133357560Y-120952431D01*
X133643274Y-120952431D02*
X133643274Y-119952431D01*
X133548036Y-120095289D01*
X133452798Y-120190527D01*
X133357560Y-120238146D01*
X134500417Y-120381003D02*
X134405179Y-120333384D01*
X134357560Y-120285765D01*
X134309941Y-120190527D01*
X134309941Y-120142908D01*
X134357560Y-120047670D01*
X134405179Y-120000051D01*
X134500417Y-119952431D01*
X134690893Y-119952431D01*
X134786131Y-120000051D01*
X134833750Y-120047670D01*
X134881369Y-120142908D01*
X134881369Y-120190527D01*
X134833750Y-120285765D01*
X134786131Y-120333384D01*
X134690893Y-120381003D01*
X134500417Y-120381003D01*
X134405179Y-120428622D01*
X134357560Y-120476241D01*
X134309941Y-120571479D01*
X134309941Y-120761955D01*
X134357560Y-120857193D01*
X134405179Y-120904812D01*
X134500417Y-120952431D01*
X134690893Y-120952431D01*
X134786131Y-120904812D01*
X134833750Y-120857193D01*
X134881369Y-120761955D01*
X134881369Y-120571479D01*
X134833750Y-120476241D01*
X134786131Y-120428622D01*
X134690893Y-120381003D01*
%TO.C,L5*%
X113895179Y-61998431D02*
X113418988Y-61998431D01*
X113418988Y-60998431D01*
X114704703Y-60998431D02*
X114228512Y-60998431D01*
X114180893Y-61474622D01*
X114228512Y-61427003D01*
X114323750Y-61379384D01*
X114561846Y-61379384D01*
X114657084Y-61427003D01*
X114704703Y-61474622D01*
X114752322Y-61569860D01*
X114752322Y-61807955D01*
X114704703Y-61903193D01*
X114657084Y-61950812D01*
X114561846Y-61998431D01*
X114323750Y-61998431D01*
X114228512Y-61950812D01*
X114180893Y-61903193D01*
X110847560Y-63873431D02*
X110276131Y-63873431D01*
X110561846Y-63873431D02*
X110561846Y-62873431D01*
X110466607Y-63016289D01*
X110371369Y-63111527D01*
X110276131Y-63159146D01*
%TO.C,L16*%
X94418988Y-90498431D02*
X93942798Y-90498431D01*
X93942798Y-89498431D01*
X95276131Y-90498431D02*
X94704703Y-90498431D01*
X94990417Y-90498431D02*
X94990417Y-89498431D01*
X94895179Y-89641289D01*
X94799941Y-89736527D01*
X94704703Y-89784146D01*
X96133274Y-89498431D02*
X95942798Y-89498431D01*
X95847560Y-89546051D01*
X95799941Y-89593670D01*
X95704703Y-89736527D01*
X95657084Y-89927003D01*
X95657084Y-90307955D01*
X95704703Y-90403193D01*
X95752322Y-90450812D01*
X95847560Y-90498431D01*
X96038036Y-90498431D01*
X96133274Y-90450812D01*
X96180893Y-90403193D01*
X96228512Y-90307955D01*
X96228512Y-90069860D01*
X96180893Y-89974622D01*
X96133274Y-89927003D01*
X96038036Y-89879384D01*
X95847560Y-89879384D01*
X95752322Y-89927003D01*
X95704703Y-89974622D01*
X95657084Y-90069860D01*
X91847560Y-92373431D02*
X91276131Y-92373431D01*
X91561846Y-92373431D02*
X91561846Y-91373431D01*
X91466607Y-91516289D01*
X91371369Y-91611527D01*
X91276131Y-91659146D01*
%TO.C,SW21*%
X74262322Y-130404812D02*
X74405179Y-130452431D01*
X74643274Y-130452431D01*
X74738512Y-130404812D01*
X74786131Y-130357193D01*
X74833750Y-130261955D01*
X74833750Y-130166717D01*
X74786131Y-130071479D01*
X74738512Y-130023860D01*
X74643274Y-129976241D01*
X74452798Y-129928622D01*
X74357560Y-129881003D01*
X74309941Y-129833384D01*
X74262322Y-129738146D01*
X74262322Y-129642908D01*
X74309941Y-129547670D01*
X74357560Y-129500051D01*
X74452798Y-129452431D01*
X74690893Y-129452431D01*
X74833750Y-129500051D01*
X75167084Y-129452431D02*
X75405179Y-130452431D01*
X75595655Y-129738146D01*
X75786131Y-130452431D01*
X76024226Y-129452431D01*
X76357560Y-129547670D02*
X76405179Y-129500051D01*
X76500417Y-129452431D01*
X76738512Y-129452431D01*
X76833750Y-129500051D01*
X76881369Y-129547670D01*
X76928988Y-129642908D01*
X76928988Y-129738146D01*
X76881369Y-129881003D01*
X76309941Y-130452431D01*
X76928988Y-130452431D01*
X77881369Y-130452431D02*
X77309941Y-130452431D01*
X77595655Y-130452431D02*
X77595655Y-129452431D01*
X77500417Y-129595289D01*
X77405179Y-129690527D01*
X77309941Y-129738146D01*
%TO.C,L30*%
X177285871Y-184525292D02*
X177487118Y-184956868D01*
X176580810Y-185379486D01*
X176278940Y-184732123D02*
X176017319Y-184171075D01*
X176503452Y-184312181D01*
X176443078Y-184182708D01*
X176445986Y-184076268D01*
X176469019Y-184012986D01*
X176535209Y-183929579D01*
X176750997Y-183828956D01*
X176857436Y-183831864D01*
X176920719Y-183854897D01*
X177004126Y-183921087D01*
X177124874Y-184180032D01*
X177121965Y-184286472D01*
X177098933Y-184349754D01*
X175755698Y-183610028D02*
X175715449Y-183523713D01*
X175718357Y-183417273D01*
X175741390Y-183353991D01*
X175807580Y-183270584D01*
X175960086Y-183146928D01*
X176175873Y-183046304D01*
X176368628Y-183008963D01*
X176475068Y-183011871D01*
X176538350Y-183034904D01*
X176621757Y-183101095D01*
X176662006Y-183187410D01*
X176659098Y-183293849D01*
X176636065Y-183357131D01*
X176569875Y-183440538D01*
X176417369Y-183564195D01*
X176201582Y-183664818D01*
X176008827Y-183702159D01*
X175902387Y-183699251D01*
X175839105Y-183676218D01*
X175755698Y-183610028D01*
X173714949Y-181304053D02*
X173956445Y-181821943D01*
X173835697Y-181562998D02*
X172929389Y-181985616D01*
X173099111Y-182011557D01*
X173225675Y-182057623D01*
X173309082Y-182123813D01*
%TO.C,L12*%
X132418988Y-91248431D02*
X131942798Y-91248431D01*
X131942798Y-90248431D01*
X133276131Y-91248431D02*
X132704703Y-91248431D01*
X132990417Y-91248431D02*
X132990417Y-90248431D01*
X132895179Y-90391289D01*
X132799941Y-90486527D01*
X132704703Y-90534146D01*
X133657084Y-90343670D02*
X133704703Y-90296051D01*
X133799941Y-90248431D01*
X134038036Y-90248431D01*
X134133274Y-90296051D01*
X134180893Y-90343670D01*
X134228512Y-90438908D01*
X134228512Y-90534146D01*
X134180893Y-90677003D01*
X133609465Y-91248431D01*
X134228512Y-91248431D01*
X136847560Y-89373431D02*
X136276131Y-89373431D01*
X136561846Y-89373431D02*
X136561846Y-88373431D01*
X136466607Y-88516289D01*
X136371369Y-88611527D01*
X136276131Y-88659146D01*
%TO.C,SW22*%
X93262322Y-125654812D02*
X93405179Y-125702431D01*
X93643274Y-125702431D01*
X93738512Y-125654812D01*
X93786131Y-125607193D01*
X93833750Y-125511955D01*
X93833750Y-125416717D01*
X93786131Y-125321479D01*
X93738512Y-125273860D01*
X93643274Y-125226241D01*
X93452798Y-125178622D01*
X93357560Y-125131003D01*
X93309941Y-125083384D01*
X93262322Y-124988146D01*
X93262322Y-124892908D01*
X93309941Y-124797670D01*
X93357560Y-124750051D01*
X93452798Y-124702431D01*
X93690893Y-124702431D01*
X93833750Y-124750051D01*
X94167084Y-124702431D02*
X94405179Y-125702431D01*
X94595655Y-124988146D01*
X94786131Y-125702431D01*
X95024226Y-124702431D01*
X95357560Y-124797670D02*
X95405179Y-124750051D01*
X95500417Y-124702431D01*
X95738512Y-124702431D01*
X95833750Y-124750051D01*
X95881369Y-124797670D01*
X95928988Y-124892908D01*
X95928988Y-124988146D01*
X95881369Y-125131003D01*
X95309941Y-125702431D01*
X95928988Y-125702431D01*
X96309941Y-124797670D02*
X96357560Y-124750051D01*
X96452798Y-124702431D01*
X96690893Y-124702431D01*
X96786131Y-124750051D01*
X96833750Y-124797670D01*
X96881369Y-124892908D01*
X96881369Y-124988146D01*
X96833750Y-125131003D01*
X96262322Y-125702431D01*
X96881369Y-125702431D01*
%TO.C,SW17*%
X112262322Y-116154812D02*
X112405179Y-116202431D01*
X112643274Y-116202431D01*
X112738512Y-116154812D01*
X112786131Y-116107193D01*
X112833750Y-116011955D01*
X112833750Y-115916717D01*
X112786131Y-115821479D01*
X112738512Y-115773860D01*
X112643274Y-115726241D01*
X112452798Y-115678622D01*
X112357560Y-115631003D01*
X112309941Y-115583384D01*
X112262322Y-115488146D01*
X112262322Y-115392908D01*
X112309941Y-115297670D01*
X112357560Y-115250051D01*
X112452798Y-115202431D01*
X112690893Y-115202431D01*
X112833750Y-115250051D01*
X113167084Y-115202431D02*
X113405179Y-116202431D01*
X113595655Y-115488146D01*
X113786131Y-116202431D01*
X114024226Y-115202431D01*
X114928988Y-116202431D02*
X114357560Y-116202431D01*
X114643274Y-116202431D02*
X114643274Y-115202431D01*
X114548036Y-115345289D01*
X114452798Y-115440527D01*
X114357560Y-115488146D01*
X115262322Y-115202431D02*
X115928988Y-115202431D01*
X115500417Y-116202431D01*
%TO.C,L15*%
X75418988Y-95248431D02*
X74942798Y-95248431D01*
X74942798Y-94248431D01*
X76276131Y-95248431D02*
X75704703Y-95248431D01*
X75990417Y-95248431D02*
X75990417Y-94248431D01*
X75895179Y-94391289D01*
X75799941Y-94486527D01*
X75704703Y-94534146D01*
X77180893Y-94248431D02*
X76704703Y-94248431D01*
X76657084Y-94724622D01*
X76704703Y-94677003D01*
X76799941Y-94629384D01*
X77038036Y-94629384D01*
X77133274Y-94677003D01*
X77180893Y-94724622D01*
X77228512Y-94819860D01*
X77228512Y-95057955D01*
X77180893Y-95153193D01*
X77133274Y-95200812D01*
X77038036Y-95248431D01*
X76799941Y-95248431D01*
X76704703Y-95200812D01*
X76657084Y-95153193D01*
X72847560Y-97123431D02*
X72276131Y-97123431D01*
X72561846Y-97123431D02*
X72561846Y-96123431D01*
X72466607Y-96266289D01*
X72371369Y-96361527D01*
X72276131Y-96409146D01*
%TO.C,L13*%
X37418988Y-109498431D02*
X36942798Y-109498431D01*
X36942798Y-108498431D01*
X38276131Y-109498431D02*
X37704703Y-109498431D01*
X37990417Y-109498431D02*
X37990417Y-108498431D01*
X37895179Y-108641289D01*
X37799941Y-108736527D01*
X37704703Y-108784146D01*
X38609465Y-108498431D02*
X39228512Y-108498431D01*
X38895179Y-108879384D01*
X39038036Y-108879384D01*
X39133274Y-108927003D01*
X39180893Y-108974622D01*
X39228512Y-109069860D01*
X39228512Y-109307955D01*
X39180893Y-109403193D01*
X39133274Y-109450812D01*
X39038036Y-109498431D01*
X38752322Y-109498431D01*
X38657084Y-109450812D01*
X38609465Y-109403193D01*
X34847560Y-111373431D02*
X34276131Y-111373431D01*
X34561846Y-111373431D02*
X34561846Y-110373431D01*
X34466607Y-110516289D01*
X34371369Y-110611527D01*
X34276131Y-110659146D01*
%TO.C,D12*%
X131534226Y-99960336D02*
X130534226Y-99960336D01*
X130534226Y-99722241D01*
X130581846Y-99579384D01*
X130677084Y-99484146D01*
X130772322Y-99436527D01*
X130962798Y-99388908D01*
X131105655Y-99388908D01*
X131296131Y-99436527D01*
X131391369Y-99484146D01*
X131486607Y-99579384D01*
X131534226Y-99722241D01*
X131534226Y-99960336D01*
X131534226Y-98436527D02*
X131534226Y-99007955D01*
X131534226Y-98722241D02*
X130534226Y-98722241D01*
X130677084Y-98817479D01*
X130772322Y-98912717D01*
X130819941Y-99007955D01*
X130629465Y-98055574D02*
X130581846Y-98007955D01*
X130534226Y-97912717D01*
X130534226Y-97674622D01*
X130581846Y-97579384D01*
X130629465Y-97531765D01*
X130724703Y-97484146D01*
X130819941Y-97484146D01*
X130962798Y-97531765D01*
X131534226Y-98103193D01*
X131534226Y-97484146D01*
%TO.C,L18*%
X132418988Y-104748431D02*
X131942798Y-104748431D01*
X131942798Y-103748431D01*
X133276131Y-104748431D02*
X132704703Y-104748431D01*
X132990417Y-104748431D02*
X132990417Y-103748431D01*
X132895179Y-103891289D01*
X132799941Y-103986527D01*
X132704703Y-104034146D01*
X133847560Y-104177003D02*
X133752322Y-104129384D01*
X133704703Y-104081765D01*
X133657084Y-103986527D01*
X133657084Y-103938908D01*
X133704703Y-103843670D01*
X133752322Y-103796051D01*
X133847560Y-103748431D01*
X134038036Y-103748431D01*
X134133274Y-103796051D01*
X134180893Y-103843670D01*
X134228512Y-103938908D01*
X134228512Y-103986527D01*
X134180893Y-104081765D01*
X134133274Y-104129384D01*
X134038036Y-104177003D01*
X133847560Y-104177003D01*
X133752322Y-104224622D01*
X133704703Y-104272241D01*
X133657084Y-104367479D01*
X133657084Y-104557955D01*
X133704703Y-104653193D01*
X133752322Y-104700812D01*
X133847560Y-104748431D01*
X134038036Y-104748431D01*
X134133274Y-104700812D01*
X134180893Y-104653193D01*
X134228512Y-104557955D01*
X134228512Y-104367479D01*
X134180893Y-104272241D01*
X134133274Y-104224622D01*
X134038036Y-104177003D01*
X129847560Y-106623431D02*
X129276131Y-106623431D01*
X129561846Y-106623431D02*
X129561846Y-105623431D01*
X129466607Y-105766289D01*
X129371369Y-105861527D01*
X129276131Y-105909146D01*
%TO.C,SW8*%
X55738512Y-101904812D02*
X55881369Y-101952431D01*
X56119465Y-101952431D01*
X56214703Y-101904812D01*
X56262322Y-101857193D01*
X56309941Y-101761955D01*
X56309941Y-101666717D01*
X56262322Y-101571479D01*
X56214703Y-101523860D01*
X56119465Y-101476241D01*
X55928988Y-101428622D01*
X55833750Y-101381003D01*
X55786131Y-101333384D01*
X55738512Y-101238146D01*
X55738512Y-101142908D01*
X55786131Y-101047670D01*
X55833750Y-101000051D01*
X55928988Y-100952431D01*
X56167084Y-100952431D01*
X56309941Y-101000051D01*
X56643274Y-100952431D02*
X56881369Y-101952431D01*
X57071846Y-101238146D01*
X57262322Y-101952431D01*
X57500417Y-100952431D01*
X58024226Y-101381003D02*
X57928988Y-101333384D01*
X57881369Y-101285765D01*
X57833750Y-101190527D01*
X57833750Y-101142908D01*
X57881369Y-101047670D01*
X57928988Y-101000051D01*
X58024226Y-100952431D01*
X58214703Y-100952431D01*
X58309941Y-101000051D01*
X58357560Y-101047670D01*
X58405179Y-101142908D01*
X58405179Y-101190527D01*
X58357560Y-101285765D01*
X58309941Y-101333384D01*
X58214703Y-101381003D01*
X58024226Y-101381003D01*
X57928988Y-101428622D01*
X57881369Y-101476241D01*
X57833750Y-101571479D01*
X57833750Y-101761955D01*
X57881369Y-101857193D01*
X57928988Y-101904812D01*
X58024226Y-101952431D01*
X58214703Y-101952431D01*
X58309941Y-101904812D01*
X58357560Y-101857193D01*
X58405179Y-101761955D01*
X58405179Y-101571479D01*
X58357560Y-101476241D01*
X58309941Y-101428622D01*
X58214703Y-101381003D01*
%TO.C,L21*%
X75418988Y-119748431D02*
X74942798Y-119748431D01*
X74942798Y-118748431D01*
X75704703Y-118843670D02*
X75752322Y-118796051D01*
X75847560Y-118748431D01*
X76085655Y-118748431D01*
X76180893Y-118796051D01*
X76228512Y-118843670D01*
X76276131Y-118938908D01*
X76276131Y-119034146D01*
X76228512Y-119177003D01*
X75657084Y-119748431D01*
X76276131Y-119748431D01*
X77228512Y-119748431D02*
X76657084Y-119748431D01*
X76942798Y-119748431D02*
X76942798Y-118748431D01*
X76847560Y-118891289D01*
X76752322Y-118986527D01*
X76657084Y-119034146D01*
X79847560Y-117873431D02*
X79276131Y-117873431D01*
X79561846Y-117873431D02*
X79561846Y-116873431D01*
X79466607Y-117016289D01*
X79371369Y-117111527D01*
X79276131Y-117159146D01*
%TO.C,SW6*%
X131738512Y-82904812D02*
X131881369Y-82952431D01*
X132119465Y-82952431D01*
X132214703Y-82904812D01*
X132262322Y-82857193D01*
X132309941Y-82761955D01*
X132309941Y-82666717D01*
X132262322Y-82571479D01*
X132214703Y-82523860D01*
X132119465Y-82476241D01*
X131928988Y-82428622D01*
X131833750Y-82381003D01*
X131786131Y-82333384D01*
X131738512Y-82238146D01*
X131738512Y-82142908D01*
X131786131Y-82047670D01*
X131833750Y-82000051D01*
X131928988Y-81952431D01*
X132167084Y-81952431D01*
X132309941Y-82000051D01*
X132643274Y-81952431D02*
X132881369Y-82952431D01*
X133071846Y-82238146D01*
X133262322Y-82952431D01*
X133500417Y-81952431D01*
X134309941Y-81952431D02*
X134119465Y-81952431D01*
X134024226Y-82000051D01*
X133976607Y-82047670D01*
X133881369Y-82190527D01*
X133833750Y-82381003D01*
X133833750Y-82761955D01*
X133881369Y-82857193D01*
X133928988Y-82904812D01*
X134024226Y-82952431D01*
X134214703Y-82952431D01*
X134309941Y-82904812D01*
X134357560Y-82857193D01*
X134405179Y-82761955D01*
X134405179Y-82523860D01*
X134357560Y-82428622D01*
X134309941Y-82381003D01*
X134214703Y-82333384D01*
X134024226Y-82333384D01*
X133928988Y-82381003D01*
X133881369Y-82428622D01*
X133833750Y-82523860D01*
%TO.C,SW14*%
X55262322Y-120904812D02*
X55405179Y-120952431D01*
X55643274Y-120952431D01*
X55738512Y-120904812D01*
X55786131Y-120857193D01*
X55833750Y-120761955D01*
X55833750Y-120666717D01*
X55786131Y-120571479D01*
X55738512Y-120523860D01*
X55643274Y-120476241D01*
X55452798Y-120428622D01*
X55357560Y-120381003D01*
X55309941Y-120333384D01*
X55262322Y-120238146D01*
X55262322Y-120142908D01*
X55309941Y-120047670D01*
X55357560Y-120000051D01*
X55452798Y-119952431D01*
X55690893Y-119952431D01*
X55833750Y-120000051D01*
X56167084Y-119952431D02*
X56405179Y-120952431D01*
X56595655Y-120238146D01*
X56786131Y-120952431D01*
X57024226Y-119952431D01*
X57928988Y-120952431D02*
X57357560Y-120952431D01*
X57643274Y-120952431D02*
X57643274Y-119952431D01*
X57548036Y-120095289D01*
X57452798Y-120190527D01*
X57357560Y-120238146D01*
X58786131Y-120285765D02*
X58786131Y-120952431D01*
X58548036Y-119904812D02*
X58309941Y-120619098D01*
X58928988Y-120619098D01*
%TO.C,D27*%
X112534226Y-152210336D02*
X111534226Y-152210336D01*
X111534226Y-151972241D01*
X111581846Y-151829384D01*
X111677084Y-151734146D01*
X111772322Y-151686527D01*
X111962798Y-151638908D01*
X112105655Y-151638908D01*
X112296131Y-151686527D01*
X112391369Y-151734146D01*
X112486607Y-151829384D01*
X112534226Y-151972241D01*
X112534226Y-152210336D01*
X111629465Y-151257955D02*
X111581846Y-151210336D01*
X111534226Y-151115098D01*
X111534226Y-150877003D01*
X111581846Y-150781765D01*
X111629465Y-150734146D01*
X111724703Y-150686527D01*
X111819941Y-150686527D01*
X111962798Y-150734146D01*
X112534226Y-151305574D01*
X112534226Y-150686527D01*
X111534226Y-150353193D02*
X111534226Y-149686527D01*
X112534226Y-150115098D01*
%TO.C,D17*%
X112534226Y-114210336D02*
X111534226Y-114210336D01*
X111534226Y-113972241D01*
X111581846Y-113829384D01*
X111677084Y-113734146D01*
X111772322Y-113686527D01*
X111962798Y-113638908D01*
X112105655Y-113638908D01*
X112296131Y-113686527D01*
X112391369Y-113734146D01*
X112486607Y-113829384D01*
X112534226Y-113972241D01*
X112534226Y-114210336D01*
X112534226Y-112686527D02*
X112534226Y-113257955D01*
X112534226Y-112972241D02*
X111534226Y-112972241D01*
X111677084Y-113067479D01*
X111772322Y-113162717D01*
X111819941Y-113257955D01*
X111534226Y-112353193D02*
X111534226Y-111686527D01*
X112534226Y-112115098D01*
%TO.C,L26*%
X94418988Y-128498431D02*
X93942798Y-128498431D01*
X93942798Y-127498431D01*
X94704703Y-127593670D02*
X94752322Y-127546051D01*
X94847560Y-127498431D01*
X95085655Y-127498431D01*
X95180893Y-127546051D01*
X95228512Y-127593670D01*
X95276131Y-127688908D01*
X95276131Y-127784146D01*
X95228512Y-127927003D01*
X94657084Y-128498431D01*
X95276131Y-128498431D01*
X96133274Y-127498431D02*
X95942798Y-127498431D01*
X95847560Y-127546051D01*
X95799941Y-127593670D01*
X95704703Y-127736527D01*
X95657084Y-127927003D01*
X95657084Y-128307955D01*
X95704703Y-128403193D01*
X95752322Y-128450812D01*
X95847560Y-128498431D01*
X96038036Y-128498431D01*
X96133274Y-128450812D01*
X96180893Y-128403193D01*
X96228512Y-128307955D01*
X96228512Y-128069860D01*
X96180893Y-127974622D01*
X96133274Y-127927003D01*
X96038036Y-127879384D01*
X95847560Y-127879384D01*
X95752322Y-127927003D01*
X95704703Y-127974622D01*
X95657084Y-128069860D01*
X91847560Y-130373431D02*
X91276131Y-130373431D01*
X91561846Y-130373431D02*
X91561846Y-129373431D01*
X91466607Y-129516289D01*
X91371369Y-129611527D01*
X91276131Y-129659146D01*
%TO.C,SW9*%
X74738512Y-92404812D02*
X74881369Y-92452431D01*
X75119465Y-92452431D01*
X75214703Y-92404812D01*
X75262322Y-92357193D01*
X75309941Y-92261955D01*
X75309941Y-92166717D01*
X75262322Y-92071479D01*
X75214703Y-92023860D01*
X75119465Y-91976241D01*
X74928988Y-91928622D01*
X74833750Y-91881003D01*
X74786131Y-91833384D01*
X74738512Y-91738146D01*
X74738512Y-91642908D01*
X74786131Y-91547670D01*
X74833750Y-91500051D01*
X74928988Y-91452431D01*
X75167084Y-91452431D01*
X75309941Y-91500051D01*
X75643274Y-91452431D02*
X75881369Y-92452431D01*
X76071846Y-91738146D01*
X76262322Y-92452431D01*
X76500417Y-91452431D01*
X76928988Y-92452431D02*
X77119465Y-92452431D01*
X77214703Y-92404812D01*
X77262322Y-92357193D01*
X77357560Y-92214336D01*
X77405179Y-92023860D01*
X77405179Y-91642908D01*
X77357560Y-91547670D01*
X77309941Y-91500051D01*
X77214703Y-91452431D01*
X77024226Y-91452431D01*
X76928988Y-91500051D01*
X76881369Y-91547670D01*
X76833750Y-91642908D01*
X76833750Y-91881003D01*
X76881369Y-91976241D01*
X76928988Y-92023860D01*
X77024226Y-92071479D01*
X77214703Y-92071479D01*
X77309941Y-92023860D01*
X77357560Y-91976241D01*
X77405179Y-91881003D01*
%TO.C,SW4*%
X93738512Y-68654812D02*
X93881369Y-68702431D01*
X94119465Y-68702431D01*
X94214703Y-68654812D01*
X94262322Y-68607193D01*
X94309941Y-68511955D01*
X94309941Y-68416717D01*
X94262322Y-68321479D01*
X94214703Y-68273860D01*
X94119465Y-68226241D01*
X93928988Y-68178622D01*
X93833750Y-68131003D01*
X93786131Y-68083384D01*
X93738512Y-67988146D01*
X93738512Y-67892908D01*
X93786131Y-67797670D01*
X93833750Y-67750051D01*
X93928988Y-67702431D01*
X94167084Y-67702431D01*
X94309941Y-67750051D01*
X94643274Y-67702431D02*
X94881369Y-68702431D01*
X95071846Y-67988146D01*
X95262322Y-68702431D01*
X95500417Y-67702431D01*
X96309941Y-68035765D02*
X96309941Y-68702431D01*
X96071846Y-67654812D02*
X95833750Y-68369098D01*
X96452798Y-68369098D01*
%TO.C,B1*%
X143688571Y-111404761D02*
X143736190Y-111261904D01*
X143783809Y-111214285D01*
X143879047Y-111166666D01*
X144021904Y-111166666D01*
X144117142Y-111214285D01*
X144164761Y-111261904D01*
X144212380Y-111357142D01*
X144212380Y-111738095D01*
X143212380Y-111738095D01*
X143212380Y-111404761D01*
X143260000Y-111309523D01*
X143307619Y-111261904D01*
X143402857Y-111214285D01*
X143498095Y-111214285D01*
X143593333Y-111261904D01*
X143640952Y-111309523D01*
X143688571Y-111404761D01*
X143688571Y-111738095D01*
X144212380Y-110214285D02*
X144212380Y-110785714D01*
X144212380Y-110500000D02*
X143212380Y-110500000D01*
X143355238Y-110595238D01*
X143450476Y-110690476D01*
X143498095Y-110785714D01*
%TO.C,D5*%
X112534226Y-75734146D02*
X111534226Y-75734146D01*
X111534226Y-75496051D01*
X111581846Y-75353193D01*
X111677084Y-75257955D01*
X111772322Y-75210336D01*
X111962798Y-75162717D01*
X112105655Y-75162717D01*
X112296131Y-75210336D01*
X112391369Y-75257955D01*
X112486607Y-75353193D01*
X112534226Y-75496051D01*
X112534226Y-75734146D01*
X111534226Y-74257955D02*
X111534226Y-74734146D01*
X112010417Y-74781765D01*
X111962798Y-74734146D01*
X111915179Y-74638908D01*
X111915179Y-74400812D01*
X111962798Y-74305574D01*
X112010417Y-74257955D01*
X112105655Y-74210336D01*
X112343750Y-74210336D01*
X112438988Y-74257955D01*
X112486607Y-74305574D01*
X112534226Y-74400812D01*
X112534226Y-74638908D01*
X112486607Y-74734146D01*
X112438988Y-74781765D01*
%TO.C,L24*%
X132418988Y-129248431D02*
X131942798Y-129248431D01*
X131942798Y-128248431D01*
X132704703Y-128343670D02*
X132752322Y-128296051D01*
X132847560Y-128248431D01*
X133085655Y-128248431D01*
X133180893Y-128296051D01*
X133228512Y-128343670D01*
X133276131Y-128438908D01*
X133276131Y-128534146D01*
X133228512Y-128677003D01*
X132657084Y-129248431D01*
X133276131Y-129248431D01*
X134133274Y-128581765D02*
X134133274Y-129248431D01*
X133895179Y-128200812D02*
X133657084Y-128915098D01*
X134276131Y-128915098D01*
X136847560Y-127373431D02*
X136276131Y-127373431D01*
X136561846Y-127373431D02*
X136561846Y-126373431D01*
X136466607Y-126516289D01*
X136371369Y-126611527D01*
X136276131Y-126659146D01*
%TO.C,D22*%
X93534226Y-123710336D02*
X92534226Y-123710336D01*
X92534226Y-123472241D01*
X92581846Y-123329384D01*
X92677084Y-123234146D01*
X92772322Y-123186527D01*
X92962798Y-123138908D01*
X93105655Y-123138908D01*
X93296131Y-123186527D01*
X93391369Y-123234146D01*
X93486607Y-123329384D01*
X93534226Y-123472241D01*
X93534226Y-123710336D01*
X92629465Y-122757955D02*
X92581846Y-122710336D01*
X92534226Y-122615098D01*
X92534226Y-122377003D01*
X92581846Y-122281765D01*
X92629465Y-122234146D01*
X92724703Y-122186527D01*
X92819941Y-122186527D01*
X92962798Y-122234146D01*
X93534226Y-122805574D01*
X93534226Y-122186527D01*
X92629465Y-121805574D02*
X92581846Y-121757955D01*
X92534226Y-121662717D01*
X92534226Y-121424622D01*
X92581846Y-121329384D01*
X92629465Y-121281765D01*
X92724703Y-121234146D01*
X92819941Y-121234146D01*
X92962798Y-121281765D01*
X93534226Y-121853193D01*
X93534226Y-121234146D01*
%TO.C,L14*%
X56418988Y-104748431D02*
X55942798Y-104748431D01*
X55942798Y-103748431D01*
X57276131Y-104748431D02*
X56704703Y-104748431D01*
X56990417Y-104748431D02*
X56990417Y-103748431D01*
X56895179Y-103891289D01*
X56799941Y-103986527D01*
X56704703Y-104034146D01*
X58133274Y-104081765D02*
X58133274Y-104748431D01*
X57895179Y-103700812D02*
X57657084Y-104415098D01*
X58276131Y-104415098D01*
X53847560Y-106623431D02*
X53276131Y-106623431D01*
X53561846Y-106623431D02*
X53561846Y-105623431D01*
X53466607Y-105766289D01*
X53371369Y-105861527D01*
X53276131Y-105909146D01*
%TO.C,SW2*%
X55738512Y-82904812D02*
X55881369Y-82952431D01*
X56119465Y-82952431D01*
X56214703Y-82904812D01*
X56262322Y-82857193D01*
X56309941Y-82761955D01*
X56309941Y-82666717D01*
X56262322Y-82571479D01*
X56214703Y-82523860D01*
X56119465Y-82476241D01*
X55928988Y-82428622D01*
X55833750Y-82381003D01*
X55786131Y-82333384D01*
X55738512Y-82238146D01*
X55738512Y-82142908D01*
X55786131Y-82047670D01*
X55833750Y-82000051D01*
X55928988Y-81952431D01*
X56167084Y-81952431D01*
X56309941Y-82000051D01*
X56643274Y-81952431D02*
X56881369Y-82952431D01*
X57071846Y-82238146D01*
X57262322Y-82952431D01*
X57500417Y-81952431D01*
X57833750Y-82047670D02*
X57881369Y-82000051D01*
X57976607Y-81952431D01*
X58214703Y-81952431D01*
X58309941Y-82000051D01*
X58357560Y-82047670D01*
X58405179Y-82142908D01*
X58405179Y-82238146D01*
X58357560Y-82381003D01*
X57786131Y-82952431D01*
X58405179Y-82952431D01*
%TO.C,D24*%
X131534226Y-137960336D02*
X130534226Y-137960336D01*
X130534226Y-137722241D01*
X130581846Y-137579384D01*
X130677084Y-137484146D01*
X130772322Y-137436527D01*
X130962798Y-137388908D01*
X131105655Y-137388908D01*
X131296131Y-137436527D01*
X131391369Y-137484146D01*
X131486607Y-137579384D01*
X131534226Y-137722241D01*
X131534226Y-137960336D01*
X130629465Y-137007955D02*
X130581846Y-136960336D01*
X130534226Y-136865098D01*
X130534226Y-136627003D01*
X130581846Y-136531765D01*
X130629465Y-136484146D01*
X130724703Y-136436527D01*
X130819941Y-136436527D01*
X130962798Y-136484146D01*
X131534226Y-137055574D01*
X131534226Y-136436527D01*
X130867560Y-135579384D02*
X131534226Y-135579384D01*
X130486607Y-135817479D02*
X131200893Y-136055574D01*
X131200893Y-135436527D01*
%TO.C,L23*%
X113357142Y-124452380D02*
X112880952Y-124452380D01*
X112880952Y-123452380D01*
X113642857Y-123547619D02*
X113690476Y-123500000D01*
X113785714Y-123452380D01*
X114023809Y-123452380D01*
X114119047Y-123500000D01*
X114166666Y-123547619D01*
X114214285Y-123642857D01*
X114214285Y-123738095D01*
X114166666Y-123880952D01*
X113595238Y-124452380D01*
X114214285Y-124452380D01*
X114547619Y-123452380D02*
X115166666Y-123452380D01*
X114833333Y-123833333D01*
X114976190Y-123833333D01*
X115071428Y-123880952D01*
X115119047Y-123928571D01*
X115166666Y-124023809D01*
X115166666Y-124261904D01*
X115119047Y-124357142D01*
X115071428Y-124404761D01*
X114976190Y-124452380D01*
X114690476Y-124452380D01*
X114595238Y-124404761D01*
X114547619Y-124357142D01*
X118285714Y-122702380D02*
X117714285Y-122702380D01*
X118000000Y-122702380D02*
X118000000Y-121702380D01*
X117904761Y-121845238D01*
X117809523Y-121940476D01*
X117714285Y-121988095D01*
%TO.C,SW29*%
X151609824Y-175357126D02*
X151542480Y-175222439D01*
X151374122Y-175054080D01*
X151273106Y-175020409D01*
X151205763Y-175020409D01*
X151104748Y-175054080D01*
X151037404Y-175121424D01*
X151003732Y-175222439D01*
X151003732Y-175289783D01*
X151037404Y-175390798D01*
X151138419Y-175559157D01*
X151172091Y-175660172D01*
X151172091Y-175727515D01*
X151138419Y-175828531D01*
X151071076Y-175895874D01*
X150970061Y-175929546D01*
X150902717Y-175929546D01*
X150801702Y-175895874D01*
X150633343Y-175727515D01*
X150566000Y-175592828D01*
X150296626Y-175390798D02*
X150835374Y-174515332D01*
X150195610Y-174885722D01*
X150566000Y-174245958D01*
X149690534Y-174784706D01*
X149522175Y-174481661D02*
X149454832Y-174481661D01*
X149353817Y-174447989D01*
X149185458Y-174279630D01*
X149151786Y-174178615D01*
X149151786Y-174111271D01*
X149185458Y-174010256D01*
X149252801Y-173942913D01*
X149387488Y-173875569D01*
X150195610Y-173875569D01*
X149757878Y-173437836D01*
X149421160Y-173101119D02*
X149286473Y-172966432D01*
X149185458Y-172932760D01*
X149118114Y-172932760D01*
X148949756Y-172966432D01*
X148781397Y-173067447D01*
X148512023Y-173336821D01*
X148478351Y-173437836D01*
X148478351Y-173505180D01*
X148512023Y-173606195D01*
X148646710Y-173740882D01*
X148747725Y-173774554D01*
X148815069Y-173774554D01*
X148916084Y-173740882D01*
X149084443Y-173572523D01*
X149118114Y-173471508D01*
X149118114Y-173404165D01*
X149084443Y-173303149D01*
X148949756Y-173168462D01*
X148848740Y-173134791D01*
X148781397Y-173134791D01*
X148680382Y-173168462D01*
%TO.C,SW15*%
X74262322Y-111404812D02*
X74405179Y-111452431D01*
X74643274Y-111452431D01*
X74738512Y-111404812D01*
X74786131Y-111357193D01*
X74833750Y-111261955D01*
X74833750Y-111166717D01*
X74786131Y-111071479D01*
X74738512Y-111023860D01*
X74643274Y-110976241D01*
X74452798Y-110928622D01*
X74357560Y-110881003D01*
X74309941Y-110833384D01*
X74262322Y-110738146D01*
X74262322Y-110642908D01*
X74309941Y-110547670D01*
X74357560Y-110500051D01*
X74452798Y-110452431D01*
X74690893Y-110452431D01*
X74833750Y-110500051D01*
X75167084Y-110452431D02*
X75405179Y-111452431D01*
X75595655Y-110738146D01*
X75786131Y-111452431D01*
X76024226Y-110452431D01*
X76928988Y-111452431D02*
X76357560Y-111452431D01*
X76643274Y-111452431D02*
X76643274Y-110452431D01*
X76548036Y-110595289D01*
X76452798Y-110690527D01*
X76357560Y-110738146D01*
X77833750Y-110452431D02*
X77357560Y-110452431D01*
X77309941Y-110928622D01*
X77357560Y-110881003D01*
X77452798Y-110833384D01*
X77690893Y-110833384D01*
X77786131Y-110881003D01*
X77833750Y-110928622D01*
X77881369Y-111023860D01*
X77881369Y-111261955D01*
X77833750Y-111357193D01*
X77786131Y-111404812D01*
X77690893Y-111452431D01*
X77452798Y-111452431D01*
X77357560Y-111404812D01*
X77309941Y-111357193D01*
%TO.C,L29*%
X162330840Y-162986194D02*
X162667557Y-163322911D01*
X161960451Y-164030018D01*
X161489046Y-163423926D02*
X161421702Y-163423926D01*
X161320687Y-163390255D01*
X161152328Y-163221896D01*
X161118657Y-163120881D01*
X161118657Y-163053537D01*
X161152328Y-162952522D01*
X161219672Y-162885178D01*
X161354359Y-162817835D01*
X162162481Y-162817835D01*
X161724748Y-162380102D01*
X161388031Y-162043384D02*
X161253344Y-161908697D01*
X161152328Y-161875026D01*
X161084985Y-161875026D01*
X160916626Y-161908697D01*
X160748267Y-162009713D01*
X160478893Y-162279087D01*
X160445222Y-162380102D01*
X160445222Y-162447445D01*
X160478893Y-162548461D01*
X160613580Y-162683148D01*
X160714596Y-162716819D01*
X160781939Y-162716819D01*
X160882954Y-162683148D01*
X161051313Y-162514789D01*
X161084985Y-162413774D01*
X161084985Y-162346430D01*
X161051313Y-162245415D01*
X160916626Y-162110728D01*
X160815611Y-162077056D01*
X160748267Y-162077056D01*
X160647252Y-162110728D01*
X157873542Y-161180546D02*
X158277603Y-161584607D01*
X158075572Y-161382577D02*
X157368465Y-162089684D01*
X157536824Y-162056012D01*
X157671511Y-162056012D01*
X157772526Y-162089684D01*
%TO.C,L6*%
X132895179Y-66748431D02*
X132418988Y-66748431D01*
X132418988Y-65748431D01*
X133657084Y-65748431D02*
X133466607Y-65748431D01*
X133371369Y-65796051D01*
X133323750Y-65843670D01*
X133228512Y-65986527D01*
X133180893Y-66177003D01*
X133180893Y-66557955D01*
X133228512Y-66653193D01*
X133276131Y-66700812D01*
X133371369Y-66748431D01*
X133561846Y-66748431D01*
X133657084Y-66700812D01*
X133704703Y-66653193D01*
X133752322Y-66557955D01*
X133752322Y-66319860D01*
X133704703Y-66224622D01*
X133657084Y-66177003D01*
X133561846Y-66129384D01*
X133371369Y-66129384D01*
X133276131Y-66177003D01*
X133228512Y-66224622D01*
X133180893Y-66319860D01*
X129847560Y-68623431D02*
X129276131Y-68623431D01*
X129561846Y-68623431D02*
X129561846Y-67623431D01*
X129466607Y-67766289D01*
X129371369Y-67861527D01*
X129276131Y-67909146D01*
%TO.C,D18*%
X131534226Y-118960336D02*
X130534226Y-118960336D01*
X130534226Y-118722241D01*
X130581846Y-118579384D01*
X130677084Y-118484146D01*
X130772322Y-118436527D01*
X130962798Y-118388908D01*
X131105655Y-118388908D01*
X131296131Y-118436527D01*
X131391369Y-118484146D01*
X131486607Y-118579384D01*
X131534226Y-118722241D01*
X131534226Y-118960336D01*
X131534226Y-117436527D02*
X131534226Y-118007955D01*
X131534226Y-117722241D02*
X130534226Y-117722241D01*
X130677084Y-117817479D01*
X130772322Y-117912717D01*
X130819941Y-118007955D01*
X130962798Y-116865098D02*
X130915179Y-116960336D01*
X130867560Y-117007955D01*
X130772322Y-117055574D01*
X130724703Y-117055574D01*
X130629465Y-117007955D01*
X130581846Y-116960336D01*
X130534226Y-116865098D01*
X130534226Y-116674622D01*
X130581846Y-116579384D01*
X130629465Y-116531765D01*
X130724703Y-116484146D01*
X130772322Y-116484146D01*
X130867560Y-116531765D01*
X130915179Y-116579384D01*
X130962798Y-116674622D01*
X130962798Y-116865098D01*
X131010417Y-116960336D01*
X131058036Y-117007955D01*
X131153274Y-117055574D01*
X131343750Y-117055574D01*
X131438988Y-117007955D01*
X131486607Y-116960336D01*
X131534226Y-116865098D01*
X131534226Y-116674622D01*
X131486607Y-116579384D01*
X131438988Y-116531765D01*
X131343750Y-116484146D01*
X131153274Y-116484146D01*
X131058036Y-116531765D01*
X131010417Y-116579384D01*
X130962798Y-116674622D01*
%TO.C,D20*%
X55534226Y-137960336D02*
X54534226Y-137960336D01*
X54534226Y-137722241D01*
X54581846Y-137579384D01*
X54677084Y-137484146D01*
X54772322Y-137436527D01*
X54962798Y-137388908D01*
X55105655Y-137388908D01*
X55296131Y-137436527D01*
X55391369Y-137484146D01*
X55486607Y-137579384D01*
X55534226Y-137722241D01*
X55534226Y-137960336D01*
X54629465Y-137007955D02*
X54581846Y-136960336D01*
X54534226Y-136865098D01*
X54534226Y-136627003D01*
X54581846Y-136531765D01*
X54629465Y-136484146D01*
X54724703Y-136436527D01*
X54819941Y-136436527D01*
X54962798Y-136484146D01*
X55534226Y-137055574D01*
X55534226Y-136436527D01*
X54534226Y-135817479D02*
X54534226Y-135722241D01*
X54581846Y-135627003D01*
X54629465Y-135579384D01*
X54724703Y-135531765D01*
X54915179Y-135484146D01*
X55153274Y-135484146D01*
X55343750Y-135531765D01*
X55438988Y-135579384D01*
X55486607Y-135627003D01*
X55534226Y-135722241D01*
X55534226Y-135817479D01*
X55486607Y-135912717D01*
X55438988Y-135960336D01*
X55343750Y-136007955D01*
X55153274Y-136055574D01*
X54915179Y-136055574D01*
X54724703Y-136007955D01*
X54629465Y-135960336D01*
X54581846Y-135912717D01*
X54534226Y-135817479D01*
%TO.C,SW16*%
X93262322Y-106654812D02*
X93405179Y-106702431D01*
X93643274Y-106702431D01*
X93738512Y-106654812D01*
X93786131Y-106607193D01*
X93833750Y-106511955D01*
X93833750Y-106416717D01*
X93786131Y-106321479D01*
X93738512Y-106273860D01*
X93643274Y-106226241D01*
X93452798Y-106178622D01*
X93357560Y-106131003D01*
X93309941Y-106083384D01*
X93262322Y-105988146D01*
X93262322Y-105892908D01*
X93309941Y-105797670D01*
X93357560Y-105750051D01*
X93452798Y-105702431D01*
X93690893Y-105702431D01*
X93833750Y-105750051D01*
X94167084Y-105702431D02*
X94405179Y-106702431D01*
X94595655Y-105988146D01*
X94786131Y-106702431D01*
X95024226Y-105702431D01*
X95928988Y-106702431D02*
X95357560Y-106702431D01*
X95643274Y-106702431D02*
X95643274Y-105702431D01*
X95548036Y-105845289D01*
X95452798Y-105940527D01*
X95357560Y-105988146D01*
X96786131Y-105702431D02*
X96595655Y-105702431D01*
X96500417Y-105750051D01*
X96452798Y-105797670D01*
X96357560Y-105940527D01*
X96309941Y-106131003D01*
X96309941Y-106511955D01*
X96357560Y-106607193D01*
X96405179Y-106654812D01*
X96500417Y-106702431D01*
X96690893Y-106702431D01*
X96786131Y-106654812D01*
X96833750Y-106607193D01*
X96881369Y-106511955D01*
X96881369Y-106273860D01*
X96833750Y-106178622D01*
X96786131Y-106131003D01*
X96690893Y-106083384D01*
X96500417Y-106083384D01*
X96405179Y-106131003D01*
X96357560Y-106178622D01*
X96309941Y-106273860D01*
%TO.C,L7*%
X37895179Y-95998431D02*
X37418988Y-95998431D01*
X37418988Y-94998431D01*
X38133274Y-94998431D02*
X38799941Y-94998431D01*
X38371369Y-95998431D01*
X41847560Y-94123431D02*
X41276131Y-94123431D01*
X41561846Y-94123431D02*
X41561846Y-93123431D01*
X41466607Y-93266289D01*
X41371369Y-93361527D01*
X41276131Y-93409146D01*
%TO.C,SW24*%
X131262322Y-139904812D02*
X131405179Y-139952431D01*
X131643274Y-139952431D01*
X131738512Y-139904812D01*
X131786131Y-139857193D01*
X131833750Y-139761955D01*
X131833750Y-139666717D01*
X131786131Y-139571479D01*
X131738512Y-139523860D01*
X131643274Y-139476241D01*
X131452798Y-139428622D01*
X131357560Y-139381003D01*
X131309941Y-139333384D01*
X131262322Y-139238146D01*
X131262322Y-139142908D01*
X131309941Y-139047670D01*
X131357560Y-139000051D01*
X131452798Y-138952431D01*
X131690893Y-138952431D01*
X131833750Y-139000051D01*
X132167084Y-138952431D02*
X132405179Y-139952431D01*
X132595655Y-139238146D01*
X132786131Y-139952431D01*
X133024226Y-138952431D01*
X133357560Y-139047670D02*
X133405179Y-139000051D01*
X133500417Y-138952431D01*
X133738512Y-138952431D01*
X133833750Y-139000051D01*
X133881369Y-139047670D01*
X133928988Y-139142908D01*
X133928988Y-139238146D01*
X133881369Y-139381003D01*
X133309941Y-139952431D01*
X133928988Y-139952431D01*
X134786131Y-139285765D02*
X134786131Y-139952431D01*
X134548036Y-138904812D02*
X134309941Y-139619098D01*
X134928988Y-139619098D01*
%TO.C,D6*%
X131534226Y-80484146D02*
X130534226Y-80484146D01*
X130534226Y-80246051D01*
X130581846Y-80103193D01*
X130677084Y-80007955D01*
X130772322Y-79960336D01*
X130962798Y-79912717D01*
X131105655Y-79912717D01*
X131296131Y-79960336D01*
X131391369Y-80007955D01*
X131486607Y-80103193D01*
X131534226Y-80246051D01*
X131534226Y-80484146D01*
X130534226Y-79055574D02*
X130534226Y-79246051D01*
X130581846Y-79341289D01*
X130629465Y-79388908D01*
X130772322Y-79484146D01*
X130962798Y-79531765D01*
X131343750Y-79531765D01*
X131438988Y-79484146D01*
X131486607Y-79436527D01*
X131534226Y-79341289D01*
X131534226Y-79150812D01*
X131486607Y-79055574D01*
X131438988Y-79007955D01*
X131343750Y-78960336D01*
X131105655Y-78960336D01*
X131010417Y-79007955D01*
X130962798Y-79055574D01*
X130915179Y-79150812D01*
X130915179Y-79341289D01*
X130962798Y-79436527D01*
X131010417Y-79484146D01*
X131105655Y-79531765D01*
%TO.C,SW23*%
X112262322Y-135154812D02*
X112405179Y-135202431D01*
X112643274Y-135202431D01*
X112738512Y-135154812D01*
X112786131Y-135107193D01*
X112833750Y-135011955D01*
X112833750Y-134916717D01*
X112786131Y-134821479D01*
X112738512Y-134773860D01*
X112643274Y-134726241D01*
X112452798Y-134678622D01*
X112357560Y-134631003D01*
X112309941Y-134583384D01*
X112262322Y-134488146D01*
X112262322Y-134392908D01*
X112309941Y-134297670D01*
X112357560Y-134250051D01*
X112452798Y-134202431D01*
X112690893Y-134202431D01*
X112833750Y-134250051D01*
X113167084Y-134202431D02*
X113405179Y-135202431D01*
X113595655Y-134488146D01*
X113786131Y-135202431D01*
X114024226Y-134202431D01*
X114357560Y-134297670D02*
X114405179Y-134250051D01*
X114500417Y-134202431D01*
X114738512Y-134202431D01*
X114833750Y-134250051D01*
X114881369Y-134297670D01*
X114928988Y-134392908D01*
X114928988Y-134488146D01*
X114881369Y-134631003D01*
X114309941Y-135202431D01*
X114928988Y-135202431D01*
X115262322Y-134202431D02*
X115881369Y-134202431D01*
X115548036Y-134583384D01*
X115690893Y-134583384D01*
X115786131Y-134631003D01*
X115833750Y-134678622D01*
X115881369Y-134773860D01*
X115881369Y-135011955D01*
X115833750Y-135107193D01*
X115786131Y-135154812D01*
X115690893Y-135202431D01*
X115405179Y-135202431D01*
X115309941Y-135154812D01*
X115262322Y-135107193D01*
%TO.C,D16*%
X93534226Y-104710336D02*
X92534226Y-104710336D01*
X92534226Y-104472241D01*
X92581846Y-104329384D01*
X92677084Y-104234146D01*
X92772322Y-104186527D01*
X92962798Y-104138908D01*
X93105655Y-104138908D01*
X93296131Y-104186527D01*
X93391369Y-104234146D01*
X93486607Y-104329384D01*
X93534226Y-104472241D01*
X93534226Y-104710336D01*
X93534226Y-103186527D02*
X93534226Y-103757955D01*
X93534226Y-103472241D02*
X92534226Y-103472241D01*
X92677084Y-103567479D01*
X92772322Y-103662717D01*
X92819941Y-103757955D01*
X92534226Y-102329384D02*
X92534226Y-102519860D01*
X92581846Y-102615098D01*
X92629465Y-102662717D01*
X92772322Y-102757955D01*
X92962798Y-102805574D01*
X93343750Y-102805574D01*
X93438988Y-102757955D01*
X93486607Y-102710336D01*
X93534226Y-102615098D01*
X93534226Y-102424622D01*
X93486607Y-102329384D01*
X93438988Y-102281765D01*
X93343750Y-102234146D01*
X93105655Y-102234146D01*
X93010417Y-102281765D01*
X92962798Y-102329384D01*
X92915179Y-102424622D01*
X92915179Y-102615098D01*
X92962798Y-102710336D01*
X93010417Y-102757955D01*
X93105655Y-102805574D01*
%TO.C,D4*%
X93534226Y-66234146D02*
X92534226Y-66234146D01*
X92534226Y-65996051D01*
X92581846Y-65853193D01*
X92677084Y-65757955D01*
X92772322Y-65710336D01*
X92962798Y-65662717D01*
X93105655Y-65662717D01*
X93296131Y-65710336D01*
X93391369Y-65757955D01*
X93486607Y-65853193D01*
X93534226Y-65996051D01*
X93534226Y-66234146D01*
X92867560Y-64805574D02*
X93534226Y-64805574D01*
X92486607Y-65043670D02*
X93200893Y-65281765D01*
X93200893Y-64662717D01*
%TO.C,D1*%
X36534226Y-85234146D02*
X35534226Y-85234146D01*
X35534226Y-84996051D01*
X35581846Y-84853193D01*
X35677084Y-84757955D01*
X35772322Y-84710336D01*
X35962798Y-84662717D01*
X36105655Y-84662717D01*
X36296131Y-84710336D01*
X36391369Y-84757955D01*
X36486607Y-84853193D01*
X36534226Y-84996051D01*
X36534226Y-85234146D01*
X36534226Y-83710336D02*
X36534226Y-84281765D01*
X36534226Y-83996051D02*
X35534226Y-83996051D01*
X35677084Y-84091289D01*
X35772322Y-84186527D01*
X35819941Y-84281765D01*
%TO.C,SW20*%
X55262322Y-139904812D02*
X55405179Y-139952431D01*
X55643274Y-139952431D01*
X55738512Y-139904812D01*
X55786131Y-139857193D01*
X55833750Y-139761955D01*
X55833750Y-139666717D01*
X55786131Y-139571479D01*
X55738512Y-139523860D01*
X55643274Y-139476241D01*
X55452798Y-139428622D01*
X55357560Y-139381003D01*
X55309941Y-139333384D01*
X55262322Y-139238146D01*
X55262322Y-139142908D01*
X55309941Y-139047670D01*
X55357560Y-139000051D01*
X55452798Y-138952431D01*
X55690893Y-138952431D01*
X55833750Y-139000051D01*
X56167084Y-138952431D02*
X56405179Y-139952431D01*
X56595655Y-139238146D01*
X56786131Y-139952431D01*
X57024226Y-138952431D01*
X57357560Y-139047670D02*
X57405179Y-139000051D01*
X57500417Y-138952431D01*
X57738512Y-138952431D01*
X57833750Y-139000051D01*
X57881369Y-139047670D01*
X57928988Y-139142908D01*
X57928988Y-139238146D01*
X57881369Y-139381003D01*
X57309941Y-139952431D01*
X57928988Y-139952431D01*
X58548036Y-138952431D02*
X58643274Y-138952431D01*
X58738512Y-139000051D01*
X58786131Y-139047670D01*
X58833750Y-139142908D01*
X58881369Y-139333384D01*
X58881369Y-139571479D01*
X58833750Y-139761955D01*
X58786131Y-139857193D01*
X58738512Y-139904812D01*
X58643274Y-139952431D01*
X58548036Y-139952431D01*
X58452798Y-139904812D01*
X58405179Y-139857193D01*
X58357560Y-139761955D01*
X58309941Y-139571479D01*
X58309941Y-139333384D01*
X58357560Y-139142908D01*
X58405179Y-139047670D01*
X58452798Y-139000051D01*
X58548036Y-138952431D01*
%TO.C,L9*%
X75895179Y-81748431D02*
X75418988Y-81748431D01*
X75418988Y-80748431D01*
X76276131Y-81748431D02*
X76466607Y-81748431D01*
X76561846Y-81700812D01*
X76609465Y-81653193D01*
X76704703Y-81510336D01*
X76752322Y-81319860D01*
X76752322Y-80938908D01*
X76704703Y-80843670D01*
X76657084Y-80796051D01*
X76561846Y-80748431D01*
X76371369Y-80748431D01*
X76276131Y-80796051D01*
X76228512Y-80843670D01*
X76180893Y-80938908D01*
X76180893Y-81177003D01*
X76228512Y-81272241D01*
X76276131Y-81319860D01*
X76371369Y-81367479D01*
X76561846Y-81367479D01*
X76657084Y-81319860D01*
X76704703Y-81272241D01*
X76752322Y-81177003D01*
X79847560Y-79873431D02*
X79276131Y-79873431D01*
X79561846Y-79873431D02*
X79561846Y-78873431D01*
X79466607Y-79016289D01*
X79371369Y-79111527D01*
X79276131Y-79159146D01*
%TO.C,D30*%
X162245430Y-189360559D02*
X161822812Y-188454251D01*
X162038600Y-188353628D01*
X162188197Y-188336411D01*
X162314761Y-188382477D01*
X162398168Y-188448668D01*
X162521824Y-188601173D01*
X162582198Y-188730645D01*
X162619540Y-188923400D01*
X162616631Y-189029840D01*
X162570566Y-189156404D01*
X162461218Y-189259936D01*
X162245430Y-189360559D01*
X162642805Y-188071883D02*
X163203853Y-187810262D01*
X163062747Y-188296395D01*
X163192220Y-188236021D01*
X163298660Y-188238929D01*
X163361942Y-188261961D01*
X163445349Y-188328152D01*
X163545972Y-188543939D01*
X163543064Y-188650379D01*
X163520031Y-188713661D01*
X163453841Y-188797068D01*
X163194896Y-188917816D01*
X163088456Y-188914908D01*
X163025174Y-188891875D01*
X163764900Y-187548641D02*
X163851215Y-187508391D01*
X163957655Y-187511300D01*
X164020937Y-187534332D01*
X164104344Y-187600523D01*
X164228000Y-187753028D01*
X164328624Y-187968816D01*
X164365965Y-188161571D01*
X164363057Y-188268010D01*
X164340024Y-188331292D01*
X164273833Y-188414699D01*
X164187518Y-188454949D01*
X164081079Y-188452040D01*
X164017797Y-188429008D01*
X163934390Y-188362817D01*
X163810733Y-188210312D01*
X163710110Y-187994524D01*
X163672769Y-187801770D01*
X163675677Y-187695330D01*
X163698710Y-187632048D01*
X163764900Y-187548641D01*
%TO.C,L17*%
X113418988Y-99998431D02*
X112942798Y-99998431D01*
X112942798Y-98998431D01*
X114276131Y-99998431D02*
X113704703Y-99998431D01*
X113990417Y-99998431D02*
X113990417Y-98998431D01*
X113895179Y-99141289D01*
X113799941Y-99236527D01*
X113704703Y-99284146D01*
X114609465Y-98998431D02*
X115276131Y-98998431D01*
X114847560Y-99998431D01*
X110847560Y-101873431D02*
X110276131Y-101873431D01*
X110561846Y-101873431D02*
X110561846Y-100873431D01*
X110466607Y-101016289D01*
X110371369Y-101111527D01*
X110276131Y-101159146D01*
%TO.C,D10*%
X93534226Y-85710336D02*
X92534226Y-85710336D01*
X92534226Y-85472241D01*
X92581846Y-85329384D01*
X92677084Y-85234146D01*
X92772322Y-85186527D01*
X92962798Y-85138908D01*
X93105655Y-85138908D01*
X93296131Y-85186527D01*
X93391369Y-85234146D01*
X93486607Y-85329384D01*
X93534226Y-85472241D01*
X93534226Y-85710336D01*
X93534226Y-84186527D02*
X93534226Y-84757955D01*
X93534226Y-84472241D02*
X92534226Y-84472241D01*
X92677084Y-84567479D01*
X92772322Y-84662717D01*
X92819941Y-84757955D01*
X92534226Y-83567479D02*
X92534226Y-83472241D01*
X92581846Y-83377003D01*
X92629465Y-83329384D01*
X92724703Y-83281765D01*
X92915179Y-83234146D01*
X93153274Y-83234146D01*
X93343750Y-83281765D01*
X93438988Y-83329384D01*
X93486607Y-83377003D01*
X93534226Y-83472241D01*
X93534226Y-83567479D01*
X93486607Y-83662717D01*
X93438988Y-83710336D01*
X93343750Y-83757955D01*
X93153274Y-83805574D01*
X92915179Y-83805574D01*
X92724703Y-83757955D01*
X92629465Y-83710336D01*
X92581846Y-83662717D01*
X92534226Y-83567479D01*
%TO.C,D3*%
X74534226Y-70984146D02*
X73534226Y-70984146D01*
X73534226Y-70746051D01*
X73581846Y-70603193D01*
X73677084Y-70507955D01*
X73772322Y-70460336D01*
X73962798Y-70412717D01*
X74105655Y-70412717D01*
X74296131Y-70460336D01*
X74391369Y-70507955D01*
X74486607Y-70603193D01*
X74534226Y-70746051D01*
X74534226Y-70984146D01*
X73534226Y-70079384D02*
X73534226Y-69460336D01*
X73915179Y-69793670D01*
X73915179Y-69650812D01*
X73962798Y-69555574D01*
X74010417Y-69507955D01*
X74105655Y-69460336D01*
X74343750Y-69460336D01*
X74438988Y-69507955D01*
X74486607Y-69555574D01*
X74534226Y-69650812D01*
X74534226Y-69936527D01*
X74486607Y-70031765D01*
X74438988Y-70079384D01*
%TO.C,L25*%
X75418988Y-133248431D02*
X74942798Y-133248431D01*
X74942798Y-132248431D01*
X75704703Y-132343670D02*
X75752322Y-132296051D01*
X75847560Y-132248431D01*
X76085655Y-132248431D01*
X76180893Y-132296051D01*
X76228512Y-132343670D01*
X76276131Y-132438908D01*
X76276131Y-132534146D01*
X76228512Y-132677003D01*
X75657084Y-133248431D01*
X76276131Y-133248431D01*
X77180893Y-132248431D02*
X76704703Y-132248431D01*
X76657084Y-132724622D01*
X76704703Y-132677003D01*
X76799941Y-132629384D01*
X77038036Y-132629384D01*
X77133274Y-132677003D01*
X77180893Y-132724622D01*
X77228512Y-132819860D01*
X77228512Y-133057955D01*
X77180893Y-133153193D01*
X77133274Y-133200812D01*
X77038036Y-133248431D01*
X76799941Y-133248431D01*
X76704703Y-133200812D01*
X76657084Y-133153193D01*
X72847560Y-135123431D02*
X72276131Y-135123431D01*
X72561846Y-135123431D02*
X72561846Y-134123431D01*
X72466607Y-134266289D01*
X72371369Y-134361527D01*
X72276131Y-134409146D01*
%TO.C,D23*%
X112534226Y-133210336D02*
X111534226Y-133210336D01*
X111534226Y-132972241D01*
X111581846Y-132829384D01*
X111677084Y-132734146D01*
X111772322Y-132686527D01*
X111962798Y-132638908D01*
X112105655Y-132638908D01*
X112296131Y-132686527D01*
X112391369Y-132734146D01*
X112486607Y-132829384D01*
X112534226Y-132972241D01*
X112534226Y-133210336D01*
X111629465Y-132257955D02*
X111581846Y-132210336D01*
X111534226Y-132115098D01*
X111534226Y-131877003D01*
X111581846Y-131781765D01*
X111629465Y-131734146D01*
X111724703Y-131686527D01*
X111819941Y-131686527D01*
X111962798Y-131734146D01*
X112534226Y-132305574D01*
X112534226Y-131686527D01*
X111534226Y-131353193D02*
X111534226Y-130734146D01*
X111915179Y-131067479D01*
X111915179Y-130924622D01*
X111962798Y-130829384D01*
X112010417Y-130781765D01*
X112105655Y-130734146D01*
X112343750Y-130734146D01*
X112438988Y-130781765D01*
X112486607Y-130829384D01*
X112534226Y-130924622D01*
X112534226Y-131210336D01*
X112486607Y-131305574D01*
X112438988Y-131353193D01*
%TO.C,D14*%
X55534226Y-118960336D02*
X54534226Y-118960336D01*
X54534226Y-118722241D01*
X54581846Y-118579384D01*
X54677084Y-118484146D01*
X54772322Y-118436527D01*
X54962798Y-118388908D01*
X55105655Y-118388908D01*
X55296131Y-118436527D01*
X55391369Y-118484146D01*
X55486607Y-118579384D01*
X55534226Y-118722241D01*
X55534226Y-118960336D01*
X55534226Y-117436527D02*
X55534226Y-118007955D01*
X55534226Y-117722241D02*
X54534226Y-117722241D01*
X54677084Y-117817479D01*
X54772322Y-117912717D01*
X54819941Y-118007955D01*
X54867560Y-116579384D02*
X55534226Y-116579384D01*
X54486607Y-116817479D02*
X55200893Y-117055574D01*
X55200893Y-116436527D01*
%TO.C,D7*%
X36534226Y-104234146D02*
X35534226Y-104234146D01*
X35534226Y-103996051D01*
X35581846Y-103853193D01*
X35677084Y-103757955D01*
X35772322Y-103710336D01*
X35962798Y-103662717D01*
X36105655Y-103662717D01*
X36296131Y-103710336D01*
X36391369Y-103757955D01*
X36486607Y-103853193D01*
X36534226Y-103996051D01*
X36534226Y-104234146D01*
X35534226Y-103329384D02*
X35534226Y-102662717D01*
X36534226Y-103091289D01*
%TO.C,L8*%
X56895179Y-91248431D02*
X56418988Y-91248431D01*
X56418988Y-90248431D01*
X57371369Y-90677003D02*
X57276131Y-90629384D01*
X57228512Y-90581765D01*
X57180893Y-90486527D01*
X57180893Y-90438908D01*
X57228512Y-90343670D01*
X57276131Y-90296051D01*
X57371369Y-90248431D01*
X57561846Y-90248431D01*
X57657084Y-90296051D01*
X57704703Y-90343670D01*
X57752322Y-90438908D01*
X57752322Y-90486527D01*
X57704703Y-90581765D01*
X57657084Y-90629384D01*
X57561846Y-90677003D01*
X57371369Y-90677003D01*
X57276131Y-90724622D01*
X57228512Y-90772241D01*
X57180893Y-90867479D01*
X57180893Y-91057955D01*
X57228512Y-91153193D01*
X57276131Y-91200812D01*
X57371369Y-91248431D01*
X57561846Y-91248431D01*
X57657084Y-91200812D01*
X57704703Y-91153193D01*
X57752322Y-91057955D01*
X57752322Y-90867479D01*
X57704703Y-90772241D01*
X57657084Y-90724622D01*
X57561846Y-90677003D01*
X60847560Y-89373431D02*
X60276131Y-89373431D01*
X60561846Y-89373431D02*
X60561846Y-88373431D01*
X60466607Y-88516289D01*
X60371369Y-88611527D01*
X60276131Y-88659146D01*
%TO.C,D9*%
X74534226Y-89984146D02*
X73534226Y-89984146D01*
X73534226Y-89746051D01*
X73581846Y-89603193D01*
X73677084Y-89507955D01*
X73772322Y-89460336D01*
X73962798Y-89412717D01*
X74105655Y-89412717D01*
X74296131Y-89460336D01*
X74391369Y-89507955D01*
X74486607Y-89603193D01*
X74534226Y-89746051D01*
X74534226Y-89984146D01*
X74534226Y-88936527D02*
X74534226Y-88746051D01*
X74486607Y-88650812D01*
X74438988Y-88603193D01*
X74296131Y-88507955D01*
X74105655Y-88460336D01*
X73724703Y-88460336D01*
X73629465Y-88507955D01*
X73581846Y-88555574D01*
X73534226Y-88650812D01*
X73534226Y-88841289D01*
X73581846Y-88936527D01*
X73629465Y-88984146D01*
X73724703Y-89031765D01*
X73962798Y-89031765D01*
X74058036Y-88984146D01*
X74105655Y-88936527D01*
X74153274Y-88841289D01*
X74153274Y-88650812D01*
X74105655Y-88555574D01*
X74058036Y-88507955D01*
X73962798Y-88460336D01*
%TO.C,SW1*%
X36738512Y-87654812D02*
X36881369Y-87702431D01*
X37119465Y-87702431D01*
X37214703Y-87654812D01*
X37262322Y-87607193D01*
X37309941Y-87511955D01*
X37309941Y-87416717D01*
X37262322Y-87321479D01*
X37214703Y-87273860D01*
X37119465Y-87226241D01*
X36928988Y-87178622D01*
X36833750Y-87131003D01*
X36786131Y-87083384D01*
X36738512Y-86988146D01*
X36738512Y-86892908D01*
X36786131Y-86797670D01*
X36833750Y-86750051D01*
X36928988Y-86702431D01*
X37167084Y-86702431D01*
X37309941Y-86750051D01*
X37643274Y-86702431D02*
X37881369Y-87702431D01*
X38071846Y-86988146D01*
X38262322Y-87702431D01*
X38500417Y-86702431D01*
X39405179Y-87702431D02*
X38833750Y-87702431D01*
X39119465Y-87702431D02*
X39119465Y-86702431D01*
X39024226Y-86845289D01*
X38928988Y-86940527D01*
X38833750Y-86988146D01*
%TO.C,SW3*%
X74738512Y-73404812D02*
X74881369Y-73452431D01*
X75119465Y-73452431D01*
X75214703Y-73404812D01*
X75262322Y-73357193D01*
X75309941Y-73261955D01*
X75309941Y-73166717D01*
X75262322Y-73071479D01*
X75214703Y-73023860D01*
X75119465Y-72976241D01*
X74928988Y-72928622D01*
X74833750Y-72881003D01*
X74786131Y-72833384D01*
X74738512Y-72738146D01*
X74738512Y-72642908D01*
X74786131Y-72547670D01*
X74833750Y-72500051D01*
X74928988Y-72452431D01*
X75167084Y-72452431D01*
X75309941Y-72500051D01*
X75643274Y-72452431D02*
X75881369Y-73452431D01*
X76071846Y-72738146D01*
X76262322Y-73452431D01*
X76500417Y-72452431D01*
X76786131Y-72452431D02*
X77405179Y-72452431D01*
X77071846Y-72833384D01*
X77214703Y-72833384D01*
X77309941Y-72881003D01*
X77357560Y-72928622D01*
X77405179Y-73023860D01*
X77405179Y-73261955D01*
X77357560Y-73357193D01*
X77309941Y-73404812D01*
X77214703Y-73452431D01*
X76928988Y-73452431D01*
X76833750Y-73404812D01*
X76786131Y-73357193D01*
%TO.C,D19*%
X36534226Y-142710336D02*
X35534226Y-142710336D01*
X35534226Y-142472241D01*
X35581846Y-142329384D01*
X35677084Y-142234146D01*
X35772322Y-142186527D01*
X35962798Y-142138908D01*
X36105655Y-142138908D01*
X36296131Y-142186527D01*
X36391369Y-142234146D01*
X36486607Y-142329384D01*
X36534226Y-142472241D01*
X36534226Y-142710336D01*
X36534226Y-141186527D02*
X36534226Y-141757955D01*
X36534226Y-141472241D02*
X35534226Y-141472241D01*
X35677084Y-141567479D01*
X35772322Y-141662717D01*
X35819941Y-141757955D01*
X36534226Y-140710336D02*
X36534226Y-140519860D01*
X36486607Y-140424622D01*
X36438988Y-140377003D01*
X36296131Y-140281765D01*
X36105655Y-140234146D01*
X35724703Y-140234146D01*
X35629465Y-140281765D01*
X35581846Y-140329384D01*
X35534226Y-140424622D01*
X35534226Y-140615098D01*
X35581846Y-140710336D01*
X35629465Y-140757955D01*
X35724703Y-140805574D01*
X35962798Y-140805574D01*
X36058036Y-140757955D01*
X36105655Y-140710336D01*
X36153274Y-140615098D01*
X36153274Y-140424622D01*
X36105655Y-140329384D01*
X36058036Y-140281765D01*
X35962798Y-140234146D01*
%TO.C,SW11*%
X112262322Y-97154812D02*
X112405179Y-97202431D01*
X112643274Y-97202431D01*
X112738512Y-97154812D01*
X112786131Y-97107193D01*
X112833750Y-97011955D01*
X112833750Y-96916717D01*
X112786131Y-96821479D01*
X112738512Y-96773860D01*
X112643274Y-96726241D01*
X112452798Y-96678622D01*
X112357560Y-96631003D01*
X112309941Y-96583384D01*
X112262322Y-96488146D01*
X112262322Y-96392908D01*
X112309941Y-96297670D01*
X112357560Y-96250051D01*
X112452798Y-96202431D01*
X112690893Y-96202431D01*
X112833750Y-96250051D01*
X113167084Y-96202431D02*
X113405179Y-97202431D01*
X113595655Y-96488146D01*
X113786131Y-97202431D01*
X114024226Y-96202431D01*
X114928988Y-97202431D02*
X114357560Y-97202431D01*
X114643274Y-97202431D02*
X114643274Y-96202431D01*
X114548036Y-96345289D01*
X114452798Y-96440527D01*
X114357560Y-96488146D01*
X115881369Y-97202431D02*
X115309941Y-97202431D01*
X115595655Y-97202431D02*
X115595655Y-96202431D01*
X115500417Y-96345289D01*
X115405179Y-96440527D01*
X115309941Y-96488146D01*
%TO.C,L22*%
X94418988Y-114998431D02*
X93942798Y-114998431D01*
X93942798Y-113998431D01*
X94704703Y-114093670D02*
X94752322Y-114046051D01*
X94847560Y-113998431D01*
X95085655Y-113998431D01*
X95180893Y-114046051D01*
X95228512Y-114093670D01*
X95276131Y-114188908D01*
X95276131Y-114284146D01*
X95228512Y-114427003D01*
X94657084Y-114998431D01*
X95276131Y-114998431D01*
X95657084Y-114093670D02*
X95704703Y-114046051D01*
X95799941Y-113998431D01*
X96038036Y-113998431D01*
X96133274Y-114046051D01*
X96180893Y-114093670D01*
X96228512Y-114188908D01*
X96228512Y-114284146D01*
X96180893Y-114427003D01*
X95609465Y-114998431D01*
X96228512Y-114998431D01*
X98847560Y-113123431D02*
X98276131Y-113123431D01*
X98561846Y-113123431D02*
X98561846Y-112123431D01*
X98466607Y-112266289D01*
X98371369Y-112361527D01*
X98276131Y-112409146D01*
%TO.C,L1*%
X37895179Y-71498431D02*
X37418988Y-71498431D01*
X37418988Y-70498431D01*
X38752322Y-71498431D02*
X38180893Y-71498431D01*
X38466607Y-71498431D02*
X38466607Y-70498431D01*
X38371369Y-70641289D01*
X38276131Y-70736527D01*
X38180893Y-70784146D01*
X34847560Y-73373431D02*
X34276131Y-73373431D01*
X34561846Y-73373431D02*
X34561846Y-72373431D01*
X34466607Y-72516289D01*
X34371369Y-72611527D01*
X34276131Y-72659146D01*
%TO.C,SW19*%
X36262322Y-144654812D02*
X36405179Y-144702431D01*
X36643274Y-144702431D01*
X36738512Y-144654812D01*
X36786131Y-144607193D01*
X36833750Y-144511955D01*
X36833750Y-144416717D01*
X36786131Y-144321479D01*
X36738512Y-144273860D01*
X36643274Y-144226241D01*
X36452798Y-144178622D01*
X36357560Y-144131003D01*
X36309941Y-144083384D01*
X36262322Y-143988146D01*
X36262322Y-143892908D01*
X36309941Y-143797670D01*
X36357560Y-143750051D01*
X36452798Y-143702431D01*
X36690893Y-143702431D01*
X36833750Y-143750051D01*
X37167084Y-143702431D02*
X37405179Y-144702431D01*
X37595655Y-143988146D01*
X37786131Y-144702431D01*
X38024226Y-143702431D01*
X38928988Y-144702431D02*
X38357560Y-144702431D01*
X38643274Y-144702431D02*
X38643274Y-143702431D01*
X38548036Y-143845289D01*
X38452798Y-143940527D01*
X38357560Y-143988146D01*
X39405179Y-144702431D02*
X39595655Y-144702431D01*
X39690893Y-144654812D01*
X39738512Y-144607193D01*
X39833750Y-144464336D01*
X39881369Y-144273860D01*
X39881369Y-143892908D01*
X39833750Y-143797670D01*
X39786131Y-143750051D01*
X39690893Y-143702431D01*
X39500417Y-143702431D01*
X39405179Y-143750051D01*
X39357560Y-143797670D01*
X39309941Y-143892908D01*
X39309941Y-144131003D01*
X39357560Y-144226241D01*
X39405179Y-144273860D01*
X39500417Y-144321479D01*
X39690893Y-144321479D01*
X39786131Y-144273860D01*
X39833750Y-144226241D01*
X39881369Y-144131003D01*
%TO.C,SW25*%
X74262322Y-149404812D02*
X74405179Y-149452431D01*
X74643274Y-149452431D01*
X74738512Y-149404812D01*
X74786131Y-149357193D01*
X74833750Y-149261955D01*
X74833750Y-149166717D01*
X74786131Y-149071479D01*
X74738512Y-149023860D01*
X74643274Y-148976241D01*
X74452798Y-148928622D01*
X74357560Y-148881003D01*
X74309941Y-148833384D01*
X74262322Y-148738146D01*
X74262322Y-148642908D01*
X74309941Y-148547670D01*
X74357560Y-148500051D01*
X74452798Y-148452431D01*
X74690893Y-148452431D01*
X74833750Y-148500051D01*
X75167084Y-148452431D02*
X75405179Y-149452431D01*
X75595655Y-148738146D01*
X75786131Y-149452431D01*
X76024226Y-148452431D01*
X76357560Y-148547670D02*
X76405179Y-148500051D01*
X76500417Y-148452431D01*
X76738512Y-148452431D01*
X76833750Y-148500051D01*
X76881369Y-148547670D01*
X76928988Y-148642908D01*
X76928988Y-148738146D01*
X76881369Y-148881003D01*
X76309941Y-149452431D01*
X76928988Y-149452431D01*
X77833750Y-148452431D02*
X77357560Y-148452431D01*
X77309941Y-148928622D01*
X77357560Y-148881003D01*
X77452798Y-148833384D01*
X77690893Y-148833384D01*
X77786131Y-148881003D01*
X77833750Y-148928622D01*
X77881369Y-149023860D01*
X77881369Y-149261955D01*
X77833750Y-149357193D01*
X77786131Y-149404812D01*
X77690893Y-149452431D01*
X77452798Y-149452431D01*
X77357560Y-149404812D01*
X77309941Y-149357193D01*
%TO.C,D29*%
X150047037Y-172264297D02*
X149339931Y-171557190D01*
X149508289Y-171388831D01*
X149642976Y-171321488D01*
X149777663Y-171321488D01*
X149878679Y-171355160D01*
X150047037Y-171456175D01*
X150148053Y-171557190D01*
X150249068Y-171725549D01*
X150282740Y-171826564D01*
X150282740Y-171961251D01*
X150215396Y-172095938D01*
X150047037Y-172264297D01*
X150080709Y-170951098D02*
X150080709Y-170883755D01*
X150114381Y-170782740D01*
X150282740Y-170614381D01*
X150383755Y-170580709D01*
X150451098Y-170580709D01*
X150552114Y-170614381D01*
X150619457Y-170681724D01*
X150686801Y-170816411D01*
X150686801Y-171624534D01*
X151124534Y-171186801D01*
X151461251Y-170850083D02*
X151595938Y-170715396D01*
X151629610Y-170614381D01*
X151629610Y-170547037D01*
X151595938Y-170378679D01*
X151494923Y-170210320D01*
X151225549Y-169940946D01*
X151124534Y-169907274D01*
X151057190Y-169907274D01*
X150956175Y-169940946D01*
X150821488Y-170075633D01*
X150787816Y-170176648D01*
X150787816Y-170243992D01*
X150821488Y-170345007D01*
X150989847Y-170513366D01*
X151090862Y-170547037D01*
X151158205Y-170547037D01*
X151259221Y-170513366D01*
X151393908Y-170378679D01*
X151427579Y-170277663D01*
X151427579Y-170210320D01*
X151393908Y-170109305D01*
%TO.C,SW27*%
X112262322Y-154154812D02*
X112405179Y-154202431D01*
X112643274Y-154202431D01*
X112738512Y-154154812D01*
X112786131Y-154107193D01*
X112833750Y-154011955D01*
X112833750Y-153916717D01*
X112786131Y-153821479D01*
X112738512Y-153773860D01*
X112643274Y-153726241D01*
X112452798Y-153678622D01*
X112357560Y-153631003D01*
X112309941Y-153583384D01*
X112262322Y-153488146D01*
X112262322Y-153392908D01*
X112309941Y-153297670D01*
X112357560Y-153250051D01*
X112452798Y-153202431D01*
X112690893Y-153202431D01*
X112833750Y-153250051D01*
X113167084Y-153202431D02*
X113405179Y-154202431D01*
X113595655Y-153488146D01*
X113786131Y-154202431D01*
X114024226Y-153202431D01*
X114357560Y-153297670D02*
X114405179Y-153250051D01*
X114500417Y-153202431D01*
X114738512Y-153202431D01*
X114833750Y-153250051D01*
X114881369Y-153297670D01*
X114928988Y-153392908D01*
X114928988Y-153488146D01*
X114881369Y-153631003D01*
X114309941Y-154202431D01*
X114928988Y-154202431D01*
X115262322Y-153202431D02*
X115928988Y-153202431D01*
X115500417Y-154202431D01*
%TO.C,L28*%
X141047856Y-147665391D02*
X141479432Y-147866638D01*
X141056813Y-148772946D01*
X140406542Y-148364636D02*
X140343260Y-148387669D01*
X140236821Y-148390577D01*
X140021033Y-148289954D01*
X139954843Y-148206547D01*
X139931810Y-148143265D01*
X139928902Y-148036825D01*
X139969151Y-147950510D01*
X140072683Y-147841162D01*
X140832069Y-147564768D01*
X140271021Y-147303147D01*
X139511635Y-147579541D02*
X139577825Y-147662948D01*
X139600858Y-147726230D01*
X139603766Y-147832670D01*
X139583641Y-147875827D01*
X139500235Y-147942018D01*
X139436952Y-147965051D01*
X139330513Y-147967959D01*
X139157883Y-147887460D01*
X139091692Y-147804053D01*
X139068659Y-147740771D01*
X139065751Y-147634331D01*
X139085876Y-147591174D01*
X139169283Y-147524983D01*
X139232565Y-147501951D01*
X139339005Y-147499042D01*
X139511635Y-147579541D01*
X139618075Y-147576633D01*
X139681357Y-147553600D01*
X139764764Y-147487410D01*
X139845262Y-147314780D01*
X139842354Y-147208340D01*
X139819321Y-147145058D01*
X139753131Y-147061651D01*
X139580501Y-146981152D01*
X139474061Y-146984060D01*
X139410779Y-147007093D01*
X139327372Y-147073284D01*
X139246873Y-147245914D01*
X139249782Y-147352353D01*
X139272814Y-147415635D01*
X139339005Y-147499042D01*
X136241799Y-147493123D02*
X136759689Y-147734619D01*
X136500744Y-147613871D02*
X136078126Y-148520179D01*
X136224815Y-148430956D01*
X136351379Y-148384890D01*
X136457819Y-148381982D01*
%TO.C,SW30*%
X163107155Y-192592672D02*
X163089939Y-192443075D01*
X162989315Y-192227287D01*
X162905908Y-192161097D01*
X162842626Y-192138064D01*
X162736186Y-192135156D01*
X162649871Y-192175405D01*
X162583681Y-192258812D01*
X162560648Y-192322095D01*
X162557740Y-192428534D01*
X162595081Y-192621289D01*
X162592173Y-192727729D01*
X162569140Y-192791011D01*
X162502950Y-192874418D01*
X162416635Y-192914667D01*
X162310195Y-192911759D01*
X162246913Y-192888726D01*
X162163506Y-192822536D01*
X162062883Y-192606748D01*
X162045666Y-192457151D01*
X161861636Y-192175173D02*
X162667320Y-191536767D01*
X161939459Y-191666007D01*
X162506323Y-191191507D01*
X161499392Y-191398338D01*
X161378644Y-191139393D02*
X161117023Y-190578345D01*
X161603156Y-190719450D01*
X161542782Y-190589978D01*
X161545690Y-190483538D01*
X161568723Y-190420256D01*
X161634913Y-190336849D01*
X161850701Y-190236226D01*
X161957140Y-190239134D01*
X162020423Y-190262167D01*
X162103829Y-190328357D01*
X162224577Y-190587302D01*
X162221669Y-190693742D01*
X162198636Y-190757024D01*
X160855402Y-190017297D02*
X160815153Y-189930982D01*
X160818061Y-189824543D01*
X160841094Y-189761260D01*
X160907284Y-189677854D01*
X161059789Y-189554197D01*
X161275577Y-189453574D01*
X161468332Y-189416233D01*
X161574771Y-189419141D01*
X161638054Y-189442174D01*
X161721460Y-189508364D01*
X161761710Y-189594679D01*
X161758802Y-189701119D01*
X161735769Y-189764401D01*
X161669578Y-189847808D01*
X161517073Y-189971464D01*
X161301286Y-190072088D01*
X161108531Y-190109429D01*
X161002091Y-190106521D01*
X160938809Y-190083488D01*
X160855402Y-190017297D01*
%TO.C,L11*%
X113418988Y-86498431D02*
X112942798Y-86498431D01*
X112942798Y-85498431D01*
X114276131Y-86498431D02*
X113704703Y-86498431D01*
X113990417Y-86498431D02*
X113990417Y-85498431D01*
X113895179Y-85641289D01*
X113799941Y-85736527D01*
X113704703Y-85784146D01*
X115228512Y-86498431D02*
X114657084Y-86498431D01*
X114942798Y-86498431D02*
X114942798Y-85498431D01*
X114847560Y-85641289D01*
X114752322Y-85736527D01*
X114657084Y-85784146D01*
X117847560Y-84623431D02*
X117276131Y-84623431D01*
X117561846Y-84623431D02*
X117561846Y-83623431D01*
X117466607Y-83766289D01*
X117371369Y-83861527D01*
X117276131Y-83909146D01*
%TO.C,D11*%
X112534226Y-95210336D02*
X111534226Y-95210336D01*
X111534226Y-94972241D01*
X111581846Y-94829384D01*
X111677084Y-94734146D01*
X111772322Y-94686527D01*
X111962798Y-94638908D01*
X112105655Y-94638908D01*
X112296131Y-94686527D01*
X112391369Y-94734146D01*
X112486607Y-94829384D01*
X112534226Y-94972241D01*
X112534226Y-95210336D01*
X112534226Y-93686527D02*
X112534226Y-94257955D01*
X112534226Y-93972241D02*
X111534226Y-93972241D01*
X111677084Y-94067479D01*
X111772322Y-94162717D01*
X111819941Y-94257955D01*
X112534226Y-92734146D02*
X112534226Y-93305574D01*
X112534226Y-93019860D02*
X111534226Y-93019860D01*
X111677084Y-93115098D01*
X111772322Y-93210336D01*
X111819941Y-93305574D01*
%TO.C,D15*%
X74534226Y-109460336D02*
X73534226Y-109460336D01*
X73534226Y-109222241D01*
X73581846Y-109079384D01*
X73677084Y-108984146D01*
X73772322Y-108936527D01*
X73962798Y-108888908D01*
X74105655Y-108888908D01*
X74296131Y-108936527D01*
X74391369Y-108984146D01*
X74486607Y-109079384D01*
X74534226Y-109222241D01*
X74534226Y-109460336D01*
X74534226Y-107936527D02*
X74534226Y-108507955D01*
X74534226Y-108222241D02*
X73534226Y-108222241D01*
X73677084Y-108317479D01*
X73772322Y-108412717D01*
X73819941Y-108507955D01*
X73534226Y-107031765D02*
X73534226Y-107507955D01*
X74010417Y-107555574D01*
X73962798Y-107507955D01*
X73915179Y-107412717D01*
X73915179Y-107174622D01*
X73962798Y-107079384D01*
X74010417Y-107031765D01*
X74105655Y-106984146D01*
X74343750Y-106984146D01*
X74438988Y-107031765D01*
X74486607Y-107079384D01*
X74534226Y-107174622D01*
X74534226Y-107412717D01*
X74486607Y-107507955D01*
X74438988Y-107555574D01*
%TO.C,L3*%
X75895179Y-57248431D02*
X75418988Y-57248431D01*
X75418988Y-56248431D01*
X76133274Y-56248431D02*
X76752322Y-56248431D01*
X76418988Y-56629384D01*
X76561846Y-56629384D01*
X76657084Y-56677003D01*
X76704703Y-56724622D01*
X76752322Y-56819860D01*
X76752322Y-57057955D01*
X76704703Y-57153193D01*
X76657084Y-57200812D01*
X76561846Y-57248431D01*
X76276131Y-57248431D01*
X76180893Y-57200812D01*
X76133274Y-57153193D01*
X72847560Y-59123431D02*
X72276131Y-59123431D01*
X72561846Y-59123431D02*
X72561846Y-58123431D01*
X72466607Y-58266289D01*
X72371369Y-58361527D01*
X72276131Y-58409146D01*
%TO.C,D28*%
X132380403Y-161111738D02*
X131440711Y-160769718D01*
X131522144Y-160545982D01*
X131615751Y-160428027D01*
X131737819Y-160371105D01*
X131843600Y-160358932D01*
X132038876Y-160379331D01*
X132173118Y-160428191D01*
X132335820Y-160538085D01*
X132409028Y-160615406D01*
X132465949Y-160737473D01*
X132461837Y-160888002D01*
X132380403Y-161111738D01*
X131855939Y-159907346D02*
X131827478Y-159846312D01*
X131815304Y-159740531D01*
X131896738Y-159516795D01*
X131974058Y-159443587D01*
X132035092Y-159415126D01*
X132140873Y-159402952D01*
X132230368Y-159435526D01*
X132348323Y-159529133D01*
X132689850Y-160261540D01*
X132901577Y-159679826D01*
X132560050Y-158947418D02*
X132482729Y-159020626D01*
X132421695Y-159049087D01*
X132315914Y-159061261D01*
X132271167Y-159044974D01*
X132197959Y-158967653D01*
X132169498Y-158906620D01*
X132157324Y-158800838D01*
X132222471Y-158621849D01*
X132299792Y-158548641D01*
X132360826Y-158520181D01*
X132466607Y-158508007D01*
X132511354Y-158524294D01*
X132584562Y-158601614D01*
X132613023Y-158662648D01*
X132625196Y-158768429D01*
X132560050Y-158947418D01*
X132572224Y-159053200D01*
X132600684Y-159114234D01*
X132673892Y-159191554D01*
X132852881Y-159256701D01*
X132958662Y-159244527D01*
X133019696Y-159216066D01*
X133097017Y-159142858D01*
X133162164Y-158963869D01*
X133149990Y-158858088D01*
X133121529Y-158797054D01*
X133048321Y-158719734D01*
X132869332Y-158654587D01*
X132763551Y-158666761D01*
X132702517Y-158695221D01*
X132625196Y-158768429D01*
%TO.C,SW12*%
X131262322Y-101904812D02*
X131405179Y-101952431D01*
X131643274Y-101952431D01*
X131738512Y-101904812D01*
X131786131Y-101857193D01*
X131833750Y-101761955D01*
X131833750Y-101666717D01*
X131786131Y-101571479D01*
X131738512Y-101523860D01*
X131643274Y-101476241D01*
X131452798Y-101428622D01*
X131357560Y-101381003D01*
X131309941Y-101333384D01*
X131262322Y-101238146D01*
X131262322Y-101142908D01*
X131309941Y-101047670D01*
X131357560Y-101000051D01*
X131452798Y-100952431D01*
X131690893Y-100952431D01*
X131833750Y-101000051D01*
X132167084Y-100952431D02*
X132405179Y-101952431D01*
X132595655Y-101238146D01*
X132786131Y-101952431D01*
X133024226Y-100952431D01*
X133928988Y-101952431D02*
X133357560Y-101952431D01*
X133643274Y-101952431D02*
X133643274Y-100952431D01*
X133548036Y-101095289D01*
X133452798Y-101190527D01*
X133357560Y-101238146D01*
X134309941Y-101047670D02*
X134357560Y-101000051D01*
X134452798Y-100952431D01*
X134690893Y-100952431D01*
X134786131Y-101000051D01*
X134833750Y-101047670D01*
X134881369Y-101142908D01*
X134881369Y-101238146D01*
X134833750Y-101381003D01*
X134262322Y-101952431D01*
X134881369Y-101952431D01*
%TO.C,D8*%
X55534226Y-99484146D02*
X54534226Y-99484146D01*
X54534226Y-99246051D01*
X54581846Y-99103193D01*
X54677084Y-99007955D01*
X54772322Y-98960336D01*
X54962798Y-98912717D01*
X55105655Y-98912717D01*
X55296131Y-98960336D01*
X55391369Y-99007955D01*
X55486607Y-99103193D01*
X55534226Y-99246051D01*
X55534226Y-99484146D01*
X54962798Y-98341289D02*
X54915179Y-98436527D01*
X54867560Y-98484146D01*
X54772322Y-98531765D01*
X54724703Y-98531765D01*
X54629465Y-98484146D01*
X54581846Y-98436527D01*
X54534226Y-98341289D01*
X54534226Y-98150812D01*
X54581846Y-98055574D01*
X54629465Y-98007955D01*
X54724703Y-97960336D01*
X54772322Y-97960336D01*
X54867560Y-98007955D01*
X54915179Y-98055574D01*
X54962798Y-98150812D01*
X54962798Y-98341289D01*
X55010417Y-98436527D01*
X55058036Y-98484146D01*
X55153274Y-98531765D01*
X55343750Y-98531765D01*
X55438988Y-98484146D01*
X55486607Y-98436527D01*
X55534226Y-98341289D01*
X55534226Y-98150812D01*
X55486607Y-98055574D01*
X55438988Y-98007955D01*
X55343750Y-97960336D01*
X55153274Y-97960336D01*
X55058036Y-98007955D01*
X55010417Y-98055574D01*
X54962798Y-98150812D01*
%TO.C,SW28*%
X135095195Y-162830217D02*
X134985847Y-162726686D01*
X134770059Y-162626062D01*
X134663620Y-162628971D01*
X134600337Y-162652003D01*
X134516931Y-162718194D01*
X134476681Y-162804509D01*
X134479589Y-162910949D01*
X134502622Y-162974231D01*
X134568813Y-163057638D01*
X134721318Y-163181294D01*
X134787508Y-163264701D01*
X134810541Y-163327983D01*
X134813449Y-163434423D01*
X134773200Y-163520738D01*
X134689793Y-163586928D01*
X134626511Y-163609961D01*
X134520071Y-163612869D01*
X134304284Y-163512246D01*
X134194936Y-163408714D01*
X133872708Y-163310999D02*
X134079539Y-162304068D01*
X133605039Y-162870932D01*
X133734279Y-162143070D01*
X133095873Y-162948755D01*
X132834020Y-162721567D02*
X132770738Y-162744600D01*
X132664298Y-162747508D01*
X132448510Y-162646884D01*
X132382320Y-162563478D01*
X132359287Y-162500195D01*
X132356379Y-162393756D01*
X132396629Y-162307441D01*
X132500160Y-162198093D01*
X133259546Y-161921699D01*
X132698499Y-161660078D01*
X131939112Y-161936472D02*
X132005303Y-162019879D01*
X132028336Y-162083161D01*
X132031244Y-162189601D01*
X132011119Y-162232758D01*
X131927712Y-162298949D01*
X131864430Y-162321981D01*
X131757990Y-162324890D01*
X131585360Y-162244391D01*
X131519170Y-162160984D01*
X131496137Y-162097702D01*
X131493229Y-161991262D01*
X131513354Y-161948105D01*
X131596760Y-161881914D01*
X131660043Y-161858881D01*
X131766482Y-161855973D01*
X131939112Y-161936472D01*
X132045552Y-161933564D01*
X132108834Y-161910531D01*
X132192241Y-161844341D01*
X132272740Y-161671711D01*
X132269832Y-161565271D01*
X132246799Y-161501989D01*
X132180609Y-161418582D01*
X132007978Y-161338083D01*
X131901539Y-161340991D01*
X131838257Y-161364024D01*
X131754850Y-161430214D01*
X131674351Y-161602844D01*
X131677259Y-161709284D01*
X131700292Y-161772566D01*
X131766482Y-161855973D01*
%TO.C,L4*%
X94895179Y-52498431D02*
X94418988Y-52498431D01*
X94418988Y-51498431D01*
X95657084Y-51831765D02*
X95657084Y-52498431D01*
X95418988Y-51450812D02*
X95180893Y-52165098D01*
X95799941Y-52165098D01*
X91847560Y-54373431D02*
X91276131Y-54373431D01*
X91561846Y-54373431D02*
X91561846Y-53373431D01*
X91466607Y-53516289D01*
X91371369Y-53611527D01*
X91276131Y-53659146D01*
D11*
%TO.C,SW5*%
X121056846Y-62891051D02*
X121056846Y-76861051D01*
X121056846Y-76861051D02*
X107086846Y-76861051D01*
X107086846Y-62891051D02*
X121056846Y-62891051D01*
X107086846Y-76861051D02*
X107086846Y-62891051D01*
%TO.C,L20*%
X60011846Y-127996051D02*
X60011846Y-126921051D01*
X54111846Y-127996051D02*
X60011846Y-127996051D01*
X54111846Y-124096051D02*
X60011846Y-124096051D01*
%TO.C,SW10*%
X88086846Y-72391051D02*
X102056846Y-72391051D01*
X88086846Y-86361051D02*
X88086846Y-72391051D01*
X102056846Y-72391051D02*
X102056846Y-86361051D01*
X102056846Y-86361051D02*
X88086846Y-86361051D01*
%TO.C,L2*%
X60011846Y-70996051D02*
X54111846Y-70996051D01*
X54111846Y-67096051D02*
X54111846Y-68171051D01*
X60011846Y-67096051D02*
X54111846Y-67096051D01*
%TO.C,D2*%
X58081846Y-81996051D02*
X58081846Y-78096051D01*
X56081846Y-81996051D02*
X58081846Y-81996051D01*
X56081846Y-81996051D02*
X56081846Y-78096051D01*
%TO.C,L19*%
X41011846Y-132746051D02*
X41011846Y-131671051D01*
X35111846Y-128846051D02*
X41011846Y-128846051D01*
X35111846Y-132746051D02*
X41011846Y-132746051D01*
%TO.C,D13*%
X37081846Y-124746051D02*
X37081846Y-120846051D01*
X39081846Y-124746051D02*
X39081846Y-120846051D01*
X37081846Y-124746051D02*
X39081846Y-124746051D01*
%TO.C,D26*%
X94081846Y-143746051D02*
X96081846Y-143746051D01*
X96081846Y-143746051D02*
X96081846Y-139846051D01*
X94081846Y-143746051D02*
X94081846Y-139846051D01*
%TO.C,D21*%
X75081846Y-129496051D02*
X75081846Y-125596051D01*
X75081846Y-129496051D02*
X77081846Y-129496051D01*
X77081846Y-129496051D02*
X77081846Y-125596051D01*
%TO.C,D25*%
X75081846Y-148496051D02*
X75081846Y-144596051D01*
X77081846Y-148496051D02*
X77081846Y-144596051D01*
X75081846Y-148496051D02*
X77081846Y-148496051D01*
%TO.C,SW13*%
X31086846Y-110391051D02*
X45056846Y-110391051D01*
X31086846Y-124361051D02*
X31086846Y-110391051D01*
X45056846Y-124361051D02*
X31086846Y-124361051D01*
X45056846Y-110391051D02*
X45056846Y-124361051D01*
%TO.C,SW7*%
X45056846Y-105361051D02*
X31086846Y-105361051D01*
X45056846Y-91391051D02*
X45056846Y-105361051D01*
X31086846Y-105361051D02*
X31086846Y-91391051D01*
X31086846Y-91391051D02*
X45056846Y-91391051D01*
%TO.C,L10*%
X92111846Y-71846051D02*
X98011846Y-71846051D01*
X92111846Y-75746051D02*
X98011846Y-75746051D01*
X98011846Y-75746051D02*
X98011846Y-74671051D01*
%TO.C,L27*%
X117011846Y-138346051D02*
X111111846Y-138346051D01*
X117011846Y-142246051D02*
X111111846Y-142246051D01*
X111111846Y-138346051D02*
X111111846Y-139421051D01*
%TO.C,SW26*%
X88086846Y-129391051D02*
X102056846Y-129391051D01*
X102056846Y-143361051D02*
X88086846Y-143361051D01*
X102056846Y-129391051D02*
X102056846Y-143361051D01*
X88086846Y-143361051D02*
X88086846Y-129391051D01*
%TO.C,SW18*%
X126086846Y-105641051D02*
X140056846Y-105641051D01*
X126086846Y-119611051D02*
X126086846Y-105641051D01*
X140056846Y-105641051D02*
X140056846Y-119611051D01*
X140056846Y-119611051D02*
X126086846Y-119611051D01*
%TO.C,L5*%
X117011846Y-62346051D02*
X111111846Y-62346051D01*
X117011846Y-66246051D02*
X111111846Y-66246051D01*
X111111846Y-62346051D02*
X111111846Y-63421051D01*
%TO.C,L16*%
X98011846Y-90846051D02*
X92111846Y-90846051D01*
X98011846Y-94746051D02*
X92111846Y-94746051D01*
X92111846Y-90846051D02*
X92111846Y-91921051D01*
%TO.C,SW21*%
X69086846Y-129111051D02*
X69086846Y-115141051D01*
X83056846Y-129111051D02*
X69086846Y-129111051D01*
X69086846Y-115141051D02*
X83056846Y-115141051D01*
X83056846Y-115141051D02*
X83056846Y-129111051D01*
%TO.C,L30*%
X173591270Y-188793765D02*
X171097822Y-183446549D01*
X177125870Y-187145553D02*
X174632422Y-181798337D01*
X174632422Y-181798337D02*
X173658141Y-182252652D01*
D10*
%TO.C,U1*%
X162878225Y-99557873D02*
X165418225Y-99557873D01*
X147638225Y-99557873D02*
X150178225Y-99557873D01*
X165418225Y-66537873D02*
X147638225Y-66537873D01*
X147638225Y-69077873D02*
X147638225Y-99557873D01*
X165418225Y-69077873D02*
X162878225Y-69077873D01*
X147638225Y-66537873D02*
X147638225Y-99557873D01*
X165418225Y-99557873D02*
X165418225Y-66537873D01*
X150178225Y-99557873D02*
X150178225Y-69077873D01*
X162878225Y-69077873D02*
X162878225Y-99557873D01*
X150178225Y-69077873D02*
X147638225Y-69077873D01*
X165418225Y-99557873D02*
X165418225Y-69077873D01*
D11*
%TO.C,L12*%
X130111846Y-89996051D02*
X136011846Y-89996051D01*
X130111846Y-86096051D02*
X136011846Y-86096051D01*
X136011846Y-89996051D02*
X136011846Y-88921051D01*
%TO.C,SW22*%
X102056846Y-124361051D02*
X88086846Y-124361051D01*
X88086846Y-110391051D02*
X102056846Y-110391051D01*
X102056846Y-110391051D02*
X102056846Y-124361051D01*
X88086846Y-124361051D02*
X88086846Y-110391051D01*
%TO.C,SW17*%
X121056846Y-114861051D02*
X107086846Y-114861051D01*
X107086846Y-114861051D02*
X107086846Y-100891051D01*
X107086846Y-100891051D02*
X121056846Y-100891051D01*
X121056846Y-100891051D02*
X121056846Y-114861051D01*
%TO.C,L15*%
X79011846Y-95596051D02*
X73111846Y-95596051D01*
X79011846Y-99496051D02*
X73111846Y-99496051D01*
X73111846Y-95596051D02*
X73111846Y-96671051D01*
%TO.C,L13*%
X41011846Y-113746051D02*
X35111846Y-113746051D01*
X41011846Y-109846051D02*
X35111846Y-109846051D01*
X35111846Y-109846051D02*
X35111846Y-110921051D01*
%TO.C,D12*%
X132081846Y-100996051D02*
X132081846Y-97096051D01*
X134081846Y-100996051D02*
X134081846Y-97096051D01*
X132081846Y-100996051D02*
X134081846Y-100996051D01*
%TO.C,L18*%
X130111846Y-105096051D02*
X130111846Y-106171051D01*
X136011846Y-108996051D02*
X130111846Y-108996051D01*
X136011846Y-105096051D02*
X130111846Y-105096051D01*
%TO.C,SW8*%
X64056846Y-100611051D02*
X50086846Y-100611051D01*
X64056846Y-86641051D02*
X64056846Y-100611051D01*
X50086846Y-86641051D02*
X64056846Y-86641051D01*
X50086846Y-100611051D02*
X50086846Y-86641051D01*
%TO.C,L21*%
X73111846Y-118496051D02*
X79011846Y-118496051D01*
X79011846Y-118496051D02*
X79011846Y-117421051D01*
X73111846Y-114596051D02*
X79011846Y-114596051D01*
%TO.C,SW6*%
X140056846Y-67641051D02*
X140056846Y-81611051D01*
X126086846Y-67641051D02*
X140056846Y-67641051D01*
X126086846Y-81611051D02*
X126086846Y-67641051D01*
X140056846Y-81611051D02*
X126086846Y-81611051D01*
%TO.C,SW14*%
X50086846Y-119611051D02*
X50086846Y-105641051D01*
X64056846Y-105641051D02*
X64056846Y-119611051D01*
X64056846Y-119611051D02*
X50086846Y-119611051D01*
X50086846Y-105641051D02*
X64056846Y-105641051D01*
%TO.C,D27*%
X115081846Y-153246051D02*
X115081846Y-149346051D01*
X113081846Y-153246051D02*
X113081846Y-149346051D01*
X113081846Y-153246051D02*
X115081846Y-153246051D01*
D10*
%TO.C,U2*%
X164612500Y-104475000D02*
X166612500Y-104475000D01*
X164612500Y-104225000D02*
X152512500Y-104225000D01*
X164612500Y-110325000D02*
X152512500Y-110325000D01*
X164612500Y-110075000D02*
X166612500Y-110075000D01*
X164612500Y-112025000D02*
X166612500Y-112025000D01*
X166612500Y-110075000D02*
X166612500Y-104475000D01*
X164612500Y-106175000D02*
X164612500Y-112275000D01*
X152512500Y-110325000D02*
X152512500Y-104225000D01*
X164612500Y-106175000D02*
X152512500Y-106175000D01*
X164612500Y-112275000D02*
X152512500Y-112275000D01*
X164612500Y-110325000D02*
X164612500Y-104225000D01*
X152512500Y-106175000D02*
X152512500Y-112275000D01*
X166612500Y-106425000D02*
X166612500Y-112025000D01*
X164612500Y-106425000D02*
X166612500Y-106425000D01*
D11*
%TO.C,D17*%
X115081846Y-115246051D02*
X115081846Y-111346051D01*
X113081846Y-115246051D02*
X113081846Y-111346051D01*
X113081846Y-115246051D02*
X115081846Y-115246051D01*
%TO.C,L26*%
X92111846Y-128846051D02*
X92111846Y-129921051D01*
X98011846Y-128846051D02*
X92111846Y-128846051D01*
X98011846Y-132746051D02*
X92111846Y-132746051D01*
%TO.C,SW9*%
X83056846Y-91111051D02*
X69086846Y-91111051D01*
X69086846Y-77141051D02*
X83056846Y-77141051D01*
X69086846Y-91111051D02*
X69086846Y-77141051D01*
X83056846Y-77141051D02*
X83056846Y-91111051D01*
%TO.C,SW4*%
X88086846Y-67361051D02*
X88086846Y-53391051D01*
X88086846Y-53391051D02*
X102056846Y-53391051D01*
X102056846Y-53391051D02*
X102056846Y-67361051D01*
X102056846Y-67361051D02*
X88086846Y-67361051D01*
%TO.C,B1*%
X150800000Y-114210000D02*
X151210000Y-114210000D01*
X151210000Y-114210000D02*
X151210000Y-107790000D01*
X144790000Y-107790000D02*
X144790000Y-114210000D01*
X149200000Y-107790000D02*
X146800000Y-107790000D01*
X146800000Y-114210000D02*
X149200000Y-114210000D01*
X144790000Y-114210000D02*
X145070000Y-114210000D01*
X145200000Y-107790000D02*
X144790000Y-107790000D01*
X151210000Y-107790000D02*
X150800000Y-107790000D01*
%TO.C,D5*%
X115081846Y-77246051D02*
X115081846Y-73346051D01*
X113081846Y-77246051D02*
X113081846Y-73346051D01*
X113081846Y-77246051D02*
X115081846Y-77246051D01*
%TO.C,L24*%
X130111846Y-124096051D02*
X136011846Y-124096051D01*
X130111846Y-127996051D02*
X136011846Y-127996051D01*
X136011846Y-127996051D02*
X136011846Y-126921051D01*
%TO.C,D22*%
X94081846Y-124746051D02*
X96081846Y-124746051D01*
X96081846Y-124746051D02*
X96081846Y-120846051D01*
X94081846Y-124746051D02*
X94081846Y-120846051D01*
%TO.C,L14*%
X60011846Y-108996051D02*
X54111846Y-108996051D01*
X54111846Y-105096051D02*
X54111846Y-106171051D01*
X60011846Y-105096051D02*
X54111846Y-105096051D01*
%TO.C,SW2*%
X64056846Y-67641051D02*
X64056846Y-81611051D01*
X64056846Y-81611051D02*
X50086846Y-81611051D01*
X50086846Y-81611051D02*
X50086846Y-67641051D01*
X50086846Y-67641051D02*
X64056846Y-67641051D01*
%TO.C,D24*%
X132081846Y-138996051D02*
X132081846Y-135096051D01*
X134081846Y-138996051D02*
X134081846Y-135096051D01*
X132081846Y-138996051D02*
X134081846Y-138996051D01*
%TO.C,L23*%
X111050000Y-123200000D02*
X116950000Y-123200000D01*
X116950000Y-123200000D02*
X116950000Y-122125000D01*
X111050000Y-119300000D02*
X116950000Y-119300000D01*
%TO.C,SW29*%
X155611846Y-158917769D02*
X165490128Y-168796051D01*
X155611846Y-178674333D02*
X145733565Y-168796051D01*
X145733565Y-168796051D02*
X155611846Y-158917769D01*
X165490128Y-168796051D02*
X155611846Y-178674333D01*
%TO.C,SW15*%
X69086846Y-110111051D02*
X69086846Y-96141051D01*
X83056846Y-110111051D02*
X69086846Y-110111051D01*
X83056846Y-96141051D02*
X83056846Y-110111051D01*
X69086846Y-96141051D02*
X83056846Y-96141051D01*
%TO.C,L29*%
X158904739Y-161331228D02*
X158144599Y-162091368D01*
X163076669Y-165503158D02*
X158904739Y-161331228D01*
X160318953Y-168260874D02*
X156147023Y-164088944D01*
%TO.C,L6*%
X130111846Y-67096051D02*
X130111846Y-68171051D01*
X136011846Y-67096051D02*
X130111846Y-67096051D01*
X136011846Y-70996051D02*
X130111846Y-70996051D01*
%TO.C,D18*%
X132081846Y-119996051D02*
X134081846Y-119996051D01*
X132081846Y-119996051D02*
X132081846Y-116096051D01*
X134081846Y-119996051D02*
X134081846Y-116096051D01*
%TO.C,D20*%
X56081846Y-138996051D02*
X58081846Y-138996051D01*
X58081846Y-138996051D02*
X58081846Y-135096051D01*
X56081846Y-138996051D02*
X56081846Y-135096051D01*
%TO.C,SW16*%
X88086846Y-105361051D02*
X88086846Y-91391051D01*
X88086846Y-91391051D02*
X102056846Y-91391051D01*
X102056846Y-105361051D02*
X88086846Y-105361051D01*
X102056846Y-91391051D02*
X102056846Y-105361051D01*
%TO.C,L7*%
X35111846Y-94746051D02*
X41011846Y-94746051D01*
X41011846Y-94746051D02*
X41011846Y-93671051D01*
X35111846Y-90846051D02*
X41011846Y-90846051D01*
%TO.C,SW24*%
X126086846Y-138611051D02*
X126086846Y-124641051D01*
X140056846Y-138611051D02*
X126086846Y-138611051D01*
X126086846Y-124641051D02*
X140056846Y-124641051D01*
X140056846Y-124641051D02*
X140056846Y-138611051D01*
%TO.C,D6*%
X134081846Y-81996051D02*
X134081846Y-78096051D01*
X132081846Y-81996051D02*
X134081846Y-81996051D01*
X132081846Y-81996051D02*
X132081846Y-78096051D01*
%TO.C,SW23*%
X121056846Y-119891051D02*
X121056846Y-133861051D01*
X107086846Y-119891051D02*
X121056846Y-119891051D01*
X121056846Y-133861051D02*
X107086846Y-133861051D01*
X107086846Y-133861051D02*
X107086846Y-119891051D01*
%TO.C,D16*%
X94081846Y-105746051D02*
X96081846Y-105746051D01*
X94081846Y-105746051D02*
X94081846Y-101846051D01*
X96081846Y-105746051D02*
X96081846Y-101846051D01*
%TO.C,D4*%
X94081846Y-67746051D02*
X94081846Y-63846051D01*
X96081846Y-67746051D02*
X96081846Y-63846051D01*
X94081846Y-67746051D02*
X96081846Y-67746051D01*
%TO.C,D1*%
X37081846Y-86746051D02*
X39081846Y-86746051D01*
X37081846Y-86746051D02*
X37081846Y-82846051D01*
X39081846Y-86746051D02*
X39081846Y-82846051D01*
%TO.C,SW20*%
X64056846Y-138611051D02*
X50086846Y-138611051D01*
X50086846Y-124641051D02*
X64056846Y-124641051D01*
X64056846Y-124641051D02*
X64056846Y-138611051D01*
X50086846Y-138611051D02*
X50086846Y-124641051D01*
%TO.C,L9*%
X73111846Y-76596051D02*
X79011846Y-76596051D01*
X79011846Y-80496051D02*
X79011846Y-79421051D01*
X73111846Y-80496051D02*
X79011846Y-80496051D01*
%TO.C,D30*%
X162383426Y-192107199D02*
X165918026Y-190458988D01*
X161538189Y-190294583D02*
X162383426Y-192107199D01*
X161538189Y-190294583D02*
X165072790Y-188646372D01*
%TO.C,L17*%
X111111846Y-100346051D02*
X111111846Y-101421051D01*
X117011846Y-100346051D02*
X111111846Y-100346051D01*
X117011846Y-104246051D02*
X111111846Y-104246051D01*
%TO.C,D10*%
X94081846Y-86746051D02*
X94081846Y-82846051D01*
X96081846Y-86746051D02*
X96081846Y-82846051D01*
X94081846Y-86746051D02*
X96081846Y-86746051D01*
%TO.C,D3*%
X75081846Y-72496051D02*
X75081846Y-68596051D01*
X77081846Y-72496051D02*
X77081846Y-68596051D01*
X75081846Y-72496051D02*
X77081846Y-72496051D01*
%TO.C,E1*%
X149850000Y-123500000D02*
X149850000Y-119400000D01*
X156250000Y-125500000D02*
X155250000Y-125500000D01*
X157050000Y-131600000D02*
X154450000Y-131600000D01*
X152250000Y-131600000D02*
X149850000Y-131600000D01*
X161650000Y-123500000D02*
X161650000Y-119400000D01*
X161650000Y-131600000D02*
X159250000Y-131600000D01*
X161650000Y-127500000D02*
X161650000Y-131600000D01*
X149850000Y-131600000D02*
X149850000Y-127500000D01*
X161650000Y-119400000D02*
X149850000Y-119400000D01*
X155750000Y-125000000D02*
X155750000Y-126000000D01*
X158750000Y-125500000D02*
G75*
G03*
X158750000Y-125500000I-3000000J0D01*
G01*
%TO.C,L25*%
X79011846Y-137496051D02*
X73111846Y-137496051D01*
X73111846Y-133596051D02*
X73111846Y-134671051D01*
X79011846Y-133596051D02*
X73111846Y-133596051D01*
%TO.C,D23*%
X113081846Y-134246051D02*
X113081846Y-130346051D01*
X115081846Y-134246051D02*
X115081846Y-130346051D01*
X113081846Y-134246051D02*
X115081846Y-134246051D01*
%TO.C,D14*%
X56081846Y-119996051D02*
X58081846Y-119996051D01*
X56081846Y-119996051D02*
X56081846Y-116096051D01*
X58081846Y-119996051D02*
X58081846Y-116096051D01*
%TO.C,D7*%
X37081846Y-105746051D02*
X39081846Y-105746051D01*
X37081846Y-105746051D02*
X37081846Y-101846051D01*
X39081846Y-105746051D02*
X39081846Y-101846051D01*
%TO.C,L8*%
X54111846Y-89996051D02*
X60011846Y-89996051D01*
X54111846Y-86096051D02*
X60011846Y-86096051D01*
X60011846Y-89996051D02*
X60011846Y-88921051D01*
%TO.C,D9*%
X75081846Y-91496051D02*
X75081846Y-87596051D01*
X77081846Y-91496051D02*
X77081846Y-87596051D01*
X75081846Y-91496051D02*
X77081846Y-91496051D01*
%TO.C,SW1*%
X31086846Y-86361051D02*
X31086846Y-72391051D01*
X45056846Y-86361051D02*
X31086846Y-86361051D01*
X31086846Y-72391051D02*
X45056846Y-72391051D01*
X45056846Y-72391051D02*
X45056846Y-86361051D01*
%TO.C,SW3*%
X83056846Y-58141051D02*
X83056846Y-72111051D01*
X69086846Y-72111051D02*
X69086846Y-58141051D01*
X69086846Y-58141051D02*
X83056846Y-58141051D01*
X83056846Y-72111051D02*
X69086846Y-72111051D01*
%TO.C,D19*%
X39081846Y-143746051D02*
X39081846Y-139846051D01*
X37081846Y-143746051D02*
X37081846Y-139846051D01*
X37081846Y-143746051D02*
X39081846Y-143746051D01*
%TO.C,SW11*%
X121056846Y-95861051D02*
X107086846Y-95861051D01*
X107086846Y-95861051D02*
X107086846Y-81891051D01*
X107086846Y-81891051D02*
X121056846Y-81891051D01*
X121056846Y-81891051D02*
X121056846Y-95861051D01*
%TO.C,L22*%
X92111846Y-109846051D02*
X98011846Y-109846051D01*
X98011846Y-113746051D02*
X98011846Y-112671051D01*
X92111846Y-113746051D02*
X98011846Y-113746051D01*
%TO.C,L1*%
X35111846Y-71846051D02*
X35111846Y-72921051D01*
X41011846Y-71846051D02*
X35111846Y-71846051D01*
X41011846Y-75746051D02*
X35111846Y-75746051D01*
%TO.C,SW19*%
X45056846Y-143361051D02*
X31086846Y-143361051D01*
X31086846Y-129391051D02*
X45056846Y-129391051D01*
X45056846Y-129391051D02*
X45056846Y-143361051D01*
X31086846Y-143361051D02*
X31086846Y-129391051D01*
%TO.C,SW25*%
X69086846Y-148111051D02*
X69086846Y-134141051D01*
X83056846Y-134141051D02*
X83056846Y-148111051D01*
X69086846Y-134141051D02*
X83056846Y-134141051D01*
X83056846Y-148111051D02*
X69086846Y-148111051D01*
%TO.C,D29*%
X149701903Y-173383883D02*
X152459619Y-170626167D01*
X149701903Y-173383883D02*
X151116117Y-174798097D01*
X151116117Y-174798097D02*
X153873833Y-172040381D01*
%TO.C,SW27*%
X121056846Y-152861051D02*
X107086846Y-152861051D01*
X107086846Y-152861051D02*
X107086846Y-138891051D01*
X107086846Y-138891051D02*
X121056846Y-138891051D01*
X121056846Y-138891051D02*
X121056846Y-152861051D01*
%TO.C,L28*%
X142609560Y-149775475D02*
X137262344Y-147282027D01*
X140961348Y-153310075D02*
X135614132Y-150816627D01*
X137262344Y-147282027D02*
X136808029Y-148256308D01*
%TO.C,SW30*%
X172490417Y-178513503D02*
X178394395Y-191174622D01*
X159829298Y-184417480D02*
X172490417Y-178513503D01*
X165733275Y-197078599D02*
X159829298Y-184417480D01*
X178394395Y-191174622D02*
X165733275Y-197078599D01*
%TO.C,L11*%
X111111846Y-81346051D02*
X117011846Y-81346051D01*
X111111846Y-85246051D02*
X117011846Y-85246051D01*
X117011846Y-85246051D02*
X117011846Y-84171051D01*
%TO.C,D11*%
X113081846Y-96246051D02*
X113081846Y-92346051D01*
X115081846Y-96246051D02*
X115081846Y-92346051D01*
X113081846Y-96246051D02*
X115081846Y-96246051D01*
%TO.C,D15*%
X75081846Y-110496051D02*
X75081846Y-106596051D01*
X77081846Y-110496051D02*
X77081846Y-106596051D01*
X75081846Y-110496051D02*
X77081846Y-110496051D01*
%TO.C,L3*%
X79011846Y-57596051D02*
X73111846Y-57596051D01*
X73111846Y-57596051D02*
X73111846Y-58671051D01*
X79011846Y-61496051D02*
X73111846Y-61496051D01*
%TO.C,D28*%
X132540762Y-162272288D02*
X133874641Y-158607487D01*
X132540762Y-162272288D02*
X134420147Y-162956329D01*
X134420147Y-162956329D02*
X135754026Y-159291527D01*
%TO.C,SW12*%
X140056846Y-100611051D02*
X126086846Y-100611051D01*
X126086846Y-86641051D02*
X140056846Y-86641051D01*
X140056846Y-86641051D02*
X140056846Y-100611051D01*
X126086846Y-100611051D02*
X126086846Y-86641051D01*
%TO.C,D8*%
X56081846Y-100996051D02*
X56081846Y-97096051D01*
X58081846Y-100996051D02*
X58081846Y-97096051D01*
X56081846Y-100996051D02*
X58081846Y-100996051D01*
%TO.C,SW28*%
X139990418Y-164578600D02*
X127329298Y-158674623D01*
X145894395Y-151917480D02*
X139990418Y-164578600D01*
X127329298Y-158674623D02*
X133233275Y-146013503D01*
X133233275Y-146013503D02*
X145894395Y-151917480D01*
D10*
%TO.C,J1*%
X160358511Y-99568511D02*
X160358511Y-102108511D01*
X150198511Y-102108511D02*
X160358511Y-102108511D01*
X151468511Y-100838511D02*
X151468511Y-103378511D01*
X150198511Y-99568511D02*
X160358511Y-99568511D01*
X150198511Y-102108511D02*
X150198511Y-99568511D01*
X161628511Y-103378511D02*
X161628511Y-100838511D01*
X161628511Y-103378511D02*
X151468511Y-103378511D01*
X161628511Y-100838511D02*
X151468511Y-100838511D01*
D11*
%TO.C,L4*%
X92111846Y-52846051D02*
X92111846Y-53921051D01*
X98011846Y-56746051D02*
X92111846Y-56746051D01*
X98011846Y-52846051D02*
X92111846Y-52846051D01*
%TD*%
D12*
%TO.C,U1*%
X147609410Y-69152128D03*
X147609410Y-71692128D03*
X147609410Y-74232128D03*
X147609410Y-76772128D03*
X147609410Y-79312128D03*
X147609410Y-81852128D03*
X147609410Y-84392128D03*
X147609410Y-86932128D03*
X147609410Y-89472128D03*
X147609410Y-92012128D03*
X147609410Y-94552128D03*
X147609410Y-97092128D03*
X162849410Y-97092128D03*
X162849410Y-94552128D03*
X162849410Y-92012128D03*
X162849410Y-89472128D03*
X162849410Y-86932128D03*
X162849410Y-84392128D03*
X162849410Y-81852128D03*
X162849410Y-79312128D03*
X162849410Y-76772128D03*
X162849410Y-74232128D03*
X162849410Y-71692128D03*
X162849410Y-69152128D03*
%TD*%
D13*
%TO.C,J1*%
X151468511Y-100838511D03*
X160358511Y-102108511D03*
X157818511Y-102108511D03*
X154008511Y-100838511D03*
X156548511Y-100838511D03*
X155278511Y-102108511D03*
X152738511Y-102108511D03*
X159088511Y-100838511D03*
%TD*%
M02*
