M48
; DRILL file {KiCad 6.0.5} date Sat 09 Jul 2022 08:04:57 PM CDT
; FORMAT={-:-/ absolute / inch / decimal}
; #@! TF.CreationDate,2022-07-09T20:04:57-05:00
; #@! TF.GenerationSoftware,Kicad,Pcbnew,6.0.5
; #@! TF.FileFunction,Plated,1,2,PTH
FMAT,2
INCH
; #@! TA.AperFunction,Plated,PTH,ViaDrill
T1C0.0157
; #@! TA.AperFunction,Plated,PTH,ComponentDrill
T2C0.0300
; #@! TA.AperFunction,Plated,PTH,ComponentDrill
T3C0.0320
; #@! TA.AperFunction,Plated,PTH,ComponentDrill
T4C0.0354
; #@! TA.AperFunction,Plated,PTH,ComponentDrill
T5C0.0394
; #@! TA.AperFunction,Plated,PTH,ComponentDrill
T6C0.0591
%
G90
G05
T1
X1.3424Y-3.6556
X1.3432Y-2.9055
X1.3432Y-4.3989
X1.3432Y-5.1519
X1.3818Y-3.6541
X1.3825Y-4.4014
X1.3825Y-5.1495
X1.3825Y-2.9054
X1.6145Y-2.9054
X1.6145Y-3.6534
X1.6145Y-5.1495
X1.6147Y-4.4013
X1.6537Y-5.1524
X1.6538Y-3.6559
X1.6538Y-2.9056
X1.6539Y-4.399
X2.0911Y-3.4682
X2.0913Y-4.9649
X2.0913Y-2.7159
X2.0913Y-4.2115
X2.1304Y-3.4665
X2.1305Y-4.9624
X2.1305Y-2.7183
X2.1305Y-4.2144
X2.3625Y-2.7183
X2.3625Y-3.4664
X2.3625Y-4.2144
X2.3625Y-4.9624
X2.4018Y-3.4689
X2.4018Y-4.9649
X2.4018Y-4.212
X2.4018Y-2.7165
X2.8391Y-3.0948
X2.8393Y-4.5909
X2.8393Y-2.3418
X2.8393Y-5.334
X2.8393Y-3.8375
X2.8784Y-3.0925
X2.8786Y-3.8404
X2.8786Y-4.5884
X2.8786Y-2.3443
X2.8786Y-5.3365
X3.1105Y-4.5884
X3.1105Y-2.3443
X3.1105Y-3.0924
X3.1105Y-3.8404
X3.1105Y-5.3365
X3.1498Y-3.0953
X3.1498Y-4.5909
X3.1498Y-3.8379
X3.1498Y-5.334
X3.1498Y-2.3423
X3.5865Y-2.9072
X3.5873Y-4.4039
X3.5873Y-2.1548
X3.5874Y-3.6505
X3.5874Y-5.1466
X3.6258Y-2.9061
X3.6266Y-3.6534
X3.6266Y-4.4014
X3.6266Y-5.1495
X3.6266Y-2.1573
X3.8586Y-2.1573
X3.8586Y-2.9054
X3.8586Y-3.6534
X3.8586Y-4.4014
X3.8588Y-5.1493
X3.8978Y-2.9083
X3.8978Y-4.4043
X3.8979Y-3.6509
X3.8979Y-2.1555
X3.898Y-5.1471
X4.3329Y-4.7761
X4.3352Y-3.2818
X4.3354Y-2.5288
X4.3354Y-4.0249
X4.3354Y-5.521
X4.3722Y-4.7736
X4.3745Y-3.2795
X4.3746Y-5.5235
X4.3746Y-2.5313
X4.3746Y-4.0274
X4.6042Y-4.7736
X4.6066Y-2.5313
X4.6066Y-3.2794
X4.6066Y-4.0274
X4.6068Y-5.5233
X4.6434Y-4.7765
X4.6459Y-3.2823
X4.6459Y-4.025
X4.6459Y-2.5293
X4.6461Y-5.521
X5.0826Y-3.4682
X5.0832Y-4.9648
X5.0834Y-2.7163
X5.0834Y-4.2119
X5.1219Y-3.4671
X5.1225Y-4.9626
X5.1227Y-4.2144
X5.1227Y-2.7183
X5.3342Y-5.8562
X5.3546Y-4.9624
X5.3546Y-2.7183
X5.3546Y-3.4664
X5.3548Y-4.2143
X5.3717Y-5.8681
X5.3939Y-4.9649
X5.3939Y-3.4689
X5.394Y-2.7165
X5.3941Y-4.212
X5.582Y-5.9662
X5.6151Y-5.9874
X6.1681Y-6.3859
X6.2019Y-6.406
X6.3655Y-6.5763
X6.3815Y-6.6123
X6.7859Y-7.156
X6.8058Y-7.19
X6.9038Y-7.4002
X6.9215Y-7.4354
T2
X1.4993Y-3.2617
X1.4993Y-3.3916
X1.4993Y-4.0097
X1.4993Y-4.1396
X1.4993Y-4.7577
X1.4993Y-4.8876
X1.4993Y-5.5058
X1.4993Y-5.6357
X2.2473Y-3.0746
X2.2473Y-3.2046
X2.2473Y-3.8227
X2.2473Y-3.9526
X2.2473Y-4.5707
X2.2473Y-4.7006
X2.2473Y-5.3187
X2.2473Y-5.4487
X2.9953Y-2.7006
X2.9953Y-2.8306
X2.9953Y-3.4487
X2.9953Y-3.5786
X2.9953Y-4.1967
X2.9953Y-4.3266
X2.9953Y-4.9447
X2.9953Y-5.0746
X2.9953Y-5.6928
X2.9953Y-5.8227
X3.7434Y-2.5136
X3.7434Y-2.6435
X3.7434Y-3.2617
X3.7434Y-3.3916
X3.7434Y-4.0097
X3.7434Y-4.1396
X3.7434Y-4.7577
X3.7434Y-4.8876
X3.7434Y-5.5058
X3.7434Y-5.6357
X4.4914Y-2.8876
X4.4914Y-3.0176
X4.4914Y-3.6357
X4.4914Y-3.7656
X4.4914Y-4.3837
X4.4914Y-4.5136
X4.4914Y-5.1317
X4.4914Y-5.2617
X4.4914Y-5.8798
X4.4914Y-6.0097
X5.2394Y-3.0746
X5.2394Y-3.2046
X5.2394Y-3.8227
X5.2394Y-3.9526
X5.2394Y-4.5707
X5.2394Y-4.7006
X5.2394Y-5.3187
X5.2394Y-5.4487
X5.2632Y-6.3799
X5.3077Y-6.2579
X5.9383Y-6.8373
X6.0302Y-6.7454
X6.3978Y-7.5176
X6.5156Y-7.4627
T3
X5.8114Y-2.7225
X5.8114Y-2.8225
X5.8114Y-2.9225
X5.8114Y-3.0225
X5.8114Y-3.1225
X5.8114Y-3.2225
X5.8114Y-3.3225
X5.8114Y-3.4225
X5.8114Y-3.5225
X5.8114Y-3.6225
X5.8114Y-3.7225
X5.8114Y-3.8225
X5.8625Y-2.7696
X5.8625Y-2.8696
X5.8625Y-2.9696
X5.8625Y-3.0696
X5.8625Y-3.1696
X5.8625Y-3.2696
X5.8625Y-3.3696
X5.8625Y-3.4696
X5.8625Y-3.5696
X5.8625Y-3.6696
X5.8625Y-3.7696
X5.8625Y-3.8696
X5.9633Y-3.97
X6.0133Y-4.02
X6.0633Y-3.97
X6.1133Y-4.02
X6.1633Y-3.97
X6.2133Y-4.02
X6.2633Y-3.97
X6.3133Y-4.02
X6.4114Y-2.7225
X6.4114Y-2.8225
X6.4114Y-2.9225
X6.4114Y-3.0225
X6.4114Y-3.1225
X6.4114Y-3.2225
X6.4114Y-3.3225
X6.4114Y-3.4225
X6.4114Y-3.5225
X6.4114Y-3.6225
X6.4114Y-3.7225
X6.4114Y-3.8225
X6.4625Y-2.7696
X6.4625Y-2.8696
X6.4625Y-2.9696
X6.4625Y-3.0696
X6.4625Y-3.1696
X6.4625Y-3.2696
X6.4625Y-3.3696
X6.4625Y-3.4696
X6.4625Y-3.5696
X6.4625Y-3.6696
X6.4625Y-3.7696
X6.4625Y-3.8696
T5
X6.0335Y-4.6457
X6.0335Y-5.2165
X6.1319Y-4.6457
X6.2303Y-4.6457
X6.2303Y-5.2165
T6
X1.3489Y-3.225
X1.3489Y-3.9731
X1.3489Y-4.7211
X1.3489Y-5.4691
X1.3989Y-3.325
X1.3989Y-4.0731
X1.3989Y-4.8211
X1.3989Y-5.5691
X1.5989Y-3.325
X1.5989Y-4.0731
X1.5989Y-4.8211
X1.5989Y-5.5691
X1.6489Y-3.225
X1.6489Y-3.9731
X1.6489Y-4.7211
X1.6489Y-5.4691
X2.0969Y-3.038
X2.0969Y-3.7861
X2.0969Y-4.5341
X2.0969Y-5.2821
X2.1469Y-3.138
X2.1469Y-3.8861
X2.1469Y-4.6341
X2.1469Y-5.3821
X2.3469Y-3.138
X2.3469Y-3.8861
X2.3469Y-4.6341
X2.3469Y-5.3821
X2.3969Y-3.038
X2.3969Y-3.7861
X2.3969Y-4.5341
X2.3969Y-5.2821
X2.845Y-2.664
X2.845Y-3.412
X2.845Y-4.1601
X2.845Y-4.9081
X2.845Y-5.6561
X2.895Y-2.764
X2.895Y-3.512
X2.895Y-4.2601
X2.895Y-5.0081
X2.895Y-5.7561
X3.095Y-2.764
X3.095Y-3.512
X3.095Y-4.2601
X3.095Y-5.0081
X3.095Y-5.7561
X3.145Y-2.664
X3.145Y-3.412
X3.145Y-4.1601
X3.145Y-4.9081
X3.145Y-5.6561
X3.593Y-2.477
X3.593Y-3.225
X3.593Y-3.9731
X3.593Y-4.7211
X3.593Y-5.4691
X3.643Y-2.577
X3.643Y-3.325
X3.643Y-4.0731
X3.643Y-4.8211
X3.643Y-5.5691
X3.843Y-2.577
X3.843Y-3.325
X3.843Y-4.0731
X3.843Y-4.8211
X3.843Y-5.5691
X3.893Y-2.477
X3.893Y-3.225
X3.893Y-3.9731
X3.893Y-4.7211
X3.893Y-5.4691
X4.341Y-2.851
X4.341Y-3.5991
X4.341Y-4.3471
X4.341Y-5.0951
X4.341Y-5.8432
X4.391Y-2.951
X4.391Y-3.6991
X4.391Y-4.4471
X4.391Y-5.1951
X4.391Y-5.9432
X4.591Y-2.951
X4.591Y-3.6991
X4.591Y-4.4471
X4.591Y-5.1951
X4.591Y-5.9432
X4.641Y-2.851
X4.641Y-3.5991
X4.641Y-4.3471
X4.641Y-5.0951
X4.641Y-5.8432
X5.089Y-3.038
X5.089Y-3.7861
X5.089Y-4.5341
X5.089Y-5.2821
X5.139Y-3.138
X5.139Y-3.8861
X5.139Y-4.6341
X5.139Y-5.3821
X5.2002Y-6.1413
X5.2033Y-6.253
X5.339Y-3.138
X5.339Y-3.8861
X5.339Y-4.6341
X5.339Y-5.3821
X5.3845Y-6.3375
X5.389Y-3.038
X5.389Y-3.7861
X5.389Y-4.5341
X5.389Y-5.2821
X5.4721Y-6.268
X5.748Y-4.252
X5.748Y-4.4882
X5.9055Y-4.252
X5.9055Y-4.4882
X5.9143Y-6.7162
X5.9497Y-6.6102
X6.0557Y-6.8576
X6.1618Y-6.8223
X6.4344Y-7.3874
X6.5039Y-7.2999
X6.5189Y-7.5687
X6.6307Y-7.5718
T4
G00X6.0438Y-4.1329
M15
G01X6.0281Y-4.1329
M16
G05
G00X6.0438Y-4.3907
M15
G01X6.0281Y-4.3907
M16
G05
G00X6.0871Y-4.2096
M15
G01X6.0714Y-4.2096
M16
G05
G00X6.0871Y-4.314
M15
G01X6.0714Y-4.314
M16
G05
G00X6.2446Y-4.2096
M15
G01X6.2288Y-4.2096
M16
G05
G00X6.2446Y-4.314
M15
G01X6.2288Y-4.314
M16
G05
G00X6.3627Y-4.2096
M15
G01X6.3469Y-4.2096
M16
G05
G00X6.3627Y-4.314
M15
G01X6.3469Y-4.314
M16
G05
T0
M30
