%TF.GenerationSoftware,KiCad,Pcbnew,6.0.5*%
%TF.CreationDate,2022-07-09T20:03:33-05:00*%
%TF.ProjectId,ElevenFingers,456c6576-656e-4466-996e-676572732e6b,rev?*%
%TF.SameCoordinates,Original*%
%TF.FileFunction,Copper,L1,Top*%
%TF.FilePolarity,Positive*%
%FSLAX46Y46*%
G04 Gerber Fmt 4.6, Leading zero omitted, Abs format (unit mm)*
G04 Created by KiCad (PCBNEW 6.0.5) date 2022-07-09 20:03:33*
%MOMM*%
%LPD*%
G01*
G04 APERTURE LIST*
G04 Aperture macros list*
%AMRotRect*
0 Rectangle, with rotation*
0 The origin of the aperture is its center*
0 $1 length*
0 $2 width*
0 $3 Rotation angle, in degrees counterclockwise*
0 Add horizontal line*
21,1,$1,$2,0,0,$3*%
G04 Aperture macros list end*
%TA.AperFunction,WasherPad*%
%ADD10C,2.200000*%
%TD*%
%TA.AperFunction,WasherPad*%
%ADD11C,3.500000*%
%TD*%
%TA.AperFunction,ComponentPad*%
%ADD12C,2.200000*%
%TD*%
%TA.AperFunction,SMDPad,CuDef*%
%ADD13R,0.500000X0.850000*%
%TD*%
%TA.AperFunction,ComponentPad*%
%ADD14R,1.200000X0.900000*%
%TD*%
%TA.AperFunction,SMDPad,CuDef*%
%ADD15RotRect,0.500000X0.850000X115.000000*%
%TD*%
%TA.AperFunction,ComponentPad*%
%ADD16C,1.524000*%
%TD*%
%TA.AperFunction,ComponentPad*%
%ADD17O,2.000000X1.600000*%
%TD*%
%TA.AperFunction,SMDPad,CuDef*%
%ADD18RotRect,0.500000X0.850000X135.000000*%
%TD*%
%TA.AperFunction,ComponentPad*%
%ADD19RotRect,0.900000X1.200000X25.000000*%
%TD*%
%TA.AperFunction,WasherPad*%
%ADD20O,2.000000X3.200000*%
%TD*%
%TA.AperFunction,ComponentPad*%
%ADD21R,2.000000X2.000000*%
%TD*%
%TA.AperFunction,ComponentPad*%
%ADD22C,2.000000*%
%TD*%
%TA.AperFunction,ComponentPad*%
%ADD23RotRect,0.900000X1.200000X45.000000*%
%TD*%
%TA.AperFunction,SMDPad,CuDef*%
%ADD24RotRect,0.500000X0.850000X155.000000*%
%TD*%
%TA.AperFunction,ComponentPad*%
%ADD25RotRect,0.900000X1.200000X70.000000*%
%TD*%
%TA.AperFunction,ComponentPad*%
%ADD26C,1.397000*%
%TD*%
%TA.AperFunction,ViaPad*%
%ADD27C,0.800000*%
%TD*%
%TA.AperFunction,Conductor*%
%ADD28C,0.381000*%
%TD*%
%TA.AperFunction,Conductor*%
%ADD29C,0.250000*%
%TD*%
G04 APERTURE END LIST*
D10*
%TO.P,,*%
%TO.N,*%
X148200000Y-105000000D03*
%TD*%
%TO.P,REF\u002A\u002A,*%
%TO.N,*%
X156000000Y-68850000D03*
%TD*%
D11*
%TO.P,,*%
%TO.N,*%
X147200000Y-160600000D03*
%TD*%
%TO.P,,*%
%TO.N,*%
X123600000Y-130800000D03*
%TD*%
%TO.P,,*%
%TO.N,*%
X123600000Y-93800000D03*
%TD*%
%TO.P,,*%
%TO.N,*%
X66600000Y-128200000D03*
%TD*%
%TO.P,REF\u002A\u002A,*%
%TO.N,*%
X66600000Y-90800000D03*
%TD*%
D12*
%TO.P,SW5,1*%
%TO.N,Net-(D5-Pad2)*%
X116611846Y-74956051D03*
X111531846Y-74956051D03*
%TO.P,SW5,2*%
%TO.N,col4*%
X117881846Y-72416051D03*
X110261846Y-72416051D03*
%TD*%
D13*
%TO.P,L20,1,VDD*%
%TO.N,VCC*%
X59361846Y-125171051D03*
%TO.P,L20,2,DOUT*%
%TO.N,Net-(L20-Pad2)*%
X59361846Y-126921051D03*
%TO.P,L20,3,VSS*%
%TO.N,GND*%
X54761846Y-126921051D03*
%TO.P,L20,4,DIN*%
%TO.N,Net-(L19-Pad2)*%
X54761846Y-125171051D03*
%TD*%
D12*
%TO.P,SW10,1*%
%TO.N,Net-(D10-Pad2)*%
X92531846Y-84456051D03*
X97611846Y-84456051D03*
%TO.P,SW10,2*%
%TO.N,col3*%
X91261846Y-81916051D03*
X98881846Y-81916051D03*
%TD*%
D13*
%TO.P,L2,1,VDD*%
%TO.N,VCC*%
X54761846Y-69921051D03*
%TO.P,L2,2,DOUT*%
%TO.N,Net-(L1-Pad4)*%
X54761846Y-68171051D03*
%TO.P,L2,3,VSS*%
%TO.N,GND*%
X59361846Y-68171051D03*
%TO.P,L2,4,DIN*%
%TO.N,Net-(L2-Pad4)*%
X59361846Y-69921051D03*
%TD*%
D14*
%TO.P,D2,1,K*%
%TO.N,row0*%
X57081846Y-81396051D03*
%TO.P,D2,2,A*%
%TO.N,Net-(D2-Pad2)*%
X57081846Y-78096051D03*
%TD*%
D13*
%TO.P,L19,1,VDD*%
%TO.N,VCC*%
X40361846Y-129921051D03*
%TO.P,L19,2,DOUT*%
%TO.N,Net-(L19-Pad2)*%
X40361846Y-131671051D03*
%TO.P,L19,3,VSS*%
%TO.N,GND*%
X35761846Y-131671051D03*
%TO.P,L19,4,DIN*%
%TO.N,Net-(L13-Pad2)*%
X35761846Y-129921051D03*
%TD*%
D14*
%TO.P,D13,1,K*%
%TO.N,row2*%
X38081846Y-124146051D03*
%TO.P,D13,2,A*%
%TO.N,Net-(D13-Pad2)*%
X38081846Y-120846051D03*
%TD*%
%TO.P,D26,1,K*%
%TO.N,row4*%
X95081846Y-143146051D03*
%TO.P,D26,2,A*%
%TO.N,Net-(D26-Pad2)*%
X95081846Y-139846051D03*
%TD*%
%TO.P,D21,1,K*%
%TO.N,row3*%
X76081846Y-128896051D03*
%TO.P,D21,2,A*%
%TO.N,Net-(D21-Pad2)*%
X76081846Y-125596051D03*
%TD*%
%TO.P,D25,1,K*%
%TO.N,row4*%
X76081846Y-147896051D03*
%TO.P,D25,2,A*%
%TO.N,Net-(D25-Pad2)*%
X76081846Y-144596051D03*
%TD*%
D12*
%TO.P,SW13,1*%
%TO.N,Net-(D13-Pad2)*%
X35531846Y-122456051D03*
X40611846Y-122456051D03*
%TO.P,SW13,2*%
%TO.N,col0*%
X34261846Y-119916051D03*
X41881846Y-119916051D03*
%TD*%
%TO.P,SW7,1*%
%TO.N,Net-(D7-Pad2)*%
X35531846Y-103456051D03*
X40611846Y-103456051D03*
%TO.P,SW7,2*%
%TO.N,col0*%
X34261846Y-100916051D03*
X41881846Y-100916051D03*
%TD*%
D13*
%TO.P,L10,1,VDD*%
%TO.N,VCC*%
X97361846Y-72921051D03*
%TO.P,L10,2,DOUT*%
%TO.N,Net-(L10-Pad2)*%
X97361846Y-74671051D03*
%TO.P,L10,3,VSS*%
%TO.N,GND*%
X92761846Y-74671051D03*
%TO.P,L10,4,DIN*%
%TO.N,Net-(L10-Pad4)*%
X92761846Y-72921051D03*
%TD*%
%TO.P,L27,1,VDD*%
%TO.N,VCC*%
X111761846Y-141171051D03*
%TO.P,L27,2,DOUT*%
%TO.N,Net-(L26-Pad4)*%
X111761846Y-139421051D03*
%TO.P,L27,3,VSS*%
%TO.N,GND*%
X116361846Y-139421051D03*
%TO.P,L27,4,DIN*%
%TO.N,Net-(L27-Pad4)*%
X116361846Y-141171051D03*
%TD*%
D12*
%TO.P,SW26,1*%
%TO.N,Net-(D26-Pad2)*%
X97611846Y-141456051D03*
X92531846Y-141456051D03*
%TO.P,SW26,2*%
%TO.N,col1*%
X98881846Y-138916051D03*
X91261846Y-138916051D03*
%TD*%
%TO.P,SW18,1*%
%TO.N,Net-(D18-Pad2)*%
X130531846Y-117706051D03*
X135611846Y-117706051D03*
%TO.P,SW18,2*%
%TO.N,col5*%
X136881846Y-115166051D03*
X129261846Y-115166051D03*
%TD*%
D13*
%TO.P,L5,1,VDD*%
%TO.N,VCC*%
X111761846Y-65171051D03*
%TO.P,L5,2,DOUT*%
%TO.N,Net-(L4-Pad4)*%
X111761846Y-63421051D03*
%TO.P,L5,3,VSS*%
%TO.N,GND*%
X116361846Y-63421051D03*
%TO.P,L5,4,DIN*%
%TO.N,Net-(L5-Pad4)*%
X116361846Y-65171051D03*
%TD*%
%TO.P,L16,1,VDD*%
%TO.N,VCC*%
X92761846Y-93671051D03*
%TO.P,L16,2,DOUT*%
%TO.N,Net-(L15-Pad4)*%
X92761846Y-91921051D03*
%TO.P,L16,3,VSS*%
%TO.N,GND*%
X97361846Y-91921051D03*
%TO.P,L16,4,DIN*%
%TO.N,Net-(L16-Pad4)*%
X97361846Y-93671051D03*
%TD*%
D12*
%TO.P,SW21,1*%
%TO.N,Net-(D21-Pad2)*%
X78611846Y-127206051D03*
X73531846Y-127206051D03*
%TO.P,SW21,2*%
%TO.N,col2*%
X79881846Y-124666051D03*
X72261846Y-124666051D03*
%TD*%
D15*
%TO.P,L30,1,VDD*%
%TO.N,VCC*%
X172346805Y-183581334D03*
%TO.P,L30,2,DOUT*%
%TO.N,Net-(L29-Pad4)*%
X173932843Y-182841752D03*
%TO.P,L30,3,VSS*%
%TO.N,GND*%
X175876887Y-187010768D03*
%TO.P,L30,4,DIN*%
%TO.N,Net-(L24-Pad2)*%
X174290849Y-187750350D03*
%TD*%
D16*
%TO.P,U1,1,TX0/PD3*%
%TO.N,LED*%
X164148225Y-70347873D03*
X147609410Y-69152128D03*
%TO.P,U1,2,RX1/PD2*%
%TO.N,SERIAL*%
X164148225Y-72887873D03*
X147609410Y-71692128D03*
%TO.P,U1,3,GND*%
%TO.N,GND*%
X164148225Y-75427873D03*
X147609410Y-74232128D03*
%TO.P,U1,4,GND*%
X164148225Y-77967873D03*
X147609410Y-76772128D03*
%TO.P,U1,5,2/PD1*%
%TO.N,Net-(J1-Pad1)*%
X164148225Y-80507873D03*
X147609410Y-79312128D03*
%TO.P,U1,6,3/PD0*%
%TO.N,Net-(J1-Pad2)*%
X147609410Y-81852128D03*
X164148225Y-83047873D03*
%TO.P,U1,7,4/PD4*%
%TO.N,col0*%
X164148225Y-85587873D03*
X147609410Y-84392128D03*
%TO.P,U1,8,5/PC6*%
%TO.N,col1*%
X164148225Y-88127873D03*
X147609410Y-86932128D03*
%TO.P,U1,9,6/PD7*%
%TO.N,col2*%
X164148225Y-90667873D03*
X147609410Y-89472128D03*
%TO.P,U1,10,7/PE6*%
%TO.N,col3*%
X164148225Y-93207873D03*
X147609410Y-92012128D03*
%TO.P,U1,11,8/PB4*%
%TO.N,col4*%
X164148225Y-95747873D03*
X147609410Y-94552128D03*
%TO.P,U1,12,9/PB5*%
%TO.N,col5*%
X164148225Y-98287873D03*
X147609410Y-97092128D03*
%TO.P,U1,13,10/PB6*%
%TO.N,row4*%
X162849410Y-97092128D03*
X148908225Y-98287873D03*
%TO.P,U1,14,16/PB2*%
%TO.N,row3*%
X162849410Y-94552128D03*
X148908225Y-95747873D03*
%TO.P,U1,15,14/PB3*%
%TO.N,row2*%
X148908225Y-93207873D03*
X162849410Y-92012128D03*
%TO.P,U1,16,15/PB1*%
%TO.N,row1*%
X162849410Y-89472128D03*
X148908225Y-90667873D03*
%TO.P,U1,17,A0/PF7*%
%TO.N,row0*%
X148908225Y-88127873D03*
X162849410Y-86932128D03*
%TO.P,U1,18,A1/PF6*%
%TO.N,ENC_B*%
X162849410Y-84392128D03*
X148908225Y-85587873D03*
%TO.P,U1,19,A2/PF5*%
%TO.N,ENC_A*%
X148908225Y-83047873D03*
X162849410Y-81852128D03*
%TO.P,U1,20,A3/PF4*%
%TO.N,unconnected-(U1-Pad20)*%
X162849410Y-79312128D03*
X148908225Y-80507873D03*
%TO.P,U1,21,VCC*%
%TO.N,VCC*%
X162849410Y-76772128D03*
X148908225Y-77967873D03*
%TO.P,U1,22,RST*%
%TO.N,Net-(B1-Pad1)*%
X148908225Y-75427873D03*
X162849410Y-74232128D03*
%TO.P,U1,23,GND*%
%TO.N,GND*%
X162849410Y-71692128D03*
X148908225Y-72887873D03*
%TO.P,U1,24,RAW*%
%TO.N,unconnected-(U1-Pad24)*%
X162849410Y-69152128D03*
X148908225Y-70347873D03*
%TD*%
D13*
%TO.P,L12,1,VDD*%
%TO.N,VCC*%
X135361846Y-87171051D03*
%TO.P,L12,2,DOUT*%
%TO.N,Net-(L12-Pad2)*%
X135361846Y-88921051D03*
%TO.P,L12,3,VSS*%
%TO.N,GND*%
X130761846Y-88921051D03*
%TO.P,L12,4,DIN*%
%TO.N,Net-(L11-Pad2)*%
X130761846Y-87171051D03*
%TD*%
D12*
%TO.P,SW22,1*%
%TO.N,Net-(D22-Pad2)*%
X92531846Y-122456051D03*
X97611846Y-122456051D03*
%TO.P,SW22,2*%
%TO.N,col3*%
X91261846Y-119916051D03*
X98881846Y-119916051D03*
%TD*%
%TO.P,SW17,1*%
%TO.N,Net-(D17-Pad2)*%
X111531846Y-112956051D03*
X116611846Y-112956051D03*
%TO.P,SW17,2*%
%TO.N,col4*%
X110261846Y-110416051D03*
X117881846Y-110416051D03*
%TD*%
D13*
%TO.P,L15,1,VDD*%
%TO.N,VCC*%
X73761846Y-98421051D03*
%TO.P,L15,2,DOUT*%
%TO.N,Net-(L14-Pad4)*%
X73761846Y-96671051D03*
%TO.P,L15,3,VSS*%
%TO.N,GND*%
X78361846Y-96671051D03*
%TO.P,L15,4,DIN*%
%TO.N,Net-(L15-Pad4)*%
X78361846Y-98421051D03*
%TD*%
%TO.P,L13,1,VDD*%
%TO.N,VCC*%
X35761846Y-112671051D03*
%TO.P,L13,2,DOUT*%
%TO.N,Net-(L13-Pad2)*%
X35761846Y-110921051D03*
%TO.P,L13,3,VSS*%
%TO.N,GND*%
X40361846Y-110921051D03*
%TO.P,L13,4,DIN*%
%TO.N,Net-(L13-Pad4)*%
X40361846Y-112671051D03*
%TD*%
D14*
%TO.P,D12,1,K*%
%TO.N,row1*%
X133081846Y-100396051D03*
%TO.P,D12,2,A*%
%TO.N,Net-(D12-Pad2)*%
X133081846Y-97096051D03*
%TD*%
D13*
%TO.P,L18,1,VDD*%
%TO.N,VCC*%
X130761846Y-107921051D03*
%TO.P,L18,2,DOUT*%
%TO.N,Net-(L17-Pad4)*%
X130761846Y-106171051D03*
%TO.P,L18,3,VSS*%
%TO.N,GND*%
X135361846Y-106171051D03*
%TO.P,L18,4,DIN*%
%TO.N,Net-(L12-Pad2)*%
X135361846Y-107921051D03*
%TD*%
D12*
%TO.P,SW8,1*%
%TO.N,Net-(D8-Pad2)*%
X59611846Y-98706051D03*
X54531846Y-98706051D03*
%TO.P,SW8,2*%
%TO.N,col1*%
X53261846Y-96166051D03*
X60881846Y-96166051D03*
%TD*%
D13*
%TO.P,L21,1,VDD*%
%TO.N,VCC*%
X78361846Y-115671051D03*
%TO.P,L21,2,DOUT*%
%TO.N,Net-(L21-Pad2)*%
X78361846Y-117421051D03*
%TO.P,L21,3,VSS*%
%TO.N,GND*%
X73761846Y-117421051D03*
%TO.P,L21,4,DIN*%
%TO.N,Net-(L20-Pad2)*%
X73761846Y-115671051D03*
%TD*%
D12*
%TO.P,SW6,1*%
%TO.N,Net-(D6-Pad2)*%
X135611846Y-79706051D03*
X130531846Y-79706051D03*
%TO.P,SW6,2*%
%TO.N,col5*%
X136881846Y-77166051D03*
X129261846Y-77166051D03*
%TD*%
%TO.P,SW14,1*%
%TO.N,Net-(D14-Pad2)*%
X59611846Y-117706051D03*
X54531846Y-117706051D03*
%TO.P,SW14,2*%
%TO.N,col1*%
X60881846Y-115166051D03*
X53261846Y-115166051D03*
%TD*%
D14*
%TO.P,D27,1,K*%
%TO.N,row4*%
X114081846Y-152646051D03*
%TO.P,D27,2,A*%
%TO.N,Net-(D27-Pad2)*%
X114081846Y-149346051D03*
%TD*%
D17*
%TO.P,U2,1,SLEEVE*%
%TO.N,GND*%
X153312500Y-104975000D03*
X153312500Y-111525000D03*
%TO.P,U2,2,TIP*%
%TO.N,VCC*%
X154412500Y-106925000D03*
X154412500Y-109575000D03*
%TO.P,U2,3,RING1*%
%TO.N,SERIAL*%
X158412500Y-106925000D03*
X158412500Y-109575000D03*
%TO.P,U2,4,RING2*%
%TO.N,unconnected-(U2-Pad4)*%
X161412500Y-109575000D03*
X161412500Y-106925000D03*
%TD*%
D14*
%TO.P,D17,1,K*%
%TO.N,row2*%
X114081846Y-114646051D03*
%TO.P,D17,2,A*%
%TO.N,Net-(D17-Pad2)*%
X114081846Y-111346051D03*
%TD*%
D13*
%TO.P,L26,1,VDD*%
%TO.N,VCC*%
X92761846Y-131671051D03*
%TO.P,L26,2,DOUT*%
%TO.N,Net-(L25-Pad4)*%
X92761846Y-129921051D03*
%TO.P,L26,3,VSS*%
%TO.N,GND*%
X97361846Y-129921051D03*
%TO.P,L26,4,DIN*%
%TO.N,Net-(L26-Pad4)*%
X97361846Y-131671051D03*
%TD*%
D12*
%TO.P,SW9,1*%
%TO.N,Net-(D9-Pad2)*%
X78611846Y-89206051D03*
X73531846Y-89206051D03*
%TO.P,SW9,2*%
%TO.N,col2*%
X72261846Y-86666051D03*
X79881846Y-86666051D03*
%TD*%
%TO.P,SW4,1*%
%TO.N,Net-(D4-Pad2)*%
X97611846Y-65456051D03*
X92531846Y-65456051D03*
%TO.P,SW4,2*%
%TO.N,col3*%
X91261846Y-62916051D03*
X98881846Y-62916051D03*
%TD*%
%TO.P,B1,1,1*%
%TO.N,Net-(B1-Pad1)*%
X150000000Y-108000000D03*
%TO.P,B1,2,2*%
%TO.N,GND*%
X150000000Y-114000000D03*
%TO.P,B1,3,3*%
%TO.N,unconnected-(B1-Pad3)*%
X146000000Y-108000000D03*
%TO.P,B1,4,4*%
%TO.N,unconnected-(B1-Pad4)*%
X146000000Y-114000000D03*
%TD*%
D14*
%TO.P,D5,1,K*%
%TO.N,row0*%
X114081846Y-76646051D03*
%TO.P,D5,2,A*%
%TO.N,Net-(D5-Pad2)*%
X114081846Y-73346051D03*
%TD*%
D13*
%TO.P,L24,1,VDD*%
%TO.N,VCC*%
X135361846Y-125171051D03*
%TO.P,L24,2,DOUT*%
%TO.N,Net-(L24-Pad2)*%
X135361846Y-126921051D03*
%TO.P,L24,3,VSS*%
%TO.N,GND*%
X130761846Y-126921051D03*
%TO.P,L24,4,DIN*%
%TO.N,Net-(L23-Pad2)*%
X130761846Y-125171051D03*
%TD*%
D14*
%TO.P,D22,1,K*%
%TO.N,row3*%
X95081846Y-124146051D03*
%TO.P,D22,2,A*%
%TO.N,Net-(D22-Pad2)*%
X95081846Y-120846051D03*
%TD*%
D13*
%TO.P,L14,1,VDD*%
%TO.N,VCC*%
X54761846Y-107921051D03*
%TO.P,L14,2,DOUT*%
%TO.N,Net-(L13-Pad4)*%
X54761846Y-106171051D03*
%TO.P,L14,3,VSS*%
%TO.N,GND*%
X59361846Y-106171051D03*
%TO.P,L14,4,DIN*%
%TO.N,Net-(L14-Pad4)*%
X59361846Y-107921051D03*
%TD*%
D12*
%TO.P,SW2,1*%
%TO.N,Net-(D2-Pad2)*%
X54531846Y-79706051D03*
X59611846Y-79706051D03*
%TO.P,SW2,2*%
%TO.N,col1*%
X60881846Y-77166051D03*
X53261846Y-77166051D03*
%TD*%
D14*
%TO.P,D24,1,K*%
%TO.N,row3*%
X133081846Y-138396051D03*
%TO.P,D24,2,A*%
%TO.N,Net-(D24-Pad2)*%
X133081846Y-135096051D03*
%TD*%
D13*
%TO.P,L23,1,VDD*%
%TO.N,VCC*%
X116300000Y-120375000D03*
%TO.P,L23,2,DOUT*%
%TO.N,Net-(L23-Pad2)*%
X116300000Y-122125000D03*
%TO.P,L23,3,VSS*%
%TO.N,GND*%
X111700000Y-122125000D03*
%TO.P,L23,4,DIN*%
%TO.N,Net-(L22-Pad2)*%
X111700000Y-120375000D03*
%TD*%
D12*
%TO.P,SW29,1*%
%TO.N,Net-(D29-Pad2)*%
X150223693Y-170592102D03*
X153815795Y-174184205D03*
%TO.P,SW29,2*%
%TO.N,col4*%
X151121718Y-167898026D03*
X156509872Y-173286179D03*
%TD*%
%TO.P,SW15,1*%
%TO.N,Net-(D15-Pad2)*%
X78611846Y-108206051D03*
X73531846Y-108206051D03*
%TO.P,SW15,2*%
%TO.N,col2*%
X72261846Y-105666051D03*
X79881846Y-105666051D03*
%TD*%
D18*
%TO.P,L29,1,VDD*%
%TO.N,VCC*%
X157366782Y-163788424D03*
%TO.P,L29,2,DOUT*%
%TO.N,Net-(L28-Pad4)*%
X158604219Y-162550987D03*
%TO.P,L29,3,VSS*%
%TO.N,GND*%
X161856910Y-165803678D03*
%TO.P,L29,4,DIN*%
%TO.N,Net-(L29-Pad4)*%
X160619473Y-167041115D03*
%TD*%
D13*
%TO.P,L6,1,VDD*%
%TO.N,VCC*%
X130761846Y-69921051D03*
%TO.P,L6,2,DOUT*%
%TO.N,Net-(L5-Pad4)*%
X130761846Y-68171051D03*
%TO.P,L6,3,VSS*%
%TO.N,GND*%
X135361846Y-68171051D03*
%TO.P,L6,4,DIN*%
%TO.N,LED*%
X135361846Y-69921051D03*
%TD*%
D14*
%TO.P,D18,1,K*%
%TO.N,row2*%
X133081846Y-119396051D03*
%TO.P,D18,2,A*%
%TO.N,Net-(D18-Pad2)*%
X133081846Y-116096051D03*
%TD*%
%TO.P,D20,1,K*%
%TO.N,row3*%
X57081846Y-138396051D03*
%TO.P,D20,2,A*%
%TO.N,Net-(D20-Pad2)*%
X57081846Y-135096051D03*
%TD*%
D12*
%TO.P,SW16,1*%
%TO.N,Net-(D16-Pad2)*%
X97611846Y-103456051D03*
X92531846Y-103456051D03*
%TO.P,SW16,2*%
%TO.N,col3*%
X98881846Y-100916051D03*
X91261846Y-100916051D03*
%TD*%
D13*
%TO.P,L7,1,VDD*%
%TO.N,VCC*%
X40361846Y-91921051D03*
%TO.P,L7,2,DOUT*%
%TO.N,Net-(L7-Pad2)*%
X40361846Y-93671051D03*
%TO.P,L7,3,VSS*%
%TO.N,GND*%
X35761846Y-93671051D03*
%TO.P,L7,4,DIN*%
%TO.N,Net-(L1-Pad2)*%
X35761846Y-91921051D03*
%TD*%
D12*
%TO.P,SW24,1*%
%TO.N,Net-(D24-Pad2)*%
X130531846Y-136706051D03*
X135611846Y-136706051D03*
%TO.P,SW24,2*%
%TO.N,col5*%
X129261846Y-134166051D03*
X136881846Y-134166051D03*
%TD*%
D14*
%TO.P,D6,1,K*%
%TO.N,row0*%
X133081846Y-81396051D03*
%TO.P,D6,2,A*%
%TO.N,Net-(D6-Pad2)*%
X133081846Y-78096051D03*
%TD*%
D12*
%TO.P,SW23,1*%
%TO.N,Net-(D23-Pad2)*%
X116611846Y-131956051D03*
X111531846Y-131956051D03*
%TO.P,SW23,2*%
%TO.N,col4*%
X110261846Y-129416051D03*
X117881846Y-129416051D03*
%TD*%
D14*
%TO.P,D16,1,K*%
%TO.N,row2*%
X95081846Y-105146051D03*
%TO.P,D16,2,A*%
%TO.N,Net-(D16-Pad2)*%
X95081846Y-101846051D03*
%TD*%
%TO.P,D4,1,K*%
%TO.N,row0*%
X95081846Y-67146051D03*
%TO.P,D4,2,A*%
%TO.N,Net-(D4-Pad2)*%
X95081846Y-63846051D03*
%TD*%
%TO.P,D1,1,K*%
%TO.N,row0*%
X38081846Y-86146051D03*
%TO.P,D1,2,A*%
%TO.N,Net-(D1-Pad2)*%
X38081846Y-82846051D03*
%TD*%
D12*
%TO.P,SW20,1*%
%TO.N,Net-(D20-Pad2)*%
X54531846Y-136706051D03*
X59611846Y-136706051D03*
%TO.P,SW20,2*%
%TO.N,col1*%
X53261846Y-134166051D03*
X60881846Y-134166051D03*
%TD*%
D13*
%TO.P,L9,1,VDD*%
%TO.N,VCC*%
X78361846Y-77671051D03*
%TO.P,L9,2,DOUT*%
%TO.N,Net-(L10-Pad4)*%
X78361846Y-79421051D03*
%TO.P,L9,3,VSS*%
%TO.N,GND*%
X73761846Y-79421051D03*
%TO.P,L9,4,DIN*%
%TO.N,Net-(L8-Pad2)*%
X73761846Y-77671051D03*
%TD*%
D19*
%TO.P,D30,1,K*%
%TO.N,row4*%
X162504592Y-190947320D03*
%TO.P,D30,2,A*%
%TO.N,Net-(D30-Pad2)*%
X165495408Y-189552680D03*
%TD*%
D13*
%TO.P,L17,1,VDD*%
%TO.N,VCC*%
X111761846Y-103171051D03*
%TO.P,L17,2,DOUT*%
%TO.N,Net-(L16-Pad4)*%
X111761846Y-101421051D03*
%TO.P,L17,3,VSS*%
%TO.N,GND*%
X116361846Y-101421051D03*
%TO.P,L17,4,DIN*%
%TO.N,Net-(L17-Pad4)*%
X116361846Y-103171051D03*
%TD*%
D14*
%TO.P,D10,1,K*%
%TO.N,row1*%
X95081846Y-86146051D03*
%TO.P,D10,2,A*%
%TO.N,Net-(D10-Pad2)*%
X95081846Y-82846051D03*
%TD*%
%TO.P,D3,1,K*%
%TO.N,row0*%
X76081846Y-71896051D03*
%TO.P,D3,2,A*%
%TO.N,Net-(D3-Pad2)*%
X76081846Y-68596051D03*
%TD*%
D20*
%TO.P,E1,*%
%TO.N,*%
X161350000Y-125500000D03*
X150150000Y-125500000D03*
D21*
%TO.P,E1,A,A*%
%TO.N,ENC_A*%
X158250000Y-118000000D03*
D22*
%TO.P,E1,B,B*%
%TO.N,ENC_B*%
X153250000Y-118000000D03*
%TO.P,E1,C,C*%
%TO.N,GND*%
X155750000Y-118000000D03*
%TO.P,E1,S1,S1*%
%TO.N,unconnected-(E1-PadS1)*%
X153250000Y-132500000D03*
%TO.P,E1,S2,S2*%
%TO.N,unconnected-(E1-PadS2)*%
X158250000Y-132500000D03*
%TD*%
D13*
%TO.P,L25,1,VDD*%
%TO.N,VCC*%
X73761846Y-136421051D03*
%TO.P,L25,2,DOUT*%
%TO.N,unconnected-(L25-Pad2)*%
X73761846Y-134671051D03*
%TO.P,L25,3,VSS*%
%TO.N,GND*%
X78361846Y-134671051D03*
%TO.P,L25,4,DIN*%
%TO.N,Net-(L25-Pad4)*%
X78361846Y-136421051D03*
%TD*%
D14*
%TO.P,D23,1,K*%
%TO.N,row3*%
X114081846Y-133646051D03*
%TO.P,D23,2,A*%
%TO.N,Net-(D23-Pad2)*%
X114081846Y-130346051D03*
%TD*%
%TO.P,D14,1,K*%
%TO.N,row2*%
X57081846Y-119396051D03*
%TO.P,D14,2,A*%
%TO.N,Net-(D14-Pad2)*%
X57081846Y-116096051D03*
%TD*%
%TO.P,D7,1,K*%
%TO.N,row1*%
X38081846Y-105146051D03*
%TO.P,D7,2,A*%
%TO.N,Net-(D7-Pad2)*%
X38081846Y-101846051D03*
%TD*%
D13*
%TO.P,L8,1,VDD*%
%TO.N,VCC*%
X59361846Y-87171051D03*
%TO.P,L8,2,DOUT*%
%TO.N,Net-(L8-Pad2)*%
X59361846Y-88921051D03*
%TO.P,L8,3,VSS*%
%TO.N,GND*%
X54761846Y-88921051D03*
%TO.P,L8,4,DIN*%
%TO.N,Net-(L7-Pad2)*%
X54761846Y-87171051D03*
%TD*%
D14*
%TO.P,D9,1,K*%
%TO.N,row1*%
X76081846Y-90896051D03*
%TO.P,D9,2,A*%
%TO.N,Net-(D9-Pad2)*%
X76081846Y-87596051D03*
%TD*%
D12*
%TO.P,SW1,1*%
%TO.N,Net-(D1-Pad2)*%
X40611846Y-84456051D03*
X35531846Y-84456051D03*
%TO.P,SW1,2*%
%TO.N,col0*%
X41881846Y-81916051D03*
X34261846Y-81916051D03*
%TD*%
%TO.P,SW3,1*%
%TO.N,Net-(D3-Pad2)*%
X73531846Y-70206051D03*
X78611846Y-70206051D03*
%TO.P,SW3,2*%
%TO.N,col2*%
X72261846Y-67666051D03*
X79881846Y-67666051D03*
%TD*%
D14*
%TO.P,D19,1,K*%
%TO.N,row3*%
X38081846Y-143146051D03*
%TO.P,D19,2,A*%
%TO.N,Net-(D19-Pad2)*%
X38081846Y-139846051D03*
%TD*%
D12*
%TO.P,SW11,1*%
%TO.N,Net-(D11-Pad2)*%
X116611846Y-93956051D03*
X111531846Y-93956051D03*
%TO.P,SW11,2*%
%TO.N,col4*%
X117881846Y-91416051D03*
X110261846Y-91416051D03*
%TD*%
D13*
%TO.P,L22,1,VDD*%
%TO.N,VCC*%
X97361846Y-110921051D03*
%TO.P,L22,2,DOUT*%
%TO.N,Net-(L22-Pad2)*%
X97361846Y-112671051D03*
%TO.P,L22,3,VSS*%
%TO.N,GND*%
X92761846Y-112671051D03*
%TO.P,L22,4,DIN*%
%TO.N,Net-(L21-Pad2)*%
X92761846Y-110921051D03*
%TD*%
%TO.P,L1,1,VDD*%
%TO.N,VCC*%
X35761846Y-74671051D03*
%TO.P,L1,2,DOUT*%
%TO.N,Net-(L1-Pad2)*%
X35761846Y-72921051D03*
%TO.P,L1,3,VSS*%
%TO.N,GND*%
X40361846Y-72921051D03*
%TO.P,L1,4,DIN*%
%TO.N,Net-(L1-Pad4)*%
X40361846Y-74671051D03*
%TD*%
D12*
%TO.P,SW19,1*%
%TO.N,Net-(D19-Pad2)*%
X35531846Y-141456051D03*
X40611846Y-141456051D03*
%TO.P,SW19,2*%
%TO.N,col0*%
X34261846Y-138916051D03*
X41881846Y-138916051D03*
%TD*%
%TO.P,SW25,1*%
%TO.N,Net-(D25-Pad2)*%
X73531846Y-146206051D03*
X78611846Y-146206051D03*
%TO.P,SW25,2*%
%TO.N,col0*%
X72261846Y-143666051D03*
X79881846Y-143666051D03*
%TD*%
D23*
%TO.P,D29,1,K*%
%TO.N,row4*%
X150833274Y-173666726D03*
%TO.P,D29,2,A*%
%TO.N,Net-(D29-Pad2)*%
X153166726Y-171333274D03*
%TD*%
D12*
%TO.P,SW27,1*%
%TO.N,Net-(D27-Pad2)*%
X111531846Y-150956051D03*
X116611846Y-150956051D03*
%TO.P,SW27,2*%
%TO.N,col2*%
X117881846Y-148416051D03*
X110261846Y-148416051D03*
%TD*%
D24*
%TO.P,L28,1,VDD*%
%TO.N,VCC*%
X136657547Y-150117048D03*
%TO.P,L28,2,DOUT*%
%TO.N,Net-(L27-Pad4)*%
X137397129Y-148531010D03*
%TO.P,L28,3,VSS*%
%TO.N,GND*%
X141566145Y-150475054D03*
%TO.P,L28,4,DIN*%
%TO.N,Net-(L28-Pad4)*%
X140826563Y-152061092D03*
%TD*%
D12*
%TO.P,SW30,1*%
%TO.N,Net-(D30-Pad2)*%
X165581253Y-192244974D03*
X163434352Y-187640930D03*
%TO.P,SW30,2*%
%TO.N,col5*%
X165199649Y-185416469D03*
X168420000Y-192322534D03*
%TD*%
D13*
%TO.P,L11,1,VDD*%
%TO.N,VCC*%
X116361846Y-82421051D03*
%TO.P,L11,2,DOUT*%
%TO.N,Net-(L11-Pad2)*%
X116361846Y-84171051D03*
%TO.P,L11,3,VSS*%
%TO.N,GND*%
X111761846Y-84171051D03*
%TO.P,L11,4,DIN*%
%TO.N,Net-(L10-Pad2)*%
X111761846Y-82421051D03*
%TD*%
D14*
%TO.P,D11,1,K*%
%TO.N,row1*%
X114081846Y-95646051D03*
%TO.P,D11,2,A*%
%TO.N,Net-(D11-Pad2)*%
X114081846Y-92346051D03*
%TD*%
%TO.P,D15,1,K*%
%TO.N,row2*%
X76081846Y-109896051D03*
%TO.P,D15,2,A*%
%TO.N,Net-(D15-Pad2)*%
X76081846Y-106596051D03*
%TD*%
D13*
%TO.P,L3,1,VDD*%
%TO.N,VCC*%
X73761846Y-60421051D03*
%TO.P,L3,2,DOUT*%
%TO.N,Net-(L2-Pad4)*%
X73761846Y-58671051D03*
%TO.P,L3,3,VSS*%
%TO.N,GND*%
X78361846Y-58671051D03*
%TO.P,L3,4,DIN*%
%TO.N,Net-(L3-Pad4)*%
X78361846Y-60421051D03*
%TD*%
D25*
%TO.P,D28,1,K*%
%TO.N,row4*%
X133685667Y-162050493D03*
%TO.P,D28,2,A*%
%TO.N,Net-(D28-Pad2)*%
X134814333Y-158949507D03*
%TD*%
D12*
%TO.P,SW12,1*%
%TO.N,Net-(D12-Pad2)*%
X135611846Y-98706051D03*
X130531846Y-98706051D03*
%TO.P,SW12,2*%
%TO.N,col5*%
X129261846Y-96166051D03*
X136881846Y-96166051D03*
%TD*%
D14*
%TO.P,D8,1,K*%
%TO.N,row1*%
X57081846Y-100396051D03*
%TO.P,D8,2,A*%
%TO.N,Net-(D8-Pad2)*%
X57081846Y-97096051D03*
%TD*%
D12*
%TO.P,SW28,1*%
%TO.N,Net-(D28-Pad2)*%
X136766967Y-160973545D03*
X132162924Y-158826644D03*
%TO.P,SW28,2*%
%TO.N,col3*%
X138991429Y-159208249D03*
X132085363Y-155987897D03*
%TD*%
D26*
%TO.P,J1,1,P1*%
%TO.N,Net-(J1-Pad1)*%
X151468511Y-100838511D03*
X160358511Y-102108511D03*
%TO.P,J1,2,P2*%
%TO.N,Net-(J1-Pad2)*%
X157818511Y-102108511D03*
X154008511Y-100838511D03*
%TO.P,J1,3,P3*%
%TO.N,VCC*%
X156548511Y-100838511D03*
X155278511Y-102108511D03*
%TO.P,J1,4,P4*%
%TO.N,GND*%
X152738511Y-102108511D03*
X159088511Y-100838511D03*
%TD*%
D13*
%TO.P,L4,1,VDD*%
%TO.N,VCC*%
X92761846Y-55671051D03*
%TO.P,L4,2,DOUT*%
%TO.N,Net-(L3-Pad4)*%
X92761846Y-53921051D03*
%TO.P,L4,3,VSS*%
%TO.N,GND*%
X97361846Y-53921051D03*
%TO.P,L4,4,DIN*%
%TO.N,Net-(L4-Pad4)*%
X97361846Y-55671051D03*
%TD*%
D27*
%TO.N,GND*%
X175356925Y-187966131D03*
X92096470Y-73813772D03*
X98007955Y-92796051D03*
X79007955Y-135546051D03*
X136012250Y-107042233D03*
X79007955Y-59546051D03*
X79007955Y-97546051D03*
X73115737Y-116546051D03*
X41012250Y-111792233D03*
X111111442Y-83299869D03*
X41007954Y-73796051D03*
X161684067Y-167037718D03*
X60007955Y-107046051D03*
X130096470Y-88063772D03*
X141781927Y-151541130D03*
X92115737Y-111796051D03*
X130111442Y-126049869D03*
X117007955Y-102296051D03*
X136007955Y-69046051D03*
X117012250Y-140292233D03*
X35096470Y-92813772D03*
X117007954Y-64296051D03*
X60007954Y-69046051D03*
X54115737Y-126046051D03*
X111053891Y-121250000D03*
X98012250Y-130792233D03*
X98007955Y-54796051D03*
X54111442Y-88049869D03*
X35115737Y-130796051D03*
X73111442Y-78549869D03*
%TO.N,VCC*%
X41007954Y-92796051D03*
X92115737Y-130796051D03*
X98007955Y-73796051D03*
X136007955Y-88046051D03*
X92115737Y-92796051D03*
X54115738Y-69046051D03*
X136441766Y-149050972D03*
X98007955Y-111796051D03*
X79007954Y-116546051D03*
X60007955Y-126046051D03*
X172866767Y-182625971D03*
X79007955Y-78546051D03*
X111115737Y-140296051D03*
X92115738Y-54796051D03*
X73115738Y-135546051D03*
X60007955Y-88046051D03*
X41007955Y-130796051D03*
X130115737Y-107046051D03*
X35115737Y-111796051D03*
X157528634Y-162712839D03*
X54115738Y-107046051D03*
X117007954Y-83296051D03*
X111115738Y-64296050D03*
X35115738Y-73796052D03*
X136007954Y-126046051D03*
X73115738Y-59546050D03*
X111115738Y-102296050D03*
X73115737Y-97546051D03*
X116946108Y-121250000D03*
X130115738Y-69046050D03*
%TO.N,LED*%
X137006382Y-68999704D03*
%TO.N,Net-(L1-Pad2)*%
X34097731Y-92852825D03*
X34116247Y-73800889D03*
%TO.N,Net-(L1-Pad4)*%
X53118248Y-68982650D03*
X42007442Y-73801499D03*
%TO.N,Net-(L2-Pad4)*%
X72118248Y-59482649D03*
X61006327Y-68998554D03*
%TO.N,Net-(L3-Pad4)*%
X91118249Y-54732649D03*
X80006162Y-59495161D03*
%TO.N,Net-(L4-Pad4)*%
X99006382Y-54749704D03*
X110118248Y-64232650D03*
%TO.N,Net-(L5-Pad4)*%
X118006161Y-64245161D03*
X129117646Y-68992960D03*
%TO.N,Net-(L13-Pad4)*%
X42010119Y-111735110D03*
X53118953Y-106972400D03*
%TO.N,Net-(L7-Pad2)*%
X42005444Y-92859452D03*
X53112852Y-88092565D03*
%TO.N,Net-(L8-Pad2)*%
X72113573Y-78606992D03*
X61005445Y-88109452D03*
%TO.N,Net-(L10-Pad2)*%
X110113573Y-83356992D03*
X99004740Y-73869702D03*
%TO.N,Net-(L10-Pad4)*%
X80004740Y-78619702D03*
X91097391Y-73842868D03*
%TO.N,Net-(L11-Pad2)*%
X118004739Y-83369702D03*
X129097391Y-88092868D03*
%TO.N,Net-(L13-Pad2)*%
X34118247Y-130859452D03*
X34118247Y-111732650D03*
%TO.N,Net-(L12-Pad2)*%
X137010119Y-106985110D03*
X137005445Y-88109452D03*
%TO.N,Net-(L14-Pad4)*%
X61005539Y-106984141D03*
X72118952Y-97472400D03*
%TO.N,Net-(L15-Pad4)*%
X80005444Y-97482649D03*
X91118952Y-92722400D03*
%TO.N,Net-(L16-Pad4)*%
X110118248Y-102232650D03*
X99005445Y-92732650D03*
%TO.N,Net-(L17-Pad4)*%
X129118247Y-106982650D03*
X118005539Y-102234141D03*
%TO.N,Net-(L19-Pad2)*%
X42004740Y-130869702D03*
X53118247Y-126109452D03*
%TO.N,Net-(L20-Pad2)*%
X61005445Y-126109452D03*
X72118153Y-116607961D03*
%TO.N,Net-(L21-Pad2)*%
X80005443Y-116609453D03*
X91118153Y-111857961D03*
%TO.N,Net-(L22-Pad2)*%
X110056307Y-121311910D03*
X99004740Y-111869702D03*
%TO.N,Net-(L23-Pad2)*%
X117942893Y-121323651D03*
X129113573Y-126106993D03*
%TO.N,Net-(L24-Pad2)*%
X175804956Y-188859593D03*
X137005444Y-126109452D03*
%TO.N,unconnected-(L25-Pad2)*%
X72118249Y-135482649D03*
%TO.N,Net-(L25-Pad4)*%
X80005539Y-135484141D03*
X91118952Y-130722400D03*
%TO.N,Net-(L26-Pad4)*%
X110118248Y-140232649D03*
X99010119Y-130735110D03*
%TO.N,Net-(L27-Pad4)*%
X135489700Y-148746708D03*
X118010059Y-140234070D03*
%TO.N,Net-(L28-Pad4)*%
X156669461Y-162202126D03*
X142624150Y-152079335D03*
%TO.N,Net-(L29-Pad4)*%
X162089321Y-167951378D03*
X172361486Y-181763593D03*
%TD*%
D28*
%TO.N,GND*%
X126300000Y-66500000D02*
X135250000Y-66500000D01*
X123400000Y-88900000D02*
X120600000Y-86100000D01*
X117007955Y-100807955D02*
X117007955Y-102296051D01*
X79007955Y-59546051D02*
X79007955Y-59392160D01*
X60007954Y-68892159D02*
X59286846Y-68171051D01*
X152475000Y-111525000D02*
X153312500Y-111525000D01*
X160984241Y-74232128D02*
X162179986Y-75427873D01*
X162415964Y-77967873D02*
X164148225Y-77967873D01*
X108100000Y-84200000D02*
X100078752Y-76178752D01*
X46922662Y-95400000D02*
X51711331Y-90611331D01*
X92836846Y-112517160D02*
X92115737Y-111796051D01*
X157819868Y-103646542D02*
X159088511Y-102377899D01*
X62443818Y-66443818D02*
X48247878Y-66443818D01*
X85750000Y-52500000D02*
X81000000Y-57250000D01*
X73115737Y-116727622D02*
X70921679Y-118921679D01*
X78286846Y-96824942D02*
X79007955Y-97546051D01*
X135286846Y-106171051D02*
X135286846Y-106316829D01*
X108000000Y-121600000D02*
X100746680Y-114346680D01*
X111111442Y-83299869D02*
X111111442Y-83476368D01*
X72900000Y-95200000D02*
X78500000Y-95200000D01*
X154276542Y-103646542D02*
X157819868Y-103646542D01*
X111775000Y-121971109D02*
X111053891Y-121250000D01*
X79007955Y-135546051D02*
X79007955Y-135364480D01*
X40286846Y-110921051D02*
X40286846Y-111066829D01*
X141498172Y-150443357D02*
X141498172Y-151257375D01*
X153022480Y-105265020D02*
X153022480Y-111234980D01*
X175845191Y-186942795D02*
X175845191Y-187477865D01*
X54836846Y-126767160D02*
X54115737Y-126046051D01*
X92115737Y-111796051D02*
X92115737Y-111977622D01*
X122112250Y-138312250D02*
X130600000Y-146800000D01*
X60007954Y-69046051D02*
X60007954Y-68892159D01*
X41012250Y-111792233D02*
X41012250Y-111387750D01*
X79007955Y-95707955D02*
X79007955Y-97546051D01*
X117007954Y-64296051D02*
X117007954Y-64142159D01*
X59286846Y-106324942D02*
X60007955Y-107046051D01*
X101407955Y-91107955D02*
X110100000Y-99800000D01*
X92836846Y-112671051D02*
X92836846Y-112517160D01*
X165300236Y-69870693D02*
X165300236Y-70825053D01*
X59200000Y-104600000D02*
X60007955Y-105407955D01*
X142000000Y-151323057D02*
X141781927Y-151541130D01*
X98007955Y-91107955D02*
X101407955Y-91107955D01*
X111836846Y-84025273D02*
X111111442Y-83299869D01*
X110285462Y-122200000D02*
X108600000Y-122200000D01*
X60007955Y-105407955D02*
X60007955Y-107046051D01*
X98007955Y-54796051D02*
X98007955Y-54642160D01*
X47044944Y-133300000D02*
X35500000Y-133300000D01*
X154276542Y-103646542D02*
X154276542Y-104010958D01*
X147609410Y-76772128D02*
X161220219Y-76772128D01*
X117012250Y-138312250D02*
X117012250Y-140292233D01*
X73836846Y-117267160D02*
X73115737Y-116546051D01*
X117678927Y-63455150D02*
X117007954Y-64126123D01*
X35836846Y-131671051D02*
X35836846Y-131517160D01*
X71637636Y-57250000D02*
X62443818Y-66443818D01*
X175845191Y-187477865D02*
X175356925Y-187966131D01*
X41007954Y-73642159D02*
X40286846Y-72921051D01*
X62443818Y-66443818D02*
X60007954Y-68879682D01*
X36100000Y-95400000D02*
X46922662Y-95400000D01*
X130096470Y-88063772D02*
X130096470Y-88180675D01*
X117007955Y-100807955D02*
X121607955Y-100807955D01*
X112287810Y-86100000D02*
X110387810Y-84200000D01*
X115973777Y-61750000D02*
X108750000Y-61750000D01*
X120600000Y-86100000D02*
X112287810Y-86100000D01*
X111053891Y-121250000D02*
X111053891Y-121431571D01*
X147200000Y-149000000D02*
X162800000Y-164600000D01*
X123721051Y-126921051D02*
X120700000Y-123900000D01*
X125400000Y-104600000D02*
X135500000Y-104600000D01*
X98007955Y-54642160D02*
X97286846Y-53921051D01*
X162849410Y-70862893D02*
X162849410Y-71692128D01*
X116286846Y-139566829D02*
X117012250Y-140292233D01*
X73836846Y-117421051D02*
X73836846Y-117267160D01*
X48247878Y-66443818D02*
X41220848Y-73470848D01*
X62692045Y-105407955D02*
X72900000Y-95200000D01*
X92096470Y-73961034D02*
X89878752Y-76178752D01*
X161220219Y-76772128D02*
X162415964Y-77967873D01*
X54836846Y-88775273D02*
X54111442Y-88049869D01*
X130096470Y-88211034D02*
X129407504Y-88900000D01*
X135286846Y-106316829D02*
X136012250Y-107042233D01*
X129407504Y-88900000D02*
X123400000Y-88900000D01*
X41012250Y-111387750D02*
X47800000Y-104600000D01*
X73836846Y-79421051D02*
X73836846Y-79275273D01*
X97219455Y-52500000D02*
X85750000Y-52500000D01*
X163034054Y-70862893D02*
X162849410Y-70862893D01*
X130836846Y-126921051D02*
X123721051Y-126921051D01*
X78500000Y-95200000D02*
X79007955Y-95707955D01*
X79007955Y-95707955D02*
X83292045Y-95707955D01*
X54836846Y-88921051D02*
X54836846Y-88775273D01*
X135361846Y-66611846D02*
X135250000Y-66500000D01*
X163671045Y-71499884D02*
X163034054Y-70862893D01*
X100812250Y-128712250D02*
X109900000Y-137800000D01*
X111775000Y-122125000D02*
X111775000Y-121971109D01*
X97286846Y-91921051D02*
X97286846Y-92074942D01*
X78286846Y-134671051D02*
X78286846Y-134824942D01*
X98012250Y-128712250D02*
X98012250Y-130792233D01*
X88600000Y-90400000D02*
X97300000Y-90400000D01*
X83292045Y-95707955D02*
X88600000Y-90400000D01*
X147609410Y-74232128D02*
X160984241Y-74232128D01*
X82800000Y-133800000D02*
X88300000Y-128300000D01*
X136100000Y-105200000D02*
X136100000Y-106954483D01*
X60007955Y-105407955D02*
X62692045Y-105407955D01*
X116500000Y-137800000D02*
X117012250Y-138312250D01*
X162800000Y-165921785D02*
X161684067Y-167037718D01*
X100746680Y-114346680D02*
X89746680Y-114346680D01*
X130836846Y-126775273D02*
X130111442Y-126049869D01*
X159088511Y-102377899D02*
X159088511Y-100838511D01*
X59286846Y-106171051D02*
X59286846Y-106324942D01*
X35836846Y-93671051D02*
X35836846Y-93554148D01*
X97286846Y-130066829D02*
X98012250Y-130792233D01*
X130096470Y-88063772D02*
X130096470Y-88211034D01*
X98679148Y-53959693D02*
X97219455Y-52500000D01*
X111111442Y-83476368D02*
X110387810Y-84200000D01*
X35500000Y-133300000D02*
X35115737Y-132915737D01*
X121607955Y-100807955D02*
X125400000Y-104600000D01*
X89878752Y-76178752D02*
X84988599Y-81068905D01*
X154276542Y-104010958D02*
X153312500Y-104975000D01*
X78286846Y-134824942D02*
X79007955Y-135546051D01*
X136100000Y-106954483D02*
X136012250Y-107042233D01*
X135361846Y-68171051D02*
X135361846Y-66611846D01*
X98012250Y-128712250D02*
X100812250Y-128712250D01*
X61370887Y-128472472D02*
X51872472Y-128472472D01*
X142000000Y-149000000D02*
X147200000Y-149000000D01*
X139800000Y-146800000D02*
X142000000Y-149000000D01*
X60007954Y-68879682D02*
X60007954Y-69046051D01*
X47800000Y-104600000D02*
X59200000Y-104600000D01*
X108750000Y-61750000D02*
X100959693Y-53959693D01*
X73111442Y-78726368D02*
X70768905Y-81068905D01*
X40286846Y-111066829D02*
X41012250Y-111792233D01*
X35836846Y-131517160D02*
X35115737Y-130796051D01*
X35096470Y-92813772D02*
X35096470Y-94396470D01*
X81000000Y-57250000D02*
X78932897Y-59317103D01*
X162800000Y-164600000D02*
X162800000Y-165921785D01*
X150000000Y-114000000D02*
X152475000Y-111525000D01*
X89746680Y-114346680D02*
X85171680Y-118921679D01*
X116000000Y-99800000D02*
X117007955Y-100807955D01*
X130096470Y-88180675D02*
X130836846Y-88921051D01*
X135286846Y-68171051D02*
X135286846Y-68324942D01*
X35096470Y-94396470D02*
X36100000Y-95400000D01*
X97286846Y-92074942D02*
X98007955Y-92796051D01*
X135500000Y-104600000D02*
X136100000Y-105200000D01*
X100078752Y-76178752D02*
X89878752Y-76178752D01*
X98007955Y-91107955D02*
X98007955Y-92796051D01*
X111053891Y-121431571D02*
X110285462Y-122200000D01*
X70921679Y-118921679D02*
X61370887Y-128472472D01*
X123255150Y-63455150D02*
X117678927Y-63455150D01*
X92836846Y-74554148D02*
X92096470Y-73813772D01*
X84988599Y-81068905D02*
X70768905Y-81068905D01*
X110387810Y-84200000D02*
X108100000Y-84200000D01*
X92115737Y-111977622D02*
X89746680Y-114346680D01*
X73836846Y-79275273D02*
X73111442Y-78549869D01*
X162179986Y-75427873D02*
X164148225Y-75427873D01*
X54115737Y-126229207D02*
X51872472Y-128472472D01*
X54115737Y-126046051D02*
X54115737Y-126229207D01*
X79007955Y-135364480D02*
X80572435Y-133800000D01*
X161684067Y-165870455D02*
X161803877Y-165750645D01*
X126300000Y-66500000D02*
X123255150Y-63455150D01*
X80572435Y-133800000D02*
X82800000Y-133800000D01*
X161929543Y-66500000D02*
X165300236Y-69870693D01*
X70768905Y-81068905D02*
X61226479Y-90611331D01*
X97600000Y-128300000D02*
X98012250Y-128712250D01*
X117007954Y-64126123D02*
X117007954Y-64296051D01*
X51711331Y-90611331D02*
X54111442Y-88211220D01*
X135250000Y-66500000D02*
X161929543Y-66500000D01*
X142000000Y-149000000D02*
X142000000Y-151323057D01*
X110100000Y-99800000D02*
X116000000Y-99800000D01*
X116286846Y-101421051D02*
X116286846Y-101574942D01*
X41007954Y-73796051D02*
X41007954Y-73642159D01*
X81000000Y-57250000D02*
X71637636Y-57250000D01*
X79007955Y-59392160D02*
X78286846Y-58671051D01*
X35115737Y-132915737D02*
X35115737Y-130796051D01*
X165300236Y-70825053D02*
X164625405Y-71499884D01*
X109900000Y-137800000D02*
X116500000Y-137800000D01*
X85171680Y-118921679D02*
X70921679Y-118921679D01*
X54836846Y-126921051D02*
X54836846Y-126767160D01*
X111836846Y-84171051D02*
X111836846Y-84025273D01*
X100959693Y-53959693D02*
X98679148Y-53959693D01*
X108600000Y-122200000D02*
X108000000Y-121600000D01*
X117012250Y-138312250D02*
X122112250Y-138312250D01*
X54111442Y-88211220D02*
X54111442Y-88049869D01*
X130600000Y-146800000D02*
X139800000Y-146800000D01*
X61226479Y-90611331D02*
X51711331Y-90611331D01*
X92836846Y-74671051D02*
X92836846Y-74554148D01*
X152738511Y-102108511D02*
X154276542Y-103646542D01*
X78286846Y-96671051D02*
X78286846Y-96824942D01*
X98679148Y-53959693D02*
X98007955Y-54630886D01*
X135286846Y-68324942D02*
X136007955Y-69046051D01*
X97286846Y-129921051D02*
X97286846Y-130066829D01*
X73111442Y-78549869D02*
X73111442Y-78726368D01*
X51872472Y-128472472D02*
X47044944Y-133300000D01*
X141498172Y-151257375D02*
X141781927Y-151541130D01*
X97300000Y-90400000D02*
X98007955Y-91107955D01*
X116286846Y-101574942D02*
X117007955Y-102296051D01*
X117007954Y-64142159D02*
X116286846Y-63421051D01*
X120700000Y-123900000D02*
X110300000Y-123900000D01*
X92096470Y-73813772D02*
X92096470Y-73961034D01*
X110300000Y-123900000D02*
X108000000Y-121600000D01*
X116286846Y-139421051D02*
X116286846Y-139566829D01*
X117678927Y-63455150D02*
X115973777Y-61750000D01*
X98007955Y-54630886D02*
X98007955Y-54796051D01*
X73115737Y-116546051D02*
X73115737Y-116727622D01*
X164625405Y-71499884D02*
X163671045Y-71499884D01*
X161684067Y-167037718D02*
X161684067Y-165870455D01*
X35836846Y-93554148D02*
X35096470Y-92813772D01*
X130836846Y-126921051D02*
X130836846Y-126775273D01*
X88300000Y-128300000D02*
X97600000Y-128300000D01*
D29*
%TO.N,ENC_A*%
X165684256Y-83047344D02*
X164489040Y-81852128D01*
X163787021Y-112462979D02*
X163787021Y-100948697D01*
X158250000Y-118000000D02*
X163787021Y-112462979D01*
X163787021Y-100948697D02*
X165684256Y-99051461D01*
X164489040Y-81852128D02*
X162849410Y-81852128D01*
X165684256Y-99051461D02*
X165684256Y-83047344D01*
%TO.N,ENC_B*%
X164489040Y-84392128D02*
X162849410Y-84392128D01*
X159737020Y-111512980D02*
X159737020Y-104362980D01*
X153250000Y-118000000D02*
X159737020Y-111512980D01*
X165234736Y-98865264D02*
X165234736Y-85137824D01*
X165234736Y-85137824D02*
X164489040Y-84392128D01*
X159737020Y-104362980D02*
X165234736Y-98865264D01*
%TO.N,Net-(J1-Pad1)*%
X161312850Y-79312128D02*
X162508595Y-80507873D01*
X152491522Y-99815500D02*
X159512257Y-99815500D01*
X147609410Y-79312128D02*
X161312850Y-79312128D01*
X151468511Y-100838511D02*
X152491522Y-99815500D01*
X160358511Y-100661754D02*
X160358511Y-102108511D01*
X159512257Y-99815500D02*
X160358511Y-100661754D01*
X162508595Y-80507873D02*
X164148225Y-80507873D01*
%TO.N,Net-(J1-Pad2)*%
X154008511Y-100838511D02*
X154008511Y-102285268D01*
X156795500Y-103131522D02*
X157818511Y-102108511D01*
X147609410Y-81852128D02*
X161312850Y-81852128D01*
X161312850Y-81852128D02*
X162508595Y-83047873D01*
X154854765Y-103131522D02*
X156795500Y-103131522D01*
X154008511Y-102285268D02*
X154854765Y-103131522D01*
X162508595Y-83047873D02*
X164148225Y-83047873D01*
D28*
%TO.N,VCC*%
X73115738Y-135546051D02*
X73115738Y-135602405D01*
X54115738Y-107046051D02*
X54115738Y-107199943D01*
X136007954Y-124307954D02*
X136007954Y-126046051D01*
X35115737Y-111796051D02*
X35115737Y-111949942D01*
X40286846Y-91921051D02*
X40286846Y-92074943D01*
X116000000Y-118900000D02*
X116946108Y-119846108D01*
X73000000Y-60800000D02*
X62200000Y-71600000D01*
X136441766Y-149050972D02*
X136441766Y-149864991D01*
X122600000Y-142700000D02*
X110100000Y-142700000D01*
X89879299Y-133079299D02*
X91879299Y-131079298D01*
X79007955Y-76807955D02*
X83092045Y-76807955D01*
X92115737Y-130949942D02*
X92836846Y-131671051D01*
X116500000Y-81000000D02*
X117007954Y-81507954D01*
X54115738Y-71015738D02*
X50284262Y-71015738D01*
X70754298Y-99954298D02*
X61404298Y-109304299D01*
X41007955Y-130642160D02*
X40286846Y-129921051D01*
X116946108Y-121096108D02*
X116225000Y-120375000D01*
X147175964Y-77967873D02*
X148908225Y-77967873D01*
X35115738Y-75115738D02*
X35115738Y-73796052D01*
X171909565Y-183649307D02*
X163400000Y-175139742D01*
X89829298Y-95129298D02*
X85004299Y-99954298D01*
X121546108Y-119846108D02*
X125300000Y-123600000D01*
X64718144Y-144000000D02*
X72809072Y-135909072D01*
X136725520Y-150148745D02*
X134951255Y-150148745D01*
X60100000Y-86800000D02*
X61500000Y-86800000D01*
X160700000Y-172400000D02*
X160600000Y-172400000D01*
X35115738Y-73796052D02*
X35115738Y-75427793D01*
X43528599Y-128228599D02*
X48157197Y-123600000D01*
X108100000Y-102900000D02*
X100329298Y-95129298D01*
X154412500Y-106925000D02*
X154412500Y-109575000D01*
X79007955Y-78392160D02*
X78286846Y-77671051D01*
X130836846Y-69767158D02*
X130115738Y-69046050D01*
X101307955Y-110107955D02*
X110100000Y-118900000D01*
X134951255Y-150148745D02*
X130048745Y-150148745D01*
X72900000Y-138100000D02*
X84858597Y-138100000D01*
X98007955Y-111796051D02*
X98007955Y-111642160D01*
X120700000Y-104700000D02*
X109900000Y-104700000D01*
X155278511Y-102108511D02*
X156548511Y-100838511D01*
X156341457Y-163841457D02*
X156200000Y-163700000D01*
X88500000Y-71400000D02*
X97200000Y-71400000D01*
X73115737Y-97592860D02*
X70754298Y-99954298D01*
X41007954Y-92739697D02*
X43373826Y-90373826D01*
X135286846Y-87171051D02*
X135286846Y-87324942D01*
X73836846Y-60421051D02*
X73836846Y-60267158D01*
X35115737Y-113115737D02*
X31815737Y-113115737D01*
X108300000Y-103100000D02*
X108100000Y-102900000D01*
X73000000Y-60800000D02*
X73000000Y-59661788D01*
X116946108Y-119846108D02*
X121546108Y-119846108D01*
X88384262Y-55915738D02*
X82700000Y-61600000D01*
X111500000Y-66600000D02*
X110908259Y-66008259D01*
X35836846Y-74671051D02*
X35836846Y-74517160D01*
X172378501Y-183114237D02*
X172866767Y-182625971D01*
X135300000Y-123600000D02*
X136007954Y-124307954D01*
X125300000Y-123600000D02*
X135300000Y-123600000D01*
X60007955Y-88046051D02*
X60007955Y-87892160D01*
X110100000Y-142700000D02*
X108300000Y-140900000D01*
X135286846Y-87324942D02*
X136007955Y-88046051D01*
X110100000Y-118900000D02*
X116000000Y-118900000D01*
X31701825Y-78841706D02*
X31701825Y-90298175D01*
X41007954Y-92796051D02*
X41007954Y-92739697D01*
X97300000Y-109400000D02*
X98007955Y-110107955D01*
X157419815Y-163841457D02*
X156341457Y-163841457D01*
X135500000Y-85600000D02*
X136007955Y-86107955D01*
X117007954Y-83296051D02*
X117007954Y-83142159D01*
X73115738Y-135602405D02*
X72600000Y-136118143D01*
X110100000Y-81000000D02*
X116500000Y-81000000D01*
X92115737Y-92842860D02*
X89829298Y-95129298D01*
X60100000Y-86800000D02*
X60100000Y-87954006D01*
X84858597Y-138100000D02*
X89879299Y-133079299D01*
X172378501Y-183649307D02*
X171909565Y-183649307D01*
X108571051Y-141171051D02*
X108300000Y-140900000D01*
X98007955Y-110107955D02*
X98007955Y-111796051D01*
X31701825Y-113001825D02*
X31701825Y-128301825D01*
X134951255Y-150184748D02*
X134951255Y-150148745D01*
X172378501Y-183649307D02*
X172378501Y-183114237D01*
X83092045Y-76807955D02*
X88500000Y-71400000D01*
X111115738Y-102352405D02*
X110368143Y-103100000D01*
X85004299Y-99954298D02*
X70754298Y-99954298D01*
X111836846Y-65171051D02*
X111836846Y-65017158D01*
X62200000Y-71600000D02*
X54700000Y-71600000D01*
X35115737Y-111949942D02*
X35836846Y-112671051D01*
X61992045Y-124307955D02*
X72200000Y-114100000D01*
X79007954Y-114707954D02*
X79007954Y-116546051D01*
X73836846Y-60267158D02*
X73115738Y-59546050D01*
X79007954Y-114707954D02*
X83092046Y-114707954D01*
X73115737Y-97546051D02*
X73115737Y-97592860D01*
X100479299Y-133079299D02*
X89879299Y-133079299D01*
X72600000Y-136118143D02*
X72600000Y-137800000D01*
X54700000Y-71600000D02*
X54115738Y-71015738D01*
X50284262Y-71015738D02*
X45100000Y-76200000D01*
X92115738Y-55915738D02*
X92115738Y-54796051D01*
X31701825Y-128301825D02*
X31701825Y-139733225D01*
X35968600Y-144000000D02*
X64718144Y-144000000D01*
X51904299Y-109304299D02*
X53854299Y-107354299D01*
X126200000Y-85600000D02*
X135500000Y-85600000D01*
X101307955Y-72207955D02*
X110100000Y-81000000D01*
X60007955Y-124307955D02*
X61992045Y-124307955D01*
X108300000Y-140900000D02*
X100479299Y-133079299D01*
X110368143Y-103100000D02*
X108300000Y-103100000D01*
X60007955Y-124307955D02*
X60007955Y-126046051D01*
X130115737Y-107046051D02*
X130115737Y-107199942D01*
X54836846Y-69767159D02*
X54115738Y-69046051D01*
X88400000Y-109400000D02*
X97300000Y-109400000D01*
X43455373Y-128301825D02*
X43528599Y-128228599D01*
X48147651Y-85600000D02*
X58900000Y-85600000D01*
X111836846Y-103171051D02*
X111836846Y-103017158D01*
X72200000Y-114100000D02*
X78400000Y-114100000D01*
X129418142Y-107800000D02*
X123800000Y-107800000D01*
X59300000Y-123600000D02*
X60007955Y-124307955D01*
X121100000Y-69800000D02*
X117900000Y-66600000D01*
X73115737Y-97699942D02*
X73836846Y-98421051D01*
X83092046Y-114707954D02*
X88400000Y-109400000D01*
X122107954Y-81507954D02*
X126200000Y-85600000D01*
X110776612Y-66008259D02*
X101968353Y-57200000D01*
X35115738Y-75427793D02*
X31701825Y-78841706D01*
X140508091Y-71300000D02*
X147175964Y-77967873D01*
X54115738Y-71015738D02*
X54115738Y-69046051D01*
X111836846Y-141171051D02*
X108571051Y-141171051D01*
X41007955Y-130749242D02*
X43328599Y-128428599D01*
X92115737Y-92796051D02*
X92115737Y-92842860D01*
X48157197Y-123600000D02*
X59300000Y-123600000D01*
X163400000Y-175100000D02*
X160700000Y-172400000D01*
X31701825Y-90298175D02*
X31701825Y-113001825D01*
X156200000Y-163700000D02*
X147300000Y-154800000D01*
X160500000Y-172300000D02*
X160500000Y-169200000D01*
X60007955Y-87892160D02*
X59286846Y-87171051D01*
X54115738Y-107199943D02*
X54836846Y-107921051D01*
X36200000Y-76200000D02*
X35115738Y-75115738D01*
X160500000Y-169200000D02*
X156200000Y-164900000D01*
X147300000Y-154800000D02*
X139566507Y-154800000D01*
X59286846Y-125324942D02*
X60007955Y-126046051D01*
X61500000Y-86800000D02*
X72200000Y-76100000D01*
X117007954Y-81507954D02*
X122107954Y-81507954D01*
X31701825Y-90298175D02*
X43298175Y-90298175D01*
X98007955Y-72207955D02*
X101307955Y-72207955D01*
X116946108Y-121250000D02*
X116946108Y-121096108D01*
X41007955Y-130796051D02*
X41007955Y-130749242D01*
X79007954Y-116546051D02*
X79007954Y-116392159D01*
X130836846Y-69921051D02*
X130836846Y-69767158D01*
X109900000Y-104700000D02*
X108100000Y-102900000D01*
X60100000Y-87954006D02*
X60007955Y-88046051D01*
X73115738Y-135546051D02*
X73115738Y-135699943D01*
X136007955Y-86107955D02*
X136007955Y-88046051D01*
X72600000Y-137800000D02*
X72900000Y-138100000D01*
X54836846Y-69921051D02*
X54836846Y-69767159D01*
X73800000Y-61600000D02*
X73000000Y-60800000D01*
X92836846Y-55517159D02*
X92115738Y-54796051D01*
X31701825Y-128301825D02*
X43455373Y-128301825D01*
X100329298Y-95129298D02*
X89829298Y-95129298D01*
X92836846Y-55671051D02*
X92836846Y-55517159D01*
X79007955Y-78546051D02*
X79007955Y-78392160D01*
X61404298Y-109304299D02*
X51904299Y-109304299D01*
X117900000Y-66600000D02*
X111500000Y-66600000D01*
X98007955Y-110107955D02*
X101307955Y-110107955D01*
X79007954Y-116392159D02*
X78286846Y-115671051D01*
X59286846Y-125171051D02*
X59286846Y-125324942D01*
X78300000Y-76100000D02*
X79007955Y-76807955D01*
X130115737Y-107199942D02*
X130836846Y-107921051D01*
X73115737Y-97546051D02*
X73115737Y-97699942D01*
X92115738Y-55915738D02*
X88384262Y-55915738D01*
X92115737Y-92949942D02*
X92836846Y-93671051D01*
X43373826Y-90373826D02*
X48147651Y-85600000D01*
X160600000Y-172400000D02*
X160500000Y-172300000D01*
X35115737Y-111796051D02*
X35115737Y-113115737D01*
X43328599Y-128428599D02*
X43528599Y-128228599D01*
X136007954Y-126046051D02*
X136007954Y-125892159D01*
X31701825Y-139733225D02*
X35968600Y-144000000D01*
X31815737Y-113115737D02*
X31701825Y-113001825D01*
X129427851Y-69800000D02*
X121100000Y-69800000D01*
X40286846Y-92074943D02*
X41007954Y-92796051D01*
X111115738Y-102296050D02*
X111115738Y-102352405D01*
X163400000Y-175139742D02*
X163400000Y-175100000D01*
X41007955Y-130796051D02*
X41007955Y-130642160D01*
X139566507Y-154800000D02*
X134951255Y-150184748D01*
X73115738Y-135699943D02*
X73836846Y-136421051D01*
X98007955Y-72207955D02*
X98007955Y-73796051D01*
X98007955Y-73796051D02*
X98007955Y-73642160D01*
X79007955Y-76807955D02*
X79007955Y-78546051D01*
X117007954Y-83142159D02*
X116286846Y-82421051D01*
X111115737Y-140449942D02*
X111836846Y-141171051D01*
X110908259Y-66008259D02*
X110908259Y-64503529D01*
X130115738Y-69046050D02*
X130115738Y-69112113D01*
X92115737Y-92796051D02*
X92115737Y-92949942D01*
X45100000Y-76200000D02*
X36200000Y-76200000D01*
X36600000Y-114600000D02*
X46608598Y-114600000D01*
X101968353Y-57200000D02*
X93400000Y-57200000D01*
X130115738Y-69112113D02*
X129427851Y-69800000D01*
X130115737Y-107046051D02*
X130115737Y-107102405D01*
X111836846Y-103017158D02*
X111115738Y-102296050D01*
X35115737Y-113115737D02*
X36600000Y-114600000D01*
X98007955Y-73642160D02*
X97286846Y-72921051D01*
X111115737Y-140296051D02*
X111115737Y-140449942D01*
X46608598Y-114600000D02*
X51904299Y-109304299D01*
X35836846Y-74517160D02*
X35115738Y-73796052D01*
X110908259Y-64503529D02*
X111115738Y-64296050D01*
X136007954Y-125892159D02*
X135286846Y-125171051D01*
X157528634Y-162712839D02*
X157528634Y-163732638D01*
X130115737Y-107102405D02*
X129418142Y-107800000D01*
X72200000Y-76100000D02*
X78300000Y-76100000D01*
X156200000Y-164900000D02*
X156200000Y-163700000D01*
X93400000Y-57200000D02*
X92115738Y-55915738D01*
X78400000Y-114100000D02*
X79007954Y-114707954D01*
X43298175Y-90298175D02*
X43373826Y-90373826D01*
X136441766Y-149864991D02*
X136725520Y-150148745D01*
X157528634Y-163732638D02*
X157419815Y-163841457D01*
X123800000Y-107800000D02*
X120700000Y-104700000D01*
X130048745Y-150148745D02*
X122600000Y-142700000D01*
X97200000Y-71400000D02*
X98007955Y-72207955D01*
X92115737Y-130796051D02*
X92115737Y-130949942D01*
X117007954Y-81507954D02*
X117007954Y-83296051D01*
X129427851Y-69800000D02*
X130927851Y-71300000D01*
X73000000Y-59661788D02*
X73115738Y-59546050D01*
X110908259Y-66008259D02*
X110776612Y-66008259D01*
X82700000Y-61600000D02*
X73800000Y-61600000D01*
X98007955Y-111642160D02*
X97286846Y-110921051D01*
X111836846Y-65017158D02*
X111115738Y-64296050D01*
X58900000Y-85600000D02*
X60100000Y-86800000D01*
X130927851Y-71300000D02*
X140508091Y-71300000D01*
X116946108Y-119846108D02*
X116946108Y-121250000D01*
D29*
%TO.N,LED*%
X147609410Y-69152128D02*
X148088410Y-69631128D01*
X137006382Y-68999704D02*
X137006382Y-69072238D01*
X161983955Y-71000000D02*
X152000000Y-71000000D01*
X162636082Y-70347873D02*
X161983955Y-71000000D01*
X137006382Y-69072238D02*
X136157569Y-69921051D01*
X164148225Y-70347873D02*
X163697803Y-70798295D01*
X152000000Y-71000000D02*
X150152128Y-69152128D01*
X150152128Y-69152128D02*
X147609410Y-69152128D01*
X136157569Y-69921051D02*
X135286846Y-69921051D01*
X162636082Y-70347873D02*
X164148225Y-70347873D01*
X137006382Y-68999704D02*
X137158806Y-69152128D01*
X137158806Y-69152128D02*
X147609410Y-69152128D01*
%TO.N,col0*%
X34261846Y-100916051D02*
X41881846Y-100916051D01*
X162141617Y-85587873D02*
X164148225Y-85587873D01*
X34261846Y-81916051D02*
X41881846Y-81916051D01*
X72261846Y-143666051D02*
X79881846Y-143666051D01*
X34261846Y-119916051D02*
X41881846Y-119916051D01*
X147609410Y-84392128D02*
X160945872Y-84392128D01*
X34261846Y-138916051D02*
X41881846Y-138916051D01*
X160945872Y-84392128D02*
X162141617Y-85587873D01*
%TO.N,col1*%
X53261846Y-134166051D02*
X60881846Y-134166051D01*
X53261846Y-96166051D02*
X60881846Y-96166051D01*
X91261846Y-138916051D02*
X98881846Y-138916051D01*
X147609410Y-86932128D02*
X161312850Y-86932128D01*
X162508595Y-88127873D02*
X164148225Y-88127873D01*
X53261846Y-115166051D02*
X60881846Y-115166051D01*
X161312850Y-86932128D02*
X162508595Y-88127873D01*
X53261846Y-77166051D02*
X60881846Y-77166051D01*
%TO.N,row0*%
X38081846Y-86146051D02*
X45103949Y-86146051D01*
X100146051Y-67146051D02*
X109646051Y-76646051D01*
X61603949Y-81396051D02*
X71103949Y-71896051D01*
X76081846Y-71896051D02*
X83353949Y-71896051D01*
X45103949Y-86146051D02*
X49853949Y-81396051D01*
X121146051Y-76646051D02*
X125896051Y-81396051D01*
X49853949Y-81396051D02*
X57081846Y-81396051D01*
X109646051Y-76646051D02*
X114081846Y-76646051D01*
X71103949Y-71896051D02*
X76081846Y-71896051D01*
X125896051Y-81396051D02*
X133081846Y-81396051D01*
X114081846Y-76646051D02*
X121146051Y-76646051D01*
X57081846Y-81396051D02*
X61603949Y-81396051D01*
X95081846Y-67146051D02*
X100146051Y-67146051D01*
X133081846Y-81396051D02*
X139813668Y-88127873D01*
X139813668Y-88127873D02*
X148908225Y-88127873D01*
X88103949Y-67146051D02*
X95081846Y-67146051D01*
X83353949Y-71896051D02*
X88103949Y-67146051D01*
%TO.N,col2*%
X161312850Y-89472128D02*
X162508595Y-90667873D01*
X162508595Y-90667873D02*
X164148225Y-90667873D01*
X72261846Y-86666051D02*
X79881846Y-86666051D01*
X72261846Y-67666051D02*
X79881846Y-67666051D01*
X72261846Y-124666051D02*
X79881846Y-124666051D01*
X72261846Y-105666051D02*
X79881846Y-105666051D01*
X110261846Y-148416051D02*
X117881846Y-148416051D01*
X147609410Y-89472128D02*
X161312850Y-89472128D01*
%TO.N,col3*%
X133847466Y-157750000D02*
X137533180Y-157750000D01*
X132085363Y-155987897D02*
X133847466Y-157750000D01*
X91261846Y-81916051D02*
X98881846Y-81916051D01*
X137533180Y-157750000D02*
X138991429Y-159208249D01*
X162508595Y-93207873D02*
X164148225Y-93207873D01*
X161312850Y-92012128D02*
X162508595Y-93207873D01*
X91261846Y-62916051D02*
X98881846Y-62916051D01*
X91261846Y-100916051D02*
X98881846Y-100916051D01*
X147609410Y-92012128D02*
X161312850Y-92012128D01*
X91261846Y-119916051D02*
X98881846Y-119916051D01*
%TO.N,col4*%
X110261846Y-110416051D02*
X117881846Y-110416051D01*
X110261846Y-72416051D02*
X117881846Y-72416051D01*
X110261846Y-129416051D02*
X117881846Y-129416051D01*
X147609410Y-94552128D02*
X161312850Y-94552128D01*
X110261846Y-91416051D02*
X117881846Y-91416051D01*
X162508595Y-95747873D02*
X164148225Y-95747873D01*
X161312850Y-94552128D02*
X162508595Y-95747873D01*
X151121718Y-167898026D02*
X156509872Y-173286179D01*
%TO.N,col5*%
X165199649Y-185416469D02*
X165199649Y-187241935D01*
X129261846Y-96166051D02*
X136881846Y-96166051D01*
X129261846Y-115166051D02*
X136881846Y-115166051D01*
X168420000Y-190462286D02*
X168420000Y-192322534D01*
X147609410Y-97092128D02*
X161312850Y-97092128D01*
X129261846Y-134166051D02*
X136881846Y-134166051D01*
X165199649Y-187241935D02*
X168420000Y-190462286D01*
X161312850Y-97092128D02*
X162508595Y-98287873D01*
X129261846Y-77166051D02*
X136881846Y-77166051D01*
X162508595Y-98287873D02*
X164148225Y-98287873D01*
%TO.N,SERIAL*%
X164236541Y-101134895D02*
X166133776Y-99237658D01*
X158412500Y-106925000D02*
X158412500Y-109575000D01*
X164236541Y-114662481D02*
X164236541Y-101134895D01*
X147609410Y-71692128D02*
X161120945Y-71692128D01*
X152701368Y-119324511D02*
X159574511Y-119324511D01*
X166133776Y-99237658D02*
X166133776Y-74873424D01*
X166133776Y-74873424D02*
X164148225Y-72887873D01*
X162316690Y-72887873D02*
X164148225Y-72887873D01*
X159574511Y-119324511D02*
X164236541Y-114662481D01*
X158412500Y-109575000D02*
X151925489Y-116062011D01*
X161120945Y-71692128D02*
X162316690Y-72887873D01*
X151925489Y-116062011D02*
X151925489Y-118548632D01*
X151925489Y-118548632D02*
X152701368Y-119324511D01*
%TO.N,row4*%
X158916548Y-181750000D02*
X159000000Y-181750000D01*
X140899040Y-104900960D02*
X147512127Y-98287873D01*
X95081846Y-143146051D02*
X100646051Y-143146051D01*
X163315020Y-171065020D02*
X163315020Y-164386672D01*
X147666726Y-173666726D02*
X150833274Y-173666726D01*
X133685667Y-162050493D02*
X136385174Y-164750000D01*
X136385174Y-164750000D02*
X138750000Y-164750000D01*
X159000000Y-181750000D02*
X159000000Y-187442728D01*
X162504592Y-191609347D02*
X164695245Y-193800000D01*
X159000000Y-187442728D02*
X162504592Y-190947320D01*
X168250000Y-176000000D02*
X163315020Y-171065020D01*
X138750000Y-164750000D02*
X147666726Y-173666726D01*
X177000000Y-188689163D02*
X177000000Y-184730307D01*
X168269693Y-176000000D02*
X168250000Y-176000000D01*
X110146051Y-152646051D02*
X114081846Y-152646051D01*
X133047160Y-162050493D02*
X123642718Y-152646051D01*
X162504592Y-190947320D02*
X162504592Y-191609347D01*
X83103949Y-147896051D02*
X87853949Y-143146051D01*
X164695245Y-193800000D02*
X171889163Y-193800000D01*
X140899040Y-141970692D02*
X140899040Y-104900960D01*
X87853949Y-143146051D02*
X95081846Y-143146051D01*
X171889163Y-193800000D02*
X177000000Y-188689163D01*
X150833274Y-173666726D02*
X158916548Y-181750000D01*
X100646051Y-143146051D02*
X110146051Y-152646051D01*
X123642718Y-152646051D02*
X114081846Y-152646051D01*
X163315020Y-164386672D02*
X140899040Y-141970692D01*
X133685667Y-162050493D02*
X133047160Y-162050493D01*
X76081846Y-147896051D02*
X83103949Y-147896051D01*
X177000000Y-184730307D02*
X168269693Y-176000000D01*
X147512127Y-98287873D02*
X148908225Y-98287873D01*
%TO.N,row3*%
X45103949Y-143146051D02*
X49853949Y-138396051D01*
X61353949Y-138396051D02*
X70853949Y-128896051D01*
X114081846Y-133646051D02*
X120896051Y-133646051D01*
X109646051Y-133646051D02*
X114081846Y-133646051D01*
X83103949Y-128896051D02*
X87853949Y-124146051D01*
X57081846Y-138396051D02*
X61353949Y-138396051D01*
X125646051Y-138396051D02*
X133081846Y-138396051D01*
X100146051Y-124146051D02*
X109646051Y-133646051D01*
X95081846Y-124146051D02*
X100146051Y-124146051D01*
X140449520Y-133882941D02*
X140449520Y-102715458D01*
X133081846Y-138396051D02*
X135936410Y-138396051D01*
X76081846Y-128896051D02*
X83103949Y-128896051D01*
X140449520Y-102715458D02*
X147417105Y-95747873D01*
X120896051Y-133646051D02*
X125646051Y-138396051D01*
X135936410Y-138396051D02*
X140449520Y-133882941D01*
X87853949Y-124146051D02*
X95081846Y-124146051D01*
X49853949Y-138396051D02*
X57081846Y-138396051D01*
X70853949Y-128896051D02*
X76081846Y-128896051D01*
X147417105Y-95747873D02*
X148908225Y-95747873D01*
X38081846Y-143146051D02*
X45103949Y-143146051D01*
%TO.N,row2*%
X57081846Y-119396051D02*
X61853949Y-119396051D01*
X140000000Y-100624978D02*
X147417105Y-93207873D01*
X87853949Y-105146051D02*
X95081846Y-105146051D01*
X136103949Y-119396051D02*
X140000000Y-115500000D01*
X147417105Y-93207873D02*
X148908225Y-93207873D01*
X140000000Y-115500000D02*
X140000000Y-100624978D01*
X100396051Y-105146051D02*
X109896051Y-114646051D01*
X109896051Y-114646051D02*
X114081846Y-114646051D01*
X71353949Y-109896051D02*
X76081846Y-109896051D01*
X49853949Y-119396051D02*
X57081846Y-119396051D01*
X83103949Y-109896051D02*
X87853949Y-105146051D01*
X133081846Y-119396051D02*
X136103949Y-119396051D01*
X95081846Y-105146051D02*
X100396051Y-105146051D01*
X61853949Y-119396051D02*
X71353949Y-109896051D01*
X121146051Y-114646051D02*
X125896051Y-119396051D01*
X114081846Y-114646051D02*
X121146051Y-114646051D01*
X125896051Y-119396051D02*
X133081846Y-119396051D01*
X45103949Y-124146051D02*
X49853949Y-119396051D01*
X38081846Y-124146051D02*
X45103949Y-124146051D01*
X76081846Y-109896051D02*
X83103949Y-109896051D01*
%TO.N,row1*%
X71353949Y-90896051D02*
X76081846Y-90896051D01*
X88103949Y-86146051D02*
X95081846Y-86146051D01*
X125146051Y-100396051D02*
X133081846Y-100396051D01*
X147417105Y-90667873D02*
X148908225Y-90667873D01*
X133081846Y-100396051D02*
X137688927Y-100396051D01*
X49853949Y-100396051D02*
X57081846Y-100396051D01*
X76081846Y-90896051D02*
X83353949Y-90896051D01*
X109896051Y-95646051D02*
X114081846Y-95646051D01*
X95081846Y-86146051D02*
X100396051Y-86146051D01*
X83353949Y-90896051D02*
X88103949Y-86146051D01*
X120396051Y-95646051D02*
X125146051Y-100396051D01*
X61853949Y-100396051D02*
X71353949Y-90896051D01*
X114081846Y-95646051D02*
X120396051Y-95646051D01*
X137688927Y-100396051D02*
X147417105Y-90667873D01*
X100396051Y-86146051D02*
X109896051Y-95646051D01*
X45103949Y-105146051D02*
X49853949Y-100396051D01*
X38081846Y-105146051D02*
X45103949Y-105146051D01*
X57081846Y-100396051D02*
X61853949Y-100396051D01*
%TO.N,Net-(D1-Pad2)*%
X37141846Y-82846051D02*
X38081846Y-82846051D01*
X39001846Y-82846051D02*
X40611846Y-84456051D01*
X35531846Y-84456051D02*
X37141846Y-82846051D01*
X38081846Y-82846051D02*
X39001846Y-82846051D01*
%TO.N,Net-(D2-Pad2)*%
X54531846Y-79706051D02*
X56141846Y-78096051D01*
X57081846Y-78096051D02*
X58001846Y-78096051D01*
X56141846Y-78096051D02*
X57081846Y-78096051D01*
X58001846Y-78096051D02*
X59611846Y-79706051D01*
%TO.N,Net-(D3-Pad2)*%
X77001846Y-68596051D02*
X78611846Y-70206051D01*
X75141846Y-68596051D02*
X76081846Y-68596051D01*
X76081846Y-68596051D02*
X77001846Y-68596051D01*
X73531846Y-70206051D02*
X75141846Y-68596051D01*
%TO.N,Net-(D4-Pad2)*%
X92531846Y-65456051D02*
X94141846Y-63846051D01*
X96001846Y-63846051D02*
X97611846Y-65456051D01*
X94141846Y-63846051D02*
X95081846Y-63846051D01*
X95081846Y-63846051D02*
X96001846Y-63846051D01*
%TO.N,Net-(D5-Pad2)*%
X111531846Y-74956051D02*
X113141846Y-73346051D01*
X115001846Y-73346051D02*
X116611846Y-74956051D01*
X114081846Y-73346051D02*
X115001846Y-73346051D01*
X113141846Y-73346051D02*
X114081846Y-73346051D01*
%TO.N,Net-(D6-Pad2)*%
X134001846Y-78096051D02*
X135611846Y-79706051D01*
X132141846Y-78096051D02*
X133081846Y-78096051D01*
X130531846Y-79706051D02*
X132141846Y-78096051D01*
X133081846Y-78096051D02*
X134001846Y-78096051D01*
%TO.N,Net-(D7-Pad2)*%
X37141846Y-101846051D02*
X38081846Y-101846051D01*
X35531846Y-103456051D02*
X37141846Y-101846051D01*
X38081846Y-101846051D02*
X39001846Y-101846051D01*
X39001846Y-101846051D02*
X40611846Y-103456051D01*
%TO.N,Net-(D8-Pad2)*%
X57081846Y-97096051D02*
X58001846Y-97096051D01*
X56141846Y-97096051D02*
X57081846Y-97096051D01*
X54531846Y-98706051D02*
X56141846Y-97096051D01*
X58001846Y-97096051D02*
X59611846Y-98706051D01*
%TO.N,Net-(D9-Pad2)*%
X77001846Y-87596051D02*
X78611846Y-89206051D01*
X73531846Y-89206051D02*
X75141846Y-87596051D01*
X76081846Y-87596051D02*
X77001846Y-87596051D01*
X75141846Y-87596051D02*
X76081846Y-87596051D01*
%TO.N,Net-(D10-Pad2)*%
X94141846Y-82846051D02*
X95081846Y-82846051D01*
X95081846Y-82846051D02*
X96001846Y-82846051D01*
X92531846Y-84456051D02*
X94141846Y-82846051D01*
X96001846Y-82846051D02*
X97611846Y-84456051D01*
%TO.N,Net-(D11-Pad2)*%
X115001846Y-92346051D02*
X116611846Y-93956051D01*
X114081846Y-92346051D02*
X115001846Y-92346051D01*
X113141846Y-92346051D02*
X114081846Y-92346051D01*
X111531846Y-93956051D02*
X113141846Y-92346051D01*
%TO.N,Net-(D12-Pad2)*%
X133081846Y-97096051D02*
X134001846Y-97096051D01*
X132141846Y-97096051D02*
X133081846Y-97096051D01*
X130531846Y-98706051D02*
X132141846Y-97096051D01*
X134001846Y-97096051D02*
X135611846Y-98706051D01*
%TO.N,Net-(D13-Pad2)*%
X39001846Y-120846051D02*
X40611846Y-122456051D01*
X37141846Y-120846051D02*
X38081846Y-120846051D01*
X35531846Y-122456051D02*
X37141846Y-120846051D01*
X38081846Y-120846051D02*
X39001846Y-120846051D01*
%TO.N,Net-(D14-Pad2)*%
X56141846Y-116096051D02*
X57081846Y-116096051D01*
X57081846Y-116096051D02*
X58001846Y-116096051D01*
X58001846Y-116096051D02*
X59611846Y-117706051D01*
X54531846Y-117706051D02*
X56141846Y-116096051D01*
%TO.N,Net-(D15-Pad2)*%
X75141846Y-106596051D02*
X76081846Y-106596051D01*
X73531846Y-108206051D02*
X75141846Y-106596051D01*
X77001846Y-106596051D02*
X78611846Y-108206051D01*
X76081846Y-106596051D02*
X77001846Y-106596051D01*
%TO.N,Net-(D16-Pad2)*%
X96001846Y-101846051D02*
X97611846Y-103456051D01*
X95081846Y-101846051D02*
X96001846Y-101846051D01*
X94141846Y-101846051D02*
X95081846Y-101846051D01*
X92531846Y-103456051D02*
X94141846Y-101846051D01*
%TO.N,Net-(D17-Pad2)*%
X114081846Y-111346051D02*
X115001846Y-111346051D01*
X111531846Y-112956051D02*
X113141846Y-111346051D01*
X113141846Y-111346051D02*
X114081846Y-111346051D01*
X115001846Y-111346051D02*
X116611846Y-112956051D01*
%TO.N,Net-(D18-Pad2)*%
X130531846Y-117706051D02*
X132141846Y-116096051D01*
X134001846Y-116096051D02*
X135611846Y-117706051D01*
X132141846Y-116096051D02*
X133081846Y-116096051D01*
X133081846Y-116096051D02*
X134001846Y-116096051D01*
%TO.N,Net-(D19-Pad2)*%
X38081846Y-139846051D02*
X39001846Y-139846051D01*
X35531846Y-141456051D02*
X37141846Y-139846051D01*
X37141846Y-139846051D02*
X38081846Y-139846051D01*
X39001846Y-139846051D02*
X40611846Y-141456051D01*
%TO.N,Net-(D20-Pad2)*%
X58001846Y-135096051D02*
X59611846Y-136706051D01*
X56141846Y-135096051D02*
X57081846Y-135096051D01*
X57081846Y-135096051D02*
X58001846Y-135096051D01*
X54531846Y-136706051D02*
X56141846Y-135096051D01*
%TO.N,Net-(D21-Pad2)*%
X73531846Y-127206051D02*
X75141846Y-125596051D01*
X77001846Y-125596051D02*
X78611846Y-127206051D01*
X76081846Y-125596051D02*
X77001846Y-125596051D01*
X75141846Y-125596051D02*
X76081846Y-125596051D01*
%TO.N,Net-(D22-Pad2)*%
X94141846Y-120846051D02*
X95081846Y-120846051D01*
X95081846Y-120846051D02*
X96001846Y-120846051D01*
X92531846Y-122456051D02*
X94141846Y-120846051D01*
X96001846Y-120846051D02*
X97611846Y-122456051D01*
%TO.N,Net-(D23-Pad2)*%
X114081846Y-130346051D02*
X115001846Y-130346051D01*
X113141846Y-130346051D02*
X114081846Y-130346051D01*
X111531846Y-131956051D02*
X113141846Y-130346051D01*
X115001846Y-130346051D02*
X116611846Y-131956051D01*
%TO.N,Net-(D24-Pad2)*%
X130531846Y-136706051D02*
X132141846Y-135096051D01*
X133081846Y-135096051D02*
X134001846Y-135096051D01*
X132141846Y-135096051D02*
X133081846Y-135096051D01*
X134001846Y-135096051D02*
X135611846Y-136706051D01*
%TO.N,Net-(D25-Pad2)*%
X77001846Y-144596051D02*
X78611846Y-146206051D01*
X76081846Y-144596051D02*
X77001846Y-144596051D01*
X73531846Y-146206051D02*
X75141846Y-144596051D01*
X75141846Y-144596051D02*
X76081846Y-144596051D01*
%TO.N,Net-(D26-Pad2)*%
X94141846Y-139846051D02*
X95081846Y-139846051D01*
X95081846Y-139846051D02*
X96001846Y-139846051D01*
X92531846Y-141456051D02*
X94141846Y-139846051D01*
X96001846Y-139846051D02*
X97611846Y-141456051D01*
%TO.N,Net-(D27-Pad2)*%
X111531846Y-150956051D02*
X113141846Y-149346051D01*
X114081846Y-149346051D02*
X115001846Y-149346051D01*
X113141846Y-149346051D02*
X114081846Y-149346051D01*
X115001846Y-149346051D02*
X116611846Y-150956051D01*
%TO.N,Net-(D28-Pad2)*%
X132162924Y-158826644D02*
X134691470Y-158826644D01*
X134814333Y-158949507D02*
X136766967Y-160902141D01*
%TO.N,Net-(D29-Pad2)*%
X153166726Y-171333274D02*
X153166726Y-173535136D01*
X152425554Y-170592102D02*
X153166726Y-171333274D01*
X150223693Y-170592102D02*
X152425554Y-170592102D01*
%TO.N,Net-(D30-Pad2)*%
X163434352Y-187640930D02*
X165346102Y-189552680D01*
X165495408Y-189552680D02*
X165495408Y-192159129D01*
%TO.N,Net-(L1-Pad2)*%
X34966125Y-72921051D02*
X34116247Y-73770929D01*
X34097731Y-92852825D02*
X34097731Y-92787897D01*
X34116247Y-73770929D02*
X34116247Y-73800889D01*
X34097731Y-92787897D02*
X34964577Y-91921051D01*
X34964577Y-91921051D02*
X35836846Y-91921051D01*
X35836846Y-72921051D02*
X34966125Y-72921051D01*
%TO.N,Net-(L1-Pad4)*%
X42007442Y-73801499D02*
X44948501Y-73801499D01*
X53929847Y-68171051D02*
X54836846Y-68171051D01*
X44948501Y-73801499D02*
X49767350Y-68982650D01*
X41157568Y-74671051D02*
X40286846Y-74671051D01*
X42007442Y-73821177D02*
X41157568Y-74671051D01*
X53118248Y-68982650D02*
X53929847Y-68171051D01*
X42007442Y-73801499D02*
X42007442Y-73821177D01*
X49767350Y-68982650D02*
X53118248Y-68982650D01*
%TO.N,Net-(L2-Pad4)*%
X62602343Y-68998554D02*
X72118248Y-59482649D01*
X59286846Y-69921051D02*
X60157568Y-69921051D01*
X60157568Y-69921051D02*
X61006327Y-69072292D01*
X61006327Y-68998554D02*
X62602343Y-68998554D01*
X72118248Y-59482649D02*
X72929846Y-58671051D01*
X72929846Y-58671051D02*
X73836846Y-58671051D01*
X61006327Y-69072292D02*
X61006327Y-68998554D01*
%TO.N,Net-(L3-Pad4)*%
X78286846Y-60421051D02*
X79157569Y-60421051D01*
X91118249Y-54732649D02*
X91929847Y-53921051D01*
X88017351Y-54732649D02*
X83254839Y-59495161D01*
X83254839Y-59495161D02*
X80006162Y-59495161D01*
X91118249Y-54732649D02*
X88017351Y-54732649D01*
X80006162Y-59572458D02*
X80006162Y-59495161D01*
X91929847Y-53921051D02*
X92836846Y-53921051D01*
X79157569Y-60421051D02*
X80006162Y-59572458D01*
%TO.N,Net-(L4-Pad4)*%
X99006382Y-54749704D02*
X100635302Y-54749704D01*
X99006382Y-54822238D02*
X99006382Y-54749704D01*
X110118248Y-64232650D02*
X110929847Y-63421051D01*
X98157569Y-55671051D02*
X99006382Y-54822238D01*
X110929847Y-63421051D02*
X111836846Y-63421051D01*
X97286846Y-55671051D02*
X98157569Y-55671051D01*
X100635302Y-54749704D02*
X110118248Y-64232650D01*
%TO.N,Net-(L5-Pad4)*%
X125742960Y-68992960D02*
X120995161Y-64245161D01*
X116286846Y-65171051D02*
X117157568Y-65171051D01*
X129939555Y-68171051D02*
X129117646Y-68992960D01*
X129117646Y-68992960D02*
X125742960Y-68992960D01*
X117157568Y-65171051D02*
X118006161Y-64322458D01*
X118006161Y-64322458D02*
X118006161Y-64245161D01*
X120995161Y-64245161D02*
X118006161Y-64245161D01*
X130836846Y-68171051D02*
X129939555Y-68171051D01*
%TO.N,Net-(L13-Pad4)*%
X42010119Y-111818978D02*
X41158046Y-112671051D01*
X45014890Y-111735110D02*
X49777600Y-106972400D01*
X49777600Y-106972400D02*
X53118953Y-106972400D01*
X41158046Y-112671051D02*
X40286846Y-112671051D01*
X42010119Y-111735110D02*
X42010119Y-111818978D01*
X42010119Y-111735110D02*
X45014890Y-111735110D01*
X54836846Y-106171051D02*
X53920302Y-106171051D01*
X53920302Y-106171051D02*
X53118953Y-106972400D01*
%TO.N,Net-(L7-Pad2)*%
X53112852Y-88023845D02*
X53965646Y-87171051D01*
X49907435Y-88092565D02*
X53112852Y-88092565D01*
X41193845Y-93671051D02*
X40286846Y-93671051D01*
X53112852Y-88092565D02*
X53112852Y-88023845D01*
X45140548Y-92859452D02*
X49907435Y-88092565D01*
X42005444Y-92859452D02*
X45140548Y-92859452D01*
X42005444Y-92859452D02*
X41193845Y-93671051D01*
X53965646Y-87171051D02*
X54836846Y-87171051D01*
%TO.N,Net-(L8-Pad2)*%
X72965646Y-77671051D02*
X73836846Y-77671051D01*
X62611113Y-88109452D02*
X72113573Y-78606992D01*
X61005445Y-88109452D02*
X62611113Y-88109452D01*
X60193846Y-88921051D02*
X61005445Y-88109452D01*
X72113573Y-78606992D02*
X72113573Y-78523124D01*
X59286846Y-88921051D02*
X60193846Y-88921051D01*
X72113573Y-78523124D02*
X72965646Y-77671051D01*
%TO.N,Net-(L10-Pad2)*%
X111836846Y-82421051D02*
X110965646Y-82421051D01*
X110113573Y-83273124D02*
X110113573Y-83356992D01*
X100626283Y-73869702D02*
X110113573Y-83356992D01*
X110965646Y-82421051D02*
X110113573Y-83273124D01*
X99004740Y-73869702D02*
X100626283Y-73869702D01*
X98203391Y-74671051D02*
X99004740Y-73869702D01*
X97286846Y-74671051D02*
X98203391Y-74671051D01*
%TO.N,Net-(L10-Pad4)*%
X91964577Y-72921051D02*
X92836846Y-72921051D01*
X80004740Y-78619702D02*
X83130298Y-78619702D01*
X78286846Y-79421051D02*
X79203391Y-79421051D01*
X83130298Y-78619702D02*
X87907132Y-73842868D01*
X91097391Y-73842868D02*
X91097391Y-73788237D01*
X91097391Y-73788237D02*
X91964577Y-72921051D01*
X87907132Y-73842868D02*
X91097391Y-73842868D01*
X79203391Y-79421051D02*
X80004740Y-78619702D01*
%TO.N,Net-(L11-Pad2)*%
X130836846Y-87171051D02*
X129964577Y-87171051D01*
X117203390Y-84171051D02*
X116286846Y-84171051D01*
X129097391Y-88038237D02*
X129097391Y-88092868D01*
X129964577Y-87171051D02*
X129097391Y-88038237D01*
X118004739Y-83369702D02*
X117203390Y-84171051D01*
X118004739Y-83369702D02*
X121119702Y-83369702D01*
X125842868Y-88092868D02*
X129097391Y-88092868D01*
X121119702Y-83369702D02*
X125842868Y-88092868D01*
%TO.N,Net-(L13-Pad2)*%
X34929846Y-110921051D02*
X34118247Y-111732650D01*
X35836846Y-110921051D02*
X34929846Y-110921051D01*
X34118247Y-130859452D02*
X34118247Y-130768927D01*
X34966123Y-129921051D02*
X35836846Y-129921051D01*
X34118247Y-130768927D02*
X34966123Y-129921051D01*
%TO.N,Net-(L12-Pad2)*%
X136158046Y-107921051D02*
X135286846Y-107921051D01*
X137010119Y-106985110D02*
X137010119Y-107068978D01*
X136193846Y-88921051D02*
X135286846Y-88921051D01*
X137010119Y-107068978D02*
X136158046Y-107921051D01*
X137005445Y-88109452D02*
X136193846Y-88921051D01*
%TO.N,Net-(L14-Pad4)*%
X60157569Y-107921051D02*
X59286846Y-107921051D01*
X73836846Y-96671051D02*
X72920301Y-96671051D01*
X61005539Y-107073081D02*
X60157569Y-107921051D01*
X72920301Y-96671051D02*
X72118952Y-97472400D01*
X61005539Y-106984141D02*
X61005539Y-107073081D01*
X62607211Y-106984141D02*
X72118952Y-97472400D01*
X61005539Y-106984141D02*
X62607211Y-106984141D01*
%TO.N,Net-(L15-Pad4)*%
X87777600Y-92722400D02*
X91118952Y-92722400D01*
X80005444Y-97482649D02*
X83017351Y-97482649D01*
X83017351Y-97482649D02*
X87777600Y-92722400D01*
X92836846Y-91921051D02*
X91920301Y-91921051D01*
X79157569Y-98421051D02*
X78286846Y-98421051D01*
X91920301Y-91921051D02*
X91118952Y-92722400D01*
X80005444Y-97482649D02*
X80005444Y-97573176D01*
X80005444Y-97573176D02*
X79157569Y-98421051D01*
%TO.N,Net-(L16-Pad4)*%
X100618248Y-92732650D02*
X110118248Y-102232650D01*
X98157569Y-93671051D02*
X97286846Y-93671051D01*
X99005445Y-92732650D02*
X100618248Y-92732650D01*
X110118248Y-102232650D02*
X110929847Y-101421051D01*
X99005445Y-92823175D02*
X98157569Y-93671051D01*
X99005445Y-92732650D02*
X99005445Y-92823175D01*
X110929847Y-101421051D02*
X111836846Y-101421051D01*
%TO.N,Net-(L17-Pad4)*%
X117157569Y-103171051D02*
X116286846Y-103171051D01*
X120984141Y-102234141D02*
X125732650Y-106982650D01*
X129929846Y-106171051D02*
X129118247Y-106982650D01*
X118005539Y-102234141D02*
X118005539Y-102323081D01*
X118005539Y-102323081D02*
X117157569Y-103171051D01*
X130836846Y-106171051D02*
X129929846Y-106171051D01*
X118005539Y-102234141D02*
X120984141Y-102234141D01*
X125732650Y-106982650D02*
X129118247Y-106982650D01*
%TO.N,Net-(L19-Pad2)*%
X42004740Y-130869702D02*
X45130298Y-130869702D01*
X53118247Y-126018927D02*
X53966123Y-125171051D01*
X40286846Y-131671051D02*
X41203391Y-131671051D01*
X53966123Y-125171051D02*
X54836846Y-125171051D01*
X49890548Y-126109452D02*
X53118247Y-126109452D01*
X53118247Y-126109452D02*
X53118247Y-126018927D01*
X45130298Y-130869702D02*
X49890548Y-126109452D01*
X41203391Y-131671051D02*
X42004740Y-130869702D01*
%TO.N,Net-(L20-Pad2)*%
X72966123Y-115671051D02*
X73836846Y-115671051D01*
X72118153Y-116607961D02*
X72118153Y-116519021D01*
X62616662Y-126109452D02*
X72118153Y-116607961D01*
X61005445Y-126109452D02*
X62616662Y-126109452D01*
X59286846Y-126921051D02*
X60193846Y-126921051D01*
X72118153Y-116519021D02*
X72966123Y-115671051D01*
X60193846Y-126921051D02*
X61005445Y-126109452D01*
%TO.N,Net-(L21-Pad2)*%
X91966123Y-110921051D02*
X92836846Y-110921051D01*
X80005443Y-116609453D02*
X83140547Y-116609453D01*
X91118153Y-111857961D02*
X91118153Y-111769021D01*
X91118153Y-111769021D02*
X91966123Y-110921051D01*
X78286846Y-117421051D02*
X79193845Y-117421051D01*
X79193845Y-117421051D02*
X80005443Y-116609453D01*
X83140547Y-116609453D02*
X87892039Y-111857961D01*
X87892039Y-111857961D02*
X91118153Y-111857961D01*
%TO.N,Net-(L22-Pad2)*%
X98203391Y-112671051D02*
X99004740Y-111869702D01*
X110056307Y-121311910D02*
X110056307Y-121222970D01*
X97286846Y-112671051D02*
X98203391Y-112671051D01*
X110904277Y-120375000D02*
X111775000Y-120375000D01*
X99004740Y-111869702D02*
X100614099Y-111869702D01*
X110056307Y-121222970D02*
X110904277Y-120375000D01*
X100614099Y-111869702D02*
X110056307Y-121311910D01*
%TO.N,Net-(L23-Pad2)*%
X117141544Y-122125000D02*
X117942893Y-121323651D01*
X125856993Y-126106993D02*
X129113573Y-126106993D01*
X129965646Y-125171051D02*
X130836846Y-125171051D01*
X129113573Y-126023124D02*
X129965646Y-125171051D01*
X116225000Y-122125000D02*
X117141544Y-122125000D01*
X117942893Y-121323651D02*
X121073651Y-121323651D01*
X121073651Y-121323651D02*
X125856993Y-126106993D01*
X129113573Y-126106993D02*
X129113573Y-126023124D01*
%TO.N,Net-(L24-Pad2)*%
X136193845Y-126921051D02*
X137005444Y-126109452D01*
X175804956Y-188859593D02*
X175225773Y-188859593D01*
X135286846Y-126921051D02*
X136193845Y-126921051D01*
X175225773Y-188859593D02*
X174259152Y-187892972D01*
%TO.N,unconnected-(L25-Pad2)*%
X72118249Y-135482649D02*
X72929847Y-134671051D01*
X72929847Y-134671051D02*
X73836846Y-134671051D01*
%TO.N,Net-(L25-Pad4)*%
X80005539Y-135484141D02*
X83015859Y-135484141D01*
X79157569Y-136421051D02*
X78286846Y-136421051D01*
X87777600Y-130722400D02*
X91118952Y-130722400D01*
X80005539Y-135573081D02*
X79157569Y-136421051D01*
X92836846Y-129921051D02*
X91920301Y-129921051D01*
X91920301Y-129921051D02*
X91118952Y-130722400D01*
X80005539Y-135484141D02*
X80005539Y-135573081D01*
X83015859Y-135484141D02*
X87777600Y-130722400D01*
%TO.N,Net-(L26-Pad4)*%
X111836846Y-139421051D02*
X110929846Y-139421051D01*
X99010119Y-130818978D02*
X98158046Y-131671051D01*
X100620709Y-130735110D02*
X110118248Y-140232649D01*
X99010119Y-130735110D02*
X100620709Y-130735110D01*
X98158046Y-131671051D02*
X97286846Y-131671051D01*
X110929846Y-139421051D02*
X110118248Y-140232649D01*
X99010119Y-130735110D02*
X99010119Y-130818978D01*
%TO.N,Net-(L27-Pad4)*%
X118010059Y-140234070D02*
X122484070Y-140234070D01*
X122484070Y-140234070D02*
X130996708Y-148746708D01*
X118010059Y-140319038D02*
X117158046Y-141171051D01*
X135918260Y-148318148D02*
X135489700Y-148746708D01*
X130996708Y-148746708D02*
X135489700Y-148746708D01*
X118010059Y-140234070D02*
X118010059Y-140319038D01*
X117158046Y-141171051D02*
X116286846Y-141171051D01*
X137220544Y-148318148D02*
X135918260Y-148318148D01*
X137465102Y-148562706D02*
X137220544Y-148318148D01*
%TO.N,Net-(L28-Pad4)*%
X158041560Y-161988328D02*
X156883259Y-161988328D01*
X146546670Y-152079335D02*
X156669461Y-162202126D01*
X142437844Y-152265641D02*
X140994835Y-152265641D01*
X140994835Y-152265641D02*
X140758590Y-152029396D01*
X142624150Y-152079335D02*
X142437844Y-152265641D01*
X156883259Y-161988328D02*
X156669461Y-162202126D01*
X158657252Y-162604020D02*
X158041560Y-161988328D01*
X142624150Y-152079335D02*
X146546670Y-152079335D01*
%TO.N,Net-(L29-Pad4)*%
X173964540Y-182551127D02*
X173964540Y-182909725D01*
X173177006Y-181763593D02*
X173964540Y-182551127D01*
X161529736Y-167951378D02*
X160566440Y-166988082D01*
X162089321Y-171491428D02*
X172361486Y-181763593D01*
X162089321Y-167951378D02*
X161529736Y-167951378D01*
X172361486Y-181763593D02*
X173177006Y-181763593D01*
X162089321Y-167951378D02*
X162089321Y-171491428D01*
%TO.N,unconnected-(U2-Pad4)*%
X161412500Y-106925000D02*
X161412500Y-109575000D01*
%TD*%
M02*
