%TF.GenerationSoftware,KiCad,Pcbnew,6.0.5*%
%TF.CreationDate,2022-07-09T20:03:33-05:00*%
%TF.ProjectId,ElevenFingers,456c6576-656e-4466-996e-676572732e6b,rev?*%
%TF.SameCoordinates,Original*%
%TF.FileFunction,Copper,L2,Bot*%
%TF.FilePolarity,Positive*%
%FSLAX46Y46*%
G04 Gerber Fmt 4.6, Leading zero omitted, Abs format (unit mm)*
G04 Created by KiCad (PCBNEW 6.0.5) date 2022-07-09 20:03:33*
%MOMM*%
%LPD*%
G01*
G04 APERTURE LIST*
G04 Aperture macros list*
%AMRotRect*
0 Rectangle, with rotation*
0 The origin of the aperture is its center*
0 $1 length*
0 $2 width*
0 $3 Rotation angle, in degrees counterclockwise*
0 Add horizontal line*
21,1,$1,$2,0,0,$3*%
G04 Aperture macros list end*
%TA.AperFunction,WasherPad*%
%ADD10C,2.200000*%
%TD*%
%TA.AperFunction,WasherPad*%
%ADD11C,3.500000*%
%TD*%
%TA.AperFunction,ComponentPad*%
%ADD12C,2.200000*%
%TD*%
%TA.AperFunction,SMDPad,CuDef*%
%ADD13R,0.500000X0.850000*%
%TD*%
%TA.AperFunction,ComponentPad*%
%ADD14R,1.200000X0.900000*%
%TD*%
%TA.AperFunction,SMDPad,CuDef*%
%ADD15RotRect,0.500000X0.850000X295.000000*%
%TD*%
%TA.AperFunction,ComponentPad*%
%ADD16C,1.524000*%
%TD*%
%TA.AperFunction,ComponentPad*%
%ADD17O,2.000000X1.600000*%
%TD*%
%TA.AperFunction,SMDPad,CuDef*%
%ADD18RotRect,0.500000X0.850000X315.000000*%
%TD*%
%TA.AperFunction,ComponentPad*%
%ADD19RotRect,0.900000X1.200000X25.000000*%
%TD*%
%TA.AperFunction,WasherPad*%
%ADD20O,2.000000X3.200000*%
%TD*%
%TA.AperFunction,ComponentPad*%
%ADD21R,2.000000X2.000000*%
%TD*%
%TA.AperFunction,ComponentPad*%
%ADD22C,2.000000*%
%TD*%
%TA.AperFunction,ComponentPad*%
%ADD23RotRect,0.900000X1.200000X45.000000*%
%TD*%
%TA.AperFunction,SMDPad,CuDef*%
%ADD24RotRect,0.500000X0.850000X335.000000*%
%TD*%
%TA.AperFunction,ComponentPad*%
%ADD25RotRect,0.900000X1.200000X70.000000*%
%TD*%
%TA.AperFunction,ComponentPad*%
%ADD26C,1.397000*%
%TD*%
%TA.AperFunction,ViaPad*%
%ADD27C,0.800000*%
%TD*%
%TA.AperFunction,Conductor*%
%ADD28C,0.250000*%
%TD*%
%TA.AperFunction,Conductor*%
%ADD29C,0.381000*%
%TD*%
G04 APERTURE END LIST*
D10*
%TO.P,,*%
%TO.N,*%
X148200000Y-105000000D03*
%TD*%
%TO.P,REF\u002A\u002A,*%
%TO.N,*%
X156000000Y-68850000D03*
%TD*%
D11*
%TO.P,,*%
%TO.N,*%
X147200000Y-160600000D03*
%TD*%
%TO.P,,*%
%TO.N,*%
X123600000Y-130800000D03*
%TD*%
%TO.P,,*%
%TO.N,*%
X123600000Y-93800000D03*
%TD*%
%TO.P,,*%
%TO.N,*%
X66600000Y-128200000D03*
%TD*%
%TO.P,REF\u002A\u002A,*%
%TO.N,*%
X66600000Y-90800000D03*
%TD*%
D12*
%TO.P,SW5,1*%
%TO.N,Net-(D5-Pad2)*%
X116611846Y-74956051D03*
X111531846Y-74956051D03*
%TO.P,SW5,2*%
%TO.N,col4*%
X117881846Y-72416051D03*
X110261846Y-72416051D03*
%TD*%
D13*
%TO.P,L20,1,VDD*%
%TO.N,VCC*%
X59361846Y-126921051D03*
%TO.P,L20,2,DOUT*%
%TO.N,Net-(L20-Pad2)*%
X59361846Y-125171051D03*
%TO.P,L20,3,VSS*%
%TO.N,GND*%
X54761846Y-125171051D03*
%TO.P,L20,4,DIN*%
%TO.N,Net-(L19-Pad2)*%
X54761846Y-126921051D03*
%TD*%
D12*
%TO.P,SW10,1*%
%TO.N,Net-(D10-Pad2)*%
X92531846Y-84456051D03*
X97611846Y-84456051D03*
%TO.P,SW10,2*%
%TO.N,col3*%
X91261846Y-81916051D03*
X98881846Y-81916051D03*
%TD*%
D13*
%TO.P,L2,1,VDD*%
%TO.N,VCC*%
X54761846Y-68171051D03*
%TO.P,L2,2,DOUT*%
%TO.N,Net-(L1-Pad4)*%
X54761846Y-69921051D03*
%TO.P,L2,3,VSS*%
%TO.N,GND*%
X59361846Y-69921051D03*
%TO.P,L2,4,DIN*%
%TO.N,Net-(L2-Pad4)*%
X59361846Y-68171051D03*
%TD*%
D14*
%TO.P,D2,1,K*%
%TO.N,row0*%
X57081846Y-81396051D03*
%TO.P,D2,2,A*%
%TO.N,Net-(D2-Pad2)*%
X57081846Y-78096051D03*
%TD*%
D13*
%TO.P,L19,1,VDD*%
%TO.N,VCC*%
X40361846Y-131671051D03*
%TO.P,L19,2,DOUT*%
%TO.N,Net-(L19-Pad2)*%
X40361846Y-129921051D03*
%TO.P,L19,3,VSS*%
%TO.N,GND*%
X35761846Y-129921051D03*
%TO.P,L19,4,DIN*%
%TO.N,Net-(L13-Pad2)*%
X35761846Y-131671051D03*
%TD*%
D14*
%TO.P,D13,1,K*%
%TO.N,row2*%
X38081846Y-124146051D03*
%TO.P,D13,2,A*%
%TO.N,Net-(D13-Pad2)*%
X38081846Y-120846051D03*
%TD*%
%TO.P,D26,1,K*%
%TO.N,row4*%
X95081846Y-143146051D03*
%TO.P,D26,2,A*%
%TO.N,Net-(D26-Pad2)*%
X95081846Y-139846051D03*
%TD*%
%TO.P,D21,1,K*%
%TO.N,row3*%
X76081846Y-128896051D03*
%TO.P,D21,2,A*%
%TO.N,Net-(D21-Pad2)*%
X76081846Y-125596051D03*
%TD*%
%TO.P,D25,1,K*%
%TO.N,row4*%
X76081846Y-147896051D03*
%TO.P,D25,2,A*%
%TO.N,Net-(D25-Pad2)*%
X76081846Y-144596051D03*
%TD*%
D12*
%TO.P,SW13,1*%
%TO.N,Net-(D13-Pad2)*%
X35531846Y-122456051D03*
X40611846Y-122456051D03*
%TO.P,SW13,2*%
%TO.N,col0*%
X34261846Y-119916051D03*
X41881846Y-119916051D03*
%TD*%
%TO.P,SW7,1*%
%TO.N,Net-(D7-Pad2)*%
X35531846Y-103456051D03*
X40611846Y-103456051D03*
%TO.P,SW7,2*%
%TO.N,col0*%
X34261846Y-100916051D03*
X41881846Y-100916051D03*
%TD*%
D13*
%TO.P,L10,1,VDD*%
%TO.N,VCC*%
X97361846Y-74671051D03*
%TO.P,L10,2,DOUT*%
%TO.N,Net-(L10-Pad2)*%
X97361846Y-72921051D03*
%TO.P,L10,3,VSS*%
%TO.N,GND*%
X92761846Y-72921051D03*
%TO.P,L10,4,DIN*%
%TO.N,Net-(L10-Pad4)*%
X92761846Y-74671051D03*
%TD*%
%TO.P,L27,1,VDD*%
%TO.N,VCC*%
X111761846Y-139421051D03*
%TO.P,L27,2,DOUT*%
%TO.N,Net-(L26-Pad4)*%
X111761846Y-141171051D03*
%TO.P,L27,3,VSS*%
%TO.N,GND*%
X116361846Y-141171051D03*
%TO.P,L27,4,DIN*%
%TO.N,Net-(L27-Pad4)*%
X116361846Y-139421051D03*
%TD*%
D12*
%TO.P,SW26,1*%
%TO.N,Net-(D26-Pad2)*%
X97611846Y-141456051D03*
X92531846Y-141456051D03*
%TO.P,SW26,2*%
%TO.N,col1*%
X98881846Y-138916051D03*
X91261846Y-138916051D03*
%TD*%
%TO.P,SW18,1*%
%TO.N,Net-(D18-Pad2)*%
X130531846Y-117706051D03*
X135611846Y-117706051D03*
%TO.P,SW18,2*%
%TO.N,col5*%
X136881846Y-115166051D03*
X129261846Y-115166051D03*
%TD*%
D13*
%TO.P,L5,1,VDD*%
%TO.N,VCC*%
X111761846Y-63421051D03*
%TO.P,L5,2,DOUT*%
%TO.N,Net-(L4-Pad4)*%
X111761846Y-65171051D03*
%TO.P,L5,3,VSS*%
%TO.N,GND*%
X116361846Y-65171051D03*
%TO.P,L5,4,DIN*%
%TO.N,Net-(L5-Pad4)*%
X116361846Y-63421051D03*
%TD*%
%TO.P,L16,1,VDD*%
%TO.N,VCC*%
X92761846Y-91921051D03*
%TO.P,L16,2,DOUT*%
%TO.N,Net-(L15-Pad4)*%
X92761846Y-93671051D03*
%TO.P,L16,3,VSS*%
%TO.N,GND*%
X97361846Y-93671051D03*
%TO.P,L16,4,DIN*%
%TO.N,Net-(L16-Pad4)*%
X97361846Y-91921051D03*
%TD*%
D12*
%TO.P,SW21,1*%
%TO.N,Net-(D21-Pad2)*%
X78611846Y-127206051D03*
X73531846Y-127206051D03*
%TO.P,SW21,2*%
%TO.N,col2*%
X79881846Y-124666051D03*
X72261846Y-124666051D03*
%TD*%
D15*
%TO.P,L30,1,VDD*%
%TO.N,VCC*%
X173932843Y-182841752D03*
%TO.P,L30,2,DOUT*%
%TO.N,Net-(L29-Pad4)*%
X172346805Y-183581334D03*
%TO.P,L30,3,VSS*%
%TO.N,GND*%
X174290849Y-187750350D03*
%TO.P,L30,4,DIN*%
%TO.N,Net-(L24-Pad2)*%
X175876887Y-187010768D03*
%TD*%
D16*
%TO.P,U1,1,TX0/PD3*%
%TO.N,LED*%
X164148225Y-70347873D03*
X147609410Y-69152128D03*
%TO.P,U1,2,RX1/PD2*%
%TO.N,SERIAL*%
X164148225Y-72887873D03*
X147609410Y-71692128D03*
%TO.P,U1,3,GND*%
%TO.N,GND*%
X164148225Y-75427873D03*
X147609410Y-74232128D03*
%TO.P,U1,4,GND*%
X164148225Y-77967873D03*
X147609410Y-76772128D03*
%TO.P,U1,5,2/PD1*%
%TO.N,Net-(J1-Pad1)*%
X164148225Y-80507873D03*
X147609410Y-79312128D03*
%TO.P,U1,6,3/PD0*%
%TO.N,Net-(J1-Pad2)*%
X147609410Y-81852128D03*
X164148225Y-83047873D03*
%TO.P,U1,7,4/PD4*%
%TO.N,col0*%
X164148225Y-85587873D03*
X147609410Y-84392128D03*
%TO.P,U1,8,5/PC6*%
%TO.N,col1*%
X164148225Y-88127873D03*
X147609410Y-86932128D03*
%TO.P,U1,9,6/PD7*%
%TO.N,col2*%
X164148225Y-90667873D03*
X147609410Y-89472128D03*
%TO.P,U1,10,7/PE6*%
%TO.N,col3*%
X164148225Y-93207873D03*
X147609410Y-92012128D03*
%TO.P,U1,11,8/PB4*%
%TO.N,col4*%
X164148225Y-95747873D03*
X147609410Y-94552128D03*
%TO.P,U1,12,9/PB5*%
%TO.N,col5*%
X164148225Y-98287873D03*
X147609410Y-97092128D03*
%TO.P,U1,13,10/PB6*%
%TO.N,row4*%
X162849410Y-97092128D03*
X148908225Y-98287873D03*
%TO.P,U1,14,16/PB2*%
%TO.N,row3*%
X162849410Y-94552128D03*
X148908225Y-95747873D03*
%TO.P,U1,15,14/PB3*%
%TO.N,row2*%
X148908225Y-93207873D03*
X162849410Y-92012128D03*
%TO.P,U1,16,15/PB1*%
%TO.N,row1*%
X162849410Y-89472128D03*
X148908225Y-90667873D03*
%TO.P,U1,17,A0/PF7*%
%TO.N,row0*%
X148908225Y-88127873D03*
X162849410Y-86932128D03*
%TO.P,U1,18,A1/PF6*%
%TO.N,ENC_B*%
X162849410Y-84392128D03*
X148908225Y-85587873D03*
%TO.P,U1,19,A2/PF5*%
%TO.N,ENC_A*%
X148908225Y-83047873D03*
X162849410Y-81852128D03*
%TO.P,U1,20,A3/PF4*%
%TO.N,unconnected-(U1-Pad20)*%
X162849410Y-79312128D03*
X148908225Y-80507873D03*
%TO.P,U1,21,VCC*%
%TO.N,VCC*%
X162849410Y-76772128D03*
X148908225Y-77967873D03*
%TO.P,U1,22,RST*%
%TO.N,Net-(B1-Pad1)*%
X148908225Y-75427873D03*
X162849410Y-74232128D03*
%TO.P,U1,23,GND*%
%TO.N,GND*%
X162849410Y-71692128D03*
X148908225Y-72887873D03*
%TO.P,U1,24,RAW*%
%TO.N,unconnected-(U1-Pad24)*%
X162849410Y-69152128D03*
X148908225Y-70347873D03*
%TD*%
D13*
%TO.P,L12,1,VDD*%
%TO.N,VCC*%
X135361846Y-88921051D03*
%TO.P,L12,2,DOUT*%
%TO.N,Net-(L12-Pad2)*%
X135361846Y-87171051D03*
%TO.P,L12,3,VSS*%
%TO.N,GND*%
X130761846Y-87171051D03*
%TO.P,L12,4,DIN*%
%TO.N,Net-(L11-Pad2)*%
X130761846Y-88921051D03*
%TD*%
D12*
%TO.P,SW22,1*%
%TO.N,Net-(D22-Pad2)*%
X92531846Y-122456051D03*
X97611846Y-122456051D03*
%TO.P,SW22,2*%
%TO.N,col3*%
X91261846Y-119916051D03*
X98881846Y-119916051D03*
%TD*%
%TO.P,SW17,1*%
%TO.N,Net-(D17-Pad2)*%
X111531846Y-112956051D03*
X116611846Y-112956051D03*
%TO.P,SW17,2*%
%TO.N,col4*%
X110261846Y-110416051D03*
X117881846Y-110416051D03*
%TD*%
D13*
%TO.P,L15,1,VDD*%
%TO.N,VCC*%
X73761846Y-96671051D03*
%TO.P,L15,2,DOUT*%
%TO.N,Net-(L14-Pad4)*%
X73761846Y-98421051D03*
%TO.P,L15,3,VSS*%
%TO.N,GND*%
X78361846Y-98421051D03*
%TO.P,L15,4,DIN*%
%TO.N,Net-(L15-Pad4)*%
X78361846Y-96671051D03*
%TD*%
%TO.P,L13,1,VDD*%
%TO.N,VCC*%
X35761846Y-110921051D03*
%TO.P,L13,2,DOUT*%
%TO.N,Net-(L13-Pad2)*%
X35761846Y-112671051D03*
%TO.P,L13,3,VSS*%
%TO.N,GND*%
X40361846Y-112671051D03*
%TO.P,L13,4,DIN*%
%TO.N,Net-(L13-Pad4)*%
X40361846Y-110921051D03*
%TD*%
D14*
%TO.P,D12,1,K*%
%TO.N,row1*%
X133081846Y-100396051D03*
%TO.P,D12,2,A*%
%TO.N,Net-(D12-Pad2)*%
X133081846Y-97096051D03*
%TD*%
D13*
%TO.P,L18,1,VDD*%
%TO.N,VCC*%
X130761846Y-106171051D03*
%TO.P,L18,2,DOUT*%
%TO.N,Net-(L17-Pad4)*%
X130761846Y-107921051D03*
%TO.P,L18,3,VSS*%
%TO.N,GND*%
X135361846Y-107921051D03*
%TO.P,L18,4,DIN*%
%TO.N,Net-(L12-Pad2)*%
X135361846Y-106171051D03*
%TD*%
D12*
%TO.P,SW8,1*%
%TO.N,Net-(D8-Pad2)*%
X59611846Y-98706051D03*
X54531846Y-98706051D03*
%TO.P,SW8,2*%
%TO.N,col1*%
X53261846Y-96166051D03*
X60881846Y-96166051D03*
%TD*%
D13*
%TO.P,L21,1,VDD*%
%TO.N,VCC*%
X78361846Y-117421051D03*
%TO.P,L21,2,DOUT*%
%TO.N,Net-(L21-Pad2)*%
X78361846Y-115671051D03*
%TO.P,L21,3,VSS*%
%TO.N,GND*%
X73761846Y-115671051D03*
%TO.P,L21,4,DIN*%
%TO.N,Net-(L20-Pad2)*%
X73761846Y-117421051D03*
%TD*%
D12*
%TO.P,SW6,1*%
%TO.N,Net-(D6-Pad2)*%
X135611846Y-79706051D03*
X130531846Y-79706051D03*
%TO.P,SW6,2*%
%TO.N,col5*%
X136881846Y-77166051D03*
X129261846Y-77166051D03*
%TD*%
%TO.P,SW14,1*%
%TO.N,Net-(D14-Pad2)*%
X59611846Y-117706051D03*
X54531846Y-117706051D03*
%TO.P,SW14,2*%
%TO.N,col1*%
X60881846Y-115166051D03*
X53261846Y-115166051D03*
%TD*%
D14*
%TO.P,D27,1,K*%
%TO.N,row4*%
X114081846Y-152646051D03*
%TO.P,D27,2,A*%
%TO.N,Net-(D27-Pad2)*%
X114081846Y-149346051D03*
%TD*%
D17*
%TO.P,U2,1,SLEEVE*%
%TO.N,GND*%
X153312500Y-104975000D03*
X153312500Y-111525000D03*
%TO.P,U2,2,TIP*%
%TO.N,VCC*%
X154412500Y-106925000D03*
X154412500Y-109575000D03*
%TO.P,U2,3,RING1*%
%TO.N,SERIAL*%
X158412500Y-106925000D03*
X158412500Y-109575000D03*
%TO.P,U2,4,RING2*%
%TO.N,unconnected-(U2-Pad4)*%
X161412500Y-109575000D03*
X161412500Y-106925000D03*
%TD*%
D14*
%TO.P,D17,1,K*%
%TO.N,row2*%
X114081846Y-114646051D03*
%TO.P,D17,2,A*%
%TO.N,Net-(D17-Pad2)*%
X114081846Y-111346051D03*
%TD*%
D13*
%TO.P,L26,1,VDD*%
%TO.N,VCC*%
X92761846Y-129921051D03*
%TO.P,L26,2,DOUT*%
%TO.N,Net-(L25-Pad4)*%
X92761846Y-131671051D03*
%TO.P,L26,3,VSS*%
%TO.N,GND*%
X97361846Y-131671051D03*
%TO.P,L26,4,DIN*%
%TO.N,Net-(L26-Pad4)*%
X97361846Y-129921051D03*
%TD*%
D12*
%TO.P,SW9,1*%
%TO.N,Net-(D9-Pad2)*%
X78611846Y-89206051D03*
X73531846Y-89206051D03*
%TO.P,SW9,2*%
%TO.N,col2*%
X72261846Y-86666051D03*
X79881846Y-86666051D03*
%TD*%
%TO.P,SW4,1*%
%TO.N,Net-(D4-Pad2)*%
X97611846Y-65456051D03*
X92531846Y-65456051D03*
%TO.P,SW4,2*%
%TO.N,col3*%
X91261846Y-62916051D03*
X98881846Y-62916051D03*
%TD*%
%TO.P,B1,1,1*%
%TO.N,Net-(B1-Pad1)*%
X150000000Y-108000000D03*
%TO.P,B1,2,2*%
%TO.N,GND*%
X150000000Y-114000000D03*
%TO.P,B1,3,3*%
%TO.N,unconnected-(B1-Pad3)*%
X146000000Y-108000000D03*
%TO.P,B1,4,4*%
%TO.N,unconnected-(B1-Pad4)*%
X146000000Y-114000000D03*
%TD*%
D14*
%TO.P,D5,1,K*%
%TO.N,row0*%
X114081846Y-76646051D03*
%TO.P,D5,2,A*%
%TO.N,Net-(D5-Pad2)*%
X114081846Y-73346051D03*
%TD*%
D13*
%TO.P,L24,1,VDD*%
%TO.N,VCC*%
X135361846Y-126921051D03*
%TO.P,L24,2,DOUT*%
%TO.N,Net-(L24-Pad2)*%
X135361846Y-125171051D03*
%TO.P,L24,3,VSS*%
%TO.N,GND*%
X130761846Y-125171051D03*
%TO.P,L24,4,DIN*%
%TO.N,Net-(L23-Pad2)*%
X130761846Y-126921051D03*
%TD*%
D14*
%TO.P,D22,1,K*%
%TO.N,row3*%
X95081846Y-124146051D03*
%TO.P,D22,2,A*%
%TO.N,Net-(D22-Pad2)*%
X95081846Y-120846051D03*
%TD*%
D13*
%TO.P,L14,1,VDD*%
%TO.N,VCC*%
X54761846Y-106171051D03*
%TO.P,L14,2,DOUT*%
%TO.N,Net-(L13-Pad4)*%
X54761846Y-107921051D03*
%TO.P,L14,3,VSS*%
%TO.N,GND*%
X59361846Y-107921051D03*
%TO.P,L14,4,DIN*%
%TO.N,Net-(L14-Pad4)*%
X59361846Y-106171051D03*
%TD*%
D12*
%TO.P,SW2,1*%
%TO.N,Net-(D2-Pad2)*%
X54531846Y-79706051D03*
X59611846Y-79706051D03*
%TO.P,SW2,2*%
%TO.N,col1*%
X60881846Y-77166051D03*
X53261846Y-77166051D03*
%TD*%
D14*
%TO.P,D24,1,K*%
%TO.N,row3*%
X133081846Y-138396051D03*
%TO.P,D24,2,A*%
%TO.N,Net-(D24-Pad2)*%
X133081846Y-135096051D03*
%TD*%
D13*
%TO.P,L23,1,VDD*%
%TO.N,VCC*%
X116300000Y-122125000D03*
%TO.P,L23,2,DOUT*%
%TO.N,Net-(L23-Pad2)*%
X116300000Y-120375000D03*
%TO.P,L23,3,VSS*%
%TO.N,GND*%
X111700000Y-120375000D03*
%TO.P,L23,4,DIN*%
%TO.N,Net-(L22-Pad2)*%
X111700000Y-122125000D03*
%TD*%
D12*
%TO.P,SW29,1*%
%TO.N,Net-(D29-Pad2)*%
X150223693Y-170592102D03*
X153815795Y-174184205D03*
%TO.P,SW29,2*%
%TO.N,col4*%
X151121718Y-167898026D03*
X156509872Y-173286179D03*
%TD*%
%TO.P,SW15,1*%
%TO.N,Net-(D15-Pad2)*%
X78611846Y-108206051D03*
X73531846Y-108206051D03*
%TO.P,SW15,2*%
%TO.N,col2*%
X72261846Y-105666051D03*
X79881846Y-105666051D03*
%TD*%
D18*
%TO.P,L29,1,VDD*%
%TO.N,VCC*%
X158604219Y-162550987D03*
%TO.P,L29,2,DOUT*%
%TO.N,Net-(L28-Pad4)*%
X157366782Y-163788424D03*
%TO.P,L29,3,VSS*%
%TO.N,GND*%
X160619473Y-167041115D03*
%TO.P,L29,4,DIN*%
%TO.N,Net-(L29-Pad4)*%
X161856910Y-165803678D03*
%TD*%
D13*
%TO.P,L6,1,VDD*%
%TO.N,VCC*%
X130761846Y-68171051D03*
%TO.P,L6,2,DOUT*%
%TO.N,Net-(L5-Pad4)*%
X130761846Y-69921051D03*
%TO.P,L6,3,VSS*%
%TO.N,GND*%
X135361846Y-69921051D03*
%TO.P,L6,4,DIN*%
%TO.N,LED*%
X135361846Y-68171051D03*
%TD*%
D14*
%TO.P,D18,1,K*%
%TO.N,row2*%
X133081846Y-119396051D03*
%TO.P,D18,2,A*%
%TO.N,Net-(D18-Pad2)*%
X133081846Y-116096051D03*
%TD*%
%TO.P,D20,1,K*%
%TO.N,row3*%
X57081846Y-138396051D03*
%TO.P,D20,2,A*%
%TO.N,Net-(D20-Pad2)*%
X57081846Y-135096051D03*
%TD*%
D12*
%TO.P,SW16,1*%
%TO.N,Net-(D16-Pad2)*%
X97611846Y-103456051D03*
X92531846Y-103456051D03*
%TO.P,SW16,2*%
%TO.N,col3*%
X98881846Y-100916051D03*
X91261846Y-100916051D03*
%TD*%
D13*
%TO.P,L7,1,VDD*%
%TO.N,VCC*%
X40361846Y-93671051D03*
%TO.P,L7,2,DOUT*%
%TO.N,Net-(L7-Pad2)*%
X40361846Y-91921051D03*
%TO.P,L7,3,VSS*%
%TO.N,GND*%
X35761846Y-91921051D03*
%TO.P,L7,4,DIN*%
%TO.N,Net-(L1-Pad2)*%
X35761846Y-93671051D03*
%TD*%
D12*
%TO.P,SW24,1*%
%TO.N,Net-(D24-Pad2)*%
X130531846Y-136706051D03*
X135611846Y-136706051D03*
%TO.P,SW24,2*%
%TO.N,col5*%
X129261846Y-134166051D03*
X136881846Y-134166051D03*
%TD*%
D14*
%TO.P,D6,1,K*%
%TO.N,row0*%
X133081846Y-81396051D03*
%TO.P,D6,2,A*%
%TO.N,Net-(D6-Pad2)*%
X133081846Y-78096051D03*
%TD*%
D12*
%TO.P,SW23,1*%
%TO.N,Net-(D23-Pad2)*%
X116611846Y-131956051D03*
X111531846Y-131956051D03*
%TO.P,SW23,2*%
%TO.N,col4*%
X110261846Y-129416051D03*
X117881846Y-129416051D03*
%TD*%
D14*
%TO.P,D16,1,K*%
%TO.N,row2*%
X95081846Y-105146051D03*
%TO.P,D16,2,A*%
%TO.N,Net-(D16-Pad2)*%
X95081846Y-101846051D03*
%TD*%
%TO.P,D4,1,K*%
%TO.N,row0*%
X95081846Y-67146051D03*
%TO.P,D4,2,A*%
%TO.N,Net-(D4-Pad2)*%
X95081846Y-63846051D03*
%TD*%
%TO.P,D1,1,K*%
%TO.N,row0*%
X38081846Y-86146051D03*
%TO.P,D1,2,A*%
%TO.N,Net-(D1-Pad2)*%
X38081846Y-82846051D03*
%TD*%
D12*
%TO.P,SW20,1*%
%TO.N,Net-(D20-Pad2)*%
X54531846Y-136706051D03*
X59611846Y-136706051D03*
%TO.P,SW20,2*%
%TO.N,col1*%
X53261846Y-134166051D03*
X60881846Y-134166051D03*
%TD*%
D13*
%TO.P,L9,1,VDD*%
%TO.N,VCC*%
X78361846Y-79421051D03*
%TO.P,L9,2,DOUT*%
%TO.N,Net-(L10-Pad4)*%
X78361846Y-77671051D03*
%TO.P,L9,3,VSS*%
%TO.N,GND*%
X73761846Y-77671051D03*
%TO.P,L9,4,DIN*%
%TO.N,Net-(L8-Pad2)*%
X73761846Y-79421051D03*
%TD*%
D19*
%TO.P,D30,1,K*%
%TO.N,row4*%
X162504592Y-190947320D03*
%TO.P,D30,2,A*%
%TO.N,Net-(D30-Pad2)*%
X165495408Y-189552680D03*
%TD*%
D13*
%TO.P,L17,1,VDD*%
%TO.N,VCC*%
X111761846Y-101421051D03*
%TO.P,L17,2,DOUT*%
%TO.N,Net-(L16-Pad4)*%
X111761846Y-103171051D03*
%TO.P,L17,3,VSS*%
%TO.N,GND*%
X116361846Y-103171051D03*
%TO.P,L17,4,DIN*%
%TO.N,Net-(L17-Pad4)*%
X116361846Y-101421051D03*
%TD*%
D14*
%TO.P,D10,1,K*%
%TO.N,row1*%
X95081846Y-86146051D03*
%TO.P,D10,2,A*%
%TO.N,Net-(D10-Pad2)*%
X95081846Y-82846051D03*
%TD*%
%TO.P,D3,1,K*%
%TO.N,row0*%
X76081846Y-71896051D03*
%TO.P,D3,2,A*%
%TO.N,Net-(D3-Pad2)*%
X76081846Y-68596051D03*
%TD*%
D20*
%TO.P,E1,*%
%TO.N,*%
X161350000Y-125500000D03*
X150150000Y-125500000D03*
D21*
%TO.P,E1,A,A*%
%TO.N,ENC_A*%
X158250000Y-118000000D03*
D22*
%TO.P,E1,B,B*%
%TO.N,ENC_B*%
X153250000Y-118000000D03*
%TO.P,E1,C,C*%
%TO.N,GND*%
X155750000Y-118000000D03*
%TO.P,E1,S1,S1*%
%TO.N,unconnected-(E1-PadS1)*%
X153250000Y-132500000D03*
%TO.P,E1,S2,S2*%
%TO.N,unconnected-(E1-PadS2)*%
X158250000Y-132500000D03*
%TD*%
D13*
%TO.P,L25,1,VDD*%
%TO.N,VCC*%
X73761846Y-134671051D03*
%TO.P,L25,2,DOUT*%
%TO.N,unconnected-(L25-Pad2)*%
X73761846Y-136421051D03*
%TO.P,L25,3,VSS*%
%TO.N,GND*%
X78361846Y-136421051D03*
%TO.P,L25,4,DIN*%
%TO.N,Net-(L25-Pad4)*%
X78361846Y-134671051D03*
%TD*%
D14*
%TO.P,D23,1,K*%
%TO.N,row3*%
X114081846Y-133646051D03*
%TO.P,D23,2,A*%
%TO.N,Net-(D23-Pad2)*%
X114081846Y-130346051D03*
%TD*%
%TO.P,D14,1,K*%
%TO.N,row2*%
X57081846Y-119396051D03*
%TO.P,D14,2,A*%
%TO.N,Net-(D14-Pad2)*%
X57081846Y-116096051D03*
%TD*%
%TO.P,D7,1,K*%
%TO.N,row1*%
X38081846Y-105146051D03*
%TO.P,D7,2,A*%
%TO.N,Net-(D7-Pad2)*%
X38081846Y-101846051D03*
%TD*%
D13*
%TO.P,L8,1,VDD*%
%TO.N,VCC*%
X59361846Y-88921051D03*
%TO.P,L8,2,DOUT*%
%TO.N,Net-(L8-Pad2)*%
X59361846Y-87171051D03*
%TO.P,L8,3,VSS*%
%TO.N,GND*%
X54761846Y-87171051D03*
%TO.P,L8,4,DIN*%
%TO.N,Net-(L7-Pad2)*%
X54761846Y-88921051D03*
%TD*%
D14*
%TO.P,D9,1,K*%
%TO.N,row1*%
X76081846Y-90896051D03*
%TO.P,D9,2,A*%
%TO.N,Net-(D9-Pad2)*%
X76081846Y-87596051D03*
%TD*%
D12*
%TO.P,SW1,1*%
%TO.N,Net-(D1-Pad2)*%
X40611846Y-84456051D03*
X35531846Y-84456051D03*
%TO.P,SW1,2*%
%TO.N,col0*%
X41881846Y-81916051D03*
X34261846Y-81916051D03*
%TD*%
%TO.P,SW3,1*%
%TO.N,Net-(D3-Pad2)*%
X73531846Y-70206051D03*
X78611846Y-70206051D03*
%TO.P,SW3,2*%
%TO.N,col2*%
X72261846Y-67666051D03*
X79881846Y-67666051D03*
%TD*%
D14*
%TO.P,D19,1,K*%
%TO.N,row3*%
X38081846Y-143146051D03*
%TO.P,D19,2,A*%
%TO.N,Net-(D19-Pad2)*%
X38081846Y-139846051D03*
%TD*%
D12*
%TO.P,SW11,1*%
%TO.N,Net-(D11-Pad2)*%
X116611846Y-93956051D03*
X111531846Y-93956051D03*
%TO.P,SW11,2*%
%TO.N,col4*%
X117881846Y-91416051D03*
X110261846Y-91416051D03*
%TD*%
D13*
%TO.P,L22,1,VDD*%
%TO.N,VCC*%
X97361846Y-112671051D03*
%TO.P,L22,2,DOUT*%
%TO.N,Net-(L22-Pad2)*%
X97361846Y-110921051D03*
%TO.P,L22,3,VSS*%
%TO.N,GND*%
X92761846Y-110921051D03*
%TO.P,L22,4,DIN*%
%TO.N,Net-(L21-Pad2)*%
X92761846Y-112671051D03*
%TD*%
%TO.P,L1,1,VDD*%
%TO.N,VCC*%
X35761846Y-72921051D03*
%TO.P,L1,2,DOUT*%
%TO.N,Net-(L1-Pad2)*%
X35761846Y-74671051D03*
%TO.P,L1,3,VSS*%
%TO.N,GND*%
X40361846Y-74671051D03*
%TO.P,L1,4,DIN*%
%TO.N,Net-(L1-Pad4)*%
X40361846Y-72921051D03*
%TD*%
D12*
%TO.P,SW19,1*%
%TO.N,Net-(D19-Pad2)*%
X35531846Y-141456051D03*
X40611846Y-141456051D03*
%TO.P,SW19,2*%
%TO.N,col0*%
X34261846Y-138916051D03*
X41881846Y-138916051D03*
%TD*%
%TO.P,SW25,1*%
%TO.N,Net-(D25-Pad2)*%
X73531846Y-146206051D03*
X78611846Y-146206051D03*
%TO.P,SW25,2*%
%TO.N,col0*%
X72261846Y-143666051D03*
X79881846Y-143666051D03*
%TD*%
D23*
%TO.P,D29,1,K*%
%TO.N,row4*%
X150833274Y-173666726D03*
%TO.P,D29,2,A*%
%TO.N,Net-(D29-Pad2)*%
X153166726Y-171333274D03*
%TD*%
D12*
%TO.P,SW27,1*%
%TO.N,Net-(D27-Pad2)*%
X111531846Y-150956051D03*
X116611846Y-150956051D03*
%TO.P,SW27,2*%
%TO.N,col2*%
X117881846Y-148416051D03*
X110261846Y-148416051D03*
%TD*%
D24*
%TO.P,L28,1,VDD*%
%TO.N,VCC*%
X137397129Y-148531010D03*
%TO.P,L28,2,DOUT*%
%TO.N,Net-(L27-Pad4)*%
X136657547Y-150117048D03*
%TO.P,L28,3,VSS*%
%TO.N,GND*%
X140826563Y-152061092D03*
%TO.P,L28,4,DIN*%
%TO.N,Net-(L28-Pad4)*%
X141566145Y-150475054D03*
%TD*%
D12*
%TO.P,SW30,1*%
%TO.N,Net-(D30-Pad2)*%
X165581253Y-192244974D03*
X163434352Y-187640930D03*
%TO.P,SW30,2*%
%TO.N,col5*%
X165199649Y-185416469D03*
X168420000Y-192322534D03*
%TD*%
D13*
%TO.P,L11,1,VDD*%
%TO.N,VCC*%
X116361846Y-84171051D03*
%TO.P,L11,2,DOUT*%
%TO.N,Net-(L11-Pad2)*%
X116361846Y-82421051D03*
%TO.P,L11,3,VSS*%
%TO.N,GND*%
X111761846Y-82421051D03*
%TO.P,L11,4,DIN*%
%TO.N,Net-(L10-Pad2)*%
X111761846Y-84171051D03*
%TD*%
D14*
%TO.P,D11,1,K*%
%TO.N,row1*%
X114081846Y-95646051D03*
%TO.P,D11,2,A*%
%TO.N,Net-(D11-Pad2)*%
X114081846Y-92346051D03*
%TD*%
%TO.P,D15,1,K*%
%TO.N,row2*%
X76081846Y-109896051D03*
%TO.P,D15,2,A*%
%TO.N,Net-(D15-Pad2)*%
X76081846Y-106596051D03*
%TD*%
D13*
%TO.P,L3,1,VDD*%
%TO.N,VCC*%
X73761846Y-58671051D03*
%TO.P,L3,2,DOUT*%
%TO.N,Net-(L2-Pad4)*%
X73761846Y-60421051D03*
%TO.P,L3,3,VSS*%
%TO.N,GND*%
X78361846Y-60421051D03*
%TO.P,L3,4,DIN*%
%TO.N,Net-(L3-Pad4)*%
X78361846Y-58671051D03*
%TD*%
D25*
%TO.P,D28,1,K*%
%TO.N,row4*%
X133685667Y-162050493D03*
%TO.P,D28,2,A*%
%TO.N,Net-(D28-Pad2)*%
X134814333Y-158949507D03*
%TD*%
D12*
%TO.P,SW12,1*%
%TO.N,Net-(D12-Pad2)*%
X135611846Y-98706051D03*
X130531846Y-98706051D03*
%TO.P,SW12,2*%
%TO.N,col5*%
X129261846Y-96166051D03*
X136881846Y-96166051D03*
%TD*%
D14*
%TO.P,D8,1,K*%
%TO.N,row1*%
X57081846Y-100396051D03*
%TO.P,D8,2,A*%
%TO.N,Net-(D8-Pad2)*%
X57081846Y-97096051D03*
%TD*%
D12*
%TO.P,SW28,1*%
%TO.N,Net-(D28-Pad2)*%
X136766967Y-160973545D03*
X132162924Y-158826644D03*
%TO.P,SW28,2*%
%TO.N,col3*%
X138991429Y-159208249D03*
X132085363Y-155987897D03*
%TD*%
D26*
%TO.P,J1,1,P1*%
%TO.N,Net-(J1-Pad1)*%
X151468511Y-100838511D03*
X160358511Y-102108511D03*
%TO.P,J1,2,P2*%
%TO.N,Net-(J1-Pad2)*%
X157818511Y-102108511D03*
X154008511Y-100838511D03*
%TO.P,J1,3,P3*%
%TO.N,VCC*%
X156548511Y-100838511D03*
X155278511Y-102108511D03*
%TO.P,J1,4,P4*%
%TO.N,GND*%
X152738511Y-102108511D03*
X159088511Y-100838511D03*
%TD*%
D13*
%TO.P,L4,1,VDD*%
%TO.N,VCC*%
X92761846Y-53921051D03*
%TO.P,L4,2,DOUT*%
%TO.N,Net-(L3-Pad4)*%
X92761846Y-55671051D03*
%TO.P,L4,3,VSS*%
%TO.N,GND*%
X97361846Y-55671051D03*
%TO.P,L4,4,DIN*%
%TO.N,Net-(L4-Pad4)*%
X97361846Y-53921051D03*
%TD*%
D27*
%TO.N,GND*%
X175356925Y-187966131D03*
X92096470Y-73813772D03*
X98007955Y-92796051D03*
X79007955Y-135546051D03*
X136012250Y-107042233D03*
X79007955Y-59546051D03*
X79007955Y-97546051D03*
X73115737Y-116546051D03*
X41012250Y-111792233D03*
X111111442Y-83299869D03*
X41007954Y-73796051D03*
X161684067Y-167037718D03*
X60007955Y-107046051D03*
X130096470Y-88063772D03*
X141781927Y-151541130D03*
X92115737Y-111796051D03*
X130111442Y-126049869D03*
X117007955Y-102296051D03*
X136007955Y-69046051D03*
X117012250Y-140292233D03*
X35096470Y-92813772D03*
X117007954Y-64296051D03*
X60007954Y-69046051D03*
X54115737Y-126046051D03*
X111053891Y-121250000D03*
X98012250Y-130792233D03*
X98007955Y-54796051D03*
X54111442Y-88049869D03*
X35115737Y-130796051D03*
X73111442Y-78549869D03*
%TO.N,VCC*%
X41007954Y-92796051D03*
X92115737Y-130796051D03*
X98007955Y-73796051D03*
X136007955Y-88046051D03*
X92115737Y-92796051D03*
X54115738Y-69046051D03*
X136441766Y-149050972D03*
X98007955Y-111796051D03*
X79007954Y-116546051D03*
X60007955Y-126046051D03*
X172866767Y-182625971D03*
X79007955Y-78546051D03*
X111115737Y-140296051D03*
X92115738Y-54796051D03*
X73115738Y-135546051D03*
X60007955Y-88046051D03*
X41007955Y-130796051D03*
X130115737Y-107046051D03*
X35115737Y-111796051D03*
X157528634Y-162712839D03*
X54115738Y-107046051D03*
X117007954Y-83296051D03*
X111115738Y-64296050D03*
X35115738Y-73796052D03*
X136007954Y-126046051D03*
X73115738Y-59546050D03*
X111115738Y-102296050D03*
X73115737Y-97546051D03*
X116946108Y-121250000D03*
X130115738Y-69046050D03*
%TO.N,LED*%
X137006382Y-68999704D03*
%TO.N,Net-(L1-Pad2)*%
X34097731Y-92852825D03*
X34116247Y-73800889D03*
%TO.N,Net-(L1-Pad4)*%
X53118248Y-68982650D03*
X42007442Y-73801499D03*
%TO.N,Net-(L2-Pad4)*%
X72118248Y-59482649D03*
X61006327Y-68998554D03*
%TO.N,Net-(L3-Pad4)*%
X91118249Y-54732649D03*
X80006162Y-59495161D03*
%TO.N,Net-(L4-Pad4)*%
X99006382Y-54749704D03*
X110118248Y-64232650D03*
%TO.N,Net-(L5-Pad4)*%
X118006161Y-64245161D03*
X129117646Y-68992960D03*
%TO.N,Net-(L13-Pad4)*%
X42010119Y-111735110D03*
X53118953Y-106972400D03*
%TO.N,Net-(L7-Pad2)*%
X42005444Y-92859452D03*
X53112852Y-88092565D03*
%TO.N,Net-(L8-Pad2)*%
X72113573Y-78606992D03*
X61005445Y-88109452D03*
%TO.N,Net-(L10-Pad2)*%
X110113573Y-83356992D03*
X99004740Y-73869702D03*
%TO.N,Net-(L10-Pad4)*%
X80004740Y-78619702D03*
X91097391Y-73842868D03*
%TO.N,Net-(L11-Pad2)*%
X118004739Y-83369702D03*
X129097391Y-88092868D03*
%TO.N,Net-(L13-Pad2)*%
X34118247Y-130859452D03*
X34118247Y-111732650D03*
%TO.N,Net-(L12-Pad2)*%
X137010119Y-106985110D03*
X137005445Y-88109452D03*
%TO.N,Net-(L14-Pad4)*%
X61005539Y-106984141D03*
X72118952Y-97472400D03*
%TO.N,Net-(L15-Pad4)*%
X80005444Y-97482649D03*
X91118952Y-92722400D03*
%TO.N,Net-(L16-Pad4)*%
X110118248Y-102232650D03*
X99005445Y-92732650D03*
%TO.N,Net-(L17-Pad4)*%
X129118247Y-106982650D03*
X118005539Y-102234141D03*
%TO.N,Net-(L19-Pad2)*%
X42004740Y-130869702D03*
X53118247Y-126109452D03*
%TO.N,Net-(L20-Pad2)*%
X61005445Y-126109452D03*
X72118153Y-116607961D03*
%TO.N,Net-(L21-Pad2)*%
X80005443Y-116609453D03*
X91118153Y-111857961D03*
%TO.N,Net-(L22-Pad2)*%
X110056307Y-121311910D03*
X99004740Y-111869702D03*
%TO.N,Net-(L23-Pad2)*%
X117942893Y-121323651D03*
X129113573Y-126106993D03*
%TO.N,Net-(L24-Pad2)*%
X175804956Y-188859593D03*
X137005444Y-126109452D03*
%TO.N,unconnected-(L25-Pad2)*%
X72118249Y-135482649D03*
%TO.N,Net-(L25-Pad4)*%
X80005539Y-135484141D03*
X91118952Y-130722400D03*
%TO.N,Net-(L26-Pad4)*%
X110118248Y-140232649D03*
X99010119Y-130735110D03*
%TO.N,Net-(L27-Pad4)*%
X135489700Y-148746708D03*
X118010059Y-140234070D03*
%TO.N,Net-(L28-Pad4)*%
X156669461Y-162202126D03*
X142624150Y-152079335D03*
%TO.N,Net-(L29-Pad4)*%
X162089321Y-167951378D03*
X172361486Y-181763593D03*
%TD*%
D28*
%TO.N,Net-(B1-Pad1)*%
X150000000Y-110002811D02*
X150000000Y-108000000D01*
X166714296Y-106618543D02*
X160632839Y-112700000D01*
X164489040Y-74232128D02*
X166714296Y-76457384D01*
X166714296Y-76457384D02*
X166714296Y-106618543D01*
X162849410Y-74232128D02*
X164489040Y-74232128D01*
X148908225Y-75427873D02*
X161653665Y-75427873D01*
X160632839Y-112700000D02*
X152697189Y-112700000D01*
X161653665Y-75427873D02*
X162849410Y-74232128D01*
X152697189Y-112700000D02*
X150000000Y-110002811D01*
D29*
%TO.N,GND*%
X150000000Y-114000000D02*
X150000000Y-123200000D01*
X135286846Y-107921051D02*
X139678949Y-107921051D01*
X73111442Y-78396455D02*
X73836846Y-77671051D01*
X92096470Y-73813772D02*
X92096470Y-73661427D01*
X161653665Y-72887873D02*
X162849410Y-71692128D01*
X152015020Y-157745544D02*
X139700000Y-145430524D01*
X60007954Y-69046051D02*
X60007954Y-70657793D01*
X141781927Y-151541130D02*
X141246856Y-151541130D01*
X98012250Y-130945647D02*
X97286846Y-131671051D01*
X139700000Y-123200000D02*
X139700000Y-107900000D01*
X79007955Y-97546051D02*
X79007955Y-97699942D01*
X41012250Y-111792233D02*
X41012250Y-111945647D01*
X79007955Y-135699942D02*
X78286846Y-136421051D01*
X35096470Y-92661427D02*
X35836846Y-91921051D01*
X60007954Y-70657793D02*
X63441867Y-74091706D01*
X60007955Y-107199942D02*
X59286846Y-107921051D01*
X117012250Y-140292233D02*
X117012250Y-140445647D01*
X159910588Y-167750000D02*
X159750000Y-167750000D01*
X35115737Y-130796051D02*
X35115737Y-130642160D01*
X40286846Y-74671051D02*
X40286846Y-74517159D01*
X79007955Y-135546051D02*
X79007955Y-135699942D01*
X98007955Y-92949942D02*
X97286846Y-93671051D01*
X73111442Y-78549869D02*
X73111442Y-78396455D01*
X98007955Y-92796051D02*
X98007955Y-92949942D01*
X54115737Y-125892160D02*
X54836846Y-125171051D01*
X159750000Y-167750000D02*
X159532929Y-167532929D01*
X98012250Y-130792233D02*
X98012250Y-130945647D01*
X139678949Y-107921051D02*
X139700000Y-107900000D01*
X141246856Y-151541130D02*
X140758590Y-152029396D01*
X130111442Y-125896455D02*
X130836846Y-125171051D01*
X92115737Y-111796051D02*
X92115737Y-111642160D01*
X111053891Y-121250000D02*
X111053891Y-121096109D01*
X150550000Y-123200000D02*
X150000000Y-123200000D01*
X173227861Y-187966131D02*
X171465949Y-186204219D01*
X159532929Y-167532154D02*
X152015020Y-160014245D01*
X97286846Y-55517160D02*
X98007955Y-54796051D01*
X130836846Y-86401616D02*
X130836846Y-87171051D01*
X152015020Y-160014245D02*
X152015020Y-157745544D01*
X136068769Y-86055531D02*
X131182931Y-86055531D01*
X175356925Y-187966131D02*
X174542906Y-187966131D01*
X73115737Y-116546051D02*
X73115737Y-116392160D01*
X173975398Y-187966131D02*
X173227861Y-187966131D01*
X117007955Y-102296051D02*
X117007955Y-102449942D01*
X56500000Y-85100000D02*
X55400000Y-85100000D01*
X130836846Y-87323396D02*
X130096470Y-88063772D01*
X54836846Y-85663154D02*
X54836846Y-87171051D01*
X136007955Y-69046051D02*
X136007955Y-69199942D01*
X78286846Y-60421051D02*
X78286846Y-60267160D01*
X92096470Y-73661427D02*
X92836846Y-72921051D01*
X59286846Y-69921051D02*
X59286846Y-69767159D01*
X174542906Y-187966131D02*
X174259152Y-187682377D01*
X160619473Y-167041115D02*
X159910588Y-167750000D01*
X148908225Y-72887873D02*
X161653665Y-72887873D01*
X130111442Y-126049869D02*
X130111442Y-125896455D01*
X136012250Y-107042233D02*
X136012250Y-107195647D01*
X150000000Y-123200000D02*
X139700000Y-123200000D01*
X159532929Y-167532929D02*
X159532929Y-167532154D01*
X171465949Y-186204219D02*
X171465949Y-179465949D01*
X111111442Y-83146455D02*
X111836846Y-82421051D01*
X97286846Y-55671051D02*
X97286846Y-55517160D01*
X132001897Y-123200000D02*
X139700000Y-123200000D01*
X63441867Y-74091706D02*
X63441867Y-78158133D01*
X92115737Y-111642160D02*
X92836846Y-110921051D01*
X111111442Y-83299869D02*
X111111442Y-83146455D01*
X139700000Y-89686762D02*
X136068769Y-86055531D01*
X160566440Y-166988082D02*
X161634431Y-166988082D01*
X59286846Y-69767159D02*
X60007954Y-69046051D01*
X117007955Y-102449942D02*
X116286846Y-103171051D01*
X139700000Y-107900000D02*
X139700000Y-89686762D01*
X161634431Y-166988082D02*
X161684067Y-167037718D01*
X136007955Y-69199942D02*
X135286846Y-69921051D01*
X55400000Y-85100000D02*
X54836846Y-85663154D01*
X139700000Y-145430524D02*
X139700000Y-123200000D01*
X78286846Y-60267160D02*
X79007955Y-59546051D01*
X131182931Y-86055531D02*
X130836846Y-86401616D01*
X40286846Y-74517159D02*
X41007954Y-73796051D01*
X130836846Y-125171051D02*
X130836846Y-124365051D01*
X130836846Y-87171051D02*
X130836846Y-87323396D01*
X35096470Y-92813772D02*
X35096470Y-92661427D01*
X130836846Y-124365051D02*
X132001897Y-123200000D01*
X116286846Y-65171051D02*
X116286846Y-65017159D01*
X63441867Y-78158133D02*
X56500000Y-85100000D01*
X41012250Y-111945647D02*
X40286846Y-112671051D01*
X73115737Y-116392160D02*
X73836846Y-115671051D01*
X117012250Y-140445647D02*
X116286846Y-141171051D01*
X174259152Y-187682377D02*
X173975398Y-187966131D01*
X60007955Y-107046051D02*
X60007955Y-107199942D01*
X54111442Y-87896455D02*
X54836846Y-87171051D01*
X136012250Y-107195647D02*
X135286846Y-107921051D01*
X111053891Y-121096109D02*
X111775000Y-120375000D01*
X54111442Y-88049869D02*
X54111442Y-87896455D01*
X155750000Y-118000000D02*
X150550000Y-123200000D01*
X171465949Y-179465949D02*
X159750000Y-167750000D01*
X35115737Y-130642160D02*
X35836846Y-129921051D01*
X79007955Y-97699942D02*
X78286846Y-98421051D01*
X54115737Y-126046051D02*
X54115737Y-125892160D01*
X116286846Y-65017159D02*
X117007954Y-64296051D01*
D28*
%TO.N,ENC_A*%
X148908225Y-83047873D02*
X161653665Y-83047873D01*
X161653665Y-83047873D02*
X162849410Y-81852128D01*
%TO.N,ENC_B*%
X148908225Y-85587873D02*
X161653665Y-85587873D01*
X161653665Y-85587873D02*
X162849410Y-84392128D01*
%TO.N,Net-(J1-Pad1)*%
X162499864Y-102108511D02*
X165684256Y-98924119D01*
X165684256Y-82043904D02*
X164148225Y-80507873D01*
X165684256Y-98924119D02*
X165684256Y-82043904D01*
X160358511Y-102108511D02*
X162499864Y-102108511D01*
%TO.N,Net-(J1-Pad2)*%
X164522658Y-99450000D02*
X165234736Y-98737922D01*
X159030265Y-99450000D02*
X164522658Y-99450000D01*
X157818511Y-100661754D02*
X159030265Y-99450000D01*
X165234736Y-98737922D02*
X165234736Y-84134384D01*
X157818511Y-102108511D02*
X157818511Y-100661754D01*
X165234736Y-84134384D02*
X164148225Y-83047873D01*
D29*
%TO.N,VCC*%
X59286846Y-88921051D02*
X59286846Y-88767160D01*
X73836846Y-134824943D02*
X73115738Y-135546051D01*
X111836846Y-139574942D02*
X111115737Y-140296051D01*
X35115738Y-73642159D02*
X35836846Y-72921051D01*
X92115738Y-54796051D02*
X92115738Y-54642159D01*
X73836846Y-134671051D02*
X73836846Y-134824943D01*
X54836846Y-106324943D02*
X54115738Y-107046051D01*
X97286846Y-112671051D02*
X97286846Y-112517160D01*
X136007955Y-88046051D02*
X136007955Y-88199942D01*
X40286846Y-131671051D02*
X40286846Y-131517160D01*
X78286846Y-79421051D02*
X78286846Y-79267160D01*
X135286846Y-126767159D02*
X136007954Y-126046051D01*
X111836846Y-139421051D02*
X111836846Y-139574942D01*
X78286846Y-79267160D02*
X79007955Y-78546051D01*
X35115738Y-73796052D02*
X35115738Y-73642159D01*
X97286846Y-112517160D02*
X98007955Y-111796051D01*
X111115738Y-102296050D02*
X111115738Y-102142159D01*
X173680786Y-182625971D02*
X173964540Y-182909725D01*
X172866767Y-182625971D02*
X173680786Y-182625971D01*
X73836846Y-96671051D02*
X73836846Y-96824942D01*
X97286846Y-74517160D02*
X98007955Y-73796051D01*
X111115738Y-64296050D02*
X111115738Y-64142159D01*
X135286846Y-126921051D02*
X135286846Y-126767159D01*
X116286846Y-84171051D02*
X116286846Y-84017159D01*
X157637453Y-162604020D02*
X157528634Y-162712839D01*
X116225000Y-122125000D02*
X116225000Y-121971108D01*
X41007954Y-92796051D02*
X41007954Y-92949943D01*
X130836846Y-106171051D02*
X130836846Y-106324942D01*
X158657252Y-162604020D02*
X157637453Y-162604020D01*
X137465102Y-148562706D02*
X136930032Y-148562706D01*
X116286846Y-84017159D02*
X117007954Y-83296051D01*
X92836846Y-130074942D02*
X92115737Y-130796051D01*
X73115738Y-59546050D02*
X73115738Y-59392159D01*
X162849410Y-76772128D02*
X164581671Y-76772128D01*
X92836846Y-92074942D02*
X92115737Y-92796051D01*
X156367022Y-103197022D02*
X155278511Y-102108511D01*
X40286846Y-131517160D02*
X41007955Y-130796051D01*
X136007955Y-88199942D02*
X135286846Y-88921051D01*
X78286846Y-117267159D02*
X79007954Y-116546051D01*
X166199276Y-99137447D02*
X162139701Y-103197022D01*
X130836846Y-106324942D02*
X130115737Y-107046051D01*
X111115738Y-64142159D02*
X111836846Y-63421051D01*
X116225000Y-121971108D02*
X116946108Y-121250000D01*
X92115738Y-54642159D02*
X92836846Y-53921051D01*
X148908225Y-77967873D02*
X161653665Y-77967873D01*
X60007955Y-126046051D02*
X60007955Y-126199942D01*
X111115738Y-102142159D02*
X111836846Y-101421051D01*
X130115738Y-68892159D02*
X130836846Y-68171051D01*
X78286846Y-117421051D02*
X78286846Y-117267159D01*
X92836846Y-91921051D02*
X92836846Y-92074942D01*
X97286846Y-74671051D02*
X97286846Y-74517160D01*
X92836846Y-129921051D02*
X92836846Y-130074942D01*
X59286846Y-88767160D02*
X60007955Y-88046051D01*
X161653665Y-77967873D02*
X162849410Y-76772128D01*
X136930032Y-148562706D02*
X136441766Y-149050972D01*
X73836846Y-96824942D02*
X73115737Y-97546051D01*
X54115738Y-69046051D02*
X54115738Y-68892159D01*
X162139701Y-103197022D02*
X156367022Y-103197022D01*
X35836846Y-110921051D02*
X35836846Y-111074942D01*
X60007955Y-126199942D02*
X59286846Y-126921051D01*
X154412500Y-106925000D02*
X156367022Y-104970478D01*
X41007954Y-92949943D02*
X40286846Y-93671051D01*
X166199276Y-78389733D02*
X166199276Y-99137447D01*
X130115738Y-69046050D02*
X130115738Y-68892159D01*
X156367022Y-104970478D02*
X156367022Y-103197022D01*
X73115738Y-59392159D02*
X73836846Y-58671051D01*
X35836846Y-111074942D02*
X35115737Y-111796051D01*
X54115738Y-68892159D02*
X54836846Y-68171051D01*
X164581671Y-76772128D02*
X166199276Y-78389733D01*
X54836846Y-106171051D02*
X54836846Y-106324943D01*
D28*
%TO.N,LED*%
X136177729Y-68171051D02*
X137006382Y-68999704D01*
X135286846Y-68171051D02*
X136177729Y-68171051D01*
%TO.N,col0*%
X54013803Y-66250480D02*
X64100000Y-66250480D01*
X104978965Y-62200000D02*
X116985614Y-62200000D01*
X41881846Y-138916051D02*
X46631846Y-143666051D01*
X68048470Y-62302010D02*
X85062716Y-62302010D01*
X120937054Y-66151440D02*
X136187157Y-66151440D01*
X99881455Y-57102490D02*
X104978965Y-62200000D01*
X31767325Y-138017325D02*
X32666051Y-138916051D01*
X142462620Y-72426903D02*
X142462620Y-79245338D01*
X32666051Y-119916051D02*
X34261846Y-119916051D01*
X142462620Y-79245338D02*
X147609410Y-84392128D01*
X90262238Y-57102490D02*
X99881455Y-57102490D01*
X41881846Y-78382437D02*
X54013803Y-66250480D01*
X31767325Y-84410572D02*
X31767325Y-99977164D01*
X34261846Y-100916051D02*
X31767325Y-103410572D01*
X136187157Y-66151440D02*
X142462620Y-72426903D01*
X31767325Y-119017325D02*
X32666051Y-119916051D01*
X46631846Y-143666051D02*
X72261846Y-143666051D01*
X85062716Y-62302010D02*
X90262238Y-57102490D01*
X31767325Y-122410572D02*
X31767325Y-138017325D01*
X64100000Y-66250480D02*
X68048470Y-62302010D01*
X31767325Y-99977164D02*
X32706212Y-100916051D01*
X34261846Y-119916051D02*
X31767325Y-122410572D01*
X32706212Y-100916051D02*
X34261846Y-100916051D01*
X31767325Y-103410572D02*
X31767325Y-119017325D01*
X41881846Y-81916051D02*
X41881846Y-78382437D01*
X32666051Y-138916051D02*
X34261846Y-138916051D01*
X34261846Y-81916051D02*
X31767325Y-84410572D01*
X116985614Y-62200000D02*
X120937054Y-66151440D01*
%TO.N,col1*%
X85248914Y-62751530D02*
X90448435Y-57552010D01*
X99695258Y-57552010D02*
X103417859Y-61274611D01*
X103417859Y-61282141D02*
X108736678Y-66600960D01*
X50767325Y-95267325D02*
X51666051Y-96166051D01*
X136000960Y-66600960D02*
X142013100Y-72613100D01*
X50767325Y-133267325D02*
X51666051Y-134166051D01*
X51666051Y-134166051D02*
X53261846Y-134166051D01*
X142013100Y-72613100D02*
X142013100Y-81335818D01*
X90448435Y-57552010D02*
X99695258Y-57552010D01*
X60881846Y-134166051D02*
X62437480Y-134166051D01*
X50767325Y-113133265D02*
X52800111Y-115166051D01*
X53261846Y-70150862D02*
X52393737Y-69282753D01*
X51666051Y-96166051D02*
X53261846Y-96166051D01*
X53261846Y-115166051D02*
X50767325Y-117660572D01*
X50767325Y-79660572D02*
X50767325Y-95267325D01*
X52393737Y-68506263D02*
X54200000Y-66700000D01*
X54200000Y-66700000D02*
X64400000Y-66700000D01*
X64400000Y-66700000D02*
X68348470Y-62751530D01*
X62437480Y-134166051D02*
X64603531Y-132000000D01*
X142013100Y-81335818D02*
X147609410Y-86932128D01*
X103417859Y-61274611D02*
X103417859Y-61282141D01*
X83884060Y-132000000D02*
X90800111Y-138916051D01*
X52393737Y-69282753D02*
X52393737Y-68506263D01*
X68348470Y-62751530D02*
X85248914Y-62751530D01*
X53261846Y-77166051D02*
X50767325Y-79660572D01*
X64603531Y-132000000D02*
X83884060Y-132000000D01*
X53261846Y-96166051D02*
X50767325Y-98660572D01*
X50767325Y-98660572D02*
X50767325Y-113133265D01*
X50767325Y-117660572D02*
X50767325Y-133267325D01*
X108736678Y-66600960D02*
X136000960Y-66600960D01*
X53261846Y-77166051D02*
X53261846Y-70150862D01*
%TO.N,row0*%
X161653665Y-88127873D02*
X162849410Y-86932128D01*
X148908225Y-88127873D02*
X161653665Y-88127873D01*
%TO.N,col2*%
X122994208Y-71350960D02*
X138150887Y-71350960D01*
X107000000Y-132750000D02*
X107000000Y-145615940D01*
X72261846Y-86666051D02*
X69767325Y-89160572D01*
X138150887Y-71350960D02*
X141563580Y-74763653D01*
X72261846Y-67666051D02*
X69767325Y-70160572D01*
X107000000Y-145615940D02*
X109800111Y-148416051D01*
X79881846Y-67666051D02*
X80970111Y-67666051D01*
X71166051Y-124666051D02*
X72261846Y-124666051D01*
X69767325Y-85767325D02*
X70666051Y-86666051D01*
X101500000Y-127250000D02*
X107000000Y-132750000D01*
X141563580Y-83426298D02*
X147609410Y-89472128D01*
X102250000Y-60742470D02*
X102250000Y-60750000D01*
X69767325Y-123267325D02*
X71166051Y-124666051D01*
X72261846Y-105666051D02*
X69767325Y-108160572D01*
X79881846Y-124666051D02*
X82465795Y-127250000D01*
X71166051Y-105666051D02*
X72261846Y-105666051D01*
X69767325Y-108160572D02*
X69767325Y-123267325D01*
X118693728Y-67050480D02*
X122994208Y-71350960D01*
X82465795Y-127250000D02*
X101500000Y-127250000D01*
X102250000Y-60750000D02*
X108550480Y-67050480D01*
X108550480Y-67050480D02*
X118693728Y-67050480D01*
X69767325Y-70160572D02*
X69767325Y-85767325D01*
X90634632Y-58001530D02*
X99509060Y-58001530D01*
X141563580Y-74763653D02*
X141563580Y-83426298D01*
X69767325Y-89160572D02*
X69767325Y-104267325D01*
X99509060Y-58001530D02*
X102250000Y-60742470D01*
X70666051Y-86666051D02*
X72261846Y-86666051D01*
X80970111Y-67666051D02*
X90634632Y-58001530D01*
X69767325Y-104267325D02*
X71166051Y-105666051D01*
%TO.N,col3*%
X88767325Y-65410572D02*
X88767325Y-80977164D01*
X88767325Y-118977164D02*
X89706212Y-119916051D01*
X130783282Y-154685816D02*
X132085363Y-155987897D01*
X90166051Y-100916051D02*
X91261846Y-100916051D01*
X88767325Y-84410572D02*
X88767325Y-99517325D01*
X89706212Y-119916051D02*
X91261846Y-119916051D01*
X91261846Y-100916051D02*
X88767325Y-103410572D01*
X89706212Y-81916051D02*
X91261846Y-81916051D01*
X122808010Y-71800480D02*
X137964690Y-71800480D01*
X98881846Y-121471685D02*
X113910161Y-136500000D01*
X113910161Y-136500000D02*
X117250000Y-136500000D01*
X91261846Y-81916051D02*
X88767325Y-84410572D01*
X88767325Y-99517325D02*
X90166051Y-100916051D01*
X137964690Y-71800480D02*
X141114060Y-74949850D01*
X98881846Y-119916051D02*
X98881846Y-121471685D01*
X88767325Y-103410572D02*
X88767325Y-118977164D01*
X130783282Y-150033282D02*
X130783282Y-154685816D01*
X88767325Y-80977164D02*
X89706212Y-81916051D01*
X91261846Y-62916051D02*
X88767325Y-65410572D01*
X103465795Y-67500000D02*
X118507530Y-67500000D01*
X141114060Y-74949850D02*
X141114060Y-85516778D01*
X118507530Y-67500000D02*
X122808010Y-71800480D01*
X117250000Y-136500000D02*
X130783282Y-150033282D01*
X98881846Y-62916051D02*
X103465795Y-67500000D01*
X141114060Y-85516778D02*
X147609410Y-92012128D01*
%TO.N,col4*%
X129715795Y-141250000D02*
X133519693Y-141250000D01*
X109166051Y-110416051D02*
X110261846Y-110416051D01*
X140664540Y-75164540D02*
X140664540Y-87607258D01*
X107767325Y-109017325D02*
X109166051Y-110416051D01*
X140664540Y-87607258D02*
X147609410Y-94552128D01*
X110261846Y-72416051D02*
X107767325Y-74910572D01*
X110261846Y-110416051D02*
X107767325Y-112910572D01*
X133519693Y-141250000D02*
X150021719Y-157752026D01*
X150021719Y-166798027D02*
X151121718Y-167898026D01*
X117881846Y-129416051D02*
X129715795Y-141250000D01*
X107767325Y-74910572D02*
X107767325Y-89383265D01*
X107767325Y-112910572D02*
X107767325Y-128017325D01*
X107767325Y-128017325D02*
X109166051Y-129416051D01*
X107767325Y-93910572D02*
X107767325Y-109017325D01*
X118047897Y-72250000D02*
X137750000Y-72250000D01*
X110261846Y-91416051D02*
X107767325Y-93910572D01*
X137750000Y-72250000D02*
X140664540Y-75164540D01*
X150021719Y-157752026D02*
X150021719Y-166798027D01*
X109166051Y-129416051D02*
X110261846Y-129416051D01*
X107767325Y-89383265D02*
X109800111Y-91416051D01*
%TO.N,col5*%
X127666051Y-96166051D02*
X129261846Y-96166051D01*
X165199649Y-174063931D02*
X165199649Y-185416469D01*
X140215020Y-89697738D02*
X147609410Y-97092128D01*
X151500000Y-160364282D02*
X165199649Y-174063931D01*
X136881846Y-77166051D02*
X140215020Y-80499225D01*
X137981845Y-144440716D02*
X151500000Y-157958872D01*
X136881846Y-134166051D02*
X137981845Y-135266050D01*
X137981845Y-135266050D02*
X137981845Y-144440716D01*
X129261846Y-96166051D02*
X126767325Y-98660572D01*
X140215020Y-80499225D02*
X140215020Y-89697738D01*
X126767325Y-98660572D02*
X126767325Y-113267325D01*
X129261846Y-115166051D02*
X126767325Y-117660572D01*
X126767325Y-132517325D02*
X128416051Y-134166051D01*
X126767325Y-79660572D02*
X126767325Y-95267325D01*
X151500000Y-157958872D02*
X151500000Y-160364282D01*
X129261846Y-77166051D02*
X126767325Y-79660572D01*
X126767325Y-113267325D02*
X128666051Y-115166051D01*
X126767325Y-95267325D02*
X127666051Y-96166051D01*
X126767325Y-117660572D02*
X126767325Y-132517325D01*
%TO.N,row4*%
X161653665Y-98287873D02*
X162849410Y-97092128D01*
X148908225Y-98287873D02*
X161653665Y-98287873D01*
%TO.N,row3*%
X148908225Y-95747873D02*
X161653665Y-95747873D01*
X161653665Y-95747873D02*
X162849410Y-94552128D01*
%TO.N,row2*%
X161653665Y-93207873D02*
X162849410Y-92012128D01*
X148908225Y-93207873D02*
X161653665Y-93207873D01*
%TO.N,row1*%
X161653665Y-90667873D02*
X162849410Y-89472128D01*
X148908225Y-90667873D02*
X161653665Y-90667873D01*
%TO.N,unconnected-(U1-Pad20)*%
X161653665Y-80507873D02*
X162849410Y-79312128D01*
X148908225Y-80507873D02*
X161653665Y-80507873D01*
%TO.N,unconnected-(U1-Pad24)*%
X161001538Y-71000000D02*
X162849410Y-69152128D01*
X148908225Y-70347873D02*
X149560352Y-71000000D01*
X149560352Y-71000000D02*
X161001538Y-71000000D01*
%TO.N,Net-(L1-Pad2)*%
X36956357Y-82595998D02*
X36956357Y-89443643D01*
X34116247Y-73821175D02*
X34966123Y-74671051D01*
X34216367Y-79856008D02*
X36956357Y-82595998D01*
X34915957Y-93671051D02*
X34097731Y-92852825D01*
X34216367Y-73901009D02*
X34216367Y-79856008D01*
X34116247Y-73800889D02*
X34116247Y-73821175D01*
X34116247Y-73800889D02*
X34216367Y-73901009D01*
X36956357Y-89443643D02*
X34097731Y-92302269D01*
X35836846Y-93671051D02*
X34915957Y-93671051D01*
X34966123Y-74671051D02*
X35836846Y-74671051D01*
X34097731Y-92302269D02*
X34097731Y-92852825D01*
%TO.N,Net-(L1-Pad4)*%
X53966124Y-69921051D02*
X53118248Y-69073175D01*
X40286846Y-72921051D02*
X41157568Y-72921051D01*
X54836846Y-69921051D02*
X53966124Y-69921051D01*
X53118248Y-69073175D02*
X53118248Y-68982650D01*
X41157568Y-72921051D02*
X42007442Y-73770925D01*
X42007442Y-73770925D02*
X42007442Y-73801499D01*
%TO.N,Net-(L2-Pad4)*%
X72966125Y-60421051D02*
X72118248Y-59573174D01*
X61006327Y-68998554D02*
X60178824Y-68171051D01*
X72118248Y-59573174D02*
X72118248Y-59482649D01*
X73836846Y-60421051D02*
X72966125Y-60421051D01*
X60178824Y-68171051D02*
X59286846Y-68171051D01*
%TO.N,Net-(L3-Pad4)*%
X79182052Y-58671051D02*
X78286846Y-58671051D01*
X91966124Y-55671051D02*
X91118249Y-54823176D01*
X80006162Y-59495161D02*
X79182052Y-58671051D01*
X92836846Y-55671051D02*
X91966124Y-55671051D01*
X91118249Y-54823176D02*
X91118249Y-54732649D01*
%TO.N,Net-(L4-Pad4)*%
X110966125Y-65171051D02*
X110118248Y-64323174D01*
X99006382Y-54749704D02*
X98177729Y-53921051D01*
X110118248Y-64323174D02*
X110118248Y-64232650D01*
X111836846Y-65171051D02*
X110966125Y-65171051D01*
X98177729Y-53921051D02*
X97286846Y-53921051D01*
%TO.N,Net-(L5-Pad4)*%
X118006161Y-64245161D02*
X117182051Y-63421051D01*
X129117646Y-69072572D02*
X129966125Y-69921051D01*
X129966125Y-69921051D02*
X130836846Y-69921051D01*
X117182051Y-63421051D02*
X116286846Y-63421051D01*
X129117646Y-68992960D02*
X129117646Y-69072572D01*
%TO.N,Net-(L13-Pad4)*%
X53118953Y-107073880D02*
X53966124Y-107921051D01*
X53966124Y-107921051D02*
X54836846Y-107921051D01*
X53118953Y-106972400D02*
X53118953Y-107073880D01*
X41196060Y-110921051D02*
X42010119Y-111735110D01*
X40286846Y-110921051D02*
X41196060Y-110921051D01*
%TO.N,Net-(L7-Pad2)*%
X40286846Y-91921051D02*
X41157568Y-91921051D01*
X41157568Y-91921051D02*
X42005444Y-92768927D01*
X42005444Y-92768927D02*
X42005444Y-92859452D01*
X54836846Y-88921051D02*
X53941338Y-88921051D01*
X53941338Y-88921051D02*
X53112852Y-88092565D01*
%TO.N,Net-(L8-Pad2)*%
X72927632Y-79421051D02*
X72113573Y-78606992D01*
X61005445Y-88109452D02*
X61005445Y-88018927D01*
X73836846Y-79421051D02*
X72927632Y-79421051D01*
X60157569Y-87171051D02*
X59286846Y-87171051D01*
X61005445Y-88018927D02*
X60157569Y-87171051D01*
%TO.N,Net-(L10-Pad2)*%
X110113573Y-83356992D02*
X110927632Y-84171051D01*
X110927632Y-84171051D02*
X111836846Y-84171051D01*
X99004740Y-73768222D02*
X98157569Y-72921051D01*
X99004740Y-73869702D02*
X99004740Y-73768222D01*
X98157569Y-72921051D02*
X97286846Y-72921051D01*
%TO.N,Net-(L10-Pad4)*%
X80004740Y-78518222D02*
X79157569Y-77671051D01*
X92836846Y-74671051D02*
X91925574Y-74671051D01*
X91925574Y-74671051D02*
X91097391Y-73842868D01*
X79157569Y-77671051D02*
X78286846Y-77671051D01*
X80004740Y-78619702D02*
X80004740Y-78518222D01*
%TO.N,Net-(L11-Pad2)*%
X129925574Y-88921051D02*
X130836846Y-88921051D01*
X117157568Y-82421051D02*
X118004739Y-83268222D01*
X118004739Y-83268222D02*
X118004739Y-83369702D01*
X129097391Y-88092868D02*
X129925574Y-88921051D01*
X116286846Y-82421051D02*
X117157568Y-82421051D01*
%TO.N,Net-(L13-Pad2)*%
X34929846Y-131671051D02*
X34118247Y-130859452D01*
X34118247Y-111732650D02*
X34118247Y-111823175D01*
X34118247Y-116780533D02*
X37000000Y-119662286D01*
X34118247Y-130240628D02*
X34118247Y-130859452D01*
X34966123Y-112671051D02*
X35836846Y-112671051D01*
X34118247Y-111732650D02*
X34118247Y-116780533D01*
X37000000Y-127358875D02*
X34118247Y-130240628D01*
X35836846Y-131671051D02*
X34929846Y-131671051D01*
X37000000Y-119662286D02*
X37000000Y-127358875D01*
X34118247Y-111823175D02*
X34966123Y-112671051D01*
%TO.N,Net-(L12-Pad2)*%
X137005445Y-88109452D02*
X136927325Y-88187572D01*
X136927325Y-94196966D02*
X138400000Y-95669641D01*
X137005445Y-88018927D02*
X137005445Y-88109452D01*
X135286846Y-106171051D02*
X136196060Y-106171051D01*
X138400000Y-105595229D02*
X137010119Y-106985110D01*
X136927325Y-88187572D02*
X136927325Y-94196966D01*
X138400000Y-95669641D02*
X138400000Y-105595229D01*
X136196060Y-106171051D02*
X137010119Y-106985110D01*
X135286846Y-87171051D02*
X136157569Y-87171051D01*
X136157569Y-87171051D02*
X137005445Y-88018927D01*
%TO.N,Net-(L14-Pad4)*%
X72966123Y-98421051D02*
X73836846Y-98421051D01*
X60192449Y-106171051D02*
X61005539Y-106984141D01*
X72118952Y-97472400D02*
X72118952Y-97573880D01*
X72118952Y-97573880D02*
X72966123Y-98421051D01*
X59286846Y-106171051D02*
X60192449Y-106171051D01*
%TO.N,Net-(L15-Pad4)*%
X91118952Y-92722400D02*
X91118952Y-92823880D01*
X78286846Y-96671051D02*
X79193846Y-96671051D01*
X79193846Y-96671051D02*
X80005444Y-97482649D01*
X91966123Y-93671051D02*
X92836846Y-93671051D01*
X91118952Y-92823880D02*
X91966123Y-93671051D01*
%TO.N,Net-(L16-Pad4)*%
X110966125Y-103171051D02*
X110118248Y-102323174D01*
X98193846Y-91921051D02*
X99005445Y-92732650D01*
X97286846Y-91921051D02*
X98193846Y-91921051D01*
X111836846Y-103171051D02*
X110966125Y-103171051D01*
X110118248Y-102323174D02*
X110118248Y-102232650D01*
%TO.N,Net-(L17-Pad4)*%
X129118247Y-107073175D02*
X129966123Y-107921051D01*
X117192449Y-101421051D02*
X118005539Y-102234141D01*
X129118247Y-106982650D02*
X129118247Y-107073175D01*
X116286846Y-101421051D02*
X117192449Y-101421051D01*
X129966123Y-107921051D02*
X130836846Y-107921051D01*
%TO.N,Net-(L19-Pad2)*%
X54836846Y-126921051D02*
X53929846Y-126921051D01*
X42004740Y-130768222D02*
X41157569Y-129921051D01*
X53929846Y-126921051D02*
X53118247Y-126109452D01*
X42004740Y-130869702D02*
X42004740Y-130768222D01*
X41157569Y-129921051D02*
X40286846Y-129921051D01*
%TO.N,Net-(L20-Pad2)*%
X73836846Y-117421051D02*
X72931243Y-117421051D01*
X61005445Y-126018927D02*
X60157569Y-125171051D01*
X60157569Y-125171051D02*
X59286846Y-125171051D01*
X72931243Y-117421051D02*
X72118153Y-116607961D01*
X61005445Y-126109452D02*
X61005445Y-126018927D01*
%TO.N,Net-(L21-Pad2)*%
X91931243Y-112671051D02*
X91118153Y-111857961D01*
X92836846Y-112671051D02*
X91931243Y-112671051D01*
X80005443Y-116609453D02*
X80005443Y-116518926D01*
X80005443Y-116518926D02*
X79157568Y-115671051D01*
X79157568Y-115671051D02*
X78286846Y-115671051D01*
%TO.N,Net-(L22-Pad2)*%
X111775000Y-122125000D02*
X110869397Y-122125000D01*
X110869397Y-122125000D02*
X110056307Y-121311910D01*
X99004740Y-111869702D02*
X99004740Y-111768222D01*
X98157569Y-110921051D02*
X97286846Y-110921051D01*
X99004740Y-111768222D02*
X98157569Y-110921051D01*
%TO.N,Net-(L23-Pad2)*%
X117942893Y-121222171D02*
X117095722Y-120375000D01*
X129927631Y-126921051D02*
X129113573Y-126106993D01*
X130836846Y-126921051D02*
X129927631Y-126921051D01*
X117095722Y-120375000D02*
X116225000Y-120375000D01*
X117942893Y-121323651D02*
X117942893Y-121222171D01*
%TO.N,Net-(L24-Pad2)*%
X136927325Y-132106008D02*
X134187335Y-134845998D01*
X137005444Y-126109452D02*
X136927325Y-126187571D01*
X136157568Y-125171051D02*
X135286846Y-125171051D01*
X150500000Y-160000000D02*
X161518663Y-171018663D01*
X161518663Y-191418663D02*
X163847045Y-193747045D01*
X134187335Y-134845998D02*
X134187335Y-141281924D01*
X136927325Y-126187571D02*
X136927325Y-132106008D01*
X137005444Y-126109452D02*
X137005444Y-126018927D01*
X134187335Y-141281924D02*
X150500000Y-157594589D01*
X163847045Y-193747045D02*
X171652955Y-193747045D01*
X161518663Y-171018663D02*
X161518663Y-191418663D01*
X137005444Y-126018927D02*
X136157568Y-125171051D01*
X175845191Y-186942795D02*
X176089749Y-187187353D01*
X176089749Y-187187353D02*
X176089749Y-188574800D01*
X176089749Y-188574800D02*
X175804956Y-188859593D01*
X150500000Y-157594589D02*
X150500000Y-160000000D01*
X171652955Y-193747045D02*
X175804956Y-189595044D01*
X175804956Y-189595044D02*
X175804956Y-188859593D01*
%TO.N,unconnected-(L25-Pad2)*%
X73836846Y-136421051D02*
X72966124Y-136421051D01*
X72118249Y-135573176D02*
X72118249Y-135482649D01*
X72966124Y-136421051D02*
X72118249Y-135573176D01*
%TO.N,Net-(L25-Pad4)*%
X91966123Y-131671051D02*
X92836846Y-131671051D01*
X78286846Y-134671051D02*
X79192449Y-134671051D01*
X91118952Y-130823880D02*
X91966123Y-131671051D01*
X79192449Y-134671051D02*
X80005539Y-135484141D01*
X91118952Y-130722400D02*
X91118952Y-130823880D01*
%TO.N,Net-(L26-Pad4)*%
X110118248Y-140323176D02*
X110966123Y-141171051D01*
X110966123Y-141171051D02*
X111836846Y-141171051D01*
X110118248Y-140232649D02*
X110118248Y-140323176D01*
X97286846Y-129921051D02*
X98196060Y-129921051D01*
X98196060Y-129921051D02*
X99010119Y-130735110D01*
%TO.N,Net-(L27-Pad4)*%
X117197040Y-139421051D02*
X118010059Y-140234070D01*
X116286846Y-139421051D02*
X117197040Y-139421051D01*
X136366922Y-150148745D02*
X136725520Y-150148745D01*
X135489700Y-148746708D02*
X135489700Y-149271523D01*
X135489700Y-149271523D02*
X136366922Y-150148745D01*
%TO.N,Net-(L28-Pad4)*%
X156669461Y-163091103D02*
X157419815Y-163841457D01*
X156669461Y-162202126D02*
X156669461Y-163091103D01*
X141498172Y-150443357D02*
X141856770Y-150443357D01*
X141856770Y-150443357D02*
X142624150Y-151210737D01*
X142624150Y-151210737D02*
X142624150Y-152079335D01*
%TO.N,Net-(L29-Pad4)*%
X162408578Y-166355346D02*
X162408578Y-167632121D01*
X162408578Y-167632121D02*
X162089321Y-167951378D01*
X161803877Y-165750645D02*
X162408578Y-166355346D01*
X172133943Y-181991136D02*
X172361486Y-181763593D01*
X172133943Y-183404749D02*
X172133943Y-181991136D01*
X172378501Y-183649307D02*
X172133943Y-183404749D01*
%TD*%
M02*
